<svg xmlns="http://www.w3.org/2000/svg" viewBox="0 0 321.84 322"><defs><style>.cls-1{fill:#293e65;}.cls-2{fill:#00347b;}.cls-3{fill:#001737;}.cls-4{fill:#2fc0f0;}.cls-5{fill:#3d9ae2;}.cls-6{fill:#b00e0e;}.cls-7{fill:#d01273;}.cls-8{fill:#f5f0eb;}.cls-9{fill:#ebe1dc;}.cls-10{fill:#2196f3;}.cls-11{fill:#ff1f3e;}.cls-12{fill:#c9001c;}</style></defs><title>Asset 129</title><g id="Layer_2" data-name="Layer 2"><g id="red"><path class="cls-1" d="M312.41,152.28H237V322h75.43a9.43,9.43,0,0,0,9.43-9.43V284.44l-10-9.43,10-9.43V246.73l-10-9.43,10-9.43V209l-10-9.43,10-9.43V161.71a9.43,9.43,0,0,0-9.43-9.43Z"/><path class="cls-1" d="M89.68,152.28H9.43A9.43,9.43,0,0,0,0,161.71v28.44l10.06,9.43L0,209v18.86l10.06,9.43L0,246.73v18.85l10.06,8.23L0,284.44v28.13A9.43,9.43,0,0,0,9.43,322H89.68Z"/><path class="cls-2" d="M160.92,87.91a9.43,9.43,0,0,1-9.43-9.43V9.43a9.43,9.43,0,0,1,18.86,0V78.48a9.43,9.43,0,0,1-9.43,9.43Z"/><path class="cls-3" d="M161.13,0V87.9a9.43,9.43,0,0,0,9.22-9.42V9.43A9.42,9.42,0,0,0,161.13,0Z"/><path class="cls-4" d="M221.9,141.75H100a9.43,9.43,0,0,1-9.43-9.43v-31a9.44,9.44,0,0,1,6.3-8.9l61-21.4A9.41,9.41,0,0,1,164,71l61,21.4a9.42,9.42,0,0,1,6.3,8.9v31a9.43,9.43,0,0,1-9.42,9.43Z"/><path class="cls-5" d="M225,92.39,164,71a9.34,9.34,0,0,0-2.91-.52v71.28H221.9a9.43,9.43,0,0,0,9.42-9.43v-31a9.42,9.42,0,0,0-6.3-8.9Z"/><path class="cls-6" d="M236.35,127.74H85.49a9.43,9.43,0,0,0-9.43,9.43V322h56.5l28.36-10.34L189.21,322h56.57V137.17a9.43,9.43,0,0,0-9.43-9.43Z"/><path class="cls-7" d="M236.35,127.74H161.13v184L189.21,322h56.57V137.17a9.43,9.43,0,0,0-9.43-9.43Z"/><path class="cls-8" d="M142.06,184.49H123.21a9.43,9.43,0,1,1,0-18.85h18.85a9.43,9.43,0,1,1,0,18.85Z"/><path class="cls-9" d="M198.64,184.49H179.78a9.43,9.43,0,1,1,0-18.85h18.86a9.43,9.43,0,1,1,0,18.85Z"/><path class="cls-8" d="M142.06,222.21H123.21a9.43,9.43,0,1,1,0-18.86h18.85a9.43,9.43,0,0,1,0,18.86Z"/><path class="cls-9" d="M198.64,222.21H179.78a9.43,9.43,0,0,1,0-18.86h18.86a9.43,9.43,0,0,1,0,18.86Z"/><path class="cls-2" d="M160.92,242.17a28.31,28.31,0,0,0-28.28,28.28L132.56,322h56.65V270.45a28.32,28.32,0,0,0-28.29-28.28Z"/><path class="cls-10" d="M321.84,190.15H288.53a9.43,9.43,0,1,0,0,18.86h33.31Z"/><path class="cls-10" d="M321.84,227.87H288.53a9.43,9.43,0,1,0,0,18.86h33.31Z"/><path class="cls-10" d="M321.84,265.58H288.53a9.43,9.43,0,1,0,0,18.86h33.31Z"/><path class="cls-10" d="M0,190.15H33.32a9.43,9.43,0,1,1,0,18.86H0Z"/><path class="cls-10" d="M0,227.87H33.32a9.43,9.43,0,1,1,0,18.86H0Z"/><path class="cls-10" d="M0,265.58H33.32a9.43,9.43,0,0,1,0,18.86H0Z"/><path class="cls-11" d="M198.64,51.39H160.92c-5.21,0-9.43-3.81-9.43-8.51V8.83c0-4.71,4.22-8.52,9.43-8.52h37.72c5.2,0,9.43,3.81,9.43,8.52V42.88c0,4.7-4.23,8.51-9.43,8.51Z"/><path class="cls-3" d="M161.13,242.17V322h28.08V270.45a28.33,28.33,0,0,0-28.08-28.28Z"/><path class="cls-12" d="M198.64.31H161.13V51.39h37.51c5.2,0,9.43-3.81,9.43-8.51V8.83c0-4.71-4.23-8.52-9.43-8.52Z"/></g></g></svg>