<svg xmlns="http://www.w3.org/2000/svg" viewBox="0 0 322 322"><defs><style>.cls-1{fill:#3d6dcc;}.cls-2{fill:#c6151d;}.cls-3{fill:#b00e0e;}.cls-4{fill:#0c83fa;}</style></defs><title>Asset 144</title><g id="Layer_2" data-name="Layer 2"><g id="red"><path class="cls-1" d="M279.23,42.14C253.58,16.48,218.29,0,179.24,0a9.34,9.34,0,0,0-9.44,9.43v132.7a9.07,9.07,0,0,0,9.44,9.44H312.57a9.35,9.35,0,0,0,9.43-9.44c0-39-17.11-74.33-42.77-100Z"/><path class="cls-2" d="M272.25,170.43H150.94V47.8a9.34,9.34,0,0,0-9.44-9.44,141.41,141.41,0,0,0-100,241.5C67.17,305.52,102.45,322,141.5,322,219.61,322,283,258,283,179.87c0-5.1-4-9.44-10.76-9.44Z"/><path class="cls-3" d="M283,179.87C283,258,219.61,322,141.5,322c-39,0-74.33-16.48-100-42.14L150.94,170.43H272.25c6.8,0,10.76,4.34,10.76,9.44Z"/><path class="cls-4" d="M322,142.13a9.35,9.35,0,0,1-9.43,9.44H179.24a10.84,10.84,0,0,1-6.79-2.65L279.23,42.14C304.89,67.8,322,103.08,322,142.13Z"/></g></g></svg>