<svg xmlns="http://www.w3.org/2000/svg" width="322" height="322" viewBox="0 0 322 322">
  <g id="Group_190" data-name="Group 190" transform="translate(-2224 -8642)">
    <g id="Group_188" data-name="Group 188">
      <path id="Path_3862" data-name="Path 3862" d="M0,161A161,161,0,0,0,161,322V0A161,161,0,0,0,0,161Z" transform="translate(2224 8642)" fill="#4e638b"/>
      <path id="Path_3863" data-name="Path 3863" d="M161,0V322A161,161,0,0,0,161,0Z" transform="translate(2224 8642)" fill="#293e65"/>
    </g>
    <g id="Group_189" data-name="Group 189" transform="translate(-552.68 -296.094)">
      <path id="Path_4032" data-name="Path 4032" d="M9.68,0V-78.422H34.563q11.375,0,18.02,4.977a15.469,15.469,0,0,1,6.645,12.961,18.507,18.507,0,0,1-3.773,11.594,20.359,20.359,0,0,1-10.445,7v.219q8.094.93,12.934,5.988t4.84,13.152a19.752,19.752,0,0,1-7.93,16.3Q46.922,0,34.836,0ZM22.641-67.977v22.313h8.422q6.781,0,10.637-3.2t3.855-9.051q0-10.063-13.453-10.062Zm0,32.758v24.828h11.1q7.273,0,11.238-3.363a11.506,11.506,0,0,0,3.965-9.27q0-12.2-16.9-12.2ZM99.632,1.313q-12.961,0-20.7-7.848T71.194-27.344q0-14.109,8.066-22.039T101-57.312q13.125,0,20.453,7.711t7.328,21.383q0,13.4-7.9,21.465T99.632,1.313Zm.6-48.508Q92.8-47.2,88.475-42t-4.32,14.328q0,8.8,4.375,13.863a14.694,14.694,0,0,0,11.7,5.059q7.492,0,11.512-4.977t4.02-14.164q0-9.242-4.02-14.273T100.233-47.2ZM170.115-.6a21.988,21.988,0,0,1-9.789,1.859q-16.3,0-16.3-15.641V-46.047h-9.352V-56h9.352V-68.961l12.688-3.609V-56h13.4v9.953h-13.4v28q0,4.977,1.8,7.109T164.537-8.8a8.723,8.723,0,0,0,5.578-1.859Zm59.6.6H217.028V-30.625q0-16.625-11.1-16.625a11.611,11.611,0,0,0-9.406,4.813q-3.828,4.812-3.828,12.3V0H179.95V-82.906h12.742v36.2h.219q6.344-10.609,18.156-10.609,18.648,0,18.648,22.8Z" transform="translate(2818 9140)" fill="#dfe7f4"/>
      <path id="Subtraction_18" data-name="Subtraction 18" d="M89.952,238.218A32.837,32.837,0,0,1,78.3,236.257a25.118,25.118,0,0,1-9.045-5.885,25.631,25.631,0,0,1-5.8-9.126,33.481,33.481,0,0,1-1.935-11.683A36.577,36.577,0,0,1,63.531,197a25.4,25.4,0,0,1,6.05-9.475,26.208,26.208,0,0,1,9.468-5.947,35.8,35.8,0,0,1,12.271-1.982,33.859,33.859,0,0,1,10.806,1.618,23.671,23.671,0,0,1,8.374,4.852v44.775a25.612,25.612,0,0,1-9.029,5.535A34.067,34.067,0,0,1,89.952,238.218Zm.6-48.507A14.544,14.544,0,0,0,78.8,194.906c-2.867,3.449-4.321,8.27-4.321,14.329,0,5.842,1.472,10.506,4.376,13.863a14.754,14.754,0,0,0,11.7,5.059c4.971,0,8.844-1.674,11.512-4.977s4.019-8.067,4.019-14.163c0-6.133-1.352-10.935-4.019-14.274S95.525,189.711,90.554,189.711Zm-65.4,47.2H0V158.485H24.883a38.5,38.5,0,0,1,10.192,1.244,23.33,23.33,0,0,1,7.827,3.732,16.782,16.782,0,0,1,4.984,5.729,15.69,15.69,0,0,1,1.661,7.232,18.586,18.586,0,0,1-3.774,11.594,20.445,20.445,0,0,1-10.445,7v.219a23.765,23.765,0,0,1,7.281,1.962,18.6,18.6,0,0,1,5.653,4.026,16.717,16.717,0,0,1,3.63,5.817,21.206,21.206,0,0,1,1.21,7.335,19.752,19.752,0,0,1-7.93,16.3,27.824,27.824,0,0,1-8.969,4.676A37.193,37.193,0,0,1,25.156,236.906Zm-12.2-35.219v24.828h11.1c4.826,0,8.607-1.132,11.238-3.363a11.553,11.553,0,0,0,3.964-9.269c0-4.046-1.421-7.124-4.224-9.147s-7.067-3.049-12.674-3.049Zm0-32.757v22.312h8.422c4.5,0,8.077-1.076,10.636-3.2s3.856-5.168,3.856-9.051c0-3.339-1.132-5.878-3.363-7.547s-5.626-2.515-10.09-2.515Z" transform="translate(2827.68 8903.094)" fill="#f0f7ff"/>
    </g>
  </g>
</svg>
