<svg xmlns="http://www.w3.org/2000/svg" xmlns:xlink="http://www.w3.org/1999/xlink" viewBox="0 0 322 322"><defs><style>.cls-1{fill:none;}.cls-2{clip-path:url(#clip-path);}.cls-3{fill:#fb3;}.cls-4{fill:#f93;}.cls-5{fill:#4a696f;}.cls-6{fill:#384949;}.cls-7{fill:#fdc;}.cls-8{fill:#fb9;}.cls-9{fill:#e66b2e;}</style><clipPath id="clip-path" transform="translate(0 0)"><rect class="cls-1" width="322" height="322"/></clipPath></defs><title>Asset 113</title><g id="Layer_2" data-name="Layer 2"><g id="red"><g class="cls-2"><path class="cls-3" d="M318.22,229.55,160.37,112.11,15.09,1.89A9.43,9.43,0,0,0,0,9.44V76.73l9.43,9.43L0,95.59v18.87l9.43,9.43L0,133.33V152.2l9.43,9.43L0,171.06v18.87l9.43,9.43L0,208.8v28.3a9.43,9.43,0,0,0,9.43,9.43H56.6L66,237.1l9.43,9.43H94.34l9.43-9.43,9.43,9.43h18.87l9.43-9.43,9.44,9.43H169.8l9.44-9.43,9.43,9.43h18.87L217,237.1l9.44,9.43h86.16a9.43,9.43,0,0,0,5.65-17ZM150.45,183.48a9.42,9.42,0,0,1-8.95,6.45H66a9.43,9.43,0,0,1-9.44-9.43V123.89a9.43,9.43,0,0,1,15.09-7.54L147.16,173a9.42,9.42,0,0,1,3.29,10.53Z" transform="translate(0 0)"/><path class="cls-4" d="M179.24,237.1l9.43,9.43h18.87L217,237.1l9.44,9.43h86.16a9.43,9.43,0,0,0,5.65-17L160.37,112.11V246.53h9.43Z" transform="translate(0 0)"/></g><path class="cls-5" d="M66,218.23a9.43,9.43,0,0,0-9.44,9.43v18.87H75.47V227.66A9.43,9.43,0,0,0,66,218.23Z" transform="translate(0 0)"/><path class="cls-5" d="M103.77,218.23a9.42,9.42,0,0,0-9.43,9.43v18.87H113.2V227.66a9.43,9.43,0,0,0-9.43-9.43Z" transform="translate(0 0)"/><path class="cls-5" d="M141.5,218.23a9.43,9.43,0,0,0-9.43,9.43v18.87h18.87V227.66a9.43,9.43,0,0,0-9.44-9.43Z" transform="translate(0 0)"/><path class="cls-6" d="M179.24,218.23a9.43,9.43,0,0,0-9.44,9.43v18.87h18.87V227.66a9.43,9.43,0,0,0-9.43-9.43Z" transform="translate(0 0)"/><path class="cls-6" d="M217,218.23a9.43,9.43,0,0,0-9.43,9.43v18.87h18.87V227.66a9.43,9.43,0,0,0-9.44-9.43Z" transform="translate(0 0)"/><path class="cls-5" d="M28.3,199.36a9.43,9.43,0,0,0-9.43-9.43H0V208.8H18.87a9.43,9.43,0,0,0,9.43-9.44Z" transform="translate(0 0)"/><path class="cls-5" d="M28.3,161.63a9.42,9.42,0,0,0-9.43-9.43H0v18.86H18.87a9.43,9.43,0,0,0,9.43-9.43Z" transform="translate(0 0)"/><path class="cls-5" d="M28.3,123.89a9.43,9.43,0,0,0-9.43-9.43H0v18.87H18.87a9.43,9.43,0,0,0,9.43-9.44Z" transform="translate(0 0)"/><path class="cls-5" d="M28.3,86.16a9.43,9.43,0,0,0-9.43-9.43H0V95.59H18.87a9.42,9.42,0,0,0,9.43-9.43Z" transform="translate(0 0)"/><path class="cls-7" d="M226.41,311.34V275.83l9.43-10.43a9.45,9.45,0,0,1,3,.49l56.61,18.86a9.43,9.43,0,0,1,0,17.89l-56.61,18.87a9.45,9.45,0,0,1-3,.49Z" transform="translate(0 0)"/><path class="cls-8" d="M295.43,302.64l-56.61,18.87a9.45,9.45,0,0,1-3,.49l-9.43-10.66V293.7h75.47a9.42,9.42,0,0,1-6.45,8.94Z" transform="translate(0 0)"/><path class="cls-4" d="M56.6,303.13V284.27L75.47,265.4H235.84V322H75.47Z" transform="translate(0 0)"/><path class="cls-9" d="M75.47,322,56.6,303.13V293.7H235.84V322Z" transform="translate(0 0)"/><path class="cls-5" d="M37.73,312.57V274.83a9.43,9.43,0,0,1,9.44-9.43h28.3V322H47.17a9.43,9.43,0,0,1-9.44-9.43Z" transform="translate(0 0)"/><path class="cls-6" d="M47.17,322a9.43,9.43,0,0,1-9.44-9.43V293.7H75.47V322Z" transform="translate(0 0)"/></g></g></svg>