<?xml version="1.0" encoding="utf-8"?>
<!-- Generator: Adobe Illustrator 24.3.0, SVG Export Plug-In . SVG Version: 6.00 Build 0)  -->
<svg version="1.1" id="Layer_1" xmlns="http://www.w3.org/2000/svg" xmlns:xlink="http://www.w3.org/1999/xlink" x="0px" y="0px"
	 viewBox="0 0 446.71 446.71" style="enable-background:new 0 0 446.71 446.71;" xml:space="preserve">
<style type="text/css">
	.st0{fill:#02579F;}
	.st1{fill:#F8A51A;}
	.st2{fill:#024697;}
	.st3{fill:#FFFFFF;}
	.st4{fill:#000003;}
	.st5{fill:#E60B27;}
	.st6{fill:#F0692D;}
	.st7{fill:#F39E2E;}
	.st8{fill:#0F598C;}
	.st9{fill:#FBEEEF;}
	.st10{fill:#D60918;}
	.st11{fill:#138284;}
	.st12{fill:#322D3C;}
	.st13{fill:#26B15D;}
	.st14{fill:#014268;}
	.st15{fill:#9ABA3B;}
</style>
<g>
	<path class="st4" d="M356.89,126.61H89.83c-6.16,0-11.19,5.04-11.19,11.19v171.11c0,6.16,5.04,11.19,11.19,11.19h267.06
		c6.16,0,11.19-5.04,11.19-11.19V137.8C368.08,131.65,363.04,126.61,356.89,126.61z M260.43,290.03c-15.3,0-29.4-5.15-40.63-13.84
		c-11.27,8.69-25.34,13.84-40.63,13.84c-36.79,0-66.64-29.85-66.64-66.68c0-36.79,29.85-66.64,66.64-66.64
		c15.3,0,29.37,5.15,40.63,13.84c11.23-8.69,25.34-13.84,40.63-13.84c36.83,0,66.68,29.85,66.68,66.64
		C327.11,260.18,297.26,290.03,260.43,290.03z"/>
	<path class="st5" d="M193.79,223.35c0-21.49,10.19-40.63,26.01-52.8c-11.27-8.69-25.34-13.84-40.63-13.84
		c-36.79,0-66.64,29.85-66.64,66.64c0,36.83,29.85,66.68,66.64,66.68c15.3,0,29.37-5.15,40.63-13.84
		C203.98,264.02,193.79,244.88,193.79,223.35z"/>
	<path class="st6" d="M245.84,223.35c0-21.49-10.19-40.63-26.04-52.8c-15.82,12.16-26.01,31.31-26.01,52.8
		c0,21.53,10.19,40.67,26.01,52.84C235.65,264.02,245.84,244.88,245.84,223.35z"/>
	<path class="st7" d="M260.43,156.7c-15.3,0-29.4,5.15-40.63,13.84c15.86,12.16,26.04,31.31,26.04,52.8
		c0,21.53-10.19,40.67-26.04,52.84c11.23,8.69,25.34,13.84,40.63,13.84c36.83,0,66.68-29.85,66.68-66.68
		C327.11,186.56,297.26,156.7,260.43,156.7z"/>
</g>
</svg>
