<svg id="Layer_2" data-name="Layer 2" xmlns="http://www.w3.org/2000/svg" xmlns:xlink="http://www.w3.org/1999/xlink" width="139.881" height="139.951" viewBox="0 0 139.881 139.951">
  <defs>
    <linearGradient id="linear-gradient" y1="0.5" x2="1" y2="0.5" gradientUnits="objectBoundingBox">
      <stop offset="0" stop-color="#3fa9f5"/>
      <stop offset="0.58" stop-color="#0087ee"/>
      <stop offset="1" stop-color="#0d71c8"/>
    </linearGradient>
    <linearGradient id="linear-gradient-2" x1="0" y1="0.499" x2="1" y2="0.499" xlink:href="#linear-gradient"/>
    <linearGradient id="linear-gradient-3" y1="0.5" x2="1" y2="0.5" gradientUnits="objectBoundingBox">
      <stop offset="0" stop-color="#f37e5f"/>
      <stop offset="0.5" stop-color="#ec1c24"/>
      <stop offset="1" stop-color="#cf232a"/>
    </linearGradient>
  </defs>
  <g id="Business">
    <path id="Path_4931" data-name="Path 4931" d="M41.219,25.71A5.372,5.372,0,0,1,42.4,28.9V65.256H27.39V28.9a4.991,4.991,0,0,1,1.282-3.189l6.308-7.59Z" transform="translate(67.54 44.682)" fill-rule="evenodd" fill="url(#linear-gradient)"/>
    <rect id="Rectangle_569" data-name="Rectangle 569" width="15.007" height="19.998" transform="translate(94.93 119.954)" fill="url(#linear-gradient-2)"/>
    <path id="Path_4932" data-name="Path 4932" d="M134.025,5.857A19.929,19.929,0,0,0,119.953,0H20A20,20,0,0,0,0,20v99.956a19.963,19.963,0,0,0,20,19.963h64.95V73.581a15.25,15.25,0,0,1,3.466-9.67l10.19-12.2a5.129,5.129,0,0,1,3.812-1.664,5.233,5.233,0,0,1,3.847,1.664l10.19,12.269a15.042,15.042,0,0,1,3.466,9.566v66.372a20,20,0,0,0,19.963-19.963V20A20.206,20.206,0,0,0,133.99,5.857ZM45.056,20a4.968,4.968,0,1,1-4.991,4.956A4.991,4.991,0,0,1,45.056,20ZM25.093,20a4.922,4.922,0,0,1,4.575,3.085A5,5,0,1,1,24.954,20ZM20,49.978H45.056V59.994H20Zm49.978,69.976H20V109.938H69.976Zm0-20H20V90.113H69.976Zm0-20H20V69.976H69.976Z" fill-rule="evenodd" fill="url(#linear-gradient-3)"/>
  </g>
</svg>
