<svg xmlns="http://www.w3.org/2000/svg" xmlns:xlink="http://www.w3.org/1999/xlink" viewBox="0 0 44 39.53"><defs><style>.cls-1{fill:url(#linear-gradient);}.cls-2{fill:#fff;}</style><linearGradient id="linear-gradient" y1="19.77" x2="44" y2="19.77" gradientUnits="userSpaceOnUse"><stop offset="0" stop-color="#f7977a"/><stop offset="0.08" stop-color="#f68d71"/><stop offset="0.55" stop-color="#f1563c"/><stop offset="0.65" stop-color="#de3b34"/><stop offset="0.75" stop-color="#ce242c"/><stop offset="0.97" stop-color="#d01273"/></linearGradient></defs><g id="Layer_2" data-name="Layer 2"><g id="Business"><path class="cls-1" d="M36.29,0H7.8A7.8,7.8,0,0,0,0,7.79V36.91a2.65,2.65,0,0,0,1.59,2.4,2.7,2.7,0,0,0,1.07.22,2.6,2.6,0,0,0,1.77-.68,19.36,19.36,0,0,1,13-5H36.29A7.72,7.72,0,0,0,44,26.12V7.69A7.71,7.71,0,0,0,36.29,0Z"/><path class="cls-2" d="M11.38,12.46h4.17a1.29,1.29,0,0,0,0-2.58H11.38A3.29,3.29,0,0,0,8.1,13.16V23.62a1.29,1.29,0,1,0,2.58,0V20.48h4.87a1.29,1.29,0,0,0,0-2.58H10.68V13.16a.71.71,0,0,1,.7-.7Z"/><path class="cls-2" d="M38.33,22.33h-1V14.25a4.37,4.37,0,1,0-8.73,0v6.3a4.36,4.36,0,0,0,4.36,4.36h5.39a1.29,1.29,0,0,0,0-2.58Zm-7.18-1.78v-6.3a1.79,1.79,0,1,1,3.58,0v8.08H32.94a1.79,1.79,0,0,1-1.79-1.78Z"/><path class="cls-2" d="M22.49,9.88a4.37,4.37,0,0,0-4.37,4.37v9.37a1.29,1.29,0,0,0,2.58,0V20.41h3.58v3.21a1.29,1.29,0,0,0,2.58,0V14.25A4.37,4.37,0,0,0,22.49,9.88Zm1.79,7.95H20.7V14.25a1.79,1.79,0,0,1,3.58,0Z"/></g></g></svg>