<svg xmlns="http://www.w3.org/2000/svg" viewBox="0 0 322 322"><defs><style>.cls-1{fill:#e40707;}.cls-2{fill:#ffffff;}.cls-3{fill:#ffa90b;}.cls-4{fill:#b00e0e;}.cls-5{fill:#ffffff;}.cls-6{fill:#f29500;}</style></defs><title>Asset 108</title><g id="Layer_2" data-name="Layer 2"><g id="Layer_1-2" data-name="Layer 1"><path class="cls-1" d="M63.73,322a10.36,10.36,0,0,1-3.85-.76,10.1,10.1,0,0,1-6.21-9.3v-57H36.9A36.93,36.93,0,0,1,0,218V36.9A36.92,36.92,0,0,1,36.9,0H285.1A36.92,36.92,0,0,1,322,36.9V218a36.93,36.93,0,0,1-36.9,36.9H135L70.85,319.05A10.05,10.05,0,0,1,63.73,322Z"/><path class="cls-2" d="M188.38,176.71v9.66a15,15,0,0,1-15,14.89H148.67c-7.24,0-15-5.36-15-17.3v-7.25Z"/><path class="cls-3" d="M221.37,100.24a59.46,59.46,0,0,1-22.13,46.42,28.77,28.77,0,0,0-10.47,16.63,26,26,0,0,0-.4,4.57v8.85H133.63v-10.2l-.27-3.22a25.23,25.23,0,0,0-9.79-16A59.33,59.33,0,0,1,100.62,99C101.3,67.1,128,40.65,160.06,40.26a60.26,60.26,0,0,1,61.31,60Z"/><path class="cls-4" d="M161,0H36.9A36.92,36.92,0,0,0,0,36.9V218a36.93,36.93,0,0,0,36.9,36.9H53.67v57a10.1,10.1,0,0,0,6.21,9.3,10.36,10.36,0,0,0,3.85.76,10,10,0,0,0,7.11-2.95L135,254.92h26V201.26H148.67c-7.24,0-15-5.36-15-17.3v-7.25h0v-10.2l-.27-3.22a25.23,25.23,0,0,0-9.79-16A59.33,59.33,0,0,1,100.62,99C101.3,67.1,128,40.65,160.06,40.26H161Z"/><path class="cls-5" d="M161,176.71H133.63V184c0,11.94,7.78,17.3,15,17.3H161Z"/><path class="cls-6" d="M161,40.25h-.93C128,40.65,101.31,67.1,100.64,99a59.32,59.32,0,0,0,22.94,48.3,25.19,25.19,0,0,1,9.79,16l.27,3.22v10.2H161Z"/></g></g></svg>