<svg xmlns="http://www.w3.org/2000/svg" viewBox="0 0 322 268.47"><defs><style>.cls-1{fill:#4e638b;}.cls-2{fill:#009954;}.cls-3{fill:#00cc71;}.cls-4{fill:#54e360;}.cls-5{fill:#ffa90b;}.cls-6{fill:#fdb441;}.cls-7{fill:#f9bb6b;}.cls-8{fill:#f29500;}.cls-9{fill:#e27910;}</style></defs><title>Asset 135</title><g id="Layer_2" data-name="Layer 2"><g id="red"><path class="cls-1" d="M65.24,89.15v27.4L180,148.33l12.68-38.56L180,89.15Z"/><path class="cls-1" d="M180,89.15v59.18l54.1,10L322,116.55V89.15Z"/><path class="cls-2" d="M38.75,116.55V230.06L155,268.47H180l12.68-76-12.68-76Z"/><rect class="cls-2" x="179.95" y="116.55" width="142.05" height="151.92"/><path class="cls-3" d="M82.38,141a19.17,19.17,0,0,1-19.17,19.18v63.28a19.17,19.17,0,0,1,19.17,19.17H180l12.68-50.13L180,141Z"/><path class="cls-3" d="M277.51,141H180V242.64h97.56a19.18,19.18,0,0,1,19.18-19.17V160.19A19.18,19.18,0,0,1,277.51,141Z"/><path class="cls-4" d="M147.5,191.83A32.44,32.44,0,0,0,180,224.27l12.68-32.44L180,159.39a32.44,32.44,0,0,0-32.45,32.44Z"/><path class="cls-4" d="M180,159.39v64.88a32.44,32.44,0,0,0,0-64.88Z"/><path class="cls-5" d="M51.3,54.51a35,35,0,0,0,35,35l14.59-35-14.59-35a35,35,0,0,0-35,35Z"/><path class="cls-5" d="M86.29,19.51v70a35,35,0,1,0,0-70Z"/><path class="cls-6" d="M5.59,35a35,35,0,0,0,35,35L55.17,35,40.58,0a35,35,0,0,0-35,35Z"/><path class="cls-7" d="M40.59,0V70a35,35,0,0,0,0-70Z"/><path class="cls-5" d="M0,153.59v38.14L38.75,203l9.65-29.36-9.65-20Z"/><path class="cls-5" d="M77.51,153.59H38.75V203l38.76-11.26Z"/><path class="cls-5" d="M0,268.47H38.75l12.09-19.2-12.09-29L0,230.06Z"/><path class="cls-5" d="M77.51,268.47,91.73,248.6,77.51,230.06,38.75,220.3v48.17Z"/><path class="cls-8" d="M0,191.73v38.33H38.75l12.09-19.29-12.09-19Z"/><path class="cls-8" d="M77.51,191.73H38.75v38.33H77.51l12-19.2Z"/><path class="cls-9" d="M77.51,268.47h38.75l12.09-19.2-12.09-29-38.75,9.76Z"/><path class="cls-9" d="M155,268.47V230.06l-38.76-9.76v48.17Z"/><path class="cls-5" d="M77.51,191.73v38.33h38.75l12.09-19.29-12.09-19Z"/><rect class="cls-5" x="116.26" y="191.73" width="38.75" height="38.34"/></g></g></svg>