<svg xmlns="http://www.w3.org/2000/svg" viewBox="0 0 322 322"><defs><style>.cls-1{fill:#81d4fa;}.cls-2{fill:#03a9f4;}.cls-3{fill:#9c0b0e;}.cls-4{fill:#b00e0e;}.cls-5{fill:#ee1c25;}.cls-6{fill:#c6151d;}.cls-7{fill:#f5f5f5;}.cls-8{fill:#d5d5d5;}</style></defs><title>Asset 164</title><g id="Layer_2" data-name="Layer 2"><g id="red"><path class="cls-1" d="M161,161H0V36.9A36.9,36.9,0,0,1,36.9,0H161Z"/><path class="cls-2" d="M161,322H36.9A36.9,36.9,0,0,1,0,285.1V161H161Z"/><path class="cls-3" d="M161,0H36.9A36.9,36.9,0,0,0,0,36.9V161H161Z"/><path class="cls-4" d="M161,161H0V285.1A36.9,36.9,0,0,0,36.9,322H161Z"/><path class="cls-5" d="M322,161H161V0H285.1A36.9,36.9,0,0,1,322,36.9Z"/><path class="cls-6" d="M285.1,322H161V161H322V285.1A36.9,36.9,0,0,1,285.1,322Z"/><path class="cls-7" d="M271.69,268.33H211.31a10.06,10.06,0,0,1,0-20.12h60.38a10.06,10.06,0,1,1,0,20.12Z"/><path class="cls-7" d="M271.69,228.08H211.31a10.06,10.06,0,0,1,0-20.12h60.38a10.06,10.06,0,1,1,0,20.12Z"/><path class="cls-7" d="M63.73,268.33a10.07,10.07,0,0,1-7.11-17.18L90.16,217.6a10.07,10.07,0,0,1,14.24,14.24L70.85,265.38a10,10,0,0,1-7.12,2.95Z"/><path class="cls-7" d="M97.27,268.33a10,10,0,0,1-7.11-2.95L56.62,231.84A10.07,10.07,0,0,1,70.85,217.6l33.55,33.55a10.07,10.07,0,0,1-7.13,17.18Z"/><path class="cls-7" d="M271.69,93.92H211.31a10.07,10.07,0,0,1,0-20.13h60.38a10.07,10.07,0,0,1,0,20.13Z"/><path class="cls-8" d="M281.75,83.85h-80.5a10.07,10.07,0,0,0,10.06,10.07h60.38a10.07,10.07,0,0,0,10.06-10.07Z"/><path class="cls-8" d="M281.75,218h-80.5a10.06,10.06,0,0,0,10.06,10.06h60.38A10.06,10.06,0,0,0,281.75,218Z"/><path class="cls-8" d="M281.75,258.27h-80.5a10.06,10.06,0,0,0,10.06,10.06h60.38a10.06,10.06,0,0,0,10.06-10.06Z"/><path class="cls-8" d="M66.26,241.5l-9.66,9.66a10.06,10.06,0,0,0,14.24,14.22l9.66-9.64Z"/><path class="cls-8" d="M94.74,241.5H66.26l23.9,23.9a10.07,10.07,0,0,0,14.22-14.25Z"/><path class="cls-7" d="M80.5,120.75a10.06,10.06,0,0,1-10.06-10.06v-47a10.06,10.06,0,0,1,20.12,0v47A10.06,10.06,0,0,1,80.5,120.75Z"/><path class="cls-7" d="M104,97.27H57a10.06,10.06,0,0,1,0-20.12h47a10.06,10.06,0,1,1,0,20.12Z"/><path class="cls-8" d="M90.56,97.27H70.44v13.42a10.06,10.06,0,0,0,20.12,0Z"/><path class="cls-8" d="M114,87.21H47A10.07,10.07,0,0,0,57,97.27h47A10.07,10.07,0,0,0,114,87.21Z"/></g></g></svg>