<svg xmlns="http://www.w3.org/2000/svg" viewBox="0 0 322 322"><defs><style>.cls-1{fill:#293e65;}.cls-2{fill:#ff6326;}.cls-3{fill:#f98500;}.cls-4{fill:#e20059;}.cls-5{fill:#4e638b;}.cls-6{fill:#e40707;}.cls-7{fill:#d01273;}.cls-8{fill:#c6151d;}</style></defs><title>Asset 114</title><g id="Layer_2" data-name="Layer 2"><g id="red"><path class="cls-1" d="M142.06,85.24l-9.47,18.94,9.47,18.94h47.35l9.47-18.94-9.47-18.94Z"/><path class="cls-1" d="M104.18,170.47l-18.94,9.47-18.95-9.47V37.88l18.95-9.47,18.94,9.47,9.47,66.3Z"/><path class="cls-2" d="M62.37,227.29,37.88,251.78v13.4L71,274.65l33.15-9.47,9.47-18.94-9.47-19Z"/><path class="cls-1" d="M142.06,170.47l-18.94,9.47-18.94-9.47V37.88l18.94-9.47,18.94,9.47Z"/><path class="cls-1" d="M322,85.24H227.29l-9.47,18.94,9.47,18.94H322Z"/><path class="cls-3" d="M189.41,85.24v37.88h37.88V85.24Z"/><path class="cls-1" d="M104.18,303.06l-42.62,9.47-42.62-9.47V265.18h85.24l9.47,18.94Z"/><path class="cls-4" d="M170.47,251.78,146,227.29h-41.8v37.89l33.14,9.47,33.15-9.47v-13.4Z"/><path class="cls-5" d="M189.41,303.06l-42.62,9.47-42.61-9.47V265.18h85.23Z"/><path class="cls-5" d="M104.18,322H0V303.06H104.18l9.47,9.47Z"/><path class="cls-1" d="M208.35,322H104.18V303.06H208.35Z"/><path class="cls-6" d="M104.18,37.88H47.35V0h56.83l9.47,18.94Z"/><path class="cls-7" d="M104.18,208.35H47.35V170.47h56.83l9.47,18.94Z"/><path class="cls-6" d="M161,37.88H104.18V0H161Z"/><path class="cls-8" d="M161,208.35H104.18V170.47H161Z"/></g></g></svg>