<svg id="Layer_2" data-name="Layer 2" xmlns="http://www.w3.org/2000/svg" xmlns:xlink="http://www.w3.org/1999/xlink" width="149.621" height="166.43" viewBox="0 0 149.621 166.43">
  <defs>
    <linearGradient id="linear-gradient" y1="0.499" x2="0.997" y2="0.499" gradientUnits="objectBoundingBox">
      <stop offset="0" stop-color="#3fa9f5"/>
      <stop offset="0.58" stop-color="#0087ee"/>
      <stop offset="1" stop-color="#0c83fa"/>
    </linearGradient>
    <linearGradient id="linear-gradient-2" y1="0.5" x2="1" y2="0.5" gradientUnits="objectBoundingBox">
      <stop offset="0" stop-color="#f37e5f"/>
      <stop offset="0.5" stop-color="#ec1c24"/>
      <stop offset="1" stop-color="#cf232a"/>
    </linearGradient>
  </defs>
  <g id="HOME_2" data-name="HOME 2">
    <path id="Path_4956" data-name="Path 4956" d="M83.048,29.01v97.98H25.48V17.5a5.788,5.788,0,0,1,5.753-5.753H65.892A17.329,17.329,0,0,1,83.221,29.079Z" transform="translate(62.83 28.974)" fill="url(#linear-gradient)"/>
    <path id="Path_4957" data-name="Path 4957" d="M78.978,17.329V155.375a5.788,5.788,0,0,1-5.788,5.753H9.9a5.788,5.788,0,0,1-5.753-5.753V17.329A17.329,17.329,0,0,1,21.479,0h40.2A17.329,17.329,0,0,1,79.012,17.329Z" transform="translate(10.233 0)" fill="url(#linear-gradient-2)"/>
    <path id="Path_4958" data-name="Path 4958" d="M22.3,16.487H10.79V5.049H22.3ZM39.626,4.98H28.05V16.487H39.557ZM22.3,27.993H10.79V39.5H22.3Zm17.329,0H28.05V39.5H39.557ZM22.3,51.007H10.79V62.514H22.3Zm17.329,0H28.05V62.514H39.557ZM22.3,74.055H10.79V85.562H22.3Zm17.329,0H28.05V85.562H39.557ZM22.3,97.068H10.79v11.507H22.3Zm17.329,0H28.05v11.507H39.557ZM22.3,120.082H10.79v11.507H22.3Zm17.329,0H28.05v11.507H39.557Z" transform="translate(26.607 12.28)" fill="#fff"/>
    <path id="Path_4959" data-name="Path 4959" d="M42.088,29.767H30.72V18.26H42.088Zm0,11.541H30.72V52.815H42.088Zm0,23.013H30.72V75.828H42.088Zm0,23.013H30.72V98.842H42.088Z" transform="translate(75.751 45.027)" fill="#fff"/>
    <rect id="Rectangle_591" data-name="Rectangle 591" width="149.621" height="11.507" transform="translate(0 154.925)" fill="#eceff1"/>
  </g>
</svg>
