<svg xmlns="http://www.w3.org/2000/svg" xmlns:xlink="http://www.w3.org/1999/xlink" viewBox="0 0 322 308.16"><defs><style>.cls-1{fill:none;}.cls-2{clip-path:url(#clip-path);}.cls-3{fill:#00cc71;}.cls-4{fill:#009954;}.cls-5{fill:#fdb441;}.cls-6{fill:#f29500;}.cls-7{fill:#ffa90b;}</style><clipPath id="clip-path" transform="translate(0 -0.21)"><rect class="cls-1" width="322" height="308.58"/></clipPath></defs><title>Asset 118</title><g id="Layer_2" data-name="Layer 2"><g id="red"><g class="cls-2"><path class="cls-3" d="M262.18,283.22H161.72a60,60,0,0,1-44.69-20,59.3,59.3,0,0,1-14.77-46.08,182,182,0,0,1,23.9-71.73,169.89,169.89,0,0,1,52.36-55.57,9.45,9.45,0,0,1,5.23-1.58h56.4a9.45,9.45,0,0,1,5.23,1.58,170,170,0,0,1,52.36,55.57,181.84,181.84,0,0,1,23.89,71.73,59.33,59.33,0,0,1-14.76,46.08,60,60,0,0,1-44.69,20Z" transform="translate(0 -0.21)"/><path class="cls-4" d="M321.63,217.14a182,182,0,0,0-23.9-71.73,169.89,169.89,0,0,0-52.36-55.57,9.43,9.43,0,0,0-5.23-1.58h-28.2v195h50.23a60,60,0,0,0,44.69-20,59.3,59.3,0,0,0,14.77-46.08Z" transform="translate(0 -0.21)"/></g><g class="cls-2"><path class="cls-3" d="M240.15,69.39h-56.4a9.42,9.42,0,0,1-5.22-1.58l-2.22-1.47a67.9,67.9,0,0,1-30.4-56.68A9.43,9.43,0,0,1,160.58,1.8a41.47,41.47,0,0,0,46.13,0,9.41,9.41,0,0,1,10.47,0,41.49,41.49,0,0,0,46.14,0A9.43,9.43,0,0,1,278,9.64a67.9,67.9,0,0,1-30.39,56.7l-2.22,1.47a9.42,9.42,0,0,1-5.22,1.58Z" transform="translate(0 -0.21)"/><path class="cls-4" d="M273,1.33a9.41,9.41,0,0,0-9.68.47,41.49,41.49,0,0,1-46.14,0A9.39,9.39,0,0,0,212,.21V69.39h28.2a9.42,9.42,0,0,0,5.22-1.58l2.22-1.47A67.9,67.9,0,0,0,278,9.64a9.41,9.41,0,0,0-5-8.31Z" transform="translate(0 -0.21)"/></g><path class="cls-5" d="M147.79,308.37H34.59a9.43,9.43,0,0,1-9.43-9.43V273.78a9.43,9.43,0,0,1,9.43-9.43h113.2a9.44,9.44,0,0,1,9.44,9.43v25.16a9.44,9.44,0,0,1-9.44,9.43Z" transform="translate(0 -0.21)"/><path class="cls-6" d="M147.79,264.35H91.19v44h56.6a9.44,9.44,0,0,0,9.44-9.43V273.78a9.44,9.44,0,0,0-9.44-9.43Z" transform="translate(0 -0.21)"/><path class="cls-6" d="M122.64,264.35H9.43A9.43,9.43,0,0,1,0,254.92V229.76a9.43,9.43,0,0,1,9.43-9.43H122.64a9.43,9.43,0,0,1,9.43,9.43v25.16a9.43,9.43,0,0,1-9.43,9.43Z" transform="translate(0 -0.21)"/><path class="cls-7" d="M122.64,220.33H66v44h56.6a9.43,9.43,0,0,0,9.43-9.43V229.76a9.43,9.43,0,0,0-9.43-9.43Z" transform="translate(0 -0.21)"/><path class="cls-7" d="M147.79,220.33H34.59a9.44,9.44,0,0,1-9.43-9.44V185.74a9.44,9.44,0,0,1,9.43-9.44h113.2a9.44,9.44,0,0,1,9.44,9.44v25.15a9.44,9.44,0,0,1-9.44,9.44Z" transform="translate(0 -0.21)"/><path class="cls-6" d="M147.79,176.3H91.19v44h56.6a9.44,9.44,0,0,0,9.44-9.44V185.74a9.44,9.44,0,0,0-9.44-9.44Z" transform="translate(0 -0.21)"/><path class="cls-7" d="M252.83,97.69H171.07a18.87,18.87,0,1,1,0-37.73h81.76a18.87,18.87,0,0,1,0,37.73Z" transform="translate(0 -0.21)"/><path class="cls-6" d="M252.83,60H212V97.69h40.88a18.87,18.87,0,0,0,0-37.73Z" transform="translate(0 -0.21)"/><path class="cls-7" d="M189.79,202.4h-9.57v32.68H166V153.5h29.56q10.64,0,16.59,6.28t6,16.1q0,7.58-2.78,12.37a17.14,17.14,0,0,1-7,6.93q8.38,3.9,8.39,20.36v4q0,11.72,1,15.51H203.84q-1.36-4.14-1.37-18.35v-1.19q0-7.22-2.49-10.18T189.79,202.4Zm-9.57-34.93v20.84h12.2q11,0,11-10.42t-10.74-10.42Z" transform="translate(0 -0.21)"/><path class="cls-6" d="M225.4,216.61h13.76q1.67,7.69,9.57,7.69,7,0,7-6a5.24,5.24,0,0,0-1.95-4.38q-2-1.54-7.42-3.2-11.5-3.44-15.32-8t-3.8-11.78a18.9,18.9,0,0,1,4.93-13.15q4.92-5.45,15.46-5.44t15.52,5.56a20.25,20.25,0,0,1,5.46,12.91H255.36q-1.37-6.51-8.29-6.52-6.15,0-6.15,5.21a4.33,4.33,0,0,0,1.9,3.73q1.91,1.36,7.86,3.14a52.45,52.45,0,0,1,10.1,3.91,16.76,16.76,0,0,1,5.9,4.91,17,17,0,0,1,2.64,5.45,26.63,26.63,0,0,1,.68,6.45,19,19,0,0,1-5.46,13.86q-5.48,5.56-16.3,5.56t-16.35-5.45Q226.39,225.6,225.4,216.61Z" transform="translate(0 -0.21)"/></g></g></svg>