<svg xmlns="http://www.w3.org/2000/svg" xmlns:xlink="http://www.w3.org/1999/xlink" viewBox="0 0 322.05 300.32"><defs><style>.cls-1{fill:none;}.cls-2{fill:#b00e0e;}.cls-2,.cls-4,.cls-5,.cls-7,.cls-8{fill-rule:evenodd;}.cls-3{clip-path:url(#clip-path);}.cls-4{fill:#fca713;}.cls-5,.cls-6{fill:#293e65;}.cls-7{fill:#4e638b;}.cls-8{fill:#f98500;}.cls-9{fill:#cdd0d2;}.cls-10{fill:#eceff1;}</style><clipPath id="clip-path"><rect class="cls-1" y="0.03" width="322" height="300.29"/></clipPath></defs><title>Asset 116</title><g id="Layer_2" data-name="Layer 2"><g id="red"><path class="cls-2" d="M99.94,191.6a361.41,361.41,0,0,0,3-46.6c0-3.52,2.44-7,2.27-10.35H133c.17,3.41.23,6.83.23,10.35,0,1.71,0,3.37-.06,5.07a10,10,0,0,0,3.2,7.41,11.41,11.41,0,0,0,7.9,3.05h78c.27,9.06,4.22,22.89,5.33,31.07Z"/><path class="cls-2" d="M266.49,176.06v10.36l-22.21,5.18c-1.16-8.13.56-21.95.22-31.07h5.33c9.2,0,16.66,7,16.66,15.53Z"/><g class="cls-3"><path class="cls-2" d="M131.52,113.94H99.94c-5.56-49.6-19.16-84-28.82-99.88l3.39-1.55c10.39-4.86,23-1.06,28.42,8.54a249.42,249.42,0,0,1,28.59,92.89Z"/><path class="cls-4" d="M230.4,72.36c-12.17,17.14-35,24.82-56.06,18.89s-35.56-24.06-35.56-44.62S153.23,7.94,174.34,2,218.23,3.76,230.4,20.9Z"/></g><path class="cls-5" d="M271.48,263.41c-2.91.92-6,10.11-9.24,11-3.89,1.1-8-6.09-12.35-5.08A242.4,242.4,0,0,1,228,207.13l10.72-10.35,11.88,10.35a218.49,218.49,0,0,0,20.87,56.28Z"/><path class="cls-5" d="M246.83,186.42l-8.1,5.18-14.27-5.18a247.2,247.2,0,0,1-2.16-25.89c-.17-3.41-.23-6.83-.23-10.35V134.65l11.11-5.18,11.1,5.18v15.53c0,3.52.05,7,.22,10.35a248.76,248.76,0,0,0,2.33,25.89Z"/><rect class="cls-6" x="149.9" y="129.47" width="11.1" height="62.14"/><rect class="cls-6" x="172.11" y="129.47" width="11.1" height="62.14"/><rect class="cls-6" x="194.31" y="129.47" width="11.1" height="62.14"/><path class="cls-7" d="M272,191.6V202a5.38,5.38,0,0,1-5.55,5.18H96c1.5-6.52,2.83-13.46,4-20.71H266.49A5.38,5.38,0,0,1,272,191.6Z"/><path class="cls-7" d="M277.59,124.29c0,5.7-5,10.31-11.1,10.36H99.94c-.23-7.2-.73-14.09-1.45-20.71h168c6.12,0,11.08,4.64,11.1,10.35Z"/><path class="cls-8" d="M322,46.63c0,25.74-22.36,46.6-50,46.6s-50-20.86-50-46.6S244.44,0,272,0s50,20.86,50,46.6Z"/><g class="cls-3"><path class="cls-5" d="M105.49,145a281.59,281.59,0,0,1-3.06,41.42c-1.11,7.25-2.44,14.19-3.94,20.71a240.05,240.05,0,0,1-23.93,62.8c-2.94-.67-10.71.05-13.49-.67-4.73-1.22-4.28-3.9-8.38-5.18A232.1,232.1,0,0,0,83.28,145c0-80-36.36-128.09-36.75-128.55A9.91,9.91,0,0,1,49,2a11.63,11.63,0,0,1,15.52,2.3c.38.52,2.94,3.83,6.6,9.78a245.7,245.7,0,0,1,32.7,99.88c.72,6.62,1.22,13.51,1.44,20.71.17,3.36.23,6.83.23,10.35Z"/><path class="cls-7" d="M316.62,267.81c-2.39,1.3-59.24,32.51-155.62,32.51S7.78,269.11,5.39,267.81a10,10,0,0,1-3.8-14.21,11.57,11.57,0,0,1,15.24-3.55,207.18,207.18,0,0,0,35.86,14c6.5,2,13.82,4,21.87,5.85A378.09,378.09,0,0,0,161,279.61a379.85,379.85,0,0,0,88.89-10.25c8-1.86,15.21-3.93,21.59-5.95A206.76,206.76,0,0,0,305.24,250a11.58,11.58,0,0,1,15.24,3.6,10,10,0,0,1-3.86,14.21Z"/></g><path class="cls-9" d="M260.45,50H256v15.3H249.3V27.07h13.85A10.17,10.17,0,0,1,270.91,30a10.48,10.48,0,0,1,2.79,7.53,11.45,11.45,0,0,1-1.3,5.8,8.07,8.07,0,0,1-3.27,3.24q3.93,1.83,3.93,9.53V58a35.51,35.51,0,0,0,.46,7.26H267c-.43-1.29-.64-4.16-.64-8.59v-.56c0-2.25-.39-3.84-1.17-4.76S262.86,50,260.45,50ZM256,33.61v9.75h5.71q5.18,0,5.17-4.87c0-3.26-1.68-4.88-5-4.88Z"/><path class="cls-9" d="M277.13,56.61h6.44A4.13,4.13,0,0,0,288,60.22c2.2,0,3.29-.95,3.29-2.83a2.45,2.45,0,0,0-.91-2,11.63,11.63,0,0,0-3.47-1.5q-5.4-1.61-7.17-3.74A8.31,8.31,0,0,1,278,44.58a8.84,8.84,0,0,1,2.31-6.15q2.31-2.55,7.24-2.55t7.27,2.61a9.46,9.46,0,0,1,2.55,6h-6.21a3.55,3.55,0,0,0-3.88-3.05c-1.92,0-2.88.81-2.88,2.44a2,2,0,0,0,.89,1.74A13.85,13.85,0,0,0,289,47.13,25.19,25.19,0,0,1,293.69,49a8,8,0,0,1,2.76,2.3,7.83,7.83,0,0,1,1.23,2.55,12.05,12.05,0,0,1,.32,3,8.91,8.91,0,0,1-2.55,6.49q-2.56,2.61-7.63,2.61c-3.38,0-5.94-.85-7.66-2.55A10.79,10.79,0,0,1,277.13,56.61Z"/><path class="cls-10" d="M176.45,49H172v15.3H165.3V26.07h13.85A10.17,10.17,0,0,1,186.91,29a10.48,10.48,0,0,1,2.79,7.53,11.45,11.45,0,0,1-1.3,5.8,8.07,8.07,0,0,1-3.27,3.24q3.93,1.83,3.93,9.53V57a35.51,35.51,0,0,0,.46,7.26H183c-.43-1.29-.64-4.16-.64-8.59v-.56c0-2.25-.39-3.84-1.17-4.76S178.86,49,176.45,49ZM172,32.61v9.75h5.71q5.17,0,5.17-4.87c0-3.26-1.68-4.88-5-4.88Z"/><path class="cls-10" d="M193.13,55.61h6.44A4.13,4.13,0,0,0,204,59.22c2.2,0,3.29-.95,3.29-2.83a2.45,2.45,0,0,0-.91-2,11.63,11.63,0,0,0-3.47-1.5q-5.4-1.61-7.17-3.74A8.31,8.31,0,0,1,194,43.58a8.84,8.84,0,0,1,2.31-6.15q2.31-2.55,7.24-2.55t7.27,2.61a9.46,9.46,0,0,1,2.55,6h-6.21a3.55,3.55,0,0,0-3.88-3.05c-1.92,0-2.88.81-2.88,2.44a2,2,0,0,0,.89,1.74A13.85,13.85,0,0,0,205,46.13,25.19,25.19,0,0,1,209.69,48a8,8,0,0,1,2.76,2.3,7.83,7.83,0,0,1,1.23,2.55,12.05,12.05,0,0,1,.32,3,8.91,8.91,0,0,1-2.55,6.49q-2.56,2.61-7.63,2.61c-3.38,0-5.94-.85-7.66-2.55A10.79,10.79,0,0,1,193.13,55.61Z"/></g></g></svg>