<svg xmlns="http://www.w3.org/2000/svg" xmlns:xlink="http://www.w3.org/1999/xlink" viewBox="0 0 322 321.9"><defs><style>.cls-1{fill:none;}.cls-2{fill:#eceff1;}.cls-3{fill:#cdd0d2;}.cls-4{fill:#0c83fa;}.cls-5{fill:#a8482e;}.cls-6{clip-path:url(#clip-path);}.cls-7{fill:#3d6dcc;}.cls-8{fill:#e40707;}.cls-9{fill:#b00e0e;}.cls-10{fill:#7f3324;}</style><clipPath id="clip-path"><rect class="cls-1" width="322" height="321.9"/></clipPath></defs><title>Asset 141</title><g id="Layer_2" data-name="Layer 2"><g id="red"><path class="cls-2" d="M281.4,161.27,168.23,48.1a9.11,9.11,0,0,0-13.2,0L40.6,161.27a8.86,8.86,0,0,0-2.83,6.6v144.6a9.34,9.34,0,0,0,9.43,9.43h67.46l45.46-58,1.51,3.15L208.4,321.9h66.4a9.34,9.34,0,0,0,9.43-9.43V167.87a8.82,8.82,0,0,0-2.83-6.6Z"/><path class="cls-3" d="M284.23,167.87v144.6a9.34,9.34,0,0,1-9.43,9.43H208.4L161.63,267V45.27a8.84,8.84,0,0,1,6.6,2.83L281.4,161.27a8.82,8.82,0,0,1,2.83,6.6Z"/><path class="cls-3" d="M268.15,121.18,230.43,83.64A9.41,9.41,0,0,1,227.64,77V28.1a9.43,9.43,0,0,1,9.43-9.43H274.8a9.43,9.43,0,0,1,9.43,9.43v86.39a9.44,9.44,0,0,1-16.08,6.69Z"/><path class="cls-4" d="M161.63,113a37.73,37.73,0,1,0,37.72,37.72A37.83,37.83,0,0,0,161.63,113Z"/><path class="cls-5" d="M199.35,207.29H123.91a9.34,9.34,0,0,0-9.44,9.43V321.9h94.31V216.72a9.34,9.34,0,0,0-9.43-9.43Z"/><g class="cls-6"><path class="cls-7" d="M199.35,150.7A37.83,37.83,0,0,0,161.63,113v75.45a37.83,37.83,0,0,0,37.72-37.73Z"/><path class="cls-8" d="M313.65,140.14c-23.2-23.2-108.83-109-132-132a28.7,28.7,0,0,0-40,0L8.35,140.14a28.27,28.27,0,0,0,40,40c6.79-6.6-5.15,6.41,113.3-112L273.85,180.32a29.12,29.12,0,0,0,39.62,0c.18,0,.18,0,.18-.19a28.12,28.12,0,0,0,0-40Z"/><path class="cls-9" d="M313.65,180.13c0,.19,0,.19-.18.19a29.12,29.12,0,0,1-39.62,0L161.63,68.09V0a28.42,28.42,0,0,1,20,8.11c23.2,23,108.83,108.83,132,132a28.12,28.12,0,0,1,0,40Z"/></g><path class="cls-10" d="M208.78,216.72V321.9H161.63V207.29h37.72a9.34,9.34,0,0,1,9.43,9.43Z"/></g></g></svg>