<svg xmlns="http://www.w3.org/2000/svg" viewBox="0 0 322 288"><defs><style>.cls-1{fill:#3d6dcc;}.cls-2{fill:#0c83fa;}.cls-3{fill:#d01273;}.cls-4{fill:#b00e0e;}.cls-5{fill:#e40707;}</style></defs><title>Asset 127</title><g id="Layer_2" data-name="Layer 2"><g id="red"><polygon class="cls-1" points="237.1 281.14 199.36 281.14 262.25 24 262.88 24 322 45.26 237.1 281.14 237.1 281.14"/><polygon class="cls-2" points="84.9 281.14 122.64 281.14 59.75 24 59.12 24 0 45.26 84.9 281.14 84.9 281.14"/><polygon class="cls-3" points="180.97 75.43 180.97 66.74 141.03 66.74 141.03 75.43 113.38 211.12 154.98 288 167.02 288 208.62 211.12 180.97 75.43 180.97 75.43"/><polygon class="cls-4" points="180.97 75.43 180.97 66.74 161 66.74 161 288 167.02 288 208.62 211.12 180.97 75.43 180.97 75.43"/><polygon class="cls-5" points="180.97 75.43 141.03 75.43 121.06 37.71 141.03 0 180.97 0 200.94 37.71 180.97 75.43 180.97 75.43"/><polygon class="cls-4" points="180.97 0 161 0 161 75.43 180.97 75.43 200.94 37.71 180.97 0 180.97 0"/></g></g></svg>