<svg xmlns="http://www.w3.org/2000/svg" viewBox="0 0 322 322"><defs><style>.cls-1{fill:#fab400;}.cls-2{fill:#dc9600;}.cls-3{fill:#b00e0e;}.cls-4{fill:#f0c8a0;}.cls-5{fill:#0a5078;}.cls-6{fill:#f0f0f0;}.cls-7{fill:#293e65;}.cls-8{fill:#3d6dcc;}.cls-9{fill:#0c83fa;}.cls-10{fill:#4e638b;}.cls-11{fill:#cdd0d2;}</style></defs><title>Asset 111</title><g id="Layer_2" data-name="Layer 2"><g id="red"><path class="cls-1" d="M57.5,299H207l57.5-57.5V23a23,23,0,0,0-23-23H57.5a23,23,0,0,0-23,23V276a23,23,0,0,0,23,23Z"/><path class="cls-2" d="M235.75,161H63.25a5.75,5.75,0,0,1,0-11.5h172.5a5.75,5.75,0,0,1,0,11.5Z"/><path class="cls-2" d="M235.75,184H63.25a5.75,5.75,0,0,1,0-11.5h172.5a5.75,5.75,0,0,1,0,11.5Z"/><path class="cls-2" d="M235.75,207H63.25a5.75,5.75,0,0,1,0-11.5h172.5a5.75,5.75,0,0,1,0,11.5Z"/><path class="cls-2" d="M235.75,230H63.25a5.75,5.75,0,0,1,0-11.5h172.5a5.75,5.75,0,0,1,0,11.5Z"/><path class="cls-2" d="M80.5,69h-23a5.75,5.75,0,0,0,0,11.5h23a5.76,5.76,0,0,1,5.75,5.75V92H69a17.25,17.25,0,0,0,0,34.5H92a5.76,5.76,0,0,0,5.75-5.75V86.25A17.27,17.27,0,0,0,80.5,69Zm5.75,46H69a5.75,5.75,0,0,1,0-11.5H86.25Z"/><path class="cls-2" d="M149.5,92h-5.75V86.25a5.75,5.75,0,0,0-11.5,0V92H126.5a5.75,5.75,0,0,0,0,11.5h5.75v5.75a5.75,5.75,0,0,0,11.5,0V103.5h5.75a5.75,5.75,0,0,0,0-11.5Z"/><path class="cls-2" d="M184,69h-5.75V51.75a5.75,5.75,0,0,0-11.5,0v69a5.75,5.75,0,0,0,5.75,5.75H184A28.75,28.75,0,0,0,184,69Zm0,46h-5.75V80.5H184a17.25,17.25,0,0,1,0,34.5Z"/><path class="cls-2" d="M132.25,69a5.76,5.76,0,0,0-5.75-5.75H109.41a5.68,5.68,0,0,1,3-3.78l13.47-6.74a11.45,11.45,0,0,0,6.35-10.28v-2.2a11.51,11.51,0,0,0-11.5-11.5H103.5a5.75,5.75,0,0,0,0,11.5h17.25v2.2l-13.47,6.73a17.16,17.16,0,0,0-9.53,15.43V69a5.76,5.76,0,0,0,5.75,5.75h23A5.76,5.76,0,0,0,132.25,69Z"/><path class="cls-2" d="M227.43,59.47l13.47-6.74a11.45,11.45,0,0,0,6.35-10.28v-2.2a11.51,11.51,0,0,0-11.5-11.5H218.5a5.75,5.75,0,0,0,0,11.5h17.25v2.2l-13.47,6.73a17.17,17.17,0,0,0-9.53,15.43V69a5.75,5.75,0,0,0,5.75,5.75h23a5.75,5.75,0,0,0,0-11.5H224.4a5.72,5.72,0,0,1,3-3.78Z"/><path class="cls-2" d="M264.5,241.5H230a23,23,0,0,0-23,23V299Z"/><rect class="cls-3" x="276" y="92" width="46" height="184"/><path class="cls-4" d="M322,276H276l11.5,23h23Z"/><path class="cls-5" d="M287.5,299l6.36,12.71a5.75,5.75,0,0,0,10.29,0L310.5,299Z"/><rect class="cls-6" x="276" y="80.5" width="46" height="11.5"/><path class="cls-5" d="M310.5,46h-23A11.5,11.5,0,0,0,276,57.5v23h46v-23A11.5,11.5,0,0,0,310.5,46Z"/><path class="cls-2" d="M143.75,115H34.5V276a23,23,0,0,0,23,23h97.75V126.5a11.5,11.5,0,0,0-11.5-11.5Z"/><path class="cls-7" d="M138,115H11.5A11.5,11.5,0,0,0,0,126.5v184A11.5,11.5,0,0,0,11.5,322H138a11.5,11.5,0,0,0,11.5-11.5v-184A11.5,11.5,0,0,0,138,115Z"/><path class="cls-8" d="M132.25,126.5h-115a5.76,5.76,0,0,0-5.75,5.75v34.5a5.76,5.76,0,0,0,5.75,5.75h115a5.76,5.76,0,0,0,5.75-5.75v-34.5a5.76,5.76,0,0,0-5.75-5.75Z"/><path class="cls-9" d="M132.25,126.5h-115a5.76,5.76,0,0,0-5.75,5.75V138a5.76,5.76,0,0,1,5.75-5.75h115A5.76,5.76,0,0,1,138,138v-5.75a5.76,5.76,0,0,0-5.75-5.75Z"/><path class="cls-10" d="M28.75,189.75H17.25a5.76,5.76,0,0,0-5.75,5.75V207a5.76,5.76,0,0,0,5.75,5.75h11.5A5.76,5.76,0,0,0,34.5,207V195.5a5.76,5.76,0,0,0-5.75-5.75Z"/><path class="cls-10" d="M63.25,189.75H51.75A5.76,5.76,0,0,0,46,195.5V207a5.76,5.76,0,0,0,5.75,5.75h11.5A5.76,5.76,0,0,0,69,207V195.5a5.76,5.76,0,0,0-5.75-5.75Z"/><path class="cls-10" d="M97.75,189.75H86.25a5.76,5.76,0,0,0-5.75,5.75V207a5.76,5.76,0,0,0,5.75,5.75h11.5A5.76,5.76,0,0,0,103.5,207V195.5a5.76,5.76,0,0,0-5.75-5.75Z"/><path class="cls-10" d="M132.25,189.75h-11.5A5.76,5.76,0,0,0,115,195.5V207a5.76,5.76,0,0,0,5.75,5.75h11.5A5.76,5.76,0,0,0,138,207V195.5a5.76,5.76,0,0,0-5.75-5.75Z"/><path class="cls-10" d="M28.75,224.25H17.25A5.76,5.76,0,0,0,11.5,230v11.5a5.76,5.76,0,0,0,5.75,5.75h11.5a5.76,5.76,0,0,0,5.75-5.75V230a5.76,5.76,0,0,0-5.75-5.75Z"/><path class="cls-10" d="M63.25,224.25H51.75A5.76,5.76,0,0,0,46,230v11.5a5.76,5.76,0,0,0,5.75,5.75h11.5A5.76,5.76,0,0,0,69,241.5V230a5.76,5.76,0,0,0-5.75-5.75Z"/><path class="cls-10" d="M97.75,224.25H86.25A5.76,5.76,0,0,0,80.5,230v11.5a5.76,5.76,0,0,0,5.75,5.75h11.5a5.76,5.76,0,0,0,5.75-5.75V230a5.76,5.76,0,0,0-5.75-5.75Z"/><path class="cls-10" d="M132.25,224.25h-11.5A5.76,5.76,0,0,0,115,230v11.5a5.76,5.76,0,0,0,5.75,5.75h11.5A5.76,5.76,0,0,0,138,241.5V230a5.76,5.76,0,0,0-5.75-5.75Z"/><path class="cls-10" d="M28.75,258.75H17.25a5.76,5.76,0,0,0-5.75,5.75V276a5.76,5.76,0,0,0,5.75,5.75h11.5A5.76,5.76,0,0,0,34.5,276V264.5a5.76,5.76,0,0,0-5.75-5.75Z"/><path class="cls-10" d="M63.25,258.75H51.75A5.76,5.76,0,0,0,46,264.5V276a5.76,5.76,0,0,0,5.75,5.75h11.5A5.76,5.76,0,0,0,69,276V264.5a5.76,5.76,0,0,0-5.75-5.75Z"/><path class="cls-10" d="M97.75,258.75H86.25a5.76,5.76,0,0,0-5.75,5.75V276a5.76,5.76,0,0,0,5.75,5.75h11.5A5.76,5.76,0,0,0,103.5,276V264.5a5.76,5.76,0,0,0-5.75-5.75Z"/><path class="cls-10" d="M132.25,258.75h-11.5A5.76,5.76,0,0,0,115,264.5v46a5.76,5.76,0,0,0,5.75,5.75h11.5A5.76,5.76,0,0,0,138,310.5v-46a5.76,5.76,0,0,0-5.75-5.75Z"/><path class="cls-10" d="M28.75,293.25H17.25A5.76,5.76,0,0,0,11.5,299v11.5a5.76,5.76,0,0,0,5.75,5.75h11.5a5.76,5.76,0,0,0,5.75-5.75V299a5.76,5.76,0,0,0-5.75-5.75Z"/><path class="cls-10" d="M63.25,293.25H51.75A5.76,5.76,0,0,0,46,299v11.5a5.76,5.76,0,0,0,5.75,5.75h11.5A5.76,5.76,0,0,0,69,310.5V299a5.76,5.76,0,0,0-5.75-5.75Z"/><path class="cls-10" d="M97.75,293.25H86.25A5.76,5.76,0,0,0,80.5,299v11.5a5.76,5.76,0,0,0,5.75,5.75h11.5a5.76,5.76,0,0,0,5.75-5.75V299a5.76,5.76,0,0,0-5.75-5.75Z"/><path class="cls-11" d="M28.75,184H17.25a5.76,5.76,0,0,0-5.75,5.75v11.5A5.76,5.76,0,0,0,17.25,207h11.5a5.76,5.76,0,0,0,5.75-5.75v-11.5A5.76,5.76,0,0,0,28.75,184Z"/><path class="cls-11" d="M63.25,184H51.75A5.76,5.76,0,0,0,46,189.75v11.5A5.76,5.76,0,0,0,51.75,207h11.5A5.76,5.76,0,0,0,69,201.25v-11.5A5.76,5.76,0,0,0,63.25,184Z"/><path class="cls-11" d="M97.75,184H86.25a5.76,5.76,0,0,0-5.75,5.75v11.5A5.76,5.76,0,0,0,86.25,207h11.5a5.76,5.76,0,0,0,5.75-5.75v-11.5A5.76,5.76,0,0,0,97.75,184Z"/><path class="cls-11" d="M132.25,184h-11.5a5.76,5.76,0,0,0-5.75,5.75v11.5a5.76,5.76,0,0,0,5.75,5.75h11.5a5.76,5.76,0,0,0,5.75-5.75v-11.5a5.76,5.76,0,0,0-5.75-5.75Z"/><path class="cls-6" d="M28.75,218.5H17.25a5.76,5.76,0,0,0-5.75,5.75v11.5a5.76,5.76,0,0,0,5.75,5.75h11.5a5.76,5.76,0,0,0,5.75-5.75v-11.5a5.76,5.76,0,0,0-5.75-5.75Z"/><path class="cls-6" d="M63.25,218.5H51.75A5.76,5.76,0,0,0,46,224.25v11.5a5.76,5.76,0,0,0,5.75,5.75h11.5A5.76,5.76,0,0,0,69,235.75v-11.5a5.76,5.76,0,0,0-5.75-5.75Z"/><path class="cls-6" d="M97.75,218.5H86.25a5.76,5.76,0,0,0-5.75,5.75v11.5a5.76,5.76,0,0,0,5.75,5.75h11.5a5.76,5.76,0,0,0,5.75-5.75v-11.5a5.76,5.76,0,0,0-5.75-5.75Z"/><path class="cls-6" d="M132.25,218.5h-11.5a5.76,5.76,0,0,0-5.75,5.75v11.5a5.76,5.76,0,0,0,5.75,5.75h11.5a5.76,5.76,0,0,0,5.75-5.75v-11.5a5.76,5.76,0,0,0-5.75-5.75Z"/><path class="cls-6" d="M28.75,253H17.25a5.76,5.76,0,0,0-5.75,5.75v11.5A5.76,5.76,0,0,0,17.25,276h11.5a5.76,5.76,0,0,0,5.75-5.75v-11.5A5.76,5.76,0,0,0,28.75,253Z"/><path class="cls-6" d="M63.25,253H51.75A5.76,5.76,0,0,0,46,258.75v11.5A5.76,5.76,0,0,0,51.75,276h11.5A5.76,5.76,0,0,0,69,270.25v-11.5A5.76,5.76,0,0,0,63.25,253Z"/><path class="cls-6" d="M97.75,253H86.25a5.76,5.76,0,0,0-5.75,5.75v11.5A5.76,5.76,0,0,0,86.25,276h11.5a5.76,5.76,0,0,0,5.75-5.75v-11.5A5.76,5.76,0,0,0,97.75,253Z"/><path class="cls-3" d="M132.25,253h-11.5a5.76,5.76,0,0,0-5.75,5.75v46a5.76,5.76,0,0,0,5.75,5.75h11.5a5.76,5.76,0,0,0,5.75-5.75v-46a5.76,5.76,0,0,0-5.75-5.75Z"/><path class="cls-6" d="M28.75,287.5H17.25a5.76,5.76,0,0,0-5.75,5.75v11.5a5.76,5.76,0,0,0,5.75,5.75h11.5a5.76,5.76,0,0,0,5.75-5.75v-11.5a5.76,5.76,0,0,0-5.75-5.75Z"/><path class="cls-6" d="M63.25,287.5H51.75A5.76,5.76,0,0,0,46,293.25v11.5a5.76,5.76,0,0,0,5.75,5.75h11.5A5.76,5.76,0,0,0,69,304.75v-11.5a5.76,5.76,0,0,0-5.75-5.75Z"/><path class="cls-6" d="M97.75,287.5H86.25a5.76,5.76,0,0,0-5.75,5.75v11.5a5.76,5.76,0,0,0,5.75,5.75h11.5a5.76,5.76,0,0,0,5.75-5.75v-11.5a5.76,5.76,0,0,0-5.75-5.75Z"/></g></g></svg>