<svg xmlns="http://www.w3.org/2000/svg" xmlns:xlink="http://www.w3.org/1999/xlink" width="139.434" height="139.291" viewBox="0 0 139.434 139.291">
  <defs>
    <linearGradient id="linear-gradient" y1="0.5" x2="1" y2="0.5" gradientUnits="objectBoundingBox">
      <stop offset="0" stop-color="#f37e5f"/>
      <stop offset="0.445" stop-color="#ec1c24"/>
      <stop offset="1" stop-color="#cf232a"/>
    </linearGradient>
    <linearGradient id="linear-gradient-2" x1="-0.001" y1="0.501" x2="0.999" y2="0.501" gradientUnits="objectBoundingBox">
      <stop offset="0" stop-color="#97a4b7"/>
      <stop offset="0.49" stop-color="#cdd0d2"/>
      <stop offset="1" stop-color="#eceff1"/>
    </linearGradient>
    <linearGradient id="linear-gradient-3" y1="0.5" x2="0.998" y2="0.5" gradientUnits="objectBoundingBox">
      <stop offset="0" stop-color="#3fa9f5"/>
      <stop offset="0.455" stop-color="#0087ee"/>
      <stop offset="1" stop-color="#0c83fa"/>
    </linearGradient>
  </defs>
  <g id="Group_397" data-name="Group 397" transform="translate(-14130 -19659.001)">
    <path id="Path_4977" data-name="Path 4977" d="M78.1,16.826,73.6,4.278A6.573,6.573,0,0,0,65.635.294h-.518L36.275,10.811h0L7.432,21.288a6.613,6.613,0,0,0-3.984,8.485L8.189,42.721H87.427Z" transform="translate(14139.1 19658.965)" fill="url(#linear-gradient)"/>
    <path id="Path_4978" data-name="Path 4978" d="M66.9,4.78H20.088a5.5,5.5,0,0,0-5.458,5.458V28.563H72.395V10.238A5.458,5.458,0,0,0,66.9,4.78Z" transform="translate(14173.654 19673.123)" fill="url(#linear-gradient-2)"/>
    <path id="Path_4979" data-name="Path 4979" d="M120.35,8.891H10.876A10.876,10.876,0,0,0,0,19.767v82.265a10.876,10.876,0,0,0,10.876,10.876H120.35a10.916,10.916,0,0,0,11.115-10.876V19.767A10.916,10.916,0,0,0,120.35,8.891Z" transform="translate(14130 19685.383)" fill="url(#linear-gradient-3)"/>
    <path id="Path_4980" data-name="Path 4980" d="M40.394,50.347H62.185a5.418,5.418,0,0,0,5.458-5.259V23.3a5.458,5.458,0,0,0-5.458-5.458H40.394a16.333,16.333,0,1,0,0,32.667Z" transform="translate(14201.79 19712.088)" fill="url(#linear-gradient)"/>
    <path id="Path_4981" data-name="Path 4981" d="M35.158,24.924a3.984,3.984,0,1,1-3.984-3.984A3.984,3.984,0,0,1,35.158,24.924Z" transform="translate(14211.131 19721.34)" fill="#d6e8fe"/>
    <path id="Path_4982" data-name="Path 4982" d="M81.8,48.838a5.9,5.9,0,0,0-5.338-6.573,8.764,8.764,0,0,1-4.86-2.47A10.079,10.079,0,0,1,68.851,28.6a5.617,5.617,0,0,0-1.713-6.254,38.842,38.842,0,0,0-11.752-6.733,4.98,4.98,0,0,0-5.7,1.275l-1.554,1.554A10.358,10.358,0,0,1,37.18,20.434,14.3,14.3,0,0,1,32.6,16.888a5.02,5.02,0,0,0-5.7-1.275,38.165,38.165,0,0,0-11.234,6.334,4.9,4.9,0,0,0-1.235,1.474,5.537,5.537,0,0,0-.279,4.7,10.876,10.876,0,0,1,.677,4.9,10.517,10.517,0,0,1-9.242,9.242,5.179,5.179,0,0,0-4.82,4.581,30.834,30.834,0,0,0-.478,4.7,45.534,45.534,0,0,0,.239,8.406,5.259,5.259,0,0,0,5.02,5.02,10.2,10.2,0,0,1,6.573,3.546,10.238,10.238,0,0,1,2.47,7.689,15.138,15.138,0,0,1-1,3.785,5.1,5.1,0,0,0,1.753,6.1,34.66,34.66,0,0,0,4.462,3.147,27.886,27.886,0,0,0,8.565,3.984h.677a5.737,5.737,0,0,0,4.462-2.55,10.318,10.318,0,0,1,15.935-.4,9.561,9.561,0,0,0,1.514,1.594,5.7,5.7,0,0,0,5.9.4,45.692,45.692,0,0,0,8.645-5.02c.6-.478,1.2-.956,1.753-1.474a4.98,4.98,0,0,0,1.315-5.617,10.756,10.756,0,0,1-.558-6.015,10.278,10.278,0,0,1,8.764-8.645,5.418,5.418,0,0,0,4.781-4.621c.279-1.315.2-2.629.438-3.984V51.029A13.585,13.585,0,0,1,81.8,48.838ZM40.885,67.681a13.585,13.585,0,1,1,9.744-3.837A13.624,13.624,0,0,1,40.885,67.681Z" transform="translate(14130.588 19704.238)" fill="url(#linear-gradient)"/>
  </g>
</svg>
