<svg xmlns="http://www.w3.org/2000/svg" xmlns:xlink="http://www.w3.org/1999/xlink" viewBox="0 0 322 296.51"><defs><style>.cls-1{fill:none;}.cls-2{fill:#293e65;}.cls-3{clip-path:url(#clip-path);}.cls-4{fill:#b00e0e;}.cls-5{fill:#e40707;}.cls-6{fill:#d0e8fe;}.cls-7{fill:#e7f3ff;}.cls-8{fill:#fda102;}.cls-9{fill:#fdb902;}.cls-10{fill:#efe2dd;}.cls-11{fill:#f7f0eb;}.cls-12{fill:#fffbf5;}.cls-13{fill:#dcd2cd;}.cls-14{fill:#c8beb9;}</style><clipPath id="clip-path" transform="translate(0 -0.17)"><rect class="cls-1" width="322" height="296.84"/></clipPath></defs><title>Asset 139</title><g id="Layer_2" data-name="Layer 2"><g id="red"><rect class="cls-2" x="6.06" y="214.63" width="48.04" height="81.88"/><g class="cls-3"><rect class="cls-2" x="267.9" y="214.63" width="48.04" height="81.88"/><path class="cls-4" d="M316.18,147.24l-9.08-31.78h0L294,51.5A64.19,64.19,0,0,0,231.1.17H161L147.58,102.35,161,177.41l81.65,61.53h73.12l4.17-25a152.62,152.62,0,0,0-3.76-66.73Z" transform="translate(0 -0.17)"/><path class="cls-5" d="M90.9.17A64.19,64.19,0,0,0,28,51.5l-13.08,64h0L5.82,147.24A152.62,152.62,0,0,0,2.06,214l4.17,25H79.35L161,177.41V.17Z" transform="translate(0 -0.17)"/></g><path class="cls-6" d="M161,102.35a861.56,861.56,0,0,1,108.8,7.17L254.31,34.91H161l-6.71,33Z" transform="translate(0 -0.17)"/><path class="cls-7" d="M161,34.91H67.7L52.2,109.52A861.56,861.56,0,0,1,161,102.35Z" transform="translate(0 -0.17)"/><path class="cls-8" d="M207.27,177.41H161l-6.71,34.24L161,238.94h81.65Z" transform="translate(0 -0.17)"/><path class="cls-9" d="M114.73,177.41,79.35,238.94H161V177.41Z" transform="translate(0 -0.17)"/><path class="cls-10" d="M170.43,126.74H161L157.23,139,161,151.27h9.43Z" transform="translate(0 -0.17)"/><rect class="cls-11" x="151.57" y="126.57" width="9.43" height="24.53"/><path class="cls-12" d="M86.78,173.25a30.52,30.52,0,1,1-8.94-21.57,30.51,30.51,0,0,1,8.94,21.57Z" transform="translate(0 -0.17)"/><path class="cls-13" d="M69,172.23A12.8,12.8,0,1,0,57.3,186,12.8,12.8,0,0,0,69,172.23Z" transform="translate(0 -0.17)"/><path class="cls-11" d="M296.23,173.25a30.51,30.51,0,1,1-30.5-30.51,30.51,30.51,0,0,1,30.5,30.51Z" transform="translate(0 -0.17)"/><path class="cls-14" d="M271.84,161.87a12.8,12.8,0,1,1-17.27,5.42,12.8,12.8,0,0,1,17.27-5.42Z" transform="translate(0 -0.17)"/></g></g></svg>