<svg xmlns="http://www.w3.org/2000/svg" xmlns:xlink="http://www.w3.org/1999/xlink" viewBox="0 0 45.79 39"><defs><style>.cls-1{fill:#dfe7f4;}.cls-2{fill:#c7cfe1;}.cls-3{fill:url(#blue_befiler_Gradient_Swatch);}.cls-4{fill:url(#Red_Orange);}.cls-5{fill:#fff;}.cls-6{fill:url(#blue_befiler_Gradient_Swatch-2);}.cls-7{fill:url(#blue_befiler_Gradient_Swatch-5);}.cls-8{fill:url(#blue_befiler_Gradient_Swatch-6);}.cls-9{fill:url(#blue_befiler_Gradient_Swatch-7);}.cls-10{fill:url(#blue_befiler_Gradient_Swatch-8);}.cls-11{fill:url(#blue_befiler_Gradient_Swatch-9);}.cls-12{fill:url(#blue_befiler_Gradient_Swatch-10);}</style><linearGradient id="blue_befiler_Gradient_Swatch" x1="0.37" y1="35.01" x2="45.79" y2="35.01" gradientUnits="userSpaceOnUse"><stop offset="0" stop-color="#3fa9f5"/><stop offset="0.58" stop-color="#0087ee"/><stop offset="1" stop-color="#0d71c8"/></linearGradient><linearGradient id="Red_Orange" x1="3.04" y1="19.71" x2="43.13" y2="19.71" gradientUnits="userSpaceOnUse"><stop offset="0" stop-color="#f37e5f"/><stop offset="0.5" stop-color="#ec1c24"/><stop offset="1" stop-color="#cf232a"/></linearGradient><linearGradient id="blue_befiler_Gradient_Swatch-2" x1="0" y1="3.99" x2="45.42" y2="3.99" xlink:href="#blue_befiler_Gradient_Swatch"/><linearGradient id="blue_befiler_Gradient_Swatch-5" x1="2.66" y1="3.99" x2="7.19" y2="3.99" xlink:href="#blue_befiler_Gradient_Swatch"/><linearGradient id="blue_befiler_Gradient_Swatch-6" x1="9.85" y1="3.99" x2="14.28" y2="3.99" xlink:href="#blue_befiler_Gradient_Swatch"/><linearGradient id="blue_befiler_Gradient_Swatch-7" x1="16.94" y1="3.99" x2="21.38" y2="3.99" xlink:href="#blue_befiler_Gradient_Swatch"/><linearGradient id="blue_befiler_Gradient_Swatch-8" x1="38.23" y1="3.99" x2="42.76" y2="3.99" xlink:href="#blue_befiler_Gradient_Swatch"/><linearGradient id="blue_befiler_Gradient_Swatch-9" x1="31.14" y1="3.99" x2="35.57" y2="3.99" xlink:href="#blue_befiler_Gradient_Swatch"/><linearGradient id="blue_befiler_Gradient_Swatch-10" x1="24.04" y1="3.99" x2="28.47" y2="3.99" xlink:href="#blue_befiler_Gradient_Swatch"/></defs><g id="Layer_2" data-name="Layer 2"><g id="Business"><rect class="cls-1" x="1.7" y="32.35" width="42.76" height="5.32"/><rect class="cls-2" x="23.08" y="32.35" width="21.38" height="5.32"/><path class="cls-3" d="M7.56,36.34H3V33.68H7.56Zm7.1,0H10.22V33.68h4.44Zm7.09,0H17.32V33.68h4.43Zm16.86-2.66h4.52v2.66H38.61Zm-7.1,0H36v2.66H31.51Zm-7.1,0h4.44v2.66H24.41ZM.37,31v8H45.79V31Z"/><rect class="cls-4" x="3.04" y="7.07" width="40.1" height="25.28"/><path class="cls-5" d="M23.08,13.9l-4-2.67V26.85l4-2.66L30.8,19Z"/><path class="cls-5" d="M23.08,13.9V24.19L30.8,19Z"/><path class="cls-6" d="M0,0V8H45.42V0ZM44.09,6.65H1.33V1.33H44.09Z"/><path class="cls-1" d="M1.33,1.33V6.65H22.71V1.33Zm5.86,4H2.66V2.66H7.19Zm7.09,0H9.85V2.66h4.43Zm7.1,0H16.94V2.66h4.44Z"/><path class="cls-6" d="M1.33,1.33V6.65H22.71V1.33Zm5.86,4H2.66V2.66H7.19Zm7.09,0H9.85V2.66h4.43Zm7.1,0H16.94V2.66h4.44Z"/><path class="cls-2" d="M22.71,6.65H44.09V1.33H22.71Zm15.52-4h4.53V5.32H38.23Zm-7.09,0h4.43V5.32H31.14Zm-7.1,0h4.43V5.32H24Z"/><path class="cls-6" d="M22.71,6.65H44.09V1.33H22.71Zm15.52-4h4.53V5.32H38.23Zm-7.09,0h4.43V5.32H31.14Zm-7.1,0h4.43V5.32H24Z"/><rect class="cls-1" x="2.66" y="2.66" width="4.52" height="2.66"/><rect class="cls-7" x="2.66" y="2.66" width="4.52" height="2.66"/><rect class="cls-5" x="2.66" y="2.66" width="4.52" height="2.66"/><rect class="cls-1" x="9.85" y="2.66" width="4.44" height="2.66"/><rect class="cls-8" x="9.85" y="2.66" width="4.44" height="2.66"/><rect class="cls-5" x="9.85" y="2.66" width="4.44" height="2.66"/><rect class="cls-1" x="16.94" y="2.66" width="4.44" height="2.66"/><rect class="cls-9" x="16.94" y="2.66" width="4.44" height="2.66"/><rect class="cls-5" x="16.94" y="2.66" width="4.44" height="2.66"/><rect class="cls-2" x="38.23" y="2.66" width="4.52" height="2.66"/><rect class="cls-10" x="38.23" y="2.66" width="4.52" height="2.66"/><rect class="cls-5" x="38.23" y="2.66" width="4.52" height="2.66"/><rect class="cls-2" x="31.14" y="2.66" width="4.44" height="2.66"/><rect class="cls-11" x="31.14" y="2.66" width="4.44" height="2.66"/><rect class="cls-5" x="31.14" y="2.66" width="4.44" height="2.66"/><rect class="cls-2" x="24.04" y="2.66" width="4.44" height="2.66"/><rect class="cls-12" x="24.04" y="2.66" width="4.44" height="2.66"/><rect class="cls-5" x="24.04" y="2.66" width="4.44" height="2.66"/></g></g></svg>