<svg xmlns="http://www.w3.org/2000/svg" viewBox="0 0 281.75 322"><defs><style>.cls-1{fill:#e40707;}.cls-2{fill:#fafafa;}.cls-3{fill:#fff;}.cls-4{fill:#b00e0e;}.cls-5{fill:#b00e0e;}.cls-6{fill:#dadada;}.cls-7{fill:#dedede;}.cls-8{fill:#e40707;}</style></defs><title>Asset 90</title><g id="Layer_2" data-name="Layer 2"><g id="Layer_1-2" data-name="Layer 1"><path class="cls-1" d="M271.69,53.67l-1.61.4-1.75-.4H254.92V13.42A13.46,13.46,0,0,0,241.5,0H40.25A40.21,40.21,0,0,0,.67,33.54L0,36.9V285.1A36.87,36.87,0,0,0,36.9,322H271.69a10.13,10.13,0,0,0,10.06-10.06V63.73a10.13,10.13,0,0,0-10.06-10.06Z"/><path class="cls-2" d="M140.88,275a87.21,87.21,0,1,1,87.2-87.21A87.37,87.37,0,0,1,140.88,275Z"/><path class="cls-3" d="M228.08,53.67H40.25a13.42,13.42,0,0,1,0-26.84H228.08Z"/><path class="cls-4" d="M161,221.37a13.37,13.37,0,0,1-9.49-3.93l-20.12-20.12a13.38,13.38,0,0,1-3.93-9.49V147.58a13.42,13.42,0,0,1,26.83,0v34.7l16.2,16.19a13.42,13.42,0,0,1-9.49,22.9Z"/><path class="cls-5" d="M140.88,0H40.25A40.21,40.21,0,0,0,.67,33.54L0,36.9V285.1A36.87,36.87,0,0,0,36.9,322h104V275a87.21,87.21,0,0,1,0-174.42V53.67H40.25a13.42,13.42,0,0,1,0-26.84H140.88Z"/><path class="cls-6" d="M140.88,100.62a87.21,87.21,0,0,0,0,174.42V206.81l-9.49-9.49a13.38,13.38,0,0,1-3.93-9.49V147.58a13.41,13.41,0,0,1,13.42-13.41Z"/><path class="cls-7" d="M107.33,26.83H40.25a13.42,13.42,0,0,0,0,26.84h90.56V26.83Z"/><path class="cls-8" d="M140.88,134.17a13.41,13.41,0,0,0-13.42,13.41v40.25a13.38,13.38,0,0,0,3.93,9.49l9.49,9.49Z"/></g></g></svg>