<svg xmlns="http://www.w3.org/2000/svg" viewBox="0 0 322 322"><defs><style>.cls-1{fill:#00c0f1;}.cls-2{fill:#3d6dcc;}.cls-3{fill:#0d71c8;}.cls-4{fill:#b00e0e;}.cls-5{fill:#c6151d;}.cls-6{fill:#009ae4;}.cls-7{fill:#2196f3;}.cls-8{fill:#0c83fa;}</style></defs><title>Asset 123</title><g id="Layer_2" data-name="Layer 2"><g id="red"><path class="cls-1" d="M274.2,95A47.17,47.17,0,1,1,227,47.8,47.18,47.18,0,0,1,274.2,95Z"/><path class="cls-2" d="M274.2,95A47.18,47.18,0,0,1,227,142.13V47.8A47.18,47.18,0,0,1,274.2,95Z"/><path class="cls-3" d="M142.13,95A47.17,47.17,0,1,1,95,47.8,47.18,47.18,0,0,1,142.13,95Z"/><path class="cls-2" d="M142.13,95A47.18,47.18,0,0,1,95,142.13V47.8A47.18,47.18,0,0,1,142.13,95Z"/><path class="cls-3" d="M208.17,227A47.17,47.17,0,1,1,161,179.87,47.18,47.18,0,0,1,208.17,227Z"/><path class="cls-2" d="M208.17,227A47.18,47.18,0,0,1,161,274.2V179.87A47.18,47.18,0,0,1,208.17,227Z"/><rect class="cls-4" y="94.96" width="322" height="132.07"/><rect class="cls-5" x="161" y="94.96" width="161" height="132.07"/><path class="cls-3" d="M55,135A56.66,56.66,0,0,1,66.73,45.9l9.39,16.36a37.73,37.73,0,0,0-7.83,59.38Z"/><path class="cls-6" d="M135,135l-13.34-13.34a37.78,37.78,0,0,0-7.84-59.38l9.4-16.36A56.59,56.59,0,0,1,135,135Z"/><path class="cls-3" d="M132.75,281.15a57,57,0,0,1-11.77-9,56.6,56.6,0,0,1,0-80.05l13.34,13.34a37.75,37.75,0,0,0,0,53.37,37.91,37.91,0,0,0,7.86,6Z"/><path class="cls-2" d="M189.25,281.15l-9.43-16.34a37.91,37.91,0,0,0,7.86-6,37.75,37.75,0,0,0,0-53.37L201,192.06a56.6,56.6,0,0,1,0,80.05,57,57,0,0,1-11.77,9Z"/><path class="cls-7" d="M161,245.9a37.72,37.72,0,0,0-37.73,37.74c0,20.75,17,38.36,37.73,38.36s37.73-17.61,37.73-38.36A37.72,37.72,0,0,0,161,245.9Z"/><path class="cls-8" d="M198.73,283.64c0,20.75-17,38.36-37.73,38.36V245.9a37.72,37.72,0,0,1,37.73,37.74Z"/><path class="cls-7" d="M95,0C74.21,0,57.23,17.61,57.23,38.36a37.74,37.74,0,1,0,75.47,0C132.7,17.61,115.72,0,95,0Z"/><path class="cls-8" d="M132.7,38.36A37.85,37.85,0,0,1,95,76.1V0c20.76,0,37.74,17.61,37.74,38.36Z"/><path class="cls-1" d="M187,135A56.66,56.66,0,0,1,198.8,45.9l9.4,16.36a37,37,0,0,0-7.83,6,37.7,37.7,0,0,0,0,53.36Z"/><path class="cls-2" d="M267.05,135l-13.34-13.34a37.8,37.8,0,0,0-7.83-59.38l9.39-16.36A56.59,56.59,0,0,1,267.05,135Z"/><path class="cls-7" d="M227,0C206.28,0,189.3,17.61,189.3,38.36a37.74,37.74,0,1,0,75.47,0C264.77,17.61,247.79,0,227,0Z"/><path class="cls-8" d="M264.77,38.36A37.84,37.84,0,0,1,227,76.1V0c20.75,0,37.73,17.61,37.73,38.36Z"/></g></g></svg>