<svg xmlns="http://www.w3.org/2000/svg" xmlns:xlink="http://www.w3.org/1999/xlink" viewBox="0 0 321.49 322"><defs><style>.cls-1{fill:none;}.cls-2{clip-path:url(#clip-path);}.cls-3{fill:#00aa95;}.cls-4{fill:#00cc76;}.cls-5{fill:#a5e887;}.cls-6{fill:#e40707;}.cls-7{fill:#b00e0e;}</style><clipPath id="clip-path" transform="translate(-0.26)"><rect class="cls-1" width="322" height="322"/></clipPath></defs><title>Asset 125</title><g id="Layer_2" data-name="Layer 2"><g id="red"><g class="cls-2"><path class="cls-3" d="M301.5,150.79c-22,22-61.59,23.43-92.22,17.26-2.23-.44-3.95-.87-8-1.79C180.46,76,224.68,29.3,317,50.62c7.84,32.64,8.17,76.54-15.46,100.17Z" transform="translate(-0.26)"/><path class="cls-4" d="M120.69,166.26c-4.06.94-5.77,1.36-8,1.8-30.74,6.1-70.08,4.81-92.16-17.27C-3.16,127.13-2.78,83.15,5,50.62c32.84-7.57,76.24-8.44,100.17,15.46s23,67.32,15.48,100.18Z" transform="translate(-0.26)"/><path class="cls-5" d="M220.86,81.78c0,33.72-31.2,63.83-59.9,81.78-35.7-22.52-69.47-58.69-57.29-98.88C111.75,37.94,137.3,14.83,161,0c28.56,17.61,59.9,48.21,59.9,81.78Z" transform="translate(-0.26)"/><path class="cls-4" d="M220.86,81.78c0,33.79-31.34,63.92-59.9,81.78l-2-1.25V1.26l1.51-1c.6-.38.31-.4,1.32.23,28.25,17.88,59.05,47.78,59.05,81.25Z" transform="translate(-0.26)"/></g><path class="cls-5" d="M154.39,208.38l-75.58-73H9.54A81.67,81.67,0,0,1,3,116.46H59.23L2.73,61.88C3.39,58,4.17,54.24,5,50.62q5.34-1.23,11-2.2l49.73,48V47.52a89.46,89.46,0,0,1,18.91,5.23v62L161,188.43Z" transform="translate(-0.26)"/><path class="cls-4" d="M262.7,116.46H319a81.65,81.65,0,0,1-6.57,18.91H243.11L168,207.9V181.6l69.23-66.87V52.78a88.55,88.55,0,0,1,18.91-5.24V96.46l49.74-48c3.78.64,7.48,1.38,11,2.21q1.31,5.4,2.3,11.2Z" transform="translate(-0.26)"/><path class="cls-4" d="M170.42,236.88H151.51V107.52L111,85c4.44-8,2.42-4.37,9.18-16.53l31.35,17.41V6.32C156.18,3,160.88,0,161,0s5.52,3.51,9.42,6.28V62.86l25.22-18.92L207,59.08,170.42,86.5Z" transform="translate(-0.26)"/><path class="cls-3" d="M170.42,236.88H161V0c.23,0,5.52,3.51,9.42,6.28V62.86l25.22-18.92L207,59.08,170.42,86.5Z" transform="translate(-0.26)"/><path class="cls-6" d="M286.43,307.5c0,3.71-.23,5.19-1.26,14.5H36.75l-.92-8.42c-4.61-42,38-73.15,76.35-56.42,20.36-39.55,77.17-39.62,97.57,0,35.82-15.62,76.68,10.69,76.68,50.34Z" transform="translate(-0.26)"/><path class="cls-7" d="M286.43,307.5c0,3.71-.23,5.19-1.26,14.5H161V227.43a54.89,54.89,0,0,1,48.79,29.73c35.82-15.62,76.68,10.69,76.68,50.34Z" transform="translate(-0.26)"/></g></g></svg>