<svg xmlns="http://www.w3.org/2000/svg" xmlns:xlink="http://www.w3.org/1999/xlink" viewBox="0 0 322 321.59"><defs><style>.cls-1{fill:none;}.cls-2{fill:#b00e0e;}.cls-3{fill:#c6151d;}.cls-4,.cls-5{fill:#fae77d;}.cls-11,.cls-5,.cls-7,.cls-8{fill-rule:evenodd;}.cls-6{clip-path:url(#clip-path);}.cls-12,.cls-7{fill:#facf23;}.cls-8{fill:#ffdad2;}.cls-11,.cls-9{fill:#ff9f9b;}.cls-10{fill:#0c83fa;}</style><clipPath id="clip-path" transform="translate(0 -0.21)"><rect class="cls-1" width="322" height="322"/></clipPath></defs><title>Asset 145</title><g id="Layer_2" data-name="Layer 2"><g id="red"><path class="cls-2" d="M209.36,178.59h-.45c-7.72-.21-13.09-5-17-8.53-1.83-1.63-3.89-3.48-5.17-3.89a22.67,22.67,0,0,0-4.25,1c-4.58,1.36-11.49,3.41-18.14-.67s-8.82-10.89-10.46-15.88c-.76-2.33-1.63-5-2.53-6a22.85,22.85,0,0,0-4.19-1.25c-4.64-1.11-11.65-2.79-15.37-9.65s-2.2-13.84-1.12-19c.5-2.4,1.07-5.1.79-6.42a22.43,22.43,0,0,0-3-3.17c-3.47-3.28-8.7-8.25-8.49-16s5-13.09,8.53-17c1.63-1.83,3.47-3.89,3.88-5.16a22.25,22.25,0,0,0-1-4.26C130,58.15,128,51.24,132,44.59s10.89-8.83,15.89-10.47c2.33-.77,5-1.63,5.95-2.53a22.87,22.87,0,0,0,1.26-4.18c1.11-4.65,2.78-11.66,9.64-15.38s13.84-2.2,19-1.12c2.4.51,5.11,1.07,6.42.79a21.86,21.86,0,0,0,3.18-3c3.28-3.46,8.24-8.69,16-8.49s13.09,5,17,8.53c1.82,1.63,3.88,3.47,5.16,3.88a20.6,20.6,0,0,0,4.25-1c4.58-1.36,11.49-3.41,18.14.67s8.83,10.88,10.47,15.88c.76,2.33,1.62,5,2.52,5.95a22.47,22.47,0,0,0,4.19,1.26c4.64,1.11,11.65,2.79,15.37,9.64s2.2,13.84,1.12,19c-.5,2.4-1.07,5.11-.78,6.42a21.86,21.86,0,0,0,3,3.18c3.46,3.28,8.69,8.24,8.48,16s-5,13.09-8.52,17c-1.63,1.83-3.48,3.89-3.89,5.16a22.39,22.39,0,0,0,1,4.26c1.36,4.57,3.41,11.48-.67,18.13s-10.88,8.83-15.89,10.47c-2.32.76-4.95,1.63-5.95,2.53a23,23,0,0,0-1.25,4.18c-1.11,4.64-2.79,11.66-9.65,15.37s-13.84,2.2-19,1.13c-2.39-.51-5.1-1.07-6.42-.79a22.39,22.39,0,0,0-3.17,3c-3.22,3.39-8,8.49-15.59,8.49ZM231.69,12.66Z" transform="translate(0 -0.21)"/><path class="cls-3" d="M298.35,89.65c.21-7.8-5-12.76-8.49-16a21.86,21.86,0,0,1-3-3.18c-.29-1.31.28-4,.79-6.42,1.07-5.15,2.55-12.2-1.13-19s-10.73-8.53-15.37-9.64A22.1,22.1,0,0,1,267,34.12c-.91-1-1.77-3.62-2.53-5.95-1.64-5-3.89-11.85-10.47-15.88s-13.56-2-18.13-.67a20.9,20.9,0,0,1-4.25,1c-1.29-.41-3.35-2.25-5.17-3.88-3.92-3.52-9.29-8.32-17-8.53-.4,0-.79,0-1.18,0V178.54l.68.05h.45c7.54,0,12.37-5.1,15.59-8.49a22.39,22.39,0,0,1,3.17-3c1.32-.28,4,.28,6.42.79,5.15,1.07,12.21,2.55,19-1.13s8.54-10.73,9.65-15.37a23,23,0,0,1,1.25-4.18c1-.9,3.63-1.77,5.95-2.53,5-1.64,11.85-3.89,15.89-10.47s2-13.56.67-18.13a22.39,22.39,0,0,1-1-4.26c.41-1.27,2.26-3.33,3.89-5.16,3.51-3.92,8.32-9.29,8.53-17Z" transform="translate(0 -0.21)"/><path class="cls-4" d="M194.7,123.84a9.42,9.42,0,0,1-8.15-14.13l28.9-50a9.42,9.42,0,1,1,16.32,9.42l-28.9,50a9.39,9.39,0,0,1-8.17,4.71Z" transform="translate(0 -0.21)"/><path class="cls-5" d="M191.17,57.68a9.42,9.42,0,1,1-12.87,3.45,9.42,9.42,0,0,1,12.87-3.45Z" transform="translate(0 -0.21)"/><g class="cls-6"><path class="cls-7" d="M242.71,106.57a9.43,9.43,0,1,1-12-5.85,9.44,9.44,0,0,1,12,5.85Z" transform="translate(0 -0.21)"/><path class="cls-8" d="M321.37,225.27l-.19-.33C306.8,200,275.25,191.2,249.37,204.8l-59.26,30.77c1.56-8.39-1.38-17.51-11.22-23.19L140,189.93a22.78,22.78,0,0,0-13.43-4.38L42.41,186v88.56H80.77l74.62,43.17a28.42,28.42,0,0,0,14.19,4.06A23.24,23.24,0,0,0,182,318.21L319.8,231.62a4.72,4.72,0,0,0,1.57-6.35Z" transform="translate(0 -0.21)"/></g><path class="cls-9" d="M188.88,266.13a42.33,42.33,0,0,0,20.83-36.07,37.94,37.94,0,0,0-.28-4.55l-19.29,10a23.55,23.55,0,0,1-10.68,14.28c-4.18,2.42-11,4.25-19.58-.65l-34.17-21.71a9.42,9.42,0,0,0-10.1,15.91L150,265.18l.35.21a40.53,40.53,0,0,0,20.3,5.69,36.31,36.31,0,0,0,18.28-4.95Z" transform="translate(0 -0.21)"/><g class="cls-6"><path class="cls-10" d="M63.45,306.59h-54A9.42,9.42,0,0,1,0,297.17V166a9.42,9.42,0,0,1,9.42-9.42h54A9.42,9.42,0,0,1,72.87,166v131.2a9.42,9.42,0,0,1-9.42,9.42Z" transform="translate(0 -0.21)"/><path class="cls-11" d="M321.37,225.27l-.19-.33C306.8,200,275.25,191.2,249.37,204.8l-41.14,21.37v75.57L319.8,231.61a4.71,4.71,0,0,0,1.57-6.34Z" transform="translate(0 -0.21)"/></g><path class="cls-12" d="M228.32,56.22a9.42,9.42,0,0,0-12.87,3.44l-7.22,12.51v37.69l23.54-40.77a9.43,9.43,0,0,0-3.45-12.87Z" transform="translate(0 -0.21)"/></g></g></svg>