<svg xmlns="http://www.w3.org/2000/svg" xmlns:xlink="http://www.w3.org/1999/xlink" viewBox="0 0 34.76 40.55"><defs><style>.cls-1{fill:#44b3e6;}.cls-2{fill:url(#Red_Orange);}.cls-3{fill:#bdccd4;}.cls-4{fill:#fff;}.cls-5{fill:url(#blue_befiler_Gradient_Swatch);}.cls-6{fill:url(#blue_befiler_Gradient_Swatch-2);}</style><linearGradient id="Red_Orange" x1="4.35" y1="20.28" x2="34.76" y2="20.28" gradientUnits="userSpaceOnUse"><stop offset="0" stop-color="#f37e5f"/><stop offset="0.5" stop-color="#ec1c24"/><stop offset="1" stop-color="#cf232a"/></linearGradient><linearGradient id="blue_befiler_Gradient_Swatch" x1="11.59" y1="36.93" x2="23.17" y2="36.93" gradientUnits="userSpaceOnUse"><stop offset="0" stop-color="#3fa9f5"/><stop offset="0.58" stop-color="#0087ee"/><stop offset="1" stop-color="#0d71c8"/></linearGradient><linearGradient id="blue_befiler_Gradient_Swatch-2" x1="17.38" y1="36.93" x2="23.17" y2="36.93" xlink:href="#blue_befiler_Gradient_Swatch"/></defs><g id="Layer_2" data-name="Layer 2"><g id="HOME_2" data-name="HOME 2"><path class="cls-1" d="M34.76,26.07V40.55H30.41V20.28Z"/><polygon class="cls-2" points="30.41 20.28 30.41 14.48 23.17 10.14 23.17 0 17.38 0 11.59 0 4.34 7.24 4.34 40.55 17.38 40.55 30.41 40.55 34.76 40.55 34.76 26.07 30.41 20.28"/><path class="cls-3" d="M4.34,40.55H0V20.28l4.34-5.8Z"/><path class="cls-4" d="M23.9,17.38h1.45a1.44,1.44,0,0,1,1.44,1.45v1.45a1.43,1.43,0,0,1-1.44,1.44H23.9a1.44,1.44,0,0,1-1.45-1.44V18.83a1.44,1.44,0,0,1,1.45-1.45Z"/><path class="cls-4" d="M23.9,24.62h1.45a1.44,1.44,0,0,1,1.44,1.45v1.45A1.44,1.44,0,0,1,25.35,29H23.9a1.44,1.44,0,0,1-1.45-1.45V26.07a1.44,1.44,0,0,1,1.45-1.45Z"/><path class="cls-4" d="M9.41,10.14h1.45a1.44,1.44,0,0,1,1.45,1.45V13a1.44,1.44,0,0,1-1.45,1.45H9.41A1.44,1.44,0,0,1,8,13V11.59a1.44,1.44,0,0,1,1.44-1.45Z"/><path class="cls-4" d="M9.41,17.38h1.45a1.45,1.45,0,0,1,1.45,1.45v1.45a1.44,1.44,0,0,1-1.45,1.44H9.41A1.43,1.43,0,0,1,8,20.28V18.83a1.44,1.44,0,0,1,1.44-1.45Z"/><path class="cls-4" d="M9.41,24.62h1.45a1.45,1.45,0,0,1,1.45,1.45v1.45A1.45,1.45,0,0,1,10.86,29H9.41A1.44,1.44,0,0,1,8,27.52V26.07a1.44,1.44,0,0,1,1.44-1.45Z"/><path class="cls-4" d="M16.66,2.9H18.1a1.44,1.44,0,0,1,1.45,1.44V5.79A1.44,1.44,0,0,1,18.1,7.24H16.66a1.44,1.44,0,0,1-1.45-1.45V4.34A1.44,1.44,0,0,1,16.66,2.9Z"/><path class="cls-4" d="M16.66,10.14H18.1a1.44,1.44,0,0,1,1.45,1.45V13a1.44,1.44,0,0,1-1.45,1.45H16.66A1.44,1.44,0,0,1,15.21,13V11.59a1.44,1.44,0,0,1,1.45-1.45Z"/><path class="cls-4" d="M16.66,17.38H18.1a1.44,1.44,0,0,1,1.45,1.45v1.45a1.44,1.44,0,0,1-1.45,1.44H16.66a1.44,1.44,0,0,1-1.45-1.44V18.83a1.44,1.44,0,0,1,1.45-1.45Z"/><path class="cls-4" d="M16.66,24.62H18.1a1.44,1.44,0,0,1,1.45,1.45v1.45A1.44,1.44,0,0,1,18.1,29H16.66a1.44,1.44,0,0,1-1.45-1.45V26.07a1.44,1.44,0,0,1,1.45-1.45Z"/><rect class="cls-5" x="11.59" y="33.31" width="11.59" height="7.24"/><path class="cls-4" d="M19.55,4.34V5.79A1.45,1.45,0,0,1,18.1,7.24h-.72V2.9h.72a1.44,1.44,0,0,1,1.45,1.44Z"/><path class="cls-4" d="M19.55,11.59V13a1.45,1.45,0,0,1-1.45,1.45h-.72V10.14h.72a1.45,1.45,0,0,1,1.45,1.45Z"/><path class="cls-4" d="M19.55,18.83v1.45a1.44,1.44,0,0,1-1.45,1.44h-.72V17.38h.72a1.45,1.45,0,0,1,1.45,1.45Z"/><path class="cls-4" d="M19.55,26.07v1.45A1.45,1.45,0,0,1,18.1,29h-.72V24.62h.72a1.45,1.45,0,0,1,1.45,1.45Z"/><rect class="cls-6" x="17.38" y="33.31" width="5.79" height="7.24"/></g></g></svg>