<svg xmlns="http://www.w3.org/2000/svg" viewBox="0 0 322 322"><defs><style>.cls-1{fill:#00cc71;}.cls-2{fill:#009954;}.cls-3{fill:#607d8b;}.cls-4{fill:#f29500;}.cls-5{fill:#f98500;}.cls-6{fill:#546d79;}.cls-7{fill:#fca713;}.cls-8{fill:#fff;}.cls-9{fill:#dedede;}</style></defs><title>Asset 142</title><g id="Layer_2" data-name="Layer 2"><g id="red"><path class="cls-1" d="M301.88,93.92H194.54a20.11,20.11,0,0,1-20.12-20.13V20.13A20.11,20.11,0,0,1,194.54,0H301.88A20.11,20.11,0,0,1,322,20.13V73.79a20.11,20.11,0,0,1-20.12,20.13Z"/><path class="cls-2" d="M322,47H174.42V73.79a20.11,20.11,0,0,0,20.12,20.13H301.88A20.11,20.11,0,0,0,322,73.79Z"/><path class="cls-1" d="M127.46,147.58H20.13A20.11,20.11,0,0,1,0,127.46V73.79A20.11,20.11,0,0,1,20.13,53.67H127.46a20.11,20.11,0,0,1,20.12,20.12v53.67a20.11,20.11,0,0,1-20.12,20.12Z"/><path class="cls-2" d="M147.58,100.63H0v26.83a20.11,20.11,0,0,0,20.13,20.12H127.46a20.11,20.11,0,0,0,20.12-20.12Z"/><path class="cls-3" d="M220.43,51.05a10,10,0,0,0-13.36-4.9,97.09,97.09,0,0,0-53.22,65.41,64.13,64.13,0,0,0-47.32-21,10.07,10.07,0,1,0,0,20.13,44.46,44.46,0,0,1,44.41,44.41v26a10.06,10.06,0,0,0,20.12,0v-47A77.13,77.13,0,0,1,215.54,64.4a10,10,0,0,0,4.89-13.35Z"/><path class="cls-4" d="M191.19,322H130.81a36.92,36.92,0,0,1-36.89-36.9V214.67H228.08V285.1A36.92,36.92,0,0,1,191.19,322Z"/><path class="cls-5" d="M218,228.08H104c-17.34,0-23.48-10.84-23.48-20.12V197.9A23.5,23.5,0,0,1,104,174.42H218A23.5,23.5,0,0,1,241.5,197.9v6.7A23.5,23.5,0,0,1,218,228.08Z"/><path class="cls-6" d="M106.53,90.56a10.07,10.07,0,1,0,0,20.13,44.46,44.46,0,0,1,44.41,44.41v19.32H161V91.66a98.81,98.81,0,0,0-7.14,19.91,64.14,64.14,0,0,0-47.33-21Z"/><path class="cls-7" d="M93.92,226.58V285.1A36.92,36.92,0,0,0,130.81,322H161V228.08H104a31.44,31.44,0,0,1-10.06-1.5Z"/><path class="cls-4" d="M161,174.42H104A23.5,23.5,0,0,0,80.5,197.9V208a19.08,19.08,0,0,0,13.42,18.62,31.44,31.44,0,0,0,10.06,1.5h57Z"/><path class="cls-8" d="M50.31,100.63H36.9a10.07,10.07,0,1,1,0-20.13H50.31a10.07,10.07,0,0,1,0,20.13Z"/><path class="cls-8" d="M285.1,67.08H271.69a10.06,10.06,0,0,1,0-20.12H285.1a10.06,10.06,0,1,1,0,20.12Z"/><path class="cls-9" d="M60.37,90.56H26.83A10.15,10.15,0,0,0,36.9,100.63H50.31A10.14,10.14,0,0,0,60.37,90.56Z"/><path class="cls-9" d="M295.17,57H261.63a10.13,10.13,0,0,0,10.06,10.06H285.1A10.14,10.14,0,0,0,295.17,57Z"/></g></g></svg>