<svg xmlns="http://www.w3.org/2000/svg" viewBox="0 0 208.02 58.65"><defs><style>.cls-1,.cls-3{fill:#b00e0e;}.cls-2{fill:#fff;}.cls-3{font-size:38.1px;font-family:Roboto-Bold, Roboto;font-weight:700;letter-spacing:0.01em;}.cls-4{font-size:10.73px;fill:#0c0c0c;font-family:Roboto-Regular, Roboto;letter-spacing:-0.04em;}.cls-5{letter-spacing:-0.01em;}.cls-6{letter-spacing:-0.03em;}.cls-7{letter-spacing:-0.07em;}.cls-8{letter-spacing:-0.01em;}</style></defs><title>logologo</title><g id="Layer_2" data-name="Layer 2"><g id="Layer_1-2" data-name="Layer 1"><rect class="cls-1" y="3.81" width="52.68" height="52.68"/><path class="cls-2" d="M40.72,27.72V21.23a5.68,5.68,0,0,0-2-4.34h0a5.68,5.68,0,0,0-3.37-1.3H12.86V44h5.05V26.71h0V21l16.72,0v5.69H23.34v3.2h0v2.84H34.61v5.14H23.34V44h12a5.24,5.24,0,0,0,3.77-1.62h0a5.75,5.75,0,0,0,1.61-4V31.72a1.47,1.47,0,0,0-.7-1.26l-1-.61.85-.6A1.77,1.77,0,0,0,40.72,27.72Z"/><text class="cls-3" transform="translate(61.29 38.13) scale(1.26 1.17)">Befiler</text><text class="cls-4" transform="translate(64.58 54.44) scale(1.26 1.45)">Y<tspan class="cls-5" x="5.99" y="0">our Digital</tspan><tspan class="cls-6" x="53.23" y="0"> </tspan><tspan class="cls-7" x="55.56" y="0">T</tspan><tspan class="cls-8" x="61.25" y="0">ax Advisor</tspan></text></g></g></svg>