<svg xmlns="http://www.w3.org/2000/svg" viewBox="0 0 322 322"><defs><style>.cls-1{fill:#0087ff;}.cls-2{fill:#4a59e6;}.cls-3{fill:#0c83fa;}.cls-4{fill:#3d6dcc;}.cls-5{fill:#b0dcff;}.cls-6{fill:#82caff;}.cls-7{fill:#c6151d;}.cls-8{fill:#b00e0e;}</style></defs><title>Asset 134</title><g id="Layer_2" data-name="Layer 2"><g id="red"><rect class="cls-1" x="151.57" width="18.87" height="23.27"/><rect class="cls-2" x="161" width="9.43" height="23.27"/><path class="cls-3" d="M322,158.87h-5.21a53.84,53.84,0,0,0-92.44-3.28c-.69,1.06-1.35,2.16-2,3.28H208.2c-.86-1.57-1.81-3.09-2.81-4.55a53.83,53.83,0,0,0-88.78,0c-1,1.46-2,3-2.81,4.55H99.61c-.61-1.12-1.27-2.22-2-3.28a53.84,53.84,0,0,0-92.44,3.28H0A162.9,162.9,0,0,1,161,21.73h0A162.9,162.9,0,0,1,322,158.87Z"/><path class="cls-4" d="M322,158.87h-5.21a53.84,53.84,0,0,0-92.44-3.28c-.69,1.06-1.35,2.16-2,3.28H208.2c-.86-1.57-1.81-3.09-2.81-4.55A53.77,53.77,0,0,0,161,130.94V21.73h0A162.9,162.9,0,0,1,322,158.87Z"/><path class="cls-5" d="M214.57,158.87H208.2c-.86-1.57-1.81-3.09-2.81-4.55a53.83,53.83,0,0,0-88.78,0c-1,1.46-2,3-2.81,4.55h-6.35S97.52,69.7,161,21.75v0h0v0c63.48,48,53.55,137.12,53.55,137.12Z"/><path class="cls-6" d="M214.57,158.87H208.2c-.86-1.57-1.81-3.09-2.81-4.55A53.77,53.77,0,0,0,161,130.94V21.73h0v0c63.48,48,53.55,137.12,53.55,137.12Z"/><path class="cls-7" d="M227.46,224.64v61.8H191.9V322H130.1V286.44H94.54v-61.8H130.1V189.08h61.8v35.56Z"/><path class="cls-8" d="M227.46,224.64v61.8H191.9V322H161V189.08H191.9v35.56Z"/></g></g></svg>