<svg xmlns="http://www.w3.org/2000/svg" viewBox="0 0 322 246.86"><defs><style>.cls-1{fill:#e40707;}.cls-2{fill:#c6151d;}.cls-3{fill:#eceff1;}.cls-4{fill:#cdd0d2;}.cls-5{fill:#4e638b;}.cls-6{fill:#293e65;}.cls-7{fill:#f0c419;}.cls-8{fill:#ffee78;}.cls-9{fill:#fcd232;}.cls-10{fill:#fcbe2c;}.cls-11{fill:#ffa90b;}.cls-12{fill:#f98500;}</style></defs><title>Asset 197</title><g id="Layer_2" data-name="Layer 2"><g id="red"><path class="cls-1" d="M130.47,8.42C92.9,17.92,13.68,57.26,6,220.46a26.22,26.22,0,0,1-.65-5.79V32.2A26.84,26.84,0,0,1,32.2,5.36h85.87a26.4,26.4,0,0,1,12.4,3.06Z"/><path class="cls-2" d="M144.9,32.2V214.67a26.83,26.83,0,0,1-26.83,26.83H32.2a26.8,26.8,0,0,1-18.94-7.78A27.28,27.28,0,0,1,6,220.46c7.67-163.2,86.73-202.54,124.46-212a26.83,26.83,0,0,1,11.26,11.17A26.31,26.31,0,0,1,144.9,32.2Z"/><path class="cls-3" d="M302.2,8.42c-37.57,9.5-116.78,48.84-124.46,212a26.21,26.21,0,0,1-.64-5.79V32.2A26.84,26.84,0,0,1,203.93,5.36H289.8a26.4,26.4,0,0,1,12.4,3.06Z"/><path class="cls-4" d="M316.64,32.2V214.67A26.84,26.84,0,0,1,289.8,241.5H203.93A26.83,26.83,0,0,1,185,233.72a27.45,27.45,0,0,1-7.25-13.26c7.68-163.2,86.73-202.54,124.46-212a26.91,26.91,0,0,1,11.27,11.17,26.43,26.43,0,0,1,3.17,12.61Z"/><path class="cls-5" d="M118.07,5.36l-13,21.47A10.72,10.72,0,0,1,95.9,32.2H54.36a10.7,10.7,0,0,1-9.17-5.37L32.2,5.36Z"/><path class="cls-6" d="M107.33,220H42.93a5.37,5.37,0,0,1,0-10.73h64.4a5.37,5.37,0,1,1,0,10.73Z"/><path class="cls-5" d="M289.8,5.36l-13,21.47a10.7,10.7,0,0,1-9.17,5.37H226.1a10.72,10.72,0,0,1-9.18-5.37l-13-21.47Z"/><path class="cls-6" d="M279.07,220h-64.4a5.37,5.37,0,1,1,0-10.73h64.4a5.37,5.37,0,0,1,0,10.73Z"/><path class="cls-6" d="M118.07,246.86H32.2A32.2,32.2,0,0,1,0,214.67V32.2A32.2,32.2,0,0,1,32.2,0h85.87a32.2,32.2,0,0,1,32.2,32.2V214.67a32.2,32.2,0,0,1-32.2,32.19ZM32.2,10.73A21.47,21.47,0,0,0,10.73,32.2V214.67A21.46,21.46,0,0,0,32.2,236.13h85.87a21.46,21.46,0,0,0,21.46-21.46V32.2a21.46,21.46,0,0,0-21.46-21.47Z"/><path class="cls-6" d="M289.8,246.86H203.93a32.2,32.2,0,0,1-32.2-32.19V32.2A32.2,32.2,0,0,1,203.93,0H289.8A32.2,32.2,0,0,1,322,32.2V214.67a32.2,32.2,0,0,1-32.2,32.19ZM203.93,10.73A21.46,21.46,0,0,0,182.47,32.2V214.67a21.46,21.46,0,0,0,21.46,21.46H289.8a21.46,21.46,0,0,0,21.47-21.46V32.2A21.47,21.47,0,0,0,289.8,10.73Z"/><path class="cls-7" d="M155.64,96.6H75.14a5.37,5.37,0,0,1,0-10.74h80.5a5.37,5.37,0,0,1,0,10.74Z"/><path class="cls-7" d="M134.17,118.07H59a5.37,5.37,0,0,1,0-10.74h75.14a5.37,5.37,0,0,1,0,10.74Z"/><path class="cls-7" d="M134.17,139.53H37.57a5.37,5.37,0,1,1,0-10.73h96.6a5.37,5.37,0,0,1,0,10.73Z"/><path class="cls-7" d="M155.64,161H75.14a5.37,5.37,0,1,1,0-10.73h80.5a5.37,5.37,0,0,1,0,10.73Z"/><path class="cls-8" d="M225.4,64.4a59,59,0,1,0,0,118.06h.13V64.4Z"/><path class="cls-9" d="M284.43,123.43a59,59,0,0,0-58.9-59V182.46A59,59,0,0,0,284.43,123.43Z"/><path class="cls-10" d="M226.29,189.61a64.39,64.39,0,1,1,45.54-18.86,64.4,64.4,0,0,1-45.54,18.86Zm0-118.06a53.67,53.67,0,1,0,38,15.72,53.66,53.66,0,0,0-38-15.72Z"/><path class="cls-11" d="M209.58,127.62h-5.33v18.22H196.3V100.35h16.49q5.93,0,9.25,3.5a12.52,12.52,0,0,1,3.32,9,13.71,13.71,0,0,1-1.55,6.9,9.55,9.55,0,0,1-3.89,3.86q4.68,2.18,4.68,11.36v2.24a43.27,43.27,0,0,0,.54,8.65h-7.73c-.5-1.54-.76-5-.76-10.23V135q0-4-1.38-5.68T209.58,127.62Zm-5.33-19.48v11.62h6.8q6.15,0,6.15-5.81t-6-5.81Z"/><path class="cls-12" d="M229.44,135.54h7.67a4.93,4.93,0,0,0,5.33,4.29c2.62,0,3.92-1.12,3.92-3.37a2.92,2.92,0,0,0-1.09-2.44,13.51,13.51,0,0,0-4.13-1.78q-6.42-1.92-8.54-4.46a9.87,9.87,0,0,1-2.13-6.57,10.56,10.56,0,0,1,2.75-7.33q2.75-3,8.63-3t8.65,3.1a11.36,11.36,0,0,1,3.05,7.2h-7.4c-.51-2.42-2.05-3.64-4.63-3.64q-3.44,0-3.43,2.91a2.44,2.44,0,0,0,1.06,2.08,16.92,16.92,0,0,0,4.38,1.75,29.08,29.08,0,0,1,5.64,2.18,9.35,9.35,0,0,1,3.29,2.74,9.53,9.53,0,0,1,1.47,3,14.85,14.85,0,0,1,.38,3.59,10.61,10.61,0,0,1-3.05,7.73q-3,3.1-9.09,3.1t-9.11-3A12.84,12.84,0,0,1,229.44,135.54Z"/></g></g></svg>