<?xml version="1.0" encoding="utf-8"?>
<!-- Generator: Adobe Illustrator 24.3.0, SVG Export Plug-In . SVG Version: 6.00 Build 0)  -->
<svg version="1.1" id="Layer_1" xmlns="http://www.w3.org/2000/svg" xmlns:xlink="http://www.w3.org/1999/xlink" x="0px" y="0px"
	 viewBox="0 0 446.71 446.71" style="enable-background:new 0 0 446.71 446.71;" xml:space="preserve">
<style type="text/css">
	.st0{fill:#02579F;}
	.st1{fill:#F8A51A;}
	.st2{fill:#024697;}
	.st3{fill:#FFFFFF;}
	.st4{fill:#000003;}
	.st5{fill:#E60B27;}
	.st6{fill:#F0692D;}
	.st7{fill:#F39E2E;}
	.st8{fill:#0F598C;}
	.st9{fill:#FBEEEF;}
	.st10{fill:#D60918;}
	.st11{fill:#138284;}
	.st12{fill:#322D3C;}
	.st13{fill:#26B15D;}
	.st14{fill:#014268;}
	.st15{fill:#9ABA3B;}
</style>
<g>
	<path class="st10" d="M141.51,299.89l21.01-87.13c-0.49-0.06-1-0.05-1.55,0.08c-2.36,0.58-3.91,2.14-4.63,4.34
		c-0.81,2.51-1.36,5.1-1.95,7.68c-0.74,3.28-1.4,6.57-2.12,9.95c-2.56,0-5.08,0-7.76,0c1.89-8.87,3.77-17.69,5.64-26.51
		c2.59,0,5,0,7.58,0c-0.12,1.06-0.23,2-0.38,3.32c1.9-1.97,3.84-3.13,6.17-3.65c0.05-0.01,0.1-0.01,0.14-0.02l14.73-61.09
		c1.31-5.52,6.9-10.04,12.43-10.04h-66.05c-5.49,0-11.08,4.52-12.43,10.04l-36.9,153.02c-1.31,5.52,2.09,10,7.61,10h66.05
		C143.6,309.89,140.2,305.41,141.51,299.89z M121.76,235.24c-3.12,0.14-6.19-0.13-9.13-1.25c-4.14-1.59-6.45-4.56-6.28-8.96
		c0.13-3.39,0.8-6.78,1.45-10.12c1.07-5.52,2.32-11.01,3.49-16.52c0.12-0.54,0.26-1.07,0.41-1.7c2.6,0,5.17,0,8.02,0
		c-0.46,2.26-0.89,4.45-1.35,6.63c-1.2,5.67-2.47,11.32-3.6,17c-0.3,1.5-0.32,3.08-0.22,4.61c0.19,2.85,1.93,4.58,4.76,4.8
		c1.53,0.12,3.11,0.16,4.63-0.07c2.98-0.45,5.12-2.32,6.16-5c1.19-3.06,2.01-6.29,2.75-9.5c1.33-5.81,2.49-11.66,3.72-17.48
		c0.07-0.32,0.21-0.62,0.35-1.01c2.68,0,5.21,0,7.91,0c-0.16,0.98-0.26,1.84-0.44,2.68c-1.44,6.86-2.87,13.72-4.36,20.57
		C137.98,229.28,131.37,234.8,121.76,235.24z"/>
	<path class="st8" d="M223.64,299.89l20.7-85.82c-0.8-1.07-2.15-1.61-3.7-1.23c-2.63,0.65-4.19,2.48-4.91,4.93
		c-0.82,2.8-1.37,5.68-2.01,8.53c-0.62,2.79-1.21,5.6-1.83,8.5c-2.56,0-5.06,0-7.68,0c1.87-8.81,3.72-17.54,5.59-26.38
		c2.64,0,5.04,0,7.57,0c-0.12,1.04-0.22,1.93-0.33,2.81c1.89-1.57,3.83-2.71,6.16-3.23c0.91-0.2,1.79-0.25,2.66-0.22l14.69-60.92
		c1.34-5.52,6.9-10.04,12.43-10.04h-82.13c-5.52,0-11.12,4.52-12.43,10.04l-14.73,61.09c2.49-0.52,4.84-0.21,7.08,0.97
		c2.33,1.22,3.47,3.29,3.02,5.88c-1.17,6.67-2.45,13.32-3.7,20.04c-2.86,0-5.33,0-7.95,0c0.06-0.5,0.09-0.92,0.18-1.33
		c0.98-4.7,2.01-9.38,2.95-14.09c0.22-1.12,0.27-2.31,0.18-3.46c-0.13-1.82-1.32-3.01-2.91-3.22l-21.01,87.13
		c-1.31,5.52,2.09,10,7.61,10h82.13C225.73,309.89,222.33,305.41,223.64,299.89z M184.67,234.87c-2.69,0-5.22,0-7.96,0
		c1.9-8.93,3.76-17.66,5.64-26.47c2.66,0,5.17,0,7.95,0C188.41,217.31,186.54,226.08,184.67,234.87z M183.28,203.25
		c0.47-2.24,0.92-4.36,1.38-6.55c2.86,0,5.48,0,8.33,0c-0.49,2.27-0.94,4.39-1.4,6.55C188.8,203.25,186.17,203.25,183.28,203.25z
		 M199.34,234.58c-4.14-1.18-6.25-4.11-6.4-8.42c-0.12-3.4,0.67-6.57,2.2-9.57c3.52-6.95,11.75-10.47,19.23-8.28
		c4.86,1.42,7.19,4.98,6.87,10.5C220.27,232.44,208.78,237.27,199.34,234.58z"/>
	<path class="st8" d="M209.55,212.69c-2.94-0.21-5.03,1.13-6.34,3.64c-1.61,3.09-2.33,6.44-2.31,9.9c0.01,2.88,1.51,4.22,4.37,4.23
		c2.09,0,3.55-0.46,4.72-1.97c2.91-3.77,3.95-8.09,3.22-12.77C212.9,213.83,211.48,212.83,209.55,212.69z"/>
	<path class="st11" d="M363.64,136.83h-90.67c-5.52,0-11.08,4.52-12.43,10.04l-14.69,60.92c1.58,0.05,3.1,0.43,4.55,1.23
		c2.12,1.16,3.38,2.95,2.97,5.43c-0.89,5.38-1.91,10.74-2.89,16.1c-0.26,1.41-0.6,2.8-0.92,4.28c-2.56,0-5.08,0-7.87,0
		c0.29-1.51,0.55-2.94,0.85-4.36c0.79-3.72,1.64-7.43,2.38-11.17c0.21-1.07,0.25-2.2,0.17-3.29c-0.06-0.78-0.36-1.4-0.75-1.93
		l-20.7,85.82c-1.31,5.52,2.09,10,7.61,10h90.67c5.52,0,11.08-4.48,12.43-10l36.9-153.02C372.56,141.34,369.16,136.83,363.64,136.83
		z M275.53,219.96c-2.58,0.17-5.18,0.03-7.85,0.03c-1.1,5.13-2.13,9.96-3.18,14.84c-2.63,0-5.16,0-7.94,0
		c2.73-12.8,5.43-25.46,8.2-38.47c5.88,0.25,11.72,0.09,17.43,0.86c6.45,0.87,8.85,5.23,7.17,11.6
		C287.64,215.36,282.6,219.49,275.53,219.96z M315.25,217.31c-0.94,4.76-2.01,9.49-2.99,14.25c-0.21,1.02-0.3,2.06-0.47,3.3
		c-2.19,0-4.33,0-6.59,0c0-0.97,0-1.88,0-3.14c-0.58,0.45-0.94,0.71-1.29,0.99c-3.43,2.78-7.29,3.28-11.39,1.99
		c-3.03-0.95-4.3-3.63-3.39-6.92c1.53-5.53,5.46-8.38,10.9-9.31c2.38-0.41,4.82-0.51,7.21-0.75c1.07-2.8,0.78-4.63-0.87-5.46
		c-2.13-1.08-4.06-0.01-6.08,3.45c-2.32,0-4.68,0-7.23,0c0.25-1.97,1.24-3.42,2.52-4.71c1.53-1.55,3.47-2.42,5.56-2.73
		c2.23-0.32,4.51-0.55,6.75-0.44C313.68,208.1,316.37,211.64,315.25,217.31z M328.43,244.56c-2.5,0-4.92,0-7.56,0
		c0.23-0.54,0.38-0.98,0.6-1.38c1.16-2.13,2.27-4.3,3.55-6.37c0.79-1.28,0.87-2.52,0.62-3.94c-1.31-7.56-2.57-15.13-3.83-22.69
		c-0.1-0.58-0.12-1.18-0.19-1.85c2.82,0,5.49,0,8.26,0c0.62,6.03,1.22,11.96,1.82,17.88c0.12,0.05,0.24,0.1,0.36,0.15
		c3.26-6.02,6.52-12.04,9.77-18.06c2.61,0,4.96,0,7.66,0C342.4,220.52,335.42,232.52,328.43,244.56z"/>
	<path class="st11" d="M299.15,223.61c-1.64,0.88-2.43,2.32-2.39,4.2c0.02,1.12,0.53,1.91,1.56,2.28c1.77,0.64,3.5,0.58,4.93-0.77
		c1.93-1.81,2.62-4.2,3.13-6.89C303.73,222.28,301.34,222.42,299.15,223.61z"/>
	<path class="st11" d="M276.98,203.12c-1.84-0.2-3.71-0.04-5.68-0.04c-0.75,3.56-1.48,7.04-2.25,10.68
		c2.42,0.41,4.64,0.62,6.88,0.11c2.79-0.63,4.35-2.48,4.95-5.17C281.6,205.52,280.23,203.48,276.98,203.12z"/>
	<path class="st3" d="M144.82,196.67c-2.71,0-5.23,0-7.91,0c-0.14,0.39-0.28,0.69-0.35,1.01c-1.24,5.83-2.39,11.68-3.72,17.48
		c-0.74,3.21-1.55,6.44-2.75,9.5c-1.04,2.68-3.19,4.55-6.16,5c-1.51,0.23-3.09,0.19-4.63,0.07c-2.83-0.22-4.56-1.96-4.76-4.8
		c-0.1-1.53-0.08-3.12,0.22-4.61c1.13-5.68,2.4-11.33,3.6-17c0.46-2.18,0.89-4.37,1.35-6.63c-2.85,0-5.42,0-8.02,0
		c-0.15,0.63-0.29,1.16-0.41,1.7c-1.18,5.5-2.42,10.99-3.49,16.52c-0.65,3.35-1.32,6.73-1.45,10.12c-0.17,4.4,2.15,7.37,6.28,8.96
		c2.94,1.13,6.01,1.4,9.13,1.25c9.6-0.43,16.22-5.96,18.26-15.32c1.49-6.85,2.92-13.71,4.36-20.57
		C144.56,198.5,144.66,197.64,144.82,196.67z"/>
	<path class="st3" d="M282.19,197.22c-5.71-0.77-11.55-0.61-17.43-0.86c-2.77,13.01-5.47,25.67-8.2,38.47c2.78,0,5.3,0,7.94,0
		c1.04-4.87,2.08-9.71,3.18-14.84c2.67,0,5.28,0.15,7.85-0.03c7.07-0.48,12.1-4.6,13.83-11.15
		C291.05,202.45,288.65,198.08,282.19,197.22z M280.89,208.7c-0.6,2.7-2.16,4.55-4.95,5.17c-2.24,0.5-4.46,0.3-6.88-0.11
		c0.77-3.64,1.5-7.12,2.25-10.68c1.97,0,3.84-0.17,5.68,0.04C280.23,203.48,281.6,205.52,280.89,208.7z"/>
	<path class="st3" d="M157.37,211.62c0.15-1.32,0.26-2.26,0.38-3.32c-2.58,0-4.99,0-7.58,0c-1.88,8.82-3.76,17.64-5.64,26.51
		c2.68,0,5.19,0,7.76,0c0.72-3.38,1.38-6.68,2.12-9.95c0.58-2.58,1.13-5.17,1.95-7.68c0.72-2.2,2.28-3.76,4.63-4.34
		c0.54-0.13,1.06-0.14,1.55-0.08l1.16-4.8c-0.05,0.01-0.1,0.01-0.14,0.02C161.2,208.49,159.27,209.65,157.37,211.62z"/>
	<path class="st3" d="M165.43,215.98c0.08,1.14,0.04,2.33-0.18,3.46c-0.93,4.7-1.96,9.39-2.95,14.09c-0.09,0.41-0.11,0.83-0.18,1.33
		c2.62,0,5.09,0,7.95,0c1.25-6.72,2.53-13.37,3.7-20.04c0.46-2.59-0.69-4.65-3.02-5.88c-2.24-1.18-4.59-1.49-7.08-0.97l-1.16,4.8
		C164.11,212.97,165.3,214.15,165.43,215.98z"/>
	<path class="st3" d="M243.19,208c-2.33,0.51-4.27,1.66-6.16,3.23c0.1-0.89,0.21-1.78,0.33-2.81c-2.52,0-4.93,0-7.57,0
		c-1.87,8.85-3.72,17.58-5.59,26.38c2.62,0,5.12,0,7.68,0c0.63-2.9,1.21-5.71,1.83-8.5c0.64-2.85,1.19-5.73,2.01-8.53
		c0.72-2.44,2.28-4.28,4.91-4.93c1.55-0.38,2.89,0.16,3.7,1.23l1.52-6.29C244.98,207.75,244.1,207.8,243.19,208z"/>
	<path class="st3" d="M245.09,216c0.08,1.09,0.04,2.22-0.17,3.29c-0.74,3.73-1.59,7.44-2.38,11.17c-0.3,1.42-0.56,2.85-0.85,4.36
		c2.79,0,5.31,0,7.87,0c0.32-1.48,0.66-2.88,0.92-4.28c0.99-5.36,2-10.72,2.89-16.1c0.41-2.48-0.85-4.27-2.97-5.43
		c-1.46-0.8-2.98-1.18-4.55-1.23l-1.52,6.29C244.73,214.6,245.03,215.21,245.09,216z"/>
	<path class="st3" d="M307.91,207.82c-2.24-0.11-4.52,0.12-6.75,0.44c-2.1,0.31-4.03,1.18-5.56,2.73c-1.28,1.29-2.28,2.74-2.52,4.71
		c2.55,0,4.91,0,7.23,0c2.02-3.46,3.94-4.53,6.08-3.45c1.65,0.83,1.94,2.66,0.87,5.46c-2.4,0.24-4.83,0.34-7.21,0.75
		c-5.44,0.93-9.37,3.78-10.9,9.31c-0.91,3.29,0.36,5.97,3.39,6.92c4.1,1.29,7.96,0.79,11.39-1.99c0.34-0.28,0.7-0.54,1.29-0.99
		c0,1.26,0,2.16,0,3.14c2.26,0,4.39,0,6.59,0c0.17-1.24,0.26-2.28,0.47-3.3c0.98-4.75,2.05-9.49,2.99-14.25
		C316.37,211.64,313.68,208.1,307.91,207.82z M303.25,229.32c-1.43,1.35-3.16,1.41-4.93,0.77c-1.04-0.37-1.55-1.16-1.56-2.28
		c-0.03-1.88,0.76-3.32,2.39-4.2c2.2-1.18,4.58-1.32,7.23-1.18C305.87,225.12,305.18,227.51,303.25,229.32z"/>
	<path class="st3" d="M332.07,226.36c-0.12-0.05-0.24-0.1-0.36-0.15c-0.6-5.92-1.21-11.84-1.82-17.88c-2.77,0-5.44,0-8.26,0
		c0.07,0.67,0.09,1.26,0.19,1.85c1.27,7.57,2.52,15.13,3.83,22.69c0.25,1.42,0.17,2.66-0.62,3.94c-1.28,2.07-2.38,4.23-3.55,6.37
		c-0.22,0.4-0.37,0.84-0.6,1.38c2.64,0,5.06,0,7.56,0c6.99-12.03,13.97-24.03,21.08-36.26c-2.69,0-5.05,0-7.66,0
		C338.59,214.32,335.33,220.34,332.07,226.36z"/>
	<path class="st3" d="M214.37,208.3c-7.49-2.19-15.71,1.33-19.23,8.28c-1.52,3-2.31,6.18-2.2,9.57c0.15,4.31,2.26,7.24,6.4,8.42
		c9.44,2.69,20.93-2.14,21.91-15.77C221.55,213.28,219.23,209.73,214.37,208.3z M209.98,228.49c-1.16,1.5-2.63,1.97-4.72,1.97
		c-2.85,0-4.36-1.35-4.37-4.23c-0.01-3.46,0.7-6.81,2.31-9.9c1.31-2.52,3.41-3.86,6.34-3.64c1.93,0.14,3.35,1.15,3.65,3.03
		C213.92,220.4,212.89,224.73,209.98,228.49z"/>
	<path class="st3" d="M176.71,234.87c2.74,0,5.27,0,7.96,0c1.87-8.79,3.73-17.55,5.63-26.47c-2.78,0-5.29,0-7.95,0
		C180.48,217.21,178.62,225.94,176.71,234.87z"/>
	<path class="st3" d="M184.65,196.7c-0.46,2.19-0.91,4.3-1.38,6.55c2.9,0,5.52,0,8.31,0c0.46-2.15,0.91-4.27,1.4-6.55
		C190.14,196.7,187.52,196.7,184.65,196.7z"/>
</g>
</svg>
