<svg xmlns="http://www.w3.org/2000/svg" viewBox="0 0 322 303.06"><defs><style>.cls-1{fill:#90cc1c;}.cls-2{fill:#00b44b;}.cls-3{fill:#ff435b;}.cls-4{fill:#4b7eec;}.cls-5{fill:#ffda2d;}.cls-6{fill:#4bb9ec;}.cls-7{fill:#fdbf00;}.cls-8{fill:#ff9721;}.cls-9{fill:#ff7b4a;}</style></defs><title>Asset 133</title><g id="Layer_2" data-name="Layer 2"><g id="red"><path class="cls-1" d="M161,0l9.47,55.81L161,111.61,56.85,106.09A104.27,104.27,0,0,1,161,0Z"/><path class="cls-2" d="M265.15,106.09,161,111.61V0A104.28,104.28,0,0,1,265.15,106.09Z"/><path class="cls-3" d="M56.85,106.09s56.82,91.37,56.82,90.88c0,.32,26.49,40.43,26.49,40.43L161,286.16A104.16,104.16,0,1,1,56.85,106.09Z"/><path class="cls-4" d="M265.15,106.09A104.16,104.16,0,1,1,161,286.16l40.62-99.48Z"/><path class="cls-5" d="M161,111.61,113.67,197a104.28,104.28,0,0,1-56.82-90.88A104,104,0,0,1,161,111.61Z"/><path class="cls-6" d="M208.33,197,161,111.61a104,104,0,0,1,104.15-5.52A104.28,104.28,0,0,1,208.33,197Z"/><path class="cls-7" d="M113.67,197A104.2,104.2,0,0,1,161,111.61L170.47,160,161,208.35l-24.34,4.42Z"/><path class="cls-8" d="M208.33,197l-23,14.7L161,208.35V111.61A104.18,104.18,0,0,1,208.33,197Z"/><path class="cls-9" d="M161,286.16A104.16,104.16,0,0,1,113.67,197,103.58,103.58,0,0,0,161,208.35l9.47,38.9Z"/><path class="cls-3" d="M208.33,197A104.14,104.14,0,0,1,161,286.16V208.35A103.58,103.58,0,0,0,208.33,197Z"/></g></g></svg>