<svg xmlns="http://www.w3.org/2000/svg" viewBox="0 0 322 322"><defs><style>.cls-1{fill:#4d628c;}.cls-2{fill:#283d66;}.cls-3{fill:#0a1f33;}.cls-4{fill:#eceff1;}.cls-5{fill:#cdd0d2;}.cls-6{fill:#e40707;}.cls-7{fill:#c6151d;}.cls-8{fill:#b00e0e;}.cls-9{fill:#fff5f5;}.cls-10{fill:#ece6f2;}</style></defs><title>Asset 140</title><g id="Layer_2" data-name="Layer 2"><g id="red"><path class="cls-1" d="M48.3,120.75H0v20.13A20.12,20.12,0,0,0,20.13,161H48.3Z"/><path class="cls-2" d="M295.42,221.38l6.46,20.12v40.25H20.13V241.5l8.92-20.12-8.92-20.13L40.25,161l2-10.06L161,140.88l118.74,10.06,2,10.06,20.13,40.25Z"/><path class="cls-3" d="M295.42,221.38l6.46,20.12v40.25H161V140.88l118.74,10.06,2,10.06,20.13,40.25Z"/><path class="cls-4" d="M279.74,150.94H42.26L60.37,60.38H261.63Z"/><path class="cls-5" d="M279.74,150.94H161V60.38H261.63Z"/><path class="cls-6" d="M40.25,201.25H20.13V241.5H80.5a40.25,40.25,0,0,0-40.25-40.25Z"/><path class="cls-6" d="M281.75,201.25A40.25,40.25,0,0,0,241.5,241.5h60.38V201.25Z"/><rect class="cls-2" x="20.13" y="281.75" width="60.37" height="40.25"/><rect class="cls-3" x="241.5" y="281.75" width="60.38" height="40.25"/><rect class="cls-1" x="120.75" y="201.25" width="80.5" height="40.25"/><rect class="cls-2" x="161" y="201.25" width="40.25" height="40.25"/><rect class="cls-1" x="9.43" y="272.32" width="303.13" height="18.87"/><rect class="cls-2" x="161" y="272.32" width="151.57" height="18.87"/><path class="cls-7" d="M322,80.5A80.5,80.5,0,0,1,241.63,161h-.13a80.5,80.5,0,0,1,0-161h.13A80.5,80.5,0,0,1,322,80.5Z"/><path class="cls-8" d="M322,80.5A80.5,80.5,0,0,1,241.63,161V0A80.5,80.5,0,0,1,322,80.5Z"/><rect class="cls-9" x="203.52" y="42.6" width="18.87" height="18.87"/><rect class="cls-10" x="260.36" y="99.75" width="18.87" height="18.87"/><path class="cls-9" d="M279.48,55.78l-62.35,62.35-13.34-13.35L241.63,67l24.51-24.51Z"/><path class="cls-10" d="M279.48,55.78,241.63,93.62V67l24.51-24.51Z"/></g></g></svg>