<svg xmlns="http://www.w3.org/2000/svg" xmlns:xlink="http://www.w3.org/1999/xlink" viewBox="0 0 35.32 41.03"><defs><style>.cls-1{fill:url(#linear-gradient);}.cls-2{fill:#cdd0d2;}.cls-3{fill:url(#Red_Orange);}.cls-4{fill:#fff;}</style><linearGradient id="linear-gradient" y1="17.66" x2="29.61" y2="17.66" gradientUnits="userSpaceOnUse"><stop offset="0" stop-color="#3fa9f5"/><stop offset="0.58" stop-color="#0087ee"/><stop offset="1" stop-color="#0c83fa"/></linearGradient><linearGradient id="Red_Orange" x1="5.71" y1="23.37" x2="35.32" y2="23.37" gradientUnits="userSpaceOnUse"><stop offset="0" stop-color="#f37e5f"/><stop offset="0.5" stop-color="#ec1c24"/><stop offset="1" stop-color="#cf232a"/></linearGradient></defs><g id="Layer_2" data-name="Layer 2"><g id="HOME_2" data-name="HOME 2"><path class="cls-1" d="M5.71,8.83A3.14,3.14,0,0,1,8.83,5.71H29.61V3.12A3.13,3.13,0,0,0,26.49,0H3.12A3.12,3.12,0,0,0,0,3.12V32.2a3.12,3.12,0,0,0,3.12,3.12H5.71V8.83Z"/><path class="cls-2" d="M29.6,32.72h5.72L26.49,41V35.84a3.12,3.12,0,0,1,3.11-3.12Z"/><path class="cls-3" d="M35.32,8.83A3.13,3.13,0,0,0,32.2,5.71H8.83A3.14,3.14,0,0,0,5.71,8.83V37.92A3.13,3.13,0,0,0,8.83,41H26.49l8.83-8.31V8.83Z"/><path class="cls-4" d="M13.5,19.48h14a.78.78,0,0,0,0-1.56h-14a.78.78,0,0,0,0,1.56"/><path class="cls-4" d="M13.5,14.28h14a.78.78,0,0,0,.78-.78.77.77,0,0,0-.78-.77h-14a.76.76,0,0,0-.77.77.77.77,0,0,0,.77.78"/><path class="cls-4" d="M13.5,24.67h14a.78.78,0,1,0,0-1.56h-14a.78.78,0,0,0,0,1.56"/><path class="cls-4" d="M13.5,29.87h7.8a.78.78,0,0,0,0-1.56H13.5a.78.78,0,0,0,0,1.56"/></g></g></svg>