<svg xmlns="http://www.w3.org/2000/svg" xmlns:xlink="http://www.w3.org/1999/xlink" viewBox="0 0 43.17 45.79"><defs><style>.cls-1{fill:none;}.cls-2{fill:#bdccd4;}.cls-3{fill:#fff;}.cls-4{clip-path:url(#clip-path);}.cls-5{fill:url(#Red_Orange);}.cls-6{fill:url(#Red_Orange-2);}.cls-7{fill:url(#blue_befiler_Gradient_Swatch);}.cls-8{fill:url(#Red_Orange-3);}.cls-9{fill:url(#Red_Orange-4);}.cls-10{fill:url(#blue_befiler_Gradient_Swatch-2);}.cls-11{fill:url(#blue_befiler_Gradient_Swatch-3);}</style><clipPath id="clip-path"><rect class="cls-1" width="43.17" height="45.79"/></clipPath><linearGradient id="Red_Orange" x1="24.38" y1="44.11" x2="13.83" y2="43" gradientUnits="userSpaceOnUse"><stop offset="0" stop-color="#f37e5f"/><stop offset="0.5" stop-color="#ec1c24"/><stop offset="1" stop-color="#cf232a"/></linearGradient><linearGradient id="Red_Orange-2" x1="26.75" y1="21.56" x2="16.2" y2="20.45" xlink:href="#Red_Orange"/><linearGradient id="blue_befiler_Gradient_Swatch" x1="5.42" y1="26.4" x2="28.7" y2="26.4" gradientUnits="userSpaceOnUse"><stop offset="0" stop-color="#3fa9f5"/><stop offset="0.58" stop-color="#0087ee"/><stop offset="1" stop-color="#0d71c8"/></linearGradient><linearGradient id="Red_Orange-3" x1="37.16" y1="8.4" x2="25.29" y2="7.16" xlink:href="#Red_Orange"/><linearGradient id="Red_Orange-4" x1="21.58" y1="22.16" x2="21.58" y2="11.82" xlink:href="#Red_Orange"/><linearGradient id="blue_befiler_Gradient_Swatch-2" x1="26.1" y1="33.53" x2="39.78" y2="33.53" xlink:href="#blue_befiler_Gradient_Swatch"/><linearGradient id="blue_befiler_Gradient_Swatch-3" x1="26.21" y1="34.55" x2="31.02" y2="34.55" xlink:href="#blue_befiler_Gradient_Swatch"/></defs><g id="Layer_2" data-name="Layer 2"><g id="HOME_2" data-name="HOME 2"><rect class="cls-1" width="43.17" height="45.79"/><path class="cls-2" d="M5.42,23.66s.9,1.72,2.4,4L5.23,28.91A70.45,70.45,0,0,1,1,19.57l5.87-.49a4.91,4.91,0,0,1-1.44,4.58Z"/><path class="cls-3" d="M21.82,21l-14,6.64c-1.5-2.3-2.4-4-2.4-4a4.91,4.91,0,0,0,1.44-4.58L20.17,18A27,27,0,0,0,21.82,21Z"/><g class="cls-4"><path class="cls-2" d="M7.82,27.68c-1.5-2.3-2.4-4-2.4-4a4.91,4.91,0,0,0,1.44-4.58,6.68,6.68,0,0,0-.45-1.59l7.79-3.83c2.4,3.22,5,1.88,5,1.88a24.17,24.17,0,0,0,1,2.43A27,27,0,0,0,21.82,21c.42.68.85,1.32,1.28,1.92l1.07-2.49c-.09-.14-.18-.27-.27-.42-.42-.7-.85-1.46-1.28-2.29a65.12,65.12,0,0,1-3.71-8.71L.36,17.78s.21.67.63,1.79a70.45,70.45,0,0,0,4.24,9.34c2.55,4.6,6,9.39,10.33,11.65l1.31-3C13.21,35.22,9.92,30.9,7.82,27.68Z"/><path class="cls-5" d="M15.56,40.56l-2,4.6s3.49,2.75,6.42-3.23a11.32,11.32,0,0,1-2.53-.54A13.05,13.05,0,0,1,15.56,40.56Z"/><path class="cls-6" d="M26.92,20l-2.46-.17-.29.69A27.13,27.13,0,0,0,26,23.11Z"/><path class="cls-2" d="M16.87,37.52l-1.31,3a13.05,13.05,0,0,0,1.93.83,11.32,11.32,0,0,0,2.53.54,19.76,19.76,0,0,0,1.11-2.82A9.6,9.6,0,0,1,16.87,37.52Z"/><path class="cls-2" d="M16.87,37.52l-1.31,3a13.05,13.05,0,0,0,1.93.83,11.32,11.32,0,0,0,2.53.54,19.76,19.76,0,0,0,1.11-2.82A9.6,9.6,0,0,1,16.87,37.52Z"/><path class="cls-2" d="M25.24,25.62,26,23.11a27.13,27.13,0,0,1-1.82-2.64L23.1,23A32.93,32.93,0,0,0,25.24,25.62Z"/><path class="cls-2" d="M25.24,25.62,26,23.11a27.13,27.13,0,0,1-1.82-2.64L23.1,23A32.93,32.93,0,0,0,25.24,25.62Z"/><path class="cls-3" d="M16.87,37.52a9.6,9.6,0,0,0,4.26,1.59l.09-.25c1.54-5,3-9.74,4-13.24A32.93,32.93,0,0,1,23.1,23Z"/><path class="cls-7" d="M25.24,25.62A32.93,32.93,0,0,1,23.1,23c-.43-.6-.86-1.24-1.28-1.92A27,27,0,0,1,20.17,18a24.17,24.17,0,0,1-1-2.43s-2.58,1.34-5-1.88L6.41,17.49a6.68,6.68,0,0,1,.45,1.59,4.91,4.91,0,0,1-1.44,4.58s.9,1.72,2.4,4c2.1,3.22,5.39,7.54,9.05,9.84a9.6,9.6,0,0,0,4.26,1.59l.09-.25-.09.25a6.41,6.41,0,0,0,3.64-.78l3.93-9.39A27.51,27.51,0,0,1,25.24,25.62Z"/><path class="cls-8" d="M36.81,1.74C35.18-.51,31.46-.59,28.5,1.56S24.56,7,25.89,9.22a10.18,10.18,0,0,0-1.11,5s1.75,2.59,1.85-.35c0-.12,0-.24,0-.36a8.22,8.22,0,0,1,.71-2.83c1.88,1.06,4.7.76,7-.94C37.37,7.55,38.44,4,36.81,1.74ZM33.44,8.37c-1.82,1.32-4.07,1.4-5.28.25a2.82,2.82,0,0,1-.33-.36,2.85,2.85,0,0,1-.38-.76,4.42,4.42,0,0,1,2-4.61c2-1.45,4.51-1.4,5.61.11S35.44,6.92,33.44,8.37Z"/><path class="cls-9" d="M43,14.71c-.66-2.31-3.67-3.47-6.72-2.6-2.57.74-4.34,2.7-4.44,4.68h0a4.59,4.59,0,0,1-3.69.28c.23-5.77-3.33-2.89-3.33-2.89S10.85,12,5.2,13.54.09,22.16.09,22.16l23.47-3.09.31,0c1.84,2.61,3.09,1.5,3.69.55a6.39,6.39,0,0,0,4.84-.72h0c1.13,1.63,3.68,2.34,6.25,1.6C41.7,19.61,43.63,17,43,14.71Zm-4.69,4.44c-2.08.59-4.13-.2-4.58-1.77s.86-3.33,2.94-3.93,4.12.19,4.57,1.77S40.34,18.55,38.27,19.15Z"/></g><path class="cls-2" d="M31.35,27.63,24.2,31.17S26.53,39.05,23,41.34c1-.43,2.07-.93,3.12-1.47h0c.92-1.5.11-4.11.11-4.11,2.81-1.9,2.47-4.36,2.47-4.36l8.06-4.2a3.39,3.39,0,0,0,3,1.46,9.4,9.4,0,0,1-1.45,3.48l.76-.57c3.62-3.77,3.72-9.6,3.72-9.6Z"/><path class="cls-2" d="M26.21,35.76c2.81-1.9,2.47-4.36,2.47-4.36L31,30.18c.23-1.46.33-2.55.33-2.55s-2.27-.52-5.36-4.52l-.75,2.51a27.51,27.51,0,0,0,3.46,3.32l-3.93,9.39a6.41,6.41,0,0,1-3.64.78A19.76,19.76,0,0,1,20,41.93a4.63,4.63,0,0,0,3-.59h0s1.74-1.1,3.48-2.41A7.67,7.67,0,0,0,26.21,35.76Z"/><path class="cls-10" d="M36.74,27.2l-5.72,3c-.38,2.36-1.12,5.68-2.34,6.87a26.08,26.08,0,0,1-2.24,1.88,3.11,3.11,0,0,1-.34.94h0a99.26,99.26,0,0,0,12.23-7.73h0a9.4,9.4,0,0,0,1.45-3.48A3.39,3.39,0,0,1,36.74,27.2Z"/><path class="cls-11" d="M31,30.18,28.68,31.4s.34,2.46-2.47,4.36a7.67,7.67,0,0,1,.23,3.17,26.08,26.08,0,0,0,2.24-1.88C29.9,35.86,30.64,32.54,31,30.18Z"/></g></g></svg>