<svg id="Layer_2" data-name="Layer 2" xmlns="http://www.w3.org/2000/svg" xmlns:xlink="http://www.w3.org/1999/xlink" width="142.586" height="157.42" viewBox="0 0 142.586 157.42">
  <defs>
    <linearGradient id="linear-gradient" y1="0.5" x2="1" y2="0.5" gradientUnits="objectBoundingBox">
      <stop offset="0" stop-color="#f37e5f"/>
      <stop offset="0.5" stop-color="#ec1c24"/>
      <stop offset="1" stop-color="#cf232a"/>
    </linearGradient>
    <linearGradient id="linear-gradient-2" y1="0.5" x2="1" y2="0.5" gradientUnits="objectBoundingBox">
      <stop offset="0" stop-color="#3fa9f5"/>
      <stop offset="0.58" stop-color="#0087ee"/>
      <stop offset="1" stop-color="#0d71c8"/>
    </linearGradient>
    <linearGradient id="linear-gradient-3" x1="-0.002" y1="0.501" x2="1.002" y2="0.501" gradientUnits="objectBoundingBox">
      <stop offset="0.01" stop-color="#375270"/>
      <stop offset="0.09" stop-color="#445e7b"/>
      <stop offset="0.24" stop-color="#556c88"/>
      <stop offset="0.41" stop-color="#5f7490"/>
      <stop offset="0.62" stop-color="#627793"/>
      <stop offset="0.73" stop-color="#637996"/>
      <stop offset="0.81" stop-color="#6780a0"/>
      <stop offset="0.89" stop-color="#6e8cb1"/>
      <stop offset="0.96" stop-color="#779cc9"/>
      <stop offset="1" stop-color="#7da7d9"/>
    </linearGradient>
    <linearGradient id="linear-gradient-4" x1="-0.003" y1="0.501" x2="1" y2="0.501" xlink:href="#linear-gradient-3"/>
    <linearGradient id="linear-gradient-5" x1="0.006" y1="0.522" x2="1.004" y2="0.522" xlink:href="#linear-gradient-3"/>
    <linearGradient id="linear-gradient-6" x1="-0.012" y1="0.499" x2="0.995" y2="0.499" xlink:href="#linear-gradient-3"/>
    <linearGradient id="linear-gradient-7" x1="0.006" y1="0.5" x2="1" y2="0.5" gradientUnits="objectBoundingBox">
      <stop offset="0" stop-color="#97a4b7"/>
      <stop offset="0.49" stop-color="#cdd0d2"/>
      <stop offset="1" stop-color="#eceff1"/>
    </linearGradient>
    <linearGradient id="linear-gradient-8" x1="0" y1="0.507" x2="1" y2="0.507" xlink:href="#linear-gradient-3"/>
    <linearGradient id="linear-gradient-9" y1="0.5" x2="0.999" y2="0.5" xlink:href="#linear-gradient"/>
    <linearGradient id="linear-gradient-10" y1="0.5" x2="1" y2="0.5" xlink:href="#linear-gradient"/>
    <linearGradient id="linear-gradient-11" y1="0.487" x2="1.021" y2="0.487" xlink:href="#linear-gradient"/>
    <linearGradient id="linear-gradient-12" y1="0.506" x2="1" y2="0.506" xlink:href="#linear-gradient"/>
    <linearGradient id="linear-gradient-13" x1="0" y1="0.5" x2="1" y2="0.5" xlink:href="#linear-gradient-3"/>
    <linearGradient id="linear-gradient-15" x1="0" y1="0.502" x2="1" y2="0.502" xlink:href="#linear-gradient-7"/>
    <linearGradient id="linear-gradient-16" x1="0.001" y1="0.502" x2="1" y2="0.502" xlink:href="#linear-gradient-7"/>
    <linearGradient id="linear-gradient-17" x1="0.002" y1="0.502" x2="0.994" y2="0.502" xlink:href="#linear-gradient-7"/>
    <linearGradient id="linear-gradient-18" x1="-0.003" y1="0.501" x2="0.998" y2="0.501" xlink:href="#linear-gradient-7"/>
    <linearGradient id="linear-gradient-19" x1="-0.004" y1="0.5" x2="1" y2="0.5" xlink:href="#linear-gradient-7"/>
    <linearGradient id="linear-gradient-20" x1="0" y1="0.501" x2="1.004" y2="0.501" xlink:href="#linear-gradient-7"/>
    <linearGradient id="linear-gradient-21" x1="-0.004" y1="0.501" x2="1.005" y2="0.501" xlink:href="#linear-gradient-7"/>
    <linearGradient id="linear-gradient-22" x1="0" y1="0.5" x2="1" y2="0.5" xlink:href="#linear-gradient-7"/>
    <linearGradient id="linear-gradient-23" x1="0.66" y1="0.96" x2="0.354" y2="0.006" xlink:href="#linear-gradient-7"/>
    <linearGradient id="linear-gradient-24" x1="0.01" y1="0.5" x2="0.988" y2="0.5" xlink:href="#linear-gradient-7"/>
  </defs>
  <g id="Business" transform="translate(0 0)">
    <path id="Path_4851" data-name="Path 4851" d="M9.843,14.987a126.364,126.364,0,0,0,65.851,6.932l1.04-.173,4.506-4.194,4.679,6.065,10.016,1.248,7.382,2.461,4.887-2.461h2.461v7.382l-4.922,7.382,3.708,7.417,6.065-4.922,4.991-7.417,2.461-9.843,7.382-2.461,2.461-12.3,7.313,2.287v5.095l2.461,2.461v7.382l-3.466,6.932.347,6.758-6.932,6.1-2.461,2.461,5.095,9.7v4.887l-2.461,2.461V71.55l-4.818,4.922v4.922l-12.3,9.843,7.382,7.382L125.429,106l4.922,4.922V118.3l-9.843-2.461-7.382-4.922-2.461-9.843-7.348-4.922L98.4,91.236l-9.843,9.843h-12.3l-4.922,7.382,6.135,6.1,1.248,6.1H68.867l-9.947-9.739-9.843,2.461-4.922-12.3L31.886,103.54l-7.278-2.461a155.968,155.968,0,0,0-9.843-14.765,76.248,76.248,0,0,1-7.382-12.3L4.922,61.742,0,51.9l4.922-9.843-2.461-12.3,2.461-7.382V14.987Z" transform="translate(0 24.905)" fill="url(#linear-gradient)"/>
    <path id="Path_4852" data-name="Path 4852" d="M20.58,27H57.457L55,22.082l3.293-4.922H20.58Z" transform="translate(50.747 42.314)" fill="#e9f1f2"/>
    <path id="Path_4853" data-name="Path 4853" d="M35.451,24.558,32.47,26.984H55.483l4.055-3.57-.312-6.2H40.441Z" transform="translate(80.066 42.438)" fill="#e9f1f2"/>
    <path id="Path_4854" data-name="Path 4854" d="M20.58,32.678H84.421V27.792L81.96,22.87H20.58Z" transform="translate(50.747 56.394)" fill="#e9f1f2"/>
    <path id="Path_4855" data-name="Path 4855" d="M2.13,28.54s3.015,6.065,5.511,9.843H119.518l3.085-2.461V31l2.461-2.461Z" transform="translate(5.252 70.376)" fill="#e9f1f2"/>
    <path id="Path_4856" data-name="Path 4856" d="M46.389,34.22H29.06l2.461,2.461L38.868,41.6l.624,2.461H53.113l-1.664-4.922Z" transform="translate(71.658 84.382)" fill="#e9f1f2"/>
    <path id="Path_4857" data-name="Path 4857" d="M74.325,41.6l7.382-7.382H5.77c2.391,3.743,4.61,7.382,4.61,7.382l7.382,2.461L30.031,41.6l1.005,2.461H60.392L62.021,41.6Z" transform="translate(14.228 84.382)" fill="#e9f1f2"/>
    <path id="Path_4858" data-name="Path 4858" d="M32.787,17.922h0l-1.594-.312-1.941-.381-1.317-.312-2.565-.589-.762-.173c-2.391-.589-4.748-1.248-6.932-1.976h-.555L13.863,13l-.659-.208L9.739,11.51H4.922v7.382L2.461,26.275l2.461,12.3L0,48.422l4.922,9.843L7.382,70.534H71.327V18.892a126.018,126.018,0,0,1-38.54-.97Z" transform="translate(0 28.382)" fill="url(#linear-gradient-2)"/>
    <path id="Path_4859" data-name="Path 4859" d="M77.928,38.383H7.641C5.145,34.605,2.13,28.54,2.13,28.54H59.525a77.981,77.981,0,0,0,18.4,9.843Z" transform="translate(5.252 70.376)" fill="#e9f1f2"/>
    <path id="Path_4860" data-name="Path 4860" d="M7.934,15.06l1.594,3.223,3.466.52-2.5,2.53.624,3.466L7.934,23.1,4.746,24.8l.589-3.466L2.77,18.8l3.466-.52Z" transform="translate(6.83 37.136)" fill="#d0d8da"/>
    <path id="Path_4861" data-name="Path 4861" d="M12.268,15.06l1.664,3.258,3.466.52-2.6,2.53.624,3.466-3.189-1.7-3.223,1.7.624-3.466L7,18.8l3.466-.52Z" transform="translate(17.261 37.136)" fill="#d0d8da"/>
    <path id="Path_4862" data-name="Path 4862" d="M16.543,15.06l1.594,3.223,3.466.52L19,21.333l.624,3.466L16.4,23.1l-3.189,1.7.624-3.466-2.6-2.53,3.466-.52Z" transform="translate(27.716 37.136)" fill="#e9f1f2"/>
    <path id="Path_4863" data-name="Path 4863" d="M20.674,15.06l1.594,3.223,3.466.52-2.565,2.53.589,3.466L20.674,23.2l-3.189,1.7.624-3.466-2.6-2.53,3.466-.52Z" transform="translate(38.245 37.136)" fill="#e9f1f2"/>
    <path id="Path_4864" data-name="Path 4864" d="M7.934,19.32l1.594,3.223,3.466.52-2.5,2.53.624,3.466-3.189-1.7-3.189,1.7.589-3.466L2.77,23.063l3.466-.52Z" transform="translate(6.83 47.641)" fill="#d0d8da"/>
    <path id="Path_4865" data-name="Path 4865" d="M12.268,19.32l1.594,3.223,3.466.52-2.6,2.53.624,3.466-3.189-1.7-3.223,1.7.624-3.466L7,23.063l3.466-.52Z" transform="translate(17.261 47.641)" fill="#d0d8da"/>
    <path id="Path_4866" data-name="Path 4866" d="M16.543,19.32l1.594,3.223,3.466.52L19,25.593l.624,3.466-3.223-1.7-3.189,1.7.624-3.466-2.6-2.53,3.466-.52Z" transform="translate(27.716 47.641)" fill="#e9f1f2"/>
    <path id="Path_4867" data-name="Path 4867" d="M20.674,19.32l1.594,3.223,3.466.52-2.565,2.53.589,3.466-3.085-1.594-3.189,1.7.624-3.466-2.6-2.53,3.466-.52Z" transform="translate(38.245 47.641)" fill="#e9f1f2"/>
    <path id="Path_4868" data-name="Path 4868" d="M7.934,23.58,9.528,26.8l3.466.52-2.5,2.53.624,3.466L7.934,31.655,4.746,33.319l.589-3.466L2.77,27.323l3.466-.52Z" transform="translate(6.83 58.145)" fill="#d0d8da"/>
    <path id="Path_4869" data-name="Path 4869" d="M12.268,23.58,13.862,26.8l3.466.52-2.6,2.53.624,3.466-3.189-1.664L8.941,33.319l.624-3.466L7,27.323l3.466-.52Z" transform="translate(17.261 58.145)" fill="#d0d8da"/>
    <path id="Path_4870" data-name="Path 4870" d="M16.543,23.58,18.137,26.8l3.466.52L19,29.853l.624,3.466L16.4,31.655l-3.189,1.664.624-3.466-2.6-2.53,3.466-.52Z" transform="translate(27.716 58.145)" fill="#d0d8da"/>
    <path id="Path_4871" data-name="Path 4871" d="M20.674,23.58,22.268,26.8l3.466.52-2.565,2.53.589,3.466-3.085-1.594-3.189,1.664.624-3.466-2.6-2.53,3.466-.52Z" transform="translate(38.245 58.145)" fill="#e9f1f2"/>
    <path id="Path_4872" data-name="Path 4872" d="M13.256,26.623l2.218-1.178q-1.525-2.5-2.807-5.095H11.28l2.6,2.53Z" transform="translate(27.815 50.18)" fill="#d0d8da"/>
    <path id="Path_4873" data-name="Path 4873" d="M28.631,31.318a10.918,10.918,0,0,1,1.352,0L29.671,23a7.244,7.244,0,0,1-4.055,2.946H24.542a7.278,7.278,0,0,1-3.951-2.773V23l-.451,4.3Z" transform="translate(49.662 56.715)" fill="#e0e2e2"/>
    <path id="Path_4874" data-name="Path 4874" d="M26.968,25.446a7.832,7.832,0,0,1-1.352.52H24.542a7.278,7.278,0,0,1-3.951-2.773V23.02l-.451,4.3,6.412,2.946Z" transform="translate(49.662 56.764)" fill="#cbd0d1"/>
    <path id="Path_4875" data-name="Path 4875" d="M24.559,20.86c1.213,0,2.634,3.466,3.223,8.353s0,8.734-1.144,8.873S24,34.62,23.415,29.733,23.415,21.033,24.559,20.86Z" transform="translate(57.166 51.438)" fill="url(#linear-gradient-3)"/>
    <path id="Path_4876" data-name="Path 4876" d="M19.876,38.088c-1.213,0-1.7-4.124-1.144-8.873s2.01-8.491,3.223-8.353,1.733,4.124,1.144,8.873S21.089,38.227,19.876,38.088Z" transform="translate(45.629 51.435)" fill="url(#linear-gradient-4)"/>
    <path id="Path_4877" data-name="Path 4877" d="M36.126,26.907A8.526,8.526,0,1,1,27.669,18,8.734,8.734,0,0,1,36.126,26.907Z" transform="translate(47.055 44.385)" fill="url(#linear-gradient-5)"/>
    <path id="Path_4878" data-name="Path 4878" d="M24.912,24.412A9.081,9.081,0,0,1,27.546,18h0a8.942,8.942,0,0,0,0,17.849,8.318,8.318,0,0,0,5.892-2.461,8.734,8.734,0,0,1-8.457-8.942Z" transform="translate(47.247 44.386)" fill="url(#linear-gradient-6)"/>
    <path id="Path_4879" data-name="Path 4879" d="M23.033,19.1l.381,1.178a.208.208,0,0,1-.208.312l-6,.693v-.208Z" transform="translate(42.437 47.098)" fill="#cbd0d1"/>
    <path id="Path_4880" data-name="Path 4880" d="M24.532,19.1l-.381,1.178a.208.208,0,0,0,.208.312l6,.693v-.208Z" transform="translate(59.48 47.098)" fill="#e0e2e2"/>
    <path id="Path_4881" data-name="Path 4881" d="M29.92,17.821a13.033,13.033,0,0,0-2.114,0,12.686,12.686,0,0,0-2.08,0,8.318,8.318,0,0,0-6.239,4.194,5.372,5.372,0,0,0-.451,2.5l.52.9A7.764,7.764,0,0,1,27.805,19.1a7.764,7.764,0,0,1,8.249,6.377l.52-.9a3.986,3.986,0,0,0-.312-2.565,8.387,8.387,0,0,0-6.239-4.194Z" transform="translate(46.918 43.837)" fill="#cbd0d1"/>
    <path id="Path_4882" data-name="Path 4882" d="M19.271,26.186c0-3.466,3.916-6.55,8.769-6.55s8.8,2.946,8.8,6.55a.867.867,0,0,1,0,.277,5.407,5.407,0,0,0,.52-2.322c.069-3.986-4.228-7.105-9.219-7.105A8.422,8.422,0,0,0,18.89,24.21a5.927,5.927,0,0,0,.485,2.322v-.277Z" transform="translate(46.58 41.884)" fill="#fff"/>
    <path id="Path_4883" data-name="Path 4883" d="M22.8,14.484,21,23.461l1.7.832a.728.728,0,0,0,.659,0l1.7-.832L23.183,14.38h-.312Z" transform="translate(51.783 35.459)" fill="#e0e2e2"/>
    <path id="Path_4884" data-name="Path 4884" d="M22.85,20.443l.9,1.594a.347.347,0,0,0,.555,0l6.758-5.857v-.243Z" transform="translate(56.345 39.274)" fill="#e0e2e2"/>
    <path id="Path_4885" data-name="Path 4885" d="M23.94,19.308l.347,1.768a.347.347,0,0,0,.485.277l8.318-3.466V17.61Z" transform="translate(59.033 43.424)" fill="#e0e2e2"/>
    <path id="Path_4886" data-name="Path 4886" d="M26.089,20.443l-.866,1.594a.347.347,0,0,1-.555,0L17.91,16.18s0-.312.173-.243Z" transform="translate(44.163 39.274)" fill="#cbd0d1"/>
    <path id="Path_4887" data-name="Path 4887" d="M25.665,19.308l-.312,1.768a.347.347,0,0,1-.52.277L16.55,17.887V17.61Z" transform="translate(40.81 43.424)" fill="#cbd0d1"/>
    <path id="Path_4888" data-name="Path 4888" d="M27.107,19.53l-.277-.243a.8.8,0,0,0-1.005,0l-.451.347a20.483,20.483,0,0,1-5.337,4.956.9.9,0,0,0-.347.659V28.3a7.347,7.347,0,0,0,.277,1.976,7.669,7.669,0,0,0,1.421,2.877,8.145,8.145,0,0,0,4.263,2.807h1.074a7.971,7.971,0,0,0,4.644-3.466l.312-.52a12.925,12.925,0,0,0,.555-1.213,8.041,8.041,0,0,0,.451-2.6V25.11a.832.832,0,0,0-.381-.659,18.265,18.265,0,0,1-5.06-4.852v-.173Z" transform="translate(48.553 47.119)" fill="#fff"/>
    <path id="Path_4889" data-name="Path 4889" d="M25.221,31.287a11.126,11.126,0,0,1-.728-1.04,6.932,6.932,0,0,1-.693-1.837,7.348,7.348,0,0,1-.277-1.976V19.85a22.008,22.008,0,0,1-3.466,2.877.9.9,0,0,0-.347.659v3.05a7.348,7.348,0,0,0,.277,1.976,7.669,7.669,0,0,0,1.421,2.877,8.145,8.145,0,0,0,4.263,2.807h1.074a8.214,8.214,0,0,0,1.386-.52,7.9,7.9,0,0,1-2.842-2.287Z" transform="translate(48.602 48.947)" fill="#e0e2e2"/>
    <path id="Path_4890" data-name="Path 4890" d="M38.43,34.766h0a1.178,1.178,0,0,1-1.074,1.213l-5.025.277a1.109,1.109,0,0,1-1.178-1.074h0A1.109,1.109,0,0,1,32.226,34l5.025-.312a1.144,1.144,0,0,1,1.213,1.074Z" transform="translate(76.81 83.074)" fill="#e0e2e2"/>
    <path id="Path_4891" data-name="Path 4891" d="M28.219,91.359A79.369,79.369,0,0,0,43.5,89.9V26.79L19,90.839a86.956,86.956,0,0,0,9.081.52Z" transform="translate(46.851 66.061)" fill="url(#linear-gradient-7)"/>
    <path id="Path_4892" data-name="Path 4892" d="M14.16,31.874s.451-7.625,10.224-13.344A15.8,15.8,0,0,1,14.16,31.874Z" transform="translate(34.916 45.692)" fill="#bbbebf"/>
    <path id="Path_4893" data-name="Path 4893" d="M18.279,12.251a.97.97,0,0,1-1.386,0L13.427,9.2a.968.968,0,0,1,1.352-1.386l3.466,3.05a.97.97,0,0,1,0,1.386Z" transform="translate(32.391 18.595)" fill="#e0e2e2"/>
    <path id="Path_4894" data-name="Path 4894" d="M13.75,7.64V21.885a2.322,2.322,0,0,0,4.61,0V7.64Z" transform="translate(33.905 18.839)" fill="url(#linear-gradient-8)"/>
    <path id="Path_4895" data-name="Path 4895" d="M19.194,6.71H12.47l4.436,3.223h4.61l4.4-3.223Z" transform="translate(30.749 16.546)" fill="#e0e2e2"/>
    <path id="Path_4896" data-name="Path 4896" d="M20.293,21.142a9.185,9.185,0,0,1,0-4.228,11.715,11.715,0,0,0,.243-2.6,5.3,5.3,0,0,0-.97-3.015c-1.109-1.56-3.015-3.154-3.466-2.08s1.629,4.61,1.629,4.61v5.095h0a2.322,2.322,0,0,1-2.322,2.218,2.391,2.391,0,0,1-1.456-.52A7.348,7.348,0,0,0,15.406,24.5L18.49,54.38,25.7,45.992Z" transform="translate(34.399 21.869)" fill="#e0e2e2"/>
    <path id="Path_4897" data-name="Path 4897" d="M15.145,25.521l.485,5.06,7.209-8.387-.8-3.674a22.494,22.494,0,0,1-6.932,6.932Z" transform="translate(37.259 45.668)" fill="#cbd0d1"/>
    <path id="Path_4898" data-name="Path 4898" d="M18.425,13.154a.97.97,0,0,1-1.352,0L13.607,10.1a.97.97,0,0,1,0-1.386,1,1,0,0,1,1.386,0l3.466,3.05a1,1,0,0,1,0,1.386Z" transform="translate(32.835 20.812)" fill="#e0e2e2"/>
    <path id="Path_4899" data-name="Path 4899" d="M18.377,13.842a.97.97,0,0,1-1.386,0l-3.466-3.085a.97.97,0,0,1,0-1.352.936.936,0,0,1,1.352,0l3.466,3.085a.936.936,0,0,1,0,1.352Z" transform="translate(32.675 22.481)" fill="#e0e2e2"/>
    <path id="Path_4900" data-name="Path 4900" d="M18.276,14.514a.936.936,0,0,1-1.352,0l-3.466-3.05a.97.97,0,0,1,1.282-1.456l3.466,3.05a1,1,0,0,1,0,1.386Z" transform="translate(32.43 24.13)" fill="#e0e2e2"/>
    <path id="Path_4901" data-name="Path 4901" d="M14.348,15.8a7.417,7.417,0,0,1-1.7-4.714c0-4.748,4.644-6.412,5.441-10.606,0-.485.936-.659,1.352-.277,2.565,2.391,8.075,8.665,3.986,15.6Z" transform="translate(31.193 0)" fill="url(#linear-gradient-9)"/>
    <path id="Path_4902" data-name="Path 4902" d="M22.6,3.882A22.84,22.84,0,0,0,19.443.208C19.027-.173,18.2,0,18.091.485c-.762,4.194-5.441,5.857-5.441,10.606a7.417,7.417,0,0,0,1.7,4.714h6.135a7.348,7.348,0,0,1-1.733-4.714c0-3.258,2.183-5.06,3.847-7.209Z" transform="translate(31.193 0)" fill="url(#linear-gradient-10)"/>
    <path id="Path_4903" data-name="Path 4903" d="M14.366,10.827a4.228,4.228,0,0,1-.936-2.634c0-2.669,2.565-3.466,3.05-5.927,0-.277.52-.381.728,0A7.14,7.14,0,0,1,19.461,11Z" transform="translate(33.116 4.977)" fill="url(#linear-gradient-11)"/>
    <path id="Path_4904" data-name="Path 4904" d="M17.8,2.684c-.208-.243-.416-.416-.589-.589s-.693,0-.728,0c-.485,2.322-3.05,3.258-3.05,5.927a4.228,4.228,0,0,0,.936,2.634h4.194a7.348,7.348,0,0,1-1.733-4.714,6.447,6.447,0,0,1,.97-3.466Z" transform="translate(33.116 4.975)" fill="url(#linear-gradient-12)"/>
    <path id="Path_4905" data-name="Path 4905" d="M24.021,9.045H14.7a2.287,2.287,0,0,1,0-4.575h9.323a2.287,2.287,0,0,1,0,4.575Z" transform="translate(30.601 11.022)" fill="#e0e2e2"/>
    <path id="Path_4906" data-name="Path 4906" d="M27.01,5.13H14.568a2.738,2.738,0,0,0,0,5.476H27.01a2.738,2.738,0,0,0,0-5.476Z" transform="translate(29.171 12.65)" fill="url(#linear-gradient-13)"/>
    <path id="Path_4907" data-name="Path 4907" d="M20.564,7.868A2.738,2.738,0,0,1,23.3,5.13H14.568a2.738,2.738,0,0,0,0,5.476H23.3A2.738,2.738,0,0,1,20.564,7.868Z" transform="translate(29.171 12.65)" fill="url(#linear-gradient-13)"/>
    <path id="Path_4908" data-name="Path 4908" d="M24.58,18.53a16.948,16.948,0,0,1-9.808,12.824,1.213,1.213,0,0,0-.624,1.49,101.412,101.412,0,0,1,5.407,32.094L43.815,41.717l-11.368-5.2a3.223,3.223,0,0,1-1.768-1.872Z" transform="translate(34.721 45.692)" fill="#fff"/>
    <path id="Path_4909" data-name="Path 4909" d="M19.138,21.479a19.2,19.2,0,0,1-4.367,2.946,1.213,1.213,0,0,0-.624,1.49,101.412,101.412,0,0,1,5.407,32.094l5.753-5.476A123.387,123.387,0,0,0,19.138,21.34Z" transform="translate(34.721 52.622)" fill="url(#linear-gradient-15)"/>
    <path id="Path_4910" data-name="Path 4910" d="M17.4,60.914l-1.56,2.149a6.135,6.135,0,0,0-1.04,5.026L18.06,81.952l30.707-55.9a18.647,18.647,0,0,0-2.149-.8Z" transform="translate(36.111 62.263)" fill="url(#linear-gradient-16)"/>
    <path id="Path_4911" data-name="Path 4911" d="M25.477,32.7,17.4,42.543l-1.56,2.149a6.135,6.135,0,0,0-1.04,5.026L18.06,63.581l8.214-14.626V47.881c-3.778-10.19-.728-15.146-.728-15.181Z" transform="translate(36.111 80.634)" fill="url(#linear-gradient-17)"/>
    <path id="Path_4912" data-name="Path 4912" d="M41.224,25.359,16.963,48.58A14.834,14.834,0,0,0,16.2,61.127l29.217-35.56a7.486,7.486,0,0,0-4.124-.208Z" transform="translate(37.382 62.05)" fill="url(#linear-gradient-18)"/>
    <path id="Path_4913" data-name="Path 4913" d="M22.7,30.34l-5.753,5.476a14.834,14.834,0,0,0-.762,12.546l8.075-9.843A12.165,12.165,0,0,1,22.7,30.34Z" transform="translate(37.332 74.814)" fill="url(#linear-gradient-19)"/>
    <path id="Path_4914" data-name="Path 4914" d="M48.325,25.535,16.509,82.1a13.17,13.17,0,0,0-1.525,8.491v.381a77.634,77.634,0,0,0,20.8,3.466c16.186-36.773,17.849-64.5,17.849-64.5A8.942,8.942,0,0,0,48.152,25.5Z" transform="translate(36.553 62.88)" fill="url(#linear-gradient-20)"/>
    <path id="Path_4915" data-name="Path 4915" d="M25.783,37.08,16.529,53.543A13.17,13.17,0,0,0,15,62.034v.381a77.634,77.634,0,0,0,20.8,3.466C24.292,54.305,25.783,37.08,25.783,37.08Z" transform="translate(36.603 91.434)" fill="url(#linear-gradient-21)"/>
    <path id="Path_4916" data-name="Path 4916" d="M31.421,26.79,23.9,90.978a79.992,79.992,0,0,0,17.121-3.639Z" transform="translate(58.934 66.061)" fill="url(#linear-gradient-22)"/>
    <path id="Path_4917" data-name="Path 4917" d="M26.07,26.79,29.917,37.6a5.615,5.615,0,0,0,1.8,2.565l3.466,2.911-5.06,9.427Z" transform="translate(64.285 66.061)" fill="#fff"/>
    <path id="Path_4918" data-name="Path 4918" d="M41.251,36S34.562,60.608,29.225,49.2L27.7,39.6Z" transform="translate(68.304 88.771)" fill="#fff"/>
    <path id="Path_4919" data-name="Path 4919" d="M39.1,36,28.7,38.738a26.445,26.445,0,0,0,2.114,13.309C35.047,50.383,38.963,36,38.963,36Z" transform="translate(70.454 88.771)" fill="#cbd0d1"/>
    <path id="Path_4920" data-name="Path 4920" d="M32.487,36.53l-3.743,1.005a26.445,26.445,0,0,0,2.114,13.309h0a50.462,50.462,0,0,1,1.56-14.279Z" transform="translate(70.552 90.078)" fill="#bbbebf"/>
    <path id="Path_4921" data-name="Path 4921" d="M34.528,30.9,27.25,44.448l1.56,9.912,6.273,3.085a2.911,2.911,0,0,0,4.228-1.005L48.634,39.6a2.911,2.911,0,0,0-.832-3.743L36.781,30.376a1.629,1.629,0,0,0-2.391.52Z" transform="translate(67.194 74.119)" fill="url(#linear-gradient-23)"/>
    <path id="Path_4922" data-name="Path 4922" d="M40.346,33.322a2.7,2.7,0,0,1,.9-.97L36.88,30.376a1.629,1.629,0,0,0-2.391.52L27.21,44.448l1.56,9.878Z" transform="translate(67.096 74.119)" fill="url(#linear-gradient-24)"/>
    <path id="Path_4923" data-name="Path 4923" d="M36.683,38.228a1.178,1.178,0,0,0-.312-1.664l-3.223-2.322a1.213,1.213,0,0,0-1.664.277,1.178,1.178,0,0,0,.277,1.7l.659.451,2.565,1.837a1.213,1.213,0,0,0,1.7-.277Z" transform="translate(77.031 83.909)" fill="#e0e2e2"/>
    <path id="Path_4924" data-name="Path 4924" d="M37,37.724h-.243l-4.02-2.842a1.178,1.178,0,0,0-1.664.277,1.213,1.213,0,0,0,.277,1.664l.243.208,4.02,2.842a1.178,1.178,0,0,0,1.664-.312A1.213,1.213,0,0,0,37,37.9Z" transform="translate(76.092 85.453)" fill="#e0e2e2"/>
    <path id="Path_4925" data-name="Path 4925" d="M36.7,39.968a1.213,1.213,0,0,1-1.7.277L31.02,37.4a1.213,1.213,0,0,1-.277-1.664,1.144,1.144,0,0,1,1.664-.277l4.02,2.842a1.213,1.213,0,0,1,.277,1.664Z" transform="translate(75.278 86.848)" fill="#e0e2e2"/>
    <path id="Path_4926" data-name="Path 4926" d="M35.8,40.051a1.213,1.213,0,0,0-.277-1.664l-3.258-2.149a1.213,1.213,0,1,0-1.421,1.941l1.317.936,1.976,1.421a1.178,1.178,0,0,0,1.664-.312Z" transform="translate(74.514 88.532)" fill="#e0e2e2"/>
    <path id="Path_4927" data-name="Path 4927" d="M22.976,14.37H22.8L21,23.485l1.7.832a.624.624,0,0,0,.347,0Z" transform="translate(51.783 35.434)" fill="#cbd0d1"/>
  </g>
</svg>
