<svg xmlns="http://www.w3.org/2000/svg" xmlns:xlink="http://www.w3.org/1999/xlink" width="42.552" height="48.371" viewBox="0 0 42.552 48.371">
  <defs>
    <linearGradient id="linear-gradient" y1="0.623" x2="0.951" y2="0.64" gradientUnits="objectBoundingBox">
      <stop offset="0" stop-color="#3fa9f5"/>
      <stop offset="0.429" stop-color="#0087ee"/>
      <stop offset="1" stop-color="#0c83fa"/>
    </linearGradient>
  </defs>
  <path id="attach" d="M40.181,27.429,25.149,42.462a10.1,10.1,0,0,1-14.548,0,10.1,10.1,0,0,1,0-14.548L30,8.518a6.319,6.319,0,0,1,8.486,0,5.858,5.858,0,0,1,0,8.486l-16.73,16.73a1.9,1.9,0,0,1-2.667,0h0a1.9,1.9,0,0,1,0-2.667L31.453,18.7a2.4,2.4,0,0,0-3.394-3.394L15.693,27.914a6.588,6.588,0,0,0,0,9.456,7.056,7.056,0,0,0,9.456,0l16.73-16.73a10.832,10.832,0,0,0,0-15.517,10.832,10.832,0,0,0-15.517,0l-19.4,19.4a15.088,15.088,0,0,0,10.911,25.7,15.676,15.676,0,0,0,10.668-4.364L43.576,30.824a2.4,2.4,0,0,0-3.394-3.394Z" transform="translate(-2.6 -1.85)" fill="url(#linear-gradient)"/>
</svg>
