<svg xmlns="http://www.w3.org/2000/svg" xmlns:xlink="http://www.w3.org/1999/xlink" viewBox="0 0 322 283.05"><defs><style>.cls-1{fill:none;}.cls-2{fill:#293e65;}.cls-3{fill:#465a61;}.cls-4{fill:#3b4a51;}.cls-5{fill:#3d6dcc;}.cls-6{clip-path:url(#clip-path);}.cls-7{fill:#0c83fa;}.cls-8{fill:#b00e0e;}.cls-9{fill:#c6151d;}</style><clipPath id="clip-path" transform="translate(0 -0.59)"><rect class="cls-1" width="322" height="284.19"/></clipPath></defs><title>Asset 213</title><g id="Layer_2" data-name="Layer 2"><g id="red"><path class="cls-2" d="M122.66,283.65A28.31,28.31,0,1,1,151,255.34a28.34,28.34,0,0,1-28.3,28.31Z" transform="translate(0 -0.59)"/><path class="cls-3" d="M122.66,264.77a9.44,9.44,0,1,1,9.43-9.43,9.44,9.44,0,0,1-9.43,9.43Z" transform="translate(0 -0.59)"/><path class="cls-2" d="M256,283.65a28.31,28.31,0,1,1,28.3-28.31A28.34,28.34,0,0,1,256,283.65Z" transform="translate(0 -0.59)"/><path class="cls-4" d="M256,264.77a9.44,9.44,0,1,1,9.43-9.43,9.44,9.44,0,0,1-9.43,9.43Z" transform="translate(0 -0.59)"/><path class="cls-5" d="M285.82,217.6a9.34,9.34,0,0,1-9.44,9.43H95.86a28.24,28.24,0,0,1-3.77-56.23,12.11,12.11,0,0,1,3.77-.38,8.75,8.75,0,0,1,6,2.46l-5.66,16.41h-.38a9.44,9.44,0,1,0,0,18.87H276.38a9.34,9.34,0,0,1,9.44,9.44Z" transform="translate(0 -0.59)"/><path class="cls-5" d="M62.61,38.35c.61.76,10.77,5.35,21,9.84a9.59,9.59,0,0,0,0-2.45L75.26,8A9.43,9.43,0,0,0,66.05.59H9.44a9.44,9.44,0,1,0,0,18.87h49Z" transform="translate(0 -0.59)"/><g class="cls-6"><path class="cls-7" d="M285.82,217.6a9.34,9.34,0,0,1-9.44,9.43H187.63V208.16h88.75a9.34,9.34,0,0,1,9.44,9.44Z" transform="translate(0 -0.59)"/><path class="cls-8" d="M320.16,42.11a9.28,9.28,0,0,0-7.55-3.78h-250L92.09,170.8l4.15,18.49H274.88a9.5,9.5,0,0,0,9.05-6.79L321.67,50.41a9.88,9.88,0,0,0-1.51-8.3Z" transform="translate(0 -0.59)"/><path class="cls-9" d="M321.67,50.41,283.93,182.5a9.5,9.5,0,0,1-9.05,6.79H187.63v-151h125a9.28,9.28,0,0,1,7.55,3.78,9.88,9.88,0,0,1,1.51,8.3Z" transform="translate(0 -0.59)"/></g></g></g></svg>