<svg xmlns="http://www.w3.org/2000/svg" xmlns:xlink="http://www.w3.org/1999/xlink" viewBox="0 0 38.07 38.07"><defs><style>.cls-1{fill:none;}.cls-2{fill:url(#Red_Orange);}.cls-3{fill:#fff;}.cls-4{clip-path:url(#clip-path);}.cls-5{fill:url(#blue_befiler_Gradient_Swatch);}.cls-6{fill:url(#blue_befiler_Gradient_Swatch-2);}</style><linearGradient id="Red_Orange" y1="25.38" x2="38.07" y2="25.38" gradientUnits="userSpaceOnUse"><stop offset="0" stop-color="#f37e5f"/><stop offset="0.5" stop-color="#ec1c24"/><stop offset="1" stop-color="#cf232a"/></linearGradient><clipPath id="clip-path"><rect class="cls-1" width="38.07" height="38.07"/></clipPath><linearGradient id="blue_befiler_Gradient_Swatch" x1="28.55" y1="4.76" x2="38.07" y2="4.76" gradientUnits="userSpaceOnUse"><stop offset="0" stop-color="#3fa9f5"/><stop offset="0.58" stop-color="#0087ee"/><stop offset="1" stop-color="#0d71c8"/></linearGradient><linearGradient id="blue_befiler_Gradient_Swatch-2" x1="0" y1="4.76" x2="25.38" y2="4.76" xlink:href="#blue_befiler_Gradient_Swatch"/></defs><g id="Layer_2" data-name="Layer 2"><g id="Business"><path class="cls-2" d="M35.3,12.69H2.78A2.79,2.79,0,0,0,0,15.47V35.3a2.78,2.78,0,0,0,2.78,2.77H35.3a2.78,2.78,0,0,0,2.77-2.77V15.47A2.78,2.78,0,0,0,35.3,12.69Z"/><path class="cls-3" d="M22.21,20.62A3.18,3.18,0,1,1,19,17.45a3.17,3.17,0,0,1,3.17,3.17Z"/><g class="cls-4"><path class="cls-3" d="M25.38,30.54a1.2,1.2,0,0,1-1.19,1.19H13.88a1.2,1.2,0,0,1-1.19-1.19V29.22a4,4,0,0,1,4.14-3.84h4.41a4,4,0,0,1,4.14,3.84Z"/></g><path class="cls-5" d="M37.72,7.49,36,5.81A3.91,3.91,0,0,0,36.49,4c0-2.19-2.56-4-4-4a4,4,0,0,0-3.89,3.17,4.17,4.17,0,0,0-.08.8,4,4,0,0,0,4,4l.39,0a3.79,3.79,0,0,0,1.26-.34L36,9.16h0a1.2,1.2,0,0,0,.84.35,1.19,1.19,0,0,0,.84-2Zm-4.08-2.4A1.59,1.59,0,0,1,30.93,4a1.55,1.55,0,0,1,.47-1.12h0a1.57,1.57,0,0,1,1.12-.47,1.58,1.58,0,0,1,1.12,2.71Z"/><path class="cls-6" d="M22.6,0H2.78A2.79,2.79,0,0,0,0,2.78v4A2.79,2.79,0,0,0,2.78,9.52H22.6a2.78,2.78,0,0,0,2.78-2.78v-4A2.78,2.78,0,0,0,22.6,0Z"/></g></g></svg>