<svg xmlns="http://www.w3.org/2000/svg" xmlns:xlink="http://www.w3.org/1999/xlink" viewBox="0 0 319.16 319.17"><defs><style>.cls-1{fill:none;}.cls-2{fill:#2196f3;}.cls-2,.cls-4,.cls-6,.cls-7,.cls-8{fill-rule:evenodd;}.cls-3{clip-path:url(#clip-path);}.cls-4{fill:#b00e0e;}.cls-5{fill:#3d6dcc;}.cls-6{fill:#f29500;}.cls-7{fill:#fdb441;}.cls-8{fill:#e40707;}</style><clipPath id="clip-path" transform="translate(-2.84)"><rect class="cls-1" y="0.01" width="319.16" height="319.16"/></clipPath></defs><title>Asset 115</title><g id="Layer_2" data-name="Layer 2"><g id="red"><path class="cls-2" d="M286.14,138V313.67a5.5,5.5,0,0,1-5.5,5.5H38.52a5.5,5.5,0,0,1-5.5-5.5V138L159.58,33Z" transform="translate(-2.84)"/><g class="cls-3"><path class="cls-4" d="M286.14,38.53v76l-38.52-32v-44a5.5,5.5,0,0,1,5.5-5.5h27.52a5.5,5.5,0,0,1,5.5,5.5Z" transform="translate(-2.84)"/></g><path class="cls-5" d="M162,34.21v285H281.59a5.51,5.51,0,0,0,5.5-5.5V138Z" transform="translate(-2.84)"/><path class="cls-6" d="M82.7,216c5.66-18.54,21.13-30.27,34.75-43A50.29,50.29,0,0,0,132,151.65a40.33,40.33,0,0,0-8-36.38,2.75,2.75,0,0,1,3-4.26,72.69,72.69,0,0,1,43.79,35.88,86.71,86.71,0,0,1,9,36.81c.23-.86,22.57-13,12.52-47.16a2.75,2.75,0,0,1,4.4-2.86c13.86,11.69,42.37,40.07,47.55,83,5.28,43.82-25.31,88.17-69.5,94.85C115.65,320.51,67.55,265.66,82.7,216Z" transform="translate(-2.84)"/><path class="cls-7" d="M169.5,312c-34,5.12-61.61-26.37-52.9-54.9,3.26-10.64,12.14-17.38,20-24.68a29,29,0,0,0,8.36-12.32,22.36,22.36,0,0,0-3.44-19.25,2.76,2.76,0,0,1,0-3,2.72,2.72,0,0,1,2.73-1.24,81.75,81.75,0,0,1,60.37,43,.08.08,0,0,1,0,.07c15.45,36.15-7.22,68.13-35.1,72.35Z" transform="translate(-2.84)"/><path class="cls-8" d="M320.57,137l-13.7,15.52a5.52,5.52,0,0,1-7.71.55L289,144.68l-126.56-105-126.56,105L25.68,153.1a5.52,5.52,0,0,1-7.71-.55L4.27,137a5.49,5.49,0,0,1,.61-8l154-127.77a5.64,5.64,0,0,1,7.16,0l84.46,70.1,38.52,32,31,25.7a5.52,5.52,0,0,1,.61,8Z" transform="translate(-2.84)"/></g></g></svg>