<svg xmlns="http://www.w3.org/2000/svg" xmlns:xlink="http://www.w3.org/1999/xlink" viewBox="0 0 117.13 151.52"><defs><style>.cls-1{fill:none;}.cls-2{fill:#eceff1;}.cls-3{fill:#0c83fa;}.cls-4{clip-path:url(#clip-path);}.cls-10,.cls-11,.cls-5{fill:#293e65;}.cls-6{fill:#e40707;}.cls-7{fill:#c6151d;}.cls-8{fill:#e14c4b;}.cls-9{fill:#fefefe;}.cls-10,.cls-11{font-size:24.15px;font-family:Roboto-Black, Roboto;font-weight:800;}.cls-11{letter-spacing:-0.06em;}.cls-12{letter-spacing:0em;}</style><clipPath id="clip-path" transform="translate(-0.32)"><rect class="cls-1" width="117.64" height="151.88"/></clipPath></defs><title>Asset 550atl</title><g id="Layer_2" data-name="Layer 2"><g id="income_icons_copy" data-name="income icons copy"><path class="cls-2" d="M105.36,21.16H12.41A12.27,12.27,0,0,0,.32,32.68V140.94c0,6.23,5.85,10.58,12.09,10.58h93c6.23,0,12.09-4.35,12.09-10.58V32.68a12.29,12.29,0,0,0-12.09-11.52Z" transform="translate(-0.32)"/><path class="cls-3" d="M27,101.83a3.4,3.4,0,0,1-2.64-1.13l-7.75-7.94a4,4,0,0,1,0-5.48,3.78,3.78,0,0,1,5.29.19L27,92.76l12.1-11.52a3.77,3.77,0,0,1,5.29.19,4,4,0,0,1,0,5.48L29.6,100.7A3.78,3.78,0,0,1,27,101.83Z" transform="translate(-0.32)"/><path class="cls-3" d="M27,71.6a3.4,3.4,0,0,1-2.64-1.13l-7.75-7.94a4,4,0,0,1,0-5.47,3.78,3.78,0,0,1,5.29.18L27,62.53,39.05,51a3.77,3.77,0,0,1,5.29.19,4,4,0,0,1,0,5.48L29.6,70.47A3.78,3.78,0,0,1,27,71.6Z" transform="translate(-0.32)"/><path class="cls-3" d="M27,132.06a3.38,3.38,0,0,1-2.64-1.14L16.56,123a4,4,0,0,1,0-5.48,3.78,3.78,0,0,1,5.29.19L27,123l12.1-11.53a3.79,3.79,0,0,1,5.29.19,4,4,0,0,1,0,5.48L29.6,130.92A3.79,3.79,0,0,1,27,132.06Z" transform="translate(-0.32)"/><g class="cls-4"><path class="cls-5" d="M98.56,127.33H55.1a3.78,3.78,0,0,1,0-7.55H98.56a3.78,3.78,0,1,1,0,7.55Z" transform="translate(-0.32)"/><path class="cls-5" d="M86.65,21.73V35H30.92V11.34H44.71A14.36,14.36,0,0,1,58.69,0a14.16,14.16,0,0,1,14,11.34h14Z" transform="translate(-0.32)"/></g><path class="cls-6" d="M69.42,136a25,25,0,0,1-3-4.51A23,23,0,0,1,64,123.3a22.08,22.08,0,0,1,.3-6.59,23.06,23.06,0,0,1,17.63-18.2,23,23,0,0,1,19.21,4.36,3.12,3.12,0,0,1,.76.64c0,.24.21.36.33.53a22.58,22.58,0,0,1,3.23,6.59,23.2,23.2,0,0,1,.9,4.58,20.76,20.76,0,0,1,.07,3.7c-.09.94-.2,1.88-.37,2.81a21.94,21.94,0,0,1-1.48,4.81,22.72,22.72,0,0,1-3.45,5.62,23.8,23.8,0,0,1-6.64,5.5A23.46,23.46,0,0,1,88,140.07a21.73,21.73,0,0,1-3,.42c-.69,0-1.37.07-2,0a24,24,0,0,1-8.24-1.65,26.61,26.61,0,0,1-4.23-2.22c-.27-.17-.51-.4-.79-.57C69.6,136.05,69.53,136,69.42,136Z" transform="translate(-0.32)"/><path class="cls-7" d="M69.42,136c.13-.17.24,0,.33,0a19.4,19.4,0,0,0,2,1.33,21.74,21.74,0,0,0,2.69,1.34,21,21,0,0,0,3,1,22.8,22.8,0,0,0,4.73.7c.63,0,1.27.06,1.9.05a19.8,19.8,0,0,0,3.44-.38,22.93,22.93,0,0,0,10.92-5.32,23.64,23.64,0,0,0,3.92-4.38,22.87,22.87,0,0,0,2.61-5.09,21.86,21.86,0,0,0,1.09-4.11c.11-.73.21-1.46.26-2.2a17.58,17.58,0,0,0,0-2c0-.91-.11-1.83-.23-2.74a26.17,26.17,0,0,0-.56-2.8,20.76,20.76,0,0,0-1.92-4.86,26.55,26.55,0,0,0-1.68-2.67c-.07-.09-.22-.19-.07-.33l.8.71c.15.11.27.25.41.37l.24.23c.16.19.35.37.53.55a19.14,19.14,0,0,1,2.52,3.22,22.81,22.81,0,0,1,3.19,8.1,21.93,21.93,0,0,1,.36,5.66A23.14,23.14,0,0,1,93.8,143a22.46,22.46,0,0,1-5,1,22.86,22.86,0,0,1-17.39-5.83c-.06-.06-.11-.13-.16-.19a4.77,4.77,0,0,0-.57-.53.35.35,0,0,1-.22-.21,2.27,2.27,0,0,0-.39-.43A4.34,4.34,0,0,1,69.42,136Z" transform="translate(-0.32)"/><path class="cls-8" d="M103.88,105.37a1.09,1.09,0,0,1-.53-.55A2.14,2.14,0,0,1,103.88,105.37Z" transform="translate(-0.32)"/><path class="cls-8" d="M70.73,137.42a1.06,1.06,0,0,1,.57.53A2.87,2.87,0,0,1,70.73,137.42Z" transform="translate(-0.32)"/><path class="cls-8" d="M103.11,104.59a.78.78,0,0,1-.41-.37A.82.82,0,0,1,103.11,104.59Z" transform="translate(-0.32)"/><path class="cls-8" d="M70.12,136.78a.59.59,0,0,1,.39.43Z" transform="translate(-0.32)"/><path class="cls-9" d="M73.78,122a2.43,2.43,0,0,1,1.54-2.34,2.66,2.66,0,0,1,3,.73l4,4.47c.38.43.38.43.78,0l12.51-13.61a2.78,2.78,0,0,1,2.35-1,2.29,2.29,0,0,1,2,1.42,2.23,2.23,0,0,1-.24,2.48c-.87,1-1.81,2-2.73,3L86.67,128.4c-.79.86-1.56,1.74-2.38,2.56a2.34,2.34,0,0,1-3.36,0c-1.13-1.16-2.19-2.38-3.27-3.58s-2.07-2.31-3.1-3.46A2.75,2.75,0,0,1,73.78,122Z" transform="translate(-0.32)"/><text class="cls-10" transform="translate(53.13 66.46) scale(1.04 1)">NIC</text><text class="cls-11" transform="translate(51.13 97.46) scale(1.04 1)">A<tspan class="cls-12" x="15.03" y="0">TL</tspan></text></g></g></svg>