<svg xmlns="http://www.w3.org/2000/svg" viewBox="0 0 322 322"><defs><style>.cls-1{fill:#b00e0e;}.cls-2{fill:#c6151d;}.cls-3{fill:#3d6dcc;}.cls-4{fill:#fff6e5;}.cls-5{fill:#f4e4cd;}.cls-6{fill:#ead2b4;}.cls-7{fill:#eceff1;}.cls-8{fill:#0c83fa;}</style></defs><title>Asset 130</title><g id="Layer_2" data-name="Layer 2"><g id="red"><path class="cls-1" d="M280.37,82H41.63a9.44,9.44,0,0,1-9.43-9.44V29.64A29.63,29.63,0,0,1,61.84,0H260.16A29.63,29.63,0,0,1,289.8,29.64V72.53A9.43,9.43,0,0,1,280.37,82Z"/><path class="cls-2" d="M289.8,72.53V29.64A29.63,29.63,0,0,0,260.16,0H161V82H280.37a9.44,9.44,0,0,0,9.43-9.44Z"/><path class="cls-1" d="M21.47,143.61v169A9.43,9.43,0,0,0,30.9,322H182.47a9.43,9.43,0,0,0,9.43-9.43V222.8a9.43,9.43,0,0,1,9.44-9.43h37.39a9.44,9.44,0,0,1,9.44,9.43v89.77A9.43,9.43,0,0,0,257.6,322h33.5a9.43,9.43,0,0,0,9.43-9.43v-169a9.43,9.43,0,0,0-9.43-9.43H30.9a9.43,9.43,0,0,0-9.43,9.43Z"/><path class="cls-2" d="M191.9,312.57V222.8a9.43,9.43,0,0,1,9.44-9.43h37.39a9.44,9.44,0,0,1,9.44,9.43v89.77A9.43,9.43,0,0,0,257.6,322h33.5a9.43,9.43,0,0,0,9.43-9.43v-169a9.43,9.43,0,0,0-9.43-9.43H161V322h21.47a9.43,9.43,0,0,0,9.43-9.43Z"/><path class="cls-3" d="M32.2,53.67,1.34,105.09A9.56,9.56,0,0,0,0,110v24.23A26.82,26.82,0,0,0,26.82,161h0a26.83,26.83,0,0,0,26.83-26.82H75.13a9.44,9.44,0,0,0,9.43-9.44V63.1a9.43,9.43,0,0,0-9.43-9.43Z"/><path class="cls-3" d="M75.13,53.67H32.2L1.34,105.09a9.79,9.79,0,0,0-1.19,3.18H84.56V63.1a9.42,9.42,0,0,0-9.43-9.43Z"/><path class="cls-4" d="M118.06,53.67H75.13l-20.79,52a9.51,9.51,0,0,0-.67,3.5v25A26.82,26.82,0,0,0,80.49,161h0a26.82,26.82,0,0,0,26.82-26.82h10.73a9.44,9.44,0,0,0,9.43-9.44V63.1a9.43,9.43,0,0,0-9.43-9.43Z"/><path class="cls-5" d="M118.06,53.67H75.13l-20.79,52a9.12,9.12,0,0,0-.63,2.62h73.78V63.1a9.43,9.43,0,0,0-9.43-9.43Z"/><path class="cls-5" d="M289.8,53.67l30.86,51.42A9.56,9.56,0,0,1,322,110v24.23A26.82,26.82,0,0,1,295.18,161h0a26.83,26.83,0,0,1-26.83-26.82H246.87a9.44,9.44,0,0,1-9.43-9.44V63.1a9.43,9.43,0,0,1,9.43-9.43Z"/><path class="cls-6" d="M289.8,53.67H246.87a9.43,9.43,0,0,0-9.43,9.43v45.17h84.41a9.79,9.79,0,0,0-1.19-3.18Z"/><path class="cls-7" d="M73.83,279.07H130.1a9.44,9.44,0,0,0,9.43-9.44V213.37a9.44,9.44,0,0,0-9.43-9.44H73.83a9.44,9.44,0,0,0-9.43,9.44v56.26a9.44,9.44,0,0,0,9.43,9.44Z"/><path class="cls-7" d="M182.47,322H257.6V213.37a9.44,9.44,0,0,0-9.43-9.44H191.9a9.44,9.44,0,0,0-9.43,9.44Z"/><path class="cls-8" d="M203.94,53.67h42.93l20.79,52a9.51,9.51,0,0,1,.67,3.5v25A26.82,26.82,0,0,1,241.51,161h0a26.82,26.82,0,0,1-26.82-26.82H203.94a9.44,9.44,0,0,1-9.43-9.44V63.1a9.43,9.43,0,0,1,9.43-9.43Z"/><path class="cls-8" d="M246.87,53.67H203.94a9.43,9.43,0,0,0-9.43,9.43v45.17h73.78a9,9,0,0,0-.63-2.62Z"/><path class="cls-8" d="M170.43,63.1A9.44,9.44,0,0,0,161,53.67H118.06l-10.54,52.75a9.52,9.52,0,0,0-.19,1.85v25.91A26.83,26.83,0,0,0,134.16,161h0A26.82,26.82,0,0,0,161,134.18a9.45,9.45,0,0,0,9.43-9.44Z"/><path class="cls-8" d="M161,53.67H118.06l-10.54,52.75a9.52,9.52,0,0,0-.19,1.85h63.1V63.1A9.44,9.44,0,0,0,161,53.67Z"/><path class="cls-5" d="M161,53.67h42.93l10.54,52.75a9.52,9.52,0,0,1,.19,1.85v25.91A26.83,26.83,0,0,1,187.84,161h0A26.82,26.82,0,0,1,161,134.18Z"/><path class="cls-6" d="M203.94,53.67H161v54.6h53.67a9.52,9.52,0,0,0-.19-1.85Z"/></g></g></svg>