<svg xmlns="http://www.w3.org/2000/svg" xmlns:xlink="http://www.w3.org/1999/xlink" viewBox="0 0 43.17 48.02"><defs><style>.cls-1{fill:url(#linear-gradient);}.cls-2{fill:url(#Red_Orange);}.cls-3{fill:#fff;}.cls-4{fill:#eceff1;}</style><linearGradient id="linear-gradient" x1="25.48" y1="28.35" x2="42.09" y2="28.35" gradientUnits="userSpaceOnUse"><stop offset="0" stop-color="#3fa9f5"/><stop offset="0.58" stop-color="#0087ee"/><stop offset="1" stop-color="#0c83fa"/></linearGradient><linearGradient id="Red_Orange" x1="4.15" y1="23.24" x2="25.74" y2="23.24" gradientUnits="userSpaceOnUse"><stop offset="0" stop-color="#f37e5f"/><stop offset="0.5" stop-color="#ec1c24"/><stop offset="1" stop-color="#cf232a"/></linearGradient></defs><g id="Layer_2" data-name="Layer 2"><g id="HOME_2" data-name="HOME 2"><path class="cls-1" d="M42.09,16.73V45H25.48V13.41a1.67,1.67,0,0,1,1.66-1.66h10a5,5,0,0,1,5,5Z"/><path class="cls-2" d="M25.74,5V44.83a1.67,1.67,0,0,1-1.67,1.66H5.81a1.67,1.67,0,0,1-1.66-1.66V5a5,5,0,0,1,5-5H20.75a5,5,0,0,1,5,5Z"/><path class="cls-3" d="M14.11,8.3H10.79V5h3.32Zm5-3.32H15.77V8.3h3.32Zm-5,6.64H10.79v3.32h3.32Zm5,0H15.77v3.32h3.32Zm-5,6.64H10.79v3.32h3.32Zm5,0H15.77v3.32h3.32Zm-5,6.65H10.79v3.32h3.32Zm5,0H15.77v3.32h3.32Zm-5,6.64H10.79v3.32h3.32Zm5,0H15.77v3.32h3.32Zm-5,6.64H10.79v3.32h3.32Zm5,0H15.77v3.32h3.32Z"/><path class="cls-3" d="M34,21.58H30.72V18.26H34Zm0,3.33H30.72v3.32H34Zm0,6.64H30.72v3.32H34Zm0,6.64H30.72v3.32H34Z"/><rect class="cls-4" y="44.7" width="43.17" height="3.32"/></g></g></svg>