<svg id="Layer_2" data-name="Layer 2" xmlns="http://www.w3.org/2000/svg" xmlns:xlink="http://www.w3.org/1999/xlink" width="158.701" height="135.168" viewBox="0 0 158.701 135.168">
  <defs>
    <linearGradient id="linear-gradient" y1="0.501" x2="1" y2="0.501" gradientUnits="objectBoundingBox">
      <stop offset="0" stop-color="#3fa9f5"/>
      <stop offset="0.58" stop-color="#0087ee"/>
      <stop offset="1" stop-color="#0d71c8"/>
    </linearGradient>
    <linearGradient id="linear-gradient-2" y1="0.5" x2="1" y2="0.5" gradientUnits="objectBoundingBox">
      <stop offset="0" stop-color="#f37e5f"/>
      <stop offset="0.5" stop-color="#ec1c24"/>
      <stop offset="1" stop-color="#cf232a"/>
    </linearGradient>
    <linearGradient id="linear-gradient-3" x1="0" y1="0.499" x2="1" y2="0.499" xlink:href="#linear-gradient"/>
    <linearGradient id="linear-gradient-4" x1="-0.062" y1="0.5" x2="2.062" y2="0.5" xlink:href="#linear-gradient"/>
    <linearGradient id="linear-gradient-5" x1="-1.062" y1="0.5" x2="1.062" y2="0.5" xlink:href="#linear-gradient"/>
    <linearGradient id="linear-gradient-6" x1="0" y1="0.5" x2="1.002" y2="0.5" xlink:href="#linear-gradient"/>
    <linearGradient id="linear-gradient-7" x1="0" y1="0.5" x2="0.998" y2="0.5" xlink:href="#linear-gradient"/>
    <linearGradient id="linear-gradient-8" x1="0" y1="0.5" x2="1" y2="0.5" xlink:href="#linear-gradient"/>
  </defs>
  <g id="Business">
    <rect id="Rectangle_570" data-name="Rectangle 570" width="148.2" height="18.438" transform="translate(5.892 112.121)" fill="#dfe7f4"/>
    <rect id="Rectangle_571" data-name="Rectangle 571" width="74.1" height="18.438" transform="translate(79.992 112.121)" fill="#c7cfe1"/>
    <path id="Path_4933" data-name="Path 4933" d="M25.289,49.508H9.485V40.289h15.8Zm24.608,0H34.509V40.289H49.9Zm24.573,0H59.116V40.289H74.47ZM132.9,40.289H148.57v9.219H132.9Zm-24.608,0h15.562v9.219H108.3Zm-24.608,0H99.077v9.219H83.689ZM.37,31V58.727H157.789V31Z" transform="translate(0.912 76.442)" fill="url(#linear-gradient)"/>
    <rect id="Rectangle_572" data-name="Rectangle 572" width="138.981" height="87.617" transform="translate(10.536 24.504)" fill="url(#linear-gradient-2)"/>
    <path id="Path_4934" data-name="Path 4934" d="M32.943,20.484,19.08,11.23V65.367l13.863-9.219L59.7,38.16Z" transform="translate(47.048 27.692)" fill="#fff"/>
    <path id="Path_4935" data-name="Path 4935" d="M23.08,13.9V49.564L49.836,31.576Z" transform="translate(56.912 34.276)" fill="#fff"/>
    <path id="Path_4936" data-name="Path 4936" d="M0,0V27.727H157.419V0ZM152.809,23.048H4.61V4.61h148.2Z" fill="url(#linear-gradient-3)"/>
    <path id="Path_4937" data-name="Path 4937" d="M1.33,1.33V19.768h74.1V1.33ZM21.64,15.194H5.94V5.94h15.7Zm24.573,0H30.859V5.94H46.213Zm24.608,0H55.432V5.94H70.82Z" transform="translate(3.28 3.28)" fill="#dfe7f4"/>
    <path id="Path_4938" data-name="Path 4938" d="M1.33,1.33V19.768h74.1V1.33ZM21.64,15.194H5.94V5.94h15.7Zm24.573,0H30.859V5.94H46.213Zm24.608,0H55.432V5.94H70.82Z" transform="translate(3.28 3.28)" fill="url(#linear-gradient-4)"/>
    <path id="Path_4939" data-name="Path 4939" d="M22.71,19.768h74.1V1.33H22.71ZM76.5,5.9H92.2v9.254H76.5Zm-24.573,0H67.281v9.254H51.927ZM27.32,5.9H42.673v9.254H27.181Z" transform="translate(56 3.28)" fill="#c7cfe1"/>
    <path id="Path_4940" data-name="Path 4940" d="M22.71,19.768h74.1V1.33H22.71ZM76.5,5.9H92.2v9.254H76.5Zm-24.573,0H67.281v9.254H51.927ZM27.32,5.9H42.673v9.254H27.181Z" transform="translate(56 3.28)" fill="url(#linear-gradient-5)"/>
    <rect id="Rectangle_573" data-name="Rectangle 573" width="15.666" height="9.219" transform="translate(9.219 9.219)" fill="#dfe7f4"/>
    <rect id="Rectangle_574" data-name="Rectangle 574" width="15.666" height="9.219" transform="translate(9.219 9.219)" fill="url(#linear-gradient-6)"/>
    <rect id="Rectangle_575" data-name="Rectangle 575" width="15.666" height="9.219" transform="translate(9.219 9.219)" fill="#fff"/>
    <rect id="Rectangle_576" data-name="Rectangle 576" width="15.388" height="9.219" transform="translate(34.139 9.219)" fill="#dfe7f4"/>
    <rect id="Rectangle_577" data-name="Rectangle 577" width="15.388" height="9.219" transform="translate(34.139 9.219)" fill="url(#linear-gradient-7)"/>
    <rect id="Rectangle_578" data-name="Rectangle 578" width="15.388" height="9.219" transform="translate(34.139 9.219)" fill="#fff"/>
    <rect id="Rectangle_579" data-name="Rectangle 579" width="15.388" height="9.219" transform="translate(58.712 9.219)" fill="#dfe7f4"/>
    <rect id="Rectangle_580" data-name="Rectangle 580" width="15.388" height="9.219" transform="translate(58.712 9.219)" fill="url(#linear-gradient-8)"/>
    <rect id="Rectangle_581" data-name="Rectangle 581" width="15.388" height="9.219" transform="translate(58.712 9.219)" fill="#fff"/>
    <rect id="Rectangle_582" data-name="Rectangle 582" width="15.666" height="9.219" transform="translate(132.5 9.219)" fill="#c7cfe1"/>
    <rect id="Rectangle_583" data-name="Rectangle 583" width="15.666" height="9.219" transform="translate(132.5 9.219)" fill="url(#linear-gradient-6)"/>
    <rect id="Rectangle_584" data-name="Rectangle 584" width="15.666" height="9.219" transform="translate(132.5 9.219)" fill="#fff"/>
    <rect id="Rectangle_585" data-name="Rectangle 585" width="15.388" height="9.219" transform="translate(107.927 9.219)" fill="#c7cfe1"/>
    <rect id="Rectangle_586" data-name="Rectangle 586" width="15.388" height="9.219" transform="translate(107.927 9.219)" fill="url(#linear-gradient-7)"/>
    <rect id="Rectangle_587" data-name="Rectangle 587" width="15.388" height="9.219" transform="translate(107.927 9.219)" fill="#fff"/>
    <rect id="Rectangle_588" data-name="Rectangle 588" width="15.388" height="9.219" transform="translate(83.319 9.219)" fill="#c7cfe1"/>
    <rect id="Rectangle_589" data-name="Rectangle 589" width="15.388" height="9.219" transform="translate(83.319 9.219)" fill="url(#linear-gradient-7)"/>
    <rect id="Rectangle_590" data-name="Rectangle 590" width="15.388" height="9.219" transform="translate(83.319 9.219)" fill="#fff"/>
  </g>
</svg>
