<svg id="Layer_2" data-name="Layer 2" xmlns="http://www.w3.org/2000/svg" xmlns:xlink="http://www.w3.org/1999/xlink" width="322" height="322" viewBox="0 0 322 322">
  <defs>
    <clipPath id="clip-path">
      <rect id="Rectangle_335" data-name="Rectangle 335" width="322" height="322" fill="none"/>
    </clipPath>
  </defs>
  <g id="red">
    <g id="Group_152" data-name="Group 152" clip-path="url(#clip-path)">
      <path id="Path_3479" data-name="Path 3479" d="M271.69,13.42h-47a10.05,10.05,0,0,0-10.06,10.06V68.83a10,10,0,0,0,3,7.15l47,46.42a10.057,10.057,0,0,0,17.13-7.15V23.48A10.06,10.06,0,0,0,271.7,13.42Z" fill="#b00e0e"/>
      <path id="Path_3480" data-name="Path 3480" d="M322,157.65a16.78,16.78,0,0,1-16.77,16.77H281.75L161,57,40.25,174.42H16.77A16.78,16.78,0,0,1,0,157.65a16.58,16.58,0,0,1,5-11.94L154,2.82a10,10,0,0,1,14,0L316.9,145.57a16.74,16.74,0,0,1,5.1,12.08Z" fill="#e40707"/>
    </g>
    <path id="Path_3481" data-name="Path 3481" d="M161,57,40.25,174.42V295.17A26.9,26.9,0,0,0,67.08,322H254.92a26.9,26.9,0,0,0,26.83-26.83V174.42Z" fill="#eceff1"/>
    <path id="Path_3482" data-name="Path 3482" d="M161,0a10,10,0,0,0-7,2.82L5,145.71a16.58,16.58,0,0,0-5,11.94,16.78,16.78,0,0,0,16.77,16.77H40.25L161,57Z" fill="#e40707"/>
    <path id="Path_3483" data-name="Path 3483" d="M161,57,40.25,174.42V295.17A26.9,26.9,0,0,0,67.08,322H161Z" fill="#cdd0d2"/>
    <rect id="Rectangle_336" data-name="Rectangle 336" width="80.5" height="107.33" transform="translate(120.75 214.67)" fill="#0c83fa"/>
    <rect id="Rectangle_337" data-name="Rectangle 337" width="40.25" height="107.33" transform="translate(120.75 214.67)" fill="#3d6dcc"/>
    <path id="Path_3484" data-name="Path 3484" d="M248.21,13.42H224.73a10.05,10.05,0,0,0-10.06,10.06V47.57l33.54,32.15Z" fill="#d01273"/>
  </g>
</svg>
