<svg xmlns="http://www.w3.org/2000/svg" viewBox="0 0 322 282.76"><defs><style>.cls-1{fill:#9e005d;}.cls-2{fill:#d01273;}.cls-3{fill:#b00e0e;}.cls-4{fill:#cdd0d2;}.cls-5{fill:#eceff1;}</style></defs><title>Asset 148</title><g id="Layer_2" data-name="Layer 2"><g id="red"><path class="cls-1" d="M267,231.3v51.46l-23.48-11.69L220,282.76V231.3l11-1.25,12.5,9.2,12.47-9.2Z"/><path class="cls-2" d="M290.18,195.92l1.7,15.41-12.21,5.33-2,.89-6.18,14.24L267,231.3l-11-1.25-12.47,9.2-12.5-9.2-15.41,1.74-6.22-14.24-2-.89-12.22-5.33,1.74-15.41-9.2-12.5,9.2-12.47-1.74-15.45,14.24-6.18,6.22-14.24,15.41,1.7,12.5-9.2,12.47,9.2,15.45-1.7,6.18,14.24,14.24,6.18L290.18,171l9.16,12.47Z"/><path class="cls-3" d="M322,20.46V196.2a20.46,20.46,0,0,1-20.45,20.46H279.67l12.21-5.33-1.7-15.41,9.16-12.5L290.18,171l1.7-15.45-14.24-6.18-6.18-14.24L256,136.78l-12.47-9.2-12.5,9.2-15.41-1.7-6.22,14.24-14.24,6.18L196.91,171l-9.2,12.47,9.2,12.5-1.74,15.41,12.22,5.33H20.45A20.46,20.46,0,0,1,0,196.2V20.46A20.46,20.46,0,0,1,20.45,0h281.1A20.46,20.46,0,0,1,322,20.46Z"/><path class="cls-4" d="M98,169H61.55c-8.29,0-8.29,12.43,0,12.43H98c8.29,0,8.29-12.43,0-12.43Z"/><path class="cls-4" d="M260.45,82.58H61.55c-8.29,0-8.29,12.43,0,12.43h198.9c8.29,0,8.29-12.43,0-12.43Z"/><path class="cls-4" d="M61.55,56.22h198.9c8.29,0,8.29-12.43,0-12.43H61.55c-8.29,0-8.29,12.43,0,12.43Z"/><path class="cls-5" d="M263.92,183.42a20.4,20.4,0,1,1-20.4-20.4,20.4,20.4,0,0,1,20.4,20.4Z"/></g></g></svg>