<svg xmlns="http://www.w3.org/2000/svg" xmlns:xlink="http://www.w3.org/1999/xlink" viewBox="0 0 27.68 27.68"><defs><style>.cls-1{fill:url(#linear-gradient);}.cls-2{fill:#fefefe;}</style><linearGradient id="linear-gradient" y1="13.84" x2="27.68" y2="13.84" gradientUnits="userSpaceOnUse"><stop offset="0" stop-color="#f37e5f"/><stop offset="0.18" stop-color="#f15f4c"/><stop offset="0.52" stop-color="#ec1c24"/><stop offset="1" stop-color="#cf232a"/></linearGradient></defs><g id="Layer_2" data-name="Layer 2"><g id="Business"><g id="_6aIWcC.tif" data-name="6aIWcC.tif"><path class="cls-1" d="M14.84,27.68H12.79a12.3,12.3,0,0,1-1.92-.25,14,14,0,0,1-9-6.62,12.93,12.93,0,0,1-1.78-5.5,14,14,0,0,1,1-6.81A14.46,14.46,0,0,1,3.74,4.36,14.14,14.14,0,0,1,7.67,1.42,12.37,12.37,0,0,1,12.41.06a14.9,14.9,0,0,1,4.8.31A14,14,0,0,1,23,3.42a13.85,13.85,0,0,1,3.09,3.92,13.48,13.48,0,0,1,1.49,4.54c0,.3,0,.6.07.9v2.16a12.68,12.68,0,0,1-.23,1.84,14,14,0,0,1-8.6,10,12.43,12.43,0,0,1-3.05.78C15.48,27.65,15.16,27.63,14.84,27.68Z"/><path class="cls-2" d="M11.7,17.45V12.36a1,1,0,0,1,1.08-1.09h2.38a.93.93,0,0,1,1,1q0,5.21,0,10.39a.94.94,0,0,1-1,1c-.85,0-1.69,0-2.54,0a.93.93,0,0,1-1-1Z"/><path class="cls-2" d="M16.2,7.12a2.34,2.34,0,1,1-2.35-2.33A2.34,2.34,0,0,1,16.2,7.12Z"/></g></g></g></svg>