<svg xmlns="http://www.w3.org/2000/svg" viewBox="0 0 322 299.78"><defs><style>.cls-1{fill:#72c5fc;}.cls-2{fill:#8fd4ff;}.cls-3{fill:#b2e7ff;}.cls-4{fill:#d6f2ff;}.cls-5{fill:#c6151d;}.cls-6{fill:#b00e0e;}.cls-7{fill:#ff9300;}.cls-8{fill:#ffd236;}.cls-9{fill:#ff674f;}.cls-10{fill:#f2472c;}.cls-11{fill:#ffa38c;}.cls-12{fill:#ff8b6e;}</style></defs><title>Asset 110</title><g id="Layer_2" data-name="Layer 2"><g id="red"><path class="cls-1" d="M167.22,83.58a9.16,9.16,0,0,1-7.3-3.74A10.87,10.87,0,0,1,158.72,69c.32-.72,8.07-17.87,26-34.84C201.16,18.55,229.74,0,272.56,0c5.2,0,9.43,4.57,9.43,10.2V44.48a10.08,10.08,0,0,1-7.12,9.88L169.54,83.27a8.81,8.81,0,0,1-2.32.31Z"/><path class="cls-2" d="M154.79,83.58a8.76,8.76,0,0,1-2.32-.31L47.13,54.37A10.09,10.09,0,0,1,40,44.48V10.2C40,4.57,44.24,0,49.45,0c42.82,0,71.4,18.55,87.84,34.12,17.92,17,25.68,34.12,26,34.84a10.9,10.9,0,0,1-1.2,10.88,9.18,9.18,0,0,1-7.3,3.74Z"/><path class="cls-3" d="M167.21,83.6a8.8,8.8,0,0,1-4.09-1c-4.69-2.45-6.66-8.56-4.4-13.63.32-.72,8.07-17.87,26-34.84C201.16,18.55,229.74,0,272.56,0c5.2,0,9.43,4.57,9.43,10.2s-4.23,10.2-9.43,10.2C243.2,20.4,218,30,197.77,48.88c-15.3,14.26-22,28.81-22.07,29a9.37,9.37,0,0,1-8.49,5.76Z"/><path class="cls-4" d="M154.79,83.58a9.37,9.37,0,0,1-8.5-5.78c-.06-.11-6.76-14.66-22.06-28.92C104,30,78.8,20.4,49.45,20.4,44.24,20.4,40,15.83,40,10.2S44.24,0,49.45,0c42.82,0,71.4,18.55,87.84,34.12,17.92,17,25.68,34.12,26,34.84,2.26,5.07.28,11.17-4.41,13.61a8.8,8.8,0,0,1-4.09,1Z"/><path class="cls-5" d="M179.66,299.77a9,9,0,0,1-5-1.52,10.41,10.41,0,0,1-4.47-8.67V73.38a10.32,10.32,0,0,1,5.21-9.12C177.79,63,234,33,312.57,33c5.21,0,9.43,4.56,9.43,10.19v216.2c0,5.64-4.22,10.2-9.43,10.2-73.86,0-128.16,28.79-128.7,29.08a8.81,8.81,0,0,1-4.21,1.07Z"/><path class="cls-6" d="M142.35,299.78a8.87,8.87,0,0,1-4.62-1.31c-.46-.28-48.87-28.85-128.3-28.85-5.21,0-9.43-4.56-9.43-10.2V43.23C0,37.59,4.22,33,9.43,33,94.14,33,144.84,63.2,147,64.49a10.34,10.34,0,0,1,4.82,8.89v216.2a10.39,10.39,0,0,1-4.67,8.8,8.9,8.9,0,0,1-4.76,1.4Z"/><path class="cls-7" d="M224.37,236.81a9.53,9.53,0,0,1-9-7.15c-1.57-5.37,1.2-11.1,6.17-12.79a263,263,0,0,1,58.57-12.45c5.17-.52,9.78,3.62,10.25,9.23s-3.34,10.57-8.53,11.09a245.33,245.33,0,0,0-54.63,11.59,8.6,8.6,0,0,1-2.84.48Z"/><path class="cls-7" d="M224.37,196.59a9.54,9.54,0,0,1-9-7.14c-1.57-5.38,1.2-11.1,6.17-12.79a263.08,263.08,0,0,1,58.57-12.45c5.17-.52,9.78,3.61,10.25,9.22S287,184,281.84,184.52a245.33,245.33,0,0,0-54.63,11.6,8.85,8.85,0,0,1-2.84.47Z"/><path class="cls-8" d="M224.38,142.1a253.82,253.82,0,0,1,56.6-12V92.58a254.46,254.46,0,0,0-56.6,12Z"/><path class="cls-7" d="M224.38,152.3a9,9,0,0,1-5.59-2,10.5,10.5,0,0,1-3.85-8.22V104.6a10.15,10.15,0,0,1,6.61-9.73,263.08,263.08,0,0,1,58.57-12.45A9,9,0,0,1,287.33,85a10.6,10.6,0,0,1,3.08,7.54v37.49c0,5.27-3.71,9.68-8.57,10.16a245.33,245.33,0,0,0-54.63,11.6,9,9,0,0,1-2.83.47Zm9.43-40.1v16.36a265.29,265.29,0,0,1,37.73-7.66V104a244.82,244.82,0,0,0-37.73,8.25Z"/><rect class="cls-9" x="142.13" y="76.78" width="37.73" height="223"/><rect class="cls-10" x="160.9" y="76.78" width="18.97" height="223"/><path class="cls-11" d="M312.57,33c-71.13,0-124,24.57-135.06,30.15H144.68C133.76,57.17,85.2,33,9.43,33,4.22,33,0,37.59,0,43.23s4.22,10.2,9.43,10.2c41.49,0,74.15,7.83,94.24,14.41,21.81,7.14,34,14.37,34.07,14.44h0a8.84,8.84,0,0,0,4.59,1.29h37.3a8.84,8.84,0,0,0,4.17-1.06h.05c.54-.29,54.84-29.08,128.7-29.08,5.21,0,9.43-4.57,9.43-10.2S317.78,33,312.57,33Z"/><path class="cls-12" d="M321.9,41.79c-.65-4.95-4.58-8.76-9.33-8.76-71.13,0-124,24.57-135.06,30.15H160.9v20.4h18.75a8.84,8.84,0,0,0,4.17-1.06h.05c.54-.29,54.84-29.08,128.7-29.08,4.75,0,8.68-3.81,9.33-8.76Z"/></g></g></svg>