<svg xmlns="http://www.w3.org/2000/svg" xmlns:xlink="http://www.w3.org/1999/xlink" viewBox="0 0 44.09 34.34"><defs><style>.cls-1{fill:url(#blue_befiler_Gradient_Swatch);}.cls-2{fill:url(#blue_befiler_Gradient_Swatch-2);}.cls-3{fill:url(#blue_befiler_Gradient_Swatch-3);}.cls-4{fill:url(#Red_Orange);}.cls-5{fill:url(#blue_befiler_Gradient_Swatch-4);}.cls-6{fill:url(#Bluestone);}.cls-7{fill:url(#Bluestone-2);}.cls-8{fill:url(#linear-gradient);}.cls-9{fill:url(#linear-gradient-2);}.cls-10{fill:#c2bce0;}.cls-11{fill:#f4f8f9;}.cls-12{fill:#e7eef3;}.cls-13{fill:#fff;}</style><linearGradient id="blue_befiler_Gradient_Swatch" x1="7.03" y1="5.02" x2="14.88" y2="5.02" gradientUnits="userSpaceOnUse"><stop offset="0" stop-color="#3fa9f5"/><stop offset="0.58" stop-color="#0087ee"/><stop offset="1" stop-color="#0d71c8"/></linearGradient><linearGradient id="blue_befiler_Gradient_Swatch-2" x1="26.16" y1="5.85" x2="35.01" y2="5.85" xlink:href="#blue_befiler_Gradient_Swatch"/><linearGradient id="blue_befiler_Gradient_Swatch-3" x1="15.54" y1="5.85" x2="24.01" y2="5.85" xlink:href="#blue_befiler_Gradient_Swatch"/><linearGradient id="Red_Orange" x1="4.77" y1="16.14" x2="37.89" y2="16.14" gradientUnits="userSpaceOnUse"><stop offset="0" stop-color="#f37e5f"/><stop offset="0.5" stop-color="#ec1c24"/><stop offset="1" stop-color="#cf232a"/></linearGradient><linearGradient id="blue_befiler_Gradient_Swatch-4" x1="35.59" y1="14.96" x2="44.09" y2="14.96" xlink:href="#blue_befiler_Gradient_Swatch"/><linearGradient id="Bluestone" x1="17.04" y1="31.08" x2="23.55" y2="31.08" gradientUnits="userSpaceOnUse"><stop offset="0.01" stop-color="#375270"/><stop offset="0.09" stop-color="#445e7b"/><stop offset="0.24" stop-color="#556c88"/><stop offset="0.41" stop-color="#5f7490"/><stop offset="0.62" stop-color="#627793"/><stop offset="0.73" stop-color="#637996"/><stop offset="0.81" stop-color="#6780a0"/><stop offset="0.89" stop-color="#6e8cb1"/><stop offset="0.96" stop-color="#779cc9"/><stop offset="1" stop-color="#7da7d9"/></linearGradient><linearGradient id="Bluestone-2" x1="27.25" y1="31.08" x2="33.76" y2="31.08" xlink:href="#Bluestone"/><linearGradient id="linear-gradient" y1="15.94" x2="38.49" y2="15.94" gradientUnits="userSpaceOnUse"><stop offset="0" stop-color="#97a4b7"/><stop offset="0.49" stop-color="#cdd0d2"/><stop offset="1" stop-color="#eceff1"/></linearGradient><linearGradient id="linear-gradient-2" x1="14.86" y1="28.29" x2="35.94" y2="28.29" xlink:href="#linear-gradient"/></defs><g id="Layer_2" data-name="Layer 2"><g id="Business"><path class="cls-1" d="M12.57.45A.62.62,0,0,0,11.79,0l-1.66.5h0l-2.65.81a.63.63,0,0,0-.42.79L9.34,9.59a.63.63,0,0,0,.78.42l2.65-.81h0l1.66-.51a.63.63,0,0,0,.42-.78Z"/><path class="cls-2" d="M34.94,8,31.35,1.06a.64.64,0,0,0-.61-.34.67.67,0,0,0-.24.07l-4,2.08a.62.62,0,0,0-.27.84l3.59,6.93a.63.63,0,0,0,.85.27l2.46-1.28h0l1.54-.79a.78.78,0,0,0,.2-.16A.64.64,0,0,0,34.94,8Z"/><path class="cls-3" d="M23.63,2.57,22,1.89h0L19.49.8a.63.63,0,0,0-.83.33L15.59,8.3a.63.63,0,0,0,.33.83l4.14,1.77a.63.63,0,0,0,.83-.33L24,3.4A.63.63,0,0,0,23.63,2.57Z"/><path class="cls-4" d="M34,16.88c-2-6.8,1.3-8,3.92-9.95H4.77l8.76,18.43H30.3l1.83-1.7A6.64,6.64,0,0,0,34,16.93l0-.05Z"/><path class="cls-5" d="M43.17,7.67h-3c-2.63,1.94-6,3.15-3.92,10a11.29,11.29,0,0,1,.48,4.63l7.08-6.57a.93.93,0,0,0,.3-.67V8.59a.92.92,0,0,0-.92-.92Z"/><path class="cls-6" d="M23.55,31.08a3.26,3.26,0,1,1-3.25-3.25,3.25,3.25,0,0,1,3.25,3.25Z"/><path class="cls-7" d="M33.76,31.08a3.26,3.26,0,1,1-3.25-3.25,3.26,3.26,0,0,1,3.25,3.25Z"/><path class="cls-8" d="M37.89,24.36H14.44a.42.42,0,0,1-.38-.24L5.25,5.5A1.41,1.41,0,0,0,4,4.68H.6a.6.6,0,0,0-.6.6V6.92a.6.6,0,0,0,.6.6H2.8a.42.42,0,0,1,.38.24L12,26.39a1.42,1.42,0,0,0,1.28.81H37.89a.6.6,0,0,0,.6-.6V25a.6.6,0,0,0-.6-.6Z"/><path class="cls-9" d="M35.14,29.39H15.66a.8.8,0,0,1-.8-.8V27.2H35.94v1.39a.8.8,0,0,1-.8.8Z"/><path class="cls-10" d="M34.42,27.2v1.39a.8.8,0,0,1-.8.8h1.52a.8.8,0,0,0,.8-.8V27.2Z"/><path class="cls-11" d="M28.58,12.46H13.88a.38.38,0,0,1-.38-.38V10.4a.38.38,0,0,1,.38-.37h14.7a.38.38,0,0,1,.38.37v1.68a.38.38,0,0,1-.38.38Z"/><path class="cls-12" d="M28.58,10H26.91a.38.38,0,0,1,.38.37v1.68a.38.38,0,0,1-.38.38h1.67a.38.38,0,0,0,.38-.38V10.4a.38.38,0,0,0-.38-.37Z"/><path class="cls-13" d="M41.37,10.61a.67.67,0,0,0-.9.28l-1.92,3.62a.67.67,0,0,0,1.18.62l1.92-3.62a.67.67,0,0,0-.28-.9Z"/><path class="cls-13" d="M39.34,11.78a.65.65,0,0,0-.66-.66h-.44a.66.66,0,0,0-.66.66.67.67,0,0,0,.66.67h.44a.66.66,0,0,0,.66-.67Z"/><path class="cls-13" d="M42,13.57h-.44a.67.67,0,0,0,0,1.33H42a.67.67,0,0,0,0-1.33Z"/></g></g></svg>