<svg xmlns="http://www.w3.org/2000/svg" viewBox="0 0 409.6 410.15"><defs><style>.cls-1{fill:#c6151d;}.cls-2{fill:#b00e0e;}.cls-3{fill:#f2f2f2;}.cls-4{fill:#e6e6e6;}</style></defs><title>Asset 549icon</title><g id="Layer_2" data-name="Layer 2"><g id="income_icons_copy" data-name="income icons copy"><path class="cls-1" d="M218.4,410.15H204.8c-1.7-1.28-1.85-3.15-1.86-5q-.18-37.51,0-75a8.41,8.41,0,0,1,1.21-5c1.57-1.54,3.59-1.61,5.59-1.68,3.72-.12,7.46,0,11.18-.09,4.47-.16,5.68-1.36,5.91-5.73.07-1.33,0-2.66,0-4V169c0-1.46,0-2.93-.06-4.39-.28-3.91-1.49-5.13-5.49-5.31-3.73-.16-7.46,0-11.19-.09-2-.05-4-.11-5.69-1.44a4.77,4.77,0,0,1-1.28-2.86c-.26-6.89-.89-13.79.39-20.64,1.08-3,4-2.77,6.3-3.42,8.05-2.27,13.56-7.23,16.07-15.18,3.74-11.84-3.33-24.2-15.53-27.74-2.43-.71-5.47-.44-6.79-3.44-.9-2.18-.71-4.47-.71-6.72q-.06-34.8,0-69.59c0-2.25-.25-4.55.76-6.68C204.34,0,205.73.19,207.07.14c43.52-1.61,82.22,12.11,117.4,37a205.2,205.2,0,0,1,60.7,67.44,192.59,192.59,0,0,1,22.23,59.66c1.4,7.53,1.36,15.22,1.82,22.85.09,1.56-.45,3.19.38,4.69V219c-.75,7.05-.69,14.16-1.39,21.22-1.4,13.92-5.72,27.07-10.76,40a208.28,208.28,0,0,1-149.54,127.4c-8.17,1.75-16.53,1.64-24.82,2.19C221.52,409.87,219.9,409.31,218.4,410.15Z"/><path class="cls-2" d="M204.82,325.49q0,42.33,0,84.66h-12c-7.32-.72-14.69-.69-22-1.39-13.1-1.26-25.51-5.23-37.79-9.71A202.81,202.81,0,0,1,72.21,363.6,205.32,205.32,0,0,1,25,306.8C13.83,287.17,5.78,266.39,2,244.1c-1.26-7.4-1.35-15-1.6-22.47,0-1.43.44-2.92-.38-4.28v-24c.65-7.24.65-14.52,1.33-21.74,1.28-13.5,5.41-26.3,10.09-39A200.17,200.17,0,0,1,46.15,73.25,205.42,205.42,0,0,1,121,16.58,200.88,200.88,0,0,1,166.65,2.24,129.8,129.8,0,0,1,187.09.62C193,.47,199-.73,204.86.67q0,42.27,0,84.54l-.18.54c-1.34,1.47-3.19,1.8-5,2.29-10.21,2.81-17,11.39-16.94,21.41s6.81,18.41,17.15,21.25a12.1,12.1,0,0,1,4.38,1.8,2.1,2.1,0,0,1,.57,1V157.2c-.11.23-.23.45-.35.68-1.48,1.47-3.42,1.29-5.26,1.35-3.86.13-7.72,0-11.58.11-3,.11-4.66,1.67-4.83,4.71-.08,1.47-.07,2.93-.07,4.4V314.27c0,8.79.37,9.05,9.32,9.18,3.95.06,8-.72,11.84.87A2.49,2.49,0,0,1,204.82,325.49Z"/><path class="cls-3" d="M204.82,157.2c6.39.05,12.8.33,19.18.06,3.75-.16,4.92.75,4.9,4.74-.18,33.18-.1,66.36-.1,99.53,0,19.86-.11,39.71.09,59.56,0,3.67-1.1,4.45-4.49,4.34-6.52-.23-13.05,0-19.58.06l0-.35c-1.39-.9-1.71-2.29-1.8-3.81s-.13-2.93-.13-4.39q0-75.6,0-151.18c0-2.8-.9-6,1.88-8.2Z"/><path class="cls-3" d="M204.82,85.21c12.41.83,21.34,8.27,23.74,19.77,2.07,9.87-3.2,20.61-12.68,25.7a23.8,23.8,0,0,1-11.06,2.81l0-.36c-1.72-1.09-1.82-2.86-1.84-4.6q-.22-19.19,0-38.37c0-1.74.12-3.51,1.84-4.6Z"/><path class="cls-4" d="M204.8,157.56V325.14c-7.06.06-14.12.09-21.18.21-2.05,0-3-.78-2.82-2.83.06-.8,0-1.6,0-2.4V162.57c0-5.21,0-5.24,5.22-5.21C192.28,157.39,198.54,157.49,204.8,157.56Z"/><path class="cls-4" d="M204.8,85.56v47.57a23.79,23.79,0,1,1,0-47.57Z"/></g></g></svg>