<svg xmlns="http://www.w3.org/2000/svg" viewBox="0 0 322 322"><defs><style>.cls-1{fill:#b00e0e;}.cls-2{fill:#eceff1;}.cls-3{fill:#cdd0d2;}.cls-4{fill:#396973;}.cls-5{fill:#2d4a59;}.cls-6{fill:#0c83fa;}.cls-7{fill:#4e638b;}.cls-8{fill:#ecfffc;}.cls-9{fill:#ff4a4a;}.cls-10{fill:#3d6dcc;}.cls-11{fill:#d01273;}.cls-12{fill:#293e65;}.cls-13{fill:#1f364d;}.cls-14{fill:#d4f4ee;}</style></defs><title>Asset 120</title><g id="Layer_2" data-name="Layer 2"><g id="red"><path class="cls-1" d="M264.77,114.19l-56.6-49.8V0h56.6Z"/><path class="cls-2" d="M161,13.71,38.36,121.06V246.53h54l18.86-56.6h99.62l18.86,56.6h54V121.06Z"/><path class="cls-3" d="M210.81,189.93l18.86,56.6h54V121.06L161,13.71V189.93Z"/><path class="cls-4" d="M97.6,171.06,72.51,246.53H161l18.87-37.73L161,171.06Z"/><path class="cls-5" d="M249.49,246.53H161V171.06h63.4Z"/><path class="cls-6" d="M322,303.13H264.77V293.7a9.44,9.44,0,0,0-18.87,0v9.43H76.1V293.7a9.44,9.44,0,0,0-18.87,0v9.43H0V256a28.34,28.34,0,0,1,28.3-28.3H293.7A28.34,28.34,0,0,1,322,256Z"/><path class="cls-7" d="M161,133.33A28.3,28.3,0,1,1,189.3,105a28.34,28.34,0,0,1-28.3,28.3Z"/><path class="cls-5" d="M66.66,322A28.3,28.3,0,1,1,95,293.7,28.34,28.34,0,0,1,66.66,322Z"/><path class="cls-8" d="M76.1,293.7a9.44,9.44,0,1,1-9.44-9.43,9.43,9.43,0,0,1,9.44,9.43Z"/><path class="cls-9" d="M305.73,149.86,161,23.23,16.27,149.86,3.85,135.66,161,0,318.15,135.66Z"/><path class="cls-10" d="M293.7,227.66H161v75.47h84.9V293.7a9.44,9.44,0,0,1,18.87,0v9.43H322V256a28.34,28.34,0,0,0-28.3-28.3Z"/><path class="cls-11" d="M305.73,149.86l12.42-14.2L161,0V23.23Z"/><path class="cls-12" d="M189.3,105A28.33,28.33,0,0,0,161,76.73v56.6A28.34,28.34,0,0,0,189.3,105Z"/><path class="cls-13" d="M255.34,322a28.3,28.3,0,1,1,28.3-28.3,28.33,28.33,0,0,1-28.3,28.3Z"/><path class="cls-14" d="M264.77,293.7a9.44,9.44,0,1,1-9.43-9.43,9.43,9.43,0,0,1,9.43,9.43Z"/></g></g></svg>