<svg xmlns="http://www.w3.org/2000/svg" xmlns:xlink="http://www.w3.org/1999/xlink" viewBox="0 0 38.32 35.29"><defs><style>.cls-1{fill:url(#Red_Orange);}.cls-2{fill:url(#blue_befiler_Gradient_Swatch);}.cls-3{fill:#fff;}.cls-4{fill:#bdccd4;}.cls-5{fill:#342c37;}</style><linearGradient id="Red_Orange" x1="19.16" y1="35.29" x2="19.16" y2="6.59" gradientUnits="userSpaceOnUse"><stop offset="0" stop-color="#f37e5f"/><stop offset="0.5" stop-color="#ec1c24"/><stop offset="1" stop-color="#cf232a"/></linearGradient><linearGradient id="blue_befiler_Gradient_Swatch" y1="3.29" x2="38.32" y2="3.29" gradientUnits="userSpaceOnUse"><stop offset="0" stop-color="#3fa9f5"/><stop offset="0.58" stop-color="#0087ee"/><stop offset="1" stop-color="#0d71c8"/></linearGradient></defs><g id="Layer_2" data-name="Layer 2"><g id="HOME_2" data-name="HOME 2"><path class="cls-1" d="M38.32,6.59v26.3a2.39,2.39,0,0,1-2.4,2.4H2.4A2.39,2.39,0,0,1,0,32.89V6.59Z"/><path class="cls-2" d="M38.32,6.59V2.4A2.39,2.39,0,0,0,35.92,0H2.4A2.39,2.39,0,0,0,0,2.4V6.59Z"/><path class="cls-3" d="M5.83,3.29A1.36,1.36,0,1,1,4.47,1.94,1.36,1.36,0,0,1,5.83,3.29Z"/><path class="cls-3" d="M10.16,3.29A1.36,1.36,0,1,1,8.81,1.94a1.36,1.36,0,0,1,1.35,1.35Z"/><path class="cls-3" d="M14.49,3.29a1.35,1.35,0,1,1-1.35-1.35,1.35,1.35,0,0,1,1.35,1.35Z"/><path class="cls-3" d="M33.54,4.19H20.67a.9.9,0,1,1,0-1.79H33.54a.9.9,0,1,1,0,1.79Z"/><path class="cls-4" d="M25.4,25.21H15.28a5.06,5.06,0,1,1,10.12,0Z"/><path class="cls-3" d="M26.8,11.72a9.16,9.16,0,1,0,0,13,9.16,9.16,0,0,0,0-13ZM25.17,23a6.81,6.81,0,1,1,0-9.62,6.81,6.81,0,0,1,0,9.62Z"/><path class="cls-5" d="M25.33,24.33l2.49,2.47,1.32-1.31L26.65,23Z"/><path class="cls-3" d="M35.75,29.88l-5.4-5.37a.9.9,0,0,0-1.28,0l-2.39,2.4a.9.9,0,0,0,0,1.28l5.4,5.37a2.6,2.6,0,1,0,3.67-3.69Z"/><path class="cls-4" d="M22.74,17a2.41,2.41,0,1,1-2.4-2.41A2.4,2.4,0,0,1,22.74,17Z"/><path class="cls-3" d="M10.57,10.25H2.29a.6.6,0,1,1,0-1.19h8.28a.6.6,0,1,1,0,1.19Z"/><path class="cls-3" d="M7.38,12.76H2.29a.6.6,0,0,1,0-1.2H7.38a.6.6,0,1,1,0,1.2Z"/></g></g></svg>