<svg xmlns="http://www.w3.org/2000/svg" xmlns:xlink="http://www.w3.org/1999/xlink" viewBox="0 0 321.42 321.42"><defs><style>.cls-1{fill:none;}.cls-2{clip-path:url(#clip-path);}.cls-3{fill:#cdd0d2;}.cls-4{fill:#c8e6f0;}.cls-5{fill:#00cc71;}.cls-6{fill:#009954;}.cls-7{fill:#54e360;}.cls-8{fill:#b00e0e;}.cls-9{fill:#f1f2f2;}.cls-10{fill:#d01273;}</style><clipPath id="clip-path" transform="translate(0 -0.59)"><rect class="cls-1" width="322" height="322.66"/></clipPath></defs><title>Asset 138</title><g id="Layer_2" data-name="Layer 2"><g id="red"><g class="cls-2"><path class="cls-3" d="M260.41,35.32c-.73,124.34-101.34,225-225.68,225.68A160.66,160.66,0,1,0,260.41,35.32Z" transform="translate(0 -0.59)"/><path class="cls-4" d="M260.41,35.32A160.65,160.65,0,0,0,34.73,261c124.34-.73,225-101.34,225.68-225.68Z" transform="translate(0 -0.59)"/></g><path class="cls-5" d="M238.28,67.1c-12.24,5.54-19-1-27.7,5.54-10.75,8.09-15.07,29-5.54,44.33,6.74,10.77,18.84,13.47,32.49,16.46a226.25,226.25,0,0,0,22.72-90.8,45.68,45.68,0,0,1-22,24.47Z" transform="translate(0 -0.59)"/><path class="cls-6" d="M262.16,36.7a44.13,44.13,0,0,1-1.93,5.93,226.25,226.25,0,0,1-22.72,90.8l.77.16c19,4.16,26.38-4.65,44.33,0a67.8,67.8,0,0,1,22.17,11.08A51.45,51.45,0,0,1,321.15,169c.12-2.55.25-5.1.25-7.69A160.32,160.32,0,0,0,262.16,36.7Z" transform="translate(0 -0.59)"/><path class="cls-6" d="M155.17,227.79c11,12.14,13.85,32.64,5.54,44.33-6.76,9.53-16,6.26-22.17,16.63a29.25,29.25,0,0,0,0,27.7,24.61,24.61,0,0,0,3.05,4.37,160.34,160.34,0,0,0,159.91-82c-10.07-6.74-25.82-15.66-41.05-16.52a68,68,0,0,0-44.33,11.08c-16.35,12-19.56,28.93-27.71,27.71-5.76-.83-8.92-10.14-11.08-16.62-5-14.77-2.26-24.76-2.31-33a225.43,225.43,0,0,1-21.18,15c.57.56,1,1.06,1.33,1.37Z" transform="translate(0 -0.59)"/><path class="cls-7" d="M171.79,200.09c-5.71-8-16.35-9.48-27.71-11.09-23.82-3.32-33.19,6.93-44.33,0a26.32,26.32,0,0,1-11.08-27.7c4.66-13.91,25-9.2,49.87-27.71,8-5.93,27.15-20.17,27.71-38.79.55-18.23-17.23-23.44-22.17-44.33-2.14-9,1.86-29.69,12-49.7A160.65,160.65,0,0,0,16.36,90.65v0a163.08,163.08,0,0,0,.28,59.51c3.38,22.34,6.48,42.62,22.16,61,6.87,8.09,17.45,20.39,33.25,22.16,17.51,1.94,40.61-9.25,44.33-11.08A34.13,34.13,0,0,1,133,216.71a31.57,31.57,0,0,1,20.84,9.71,225.43,225.43,0,0,0,21.18-15,18.39,18.39,0,0,0-3.23-11.29Z" transform="translate(0 -0.59)"/><path class="cls-8" d="M116.38,44.93c0,24.49-44.33,83.12-44.33,83.12s-27.65-36.57-39.29-64a53.19,53.19,0,0,1-5-19.12,44.33,44.33,0,0,1,88.66,0Z" transform="translate(0 -0.59)"/><path class="cls-9" d="M88.67,39.39A16.63,16.63,0,1,1,72.05,22.77,16.62,16.62,0,0,1,88.67,39.39Z" transform="translate(0 -0.59)"/><path class="cls-10" d="M282.61,194.54A74.76,74.76,0,0,1,272.69,224a442,442,0,0,1-34.41,53.69s-14.51-19.22-27-40.28A209.7,209.7,0,0,1,199,213.66,53,53,0,0,1,194,194.54a44.33,44.33,0,0,1,88.66,0Z" transform="translate(0 -0.59)"/><path class="cls-9" d="M254.91,189a16.63,16.63,0,1,1-16.63-16.62A16.64,16.64,0,0,1,254.91,189Z" transform="translate(0 -0.59)"/></g></g></svg>