<svg xmlns="http://www.w3.org/2000/svg" xmlns:xlink="http://www.w3.org/1999/xlink" width="322" height="322" viewBox="0 0 322 322">
  <defs>
    <clipPath id="clip-path">
      <rect id="Rectangle_342" data-name="Rectangle 342" width="322" height="322" transform="translate(0 -0.01)" fill="none"/>
    </clipPath>
  </defs>
  <g id="Layer_2a" data-name="Layer 2a" transform="translate(0 0.01)">
    <g id="red">
      <g id="Group_156" data-name="Group 156" clip-path="url(#clip-path)">
        <path id="Path_3531" data-name="Path 3531" d="M272,67.34v-34a11.12,11.12,0,0,0-11.1-11.1H203.19l-27-17.66a27.76,27.76,0,0,0-30.42,0l-27,17.66h-30L50,61.07v6.27L.06,100H0V305.3A16.69,16.69,0,0,0,16.66,322H305.34A16.69,16.69,0,0,0,322,305.34V100l-.06-.05Z" transform="translate(0 -0.01)" fill="#fcb031"/>
        <path id="Path_3532" data-name="Path 3532" d="M131.8,210.91,4.78,317A16.56,16.56,0,0,1,0,305.34V100H.06L50,142Z" transform="translate(0 -0.01)" fill="#e40707"/>
        <path id="Path_3533" data-name="Path 3533" d="M317.22,317a16.4,16.4,0,0,1-11.88,5H16.66a16.4,16.4,0,0,1-11.88-5l127-106.09,12.49-10.44a25.73,25.73,0,0,1,33.42,0l12.49,10.44Z" transform="translate(0 -0.01)" fill="#d01273"/>
        <path id="Path_3534" data-name="Path 3534" d="M322,100V305.3a16.56,16.56,0,0,1-4.78,11.7l-127-106.09L272,142l49.91-42Z" transform="translate(0 -0.01)" fill="#b00e0e"/>
      </g>
      <line id="Line_20" data-name="Line 20" x1="0.06" y2="0.05" transform="translate(321.94 99.92)" fill="#f9eab0"/>
      <line id="Line_21" data-name="Line 21" x1="0.06" y1="0.05" transform="translate(0 99.92)" fill="#f9eab0"/>
      <path id="Path_3535" data-name="Path 3535" d="M272,33.31V142l-81.83,68.9-12.49-10.44a25.73,25.73,0,0,0-33.42,0L131.8,210.91,50,142V61.07H75.84a13,13,0,0,0,13-13V22.21h172.1A11.12,11.12,0,0,1,272,33.31Z" transform="translate(0 -0.01)" fill="#f9eab0"/>
      <path id="Path_3536" data-name="Path 3536" d="M125.19,163.94a5.56,5.56,0,0,1-5.2-7.5l13.61-36.25a5.55,5.55,0,0,1,10.4,3.88l-13.6,36.25a5.54,5.54,0,0,1-5.2,3.62Z" transform="translate(0 -0.01)" fill="#a56a43"/>
      <path id="Path_3537" data-name="Path 3537" d="M201.47,161.55a5.56,5.56,0,0,1-5.2-3.6l-12.71-33.86A5.571,5.571,0,1,1,194,120.2l12.71,33.87a5.54,5.54,0,0,1-5.2,7.48Z" transform="translate(0 -0.01)" fill="#a56a43"/>
      <path id="Path_3538" data-name="Path 3538" d="M127.69,127.69a5.55,5.55,0,0,1-5.55-5.55V88.83a5.55,5.55,0,0,1,11.1,0v33.31a5.55,5.55,0,0,1-5.55,5.55Z" transform="translate(0 -0.01)" fill="#a56a43"/>
      <path id="Path_3539" data-name="Path 3539" d="M197.42,94.38H122.14a5.56,5.56,0,0,1,0-11.11h75.28a5.56,5.56,0,0,1,0,11.11Z" transform="translate(0 -0.01)" fill="#805333"/>
      <path id="Path_3540" data-name="Path 3540" d="M88.83,22.21V48.08a13,13,0,0,1-13,13H50Z" transform="translate(0 -0.01)" fill="#f3d55b"/>
      <path id="Path_3541" data-name="Path 3541" d="M222.07,305.34H99.93a5.55,5.55,0,1,1,0-11.1H222.07a5.55,5.55,0,0,1,0,11.1Z" transform="translate(0 -0.01)" fill="#fff"/>
      <path id="Path_3542" data-name="Path 3542" d="M161,172.1a89,89,0,0,1-53.26-17.76,5.55,5.55,0,0,1,6.59-8.89,77.73,77.73,0,0,0,93.34,0,5.55,5.55,0,0,1,6.59,8.89A89,89,0,0,1,161,172.1Z" transform="translate(0 -0.01)" fill="#805333"/>
      <path id="Path_3543" data-name="Path 3543" d="M188.76,127.69H122.14a5.55,5.55,0,1,1,0-11.1h62.33L203.61,43a5.552,5.552,0,0,1,10.75,2.78L194.13,123.5a5.55,5.55,0,0,1-5.37,4.18Z" transform="translate(0 -0.01)" fill="#805333"/>
    </g>
  </g>
</svg>
