<svg id="Layer_2" data-name="Layer 2" xmlns="http://www.w3.org/2000/svg" xmlns:xlink="http://www.w3.org/1999/xlink" width="41.037" height="49.055" viewBox="0 0 41.037 49.055">
  <defs>
    <linearGradient id="linear-gradient" x1="-0.002" y1="0.504" x2="1.001" y2="0.504" gradientUnits="objectBoundingBox">
      <stop offset="0" stop-color="#97a4b7"/>
      <stop offset="1" stop-color="#cdd0d2"/>
      <stop offset="1" stop-color="#fff"/>
    </linearGradient>
  </defs>
  <g id="Business" transform="translate(0 0)">
    <g id="Layer_6_copy_2" data-name="Layer 6 copy 2">
      <path id="Path_4766" data-name="Path 4766" d="M39.9,34.808A13.819,13.819,0,0,1,35,24.26V18.533A14.418,14.418,0,0,0,22.716,4.284V2.057a2.058,2.058,0,0,0-4.115,0V4.269a.936.936,0,0,0-.491.092l-.553.107a6.741,6.741,0,0,0-.8.2l-.522.154-.906.292L14.87,5.3a9.5,9.5,0,0,0-.891.43l-.307.154q-.6.322-1.152.691l-.261.154c-.292.2-.583.415-.86.645l-.292.307c-.215.184-.43.369-.63.568l-.369.384-.537.583-.384.445-.461.614-.276.476-.4.66-.276.507c-.123.23-.23.461-.338.691l-.23.537q-.138.338-.276.737a5.5,5.5,0,0,0-.169.537,4.127,4.127,0,0,1-.215.8c-.061.276-.092.353-.123.522s-.092.614-.138.921a1.449,1.449,0,0,0,0,.461c0,.461-.077.937-.077,1.413V24.26A13.817,13.817,0,0,1,1.3,34.822a3.608,3.608,0,0,0,2.347,6.343H12.26a8.245,8.245,0,0,0,16.475,0h8.752a3.593,3.593,0,0,0,3.593-3.593A3.654,3.654,0,0,0,39.9,34.808Z" transform="translate(-0.044 0)" fill="url(#linear-gradient)"/>
    </g>
  </g>
</svg>
