<svg xmlns="http://www.w3.org/2000/svg" xmlns:xlink="http://www.w3.org/1999/xlink" viewBox="0 0 320.59 300.97"><defs><style>.cls-1{fill:none;}.cls-2{clip-path:url(#clip-path);}.cls-3{fill:#2196f3;}.cls-4{fill:#0d71c8;}.cls-5{fill:#b00e0e;}.cls-6{fill:#e40707;}.cls-7{fill:#293e65;}</style><clipPath id="clip-path" transform="translate(-0.7)"><rect class="cls-1" width="322" height="301.57"/></clipPath></defs><title>Asset 126</title><g id="Layer_2" data-name="Layer 2"><g id="red"><g class="cls-2"><path class="cls-3" d="M294.54,215.15V276H212.09l-11-118.19a12,12,0,0,0-11.9-10.87H124.56a75.76,75.76,0,0,1,34.35-8.17h59.18a76.41,76.41,0,0,1,76.45,76.41Z" transform="translate(-0.7)"/><path class="cls-4" d="M258.13,69.36A69.63,69.63,0,1,1,188.51,0a69.49,69.49,0,0,1,69.62,69.36Z" transform="translate(-0.7)"/></g><path class="cls-5" d="M212.09,276H40a14.5,14.5,0,0,1-14.41-13.12L16.07,160A11.94,11.94,0,0,1,28,146.91H189.17a12,12,0,0,1,11.9,10.87Z" transform="translate(-0.7)"/><path class="cls-6" d="M212.1,276h26.79a16.82,16.82,0,0,0,16.58-14.06l2.24-13.51H209.53Z" transform="translate(-0.7)"/><path class="cls-7" d="M12.15,276h297.7a11.42,11.42,0,0,1,11.45,11.45v2.09A11.42,11.42,0,0,1,309.85,301H12.15A11.42,11.42,0,0,1,.7,289.52v-2.09A11.42,11.42,0,0,1,12.15,276Z" transform="translate(-0.7)"/></g></g></svg>