<svg xmlns="http://www.w3.org/2000/svg" xmlns:xlink="http://www.w3.org/1999/xlink" viewBox="0 0 322 284.81"><defs><style>.cls-1{fill:none;}.cls-2{clip-path:url(#clip-path);}.cls-3{fill:#ee293b;}.cls-4{fill:#db242e;}.cls-5{fill:#d01273;}.cls-6{fill:#b00e0e;}.cls-7{fill:#d2d5ec;}.cls-8{fill:#b4b5db;}</style><clipPath id="clip-path"><rect class="cls-1" width="322" height="284.81"/></clipPath></defs><title>Asset 223</title><g id="Layer_2" data-name="Layer 2"><g id="red"><g class="cls-2"><path class="cls-3" d="M315.37,213.42,201.61,23a47.31,47.31,0,0,0-81.22,0L6.63,213.42A47.17,47.17,0,0,0,6.26,261a46.59,46.59,0,0,0,41,23.8H274.76a46.59,46.59,0,0,0,41-23.8,47.17,47.17,0,0,0-.37-47.59Z"/><path class="cls-4" d="M315.74,261a46.59,46.59,0,0,1-41,23.8H161V0a47.16,47.16,0,0,1,40.61,23L315.37,213.42a47.17,47.17,0,0,1,.37,47.59Z"/></g><path class="cls-5" d="M47.24,265.92a27.6,27.6,0,0,1-24.57-14.26,28.15,28.15,0,0,1,.3-28.75L136.62,32.69a28.44,28.44,0,0,1,48.84.13L299.13,223.06a28.1,28.1,0,0,1,.2,28.6,27.6,27.6,0,0,1-24.57,14.26Z"/><path class="cls-6" d="M274.76,265.92a27.6,27.6,0,0,0,24.57-14.26,28.1,28.1,0,0,0-.2-28.6L185.46,32.82A28.46,28.46,0,0,0,161,18.89v247Z"/><path class="cls-7" d="M179.89,77.06V152.6a18.89,18.89,0,0,1-37.78,0V77.06a18.89,18.89,0,1,1,37.78,0Z"/><path class="cls-8" d="M179.89,77.06V152.6A18.94,18.94,0,0,1,161,171.49V58.17a18.94,18.94,0,0,1,18.89,18.89Z"/><path class="cls-7" d="M161,190.38a28.33,28.33,0,1,0,28.33,28.33A28.29,28.29,0,0,0,161,190.38Z"/><path class="cls-8" d="M189.33,218.71A28.28,28.28,0,0,1,161,247V190.38a28.29,28.29,0,0,1,28.33,28.33Z"/></g></g></svg>