<svg xmlns="http://www.w3.org/2000/svg" viewBox="0 0 322 321.94"><defs><style>.cls-1{fill:#0c83fa;}.cls-2{fill:#b00e0e;}.cls-3{fill:#f6f5f4;}</style></defs><title>Asset 214</title><g id="Layer_2" data-name="Layer 2"><g id="red"><path class="cls-1" d="M291.81,80.5H281.75v79.12c0,34-27.42,61.69-61.13,61.69H80.5V251.5a30.19,30.19,0,0,0,30.19,30.19H258.1l47.55,38.05a10.25,10.25,0,0,0,6.29,2.2,9.81,9.81,0,0,0,4.34-1,10.17,10.17,0,0,0,5.72-9.06V110.69A30.19,30.19,0,0,0,291.81,80.5Z"/><path class="cls-2" d="M221.38,0H40.25A40.29,40.29,0,0,0,0,40.25V241.5a10,10,0,0,0,10.06,10.06,9.74,9.74,0,0,0,6.42-2.32l57.61-48H221.38A40.29,40.29,0,0,0,261.63,161V40.25A40.29,40.29,0,0,0,221.38,0Z"/><path class="cls-3" d="M191.19,60.37H70.44a10.07,10.07,0,1,0,0,20.13H191.19a10.07,10.07,0,0,0,0-20.13Z"/><path class="cls-3" d="M150.94,100.62H70.44a10.07,10.07,0,1,0,0,20.13h80.5a10.07,10.07,0,0,0,0-20.13Z"/></g></g></svg>