<?xml version="1.0" encoding="utf-8"?>
<!-- Generator: Adobe Illustrator 24.3.0, SVG Export Plug-In . SVG Version: 6.00 Build 0)  -->
<svg version="1.1" id="Layer_1" xmlns="http://www.w3.org/2000/svg" xmlns:xlink="http://www.w3.org/1999/xlink" x="0px" y="0px"
	 viewBox="0 0 446.71 446.71" style="enable-background:new 0 0 446.71 446.71;" xml:space="preserve">
<style type="text/css">
	.st0{fill:#02579F;}
	.st1{fill:#F8A51A;}
	.st2{fill:#024697;}
	.st3{fill:#FFFFFF;}
	.st4{fill:#000003;}
	.st5{fill:#E60B27;}
	.st6{fill:#F0692D;}
	.st7{fill:#F39E2E;}
	.st8{fill:#0F598C;}
	.st9{fill:#FBEEEF;}
	.st10{fill:#D60918;}
	.st11{fill:#138284;}
	.st12{fill:#322D3C;}
	.st13{fill:#26B15D;}
	.st14{fill:#014268;}
	.st15{fill:#9ABA3B;}
</style>
<g>
	<path class="st8" d="M317.96,248.19c0.22,0,0.44,0.09,0.65,0.16c-0.21-0.08-0.42-0.16-0.63-0.16c-6.72-0.04-13.43-0.04-20.15,0
		c-0.55,0-1.11,0.35-1.7,0.58c0.57-0.22,1.14-0.57,1.71-0.57C304.55,248.15,311.25,248.15,317.96,248.19z"/>
	<path class="st8" d="M149.72,223.53l0.23-0.08h-0.26C149.69,223.46,149.72,223.52,149.72,223.53z"/>
	<path class="st8" d="M356.89,126.61H89.83c-6.16,0-11.19,5.04-11.19,11.19v171.11c0,6.16,5.04,11.19,11.19,11.19h267.06
		c6.16,0,11.19-5.04,11.19-11.19V137.8C368.08,131.65,363.04,126.61,356.89,126.61z M275.81,188.3
		C275.82,188.3,275.82,188.3,275.81,188.3c0.01,0.01,0,0.01-0.02,0H275.81z M106.69,186.55c9.71-0.04,19.42-0.19,29.12-0.07
		c5.65,0.07,7.99,2.35,9.04,7.86c1.33,7.01,2.74,14.01,4.05,21.02c-1.62-2.63-3.85-5.77-6.83-9.02
		c-6.45-7.04-17.67-15.87-35.37-19.65V186.55z M141.91,259.91c-5.52-20.93-11.05-41.9-16.58-62.86c0.26,0.08,0.52,0.16,0.79,0.23
		c0.08,0.05,0.15,0.1,0.23,0.15c3.37,1.38,14.68,7.22,23.61,26.01c1.14,4.17,2.28,8.37,3.47,12.72
		c6.16-16.58,12.26-32.98,18.42-49.54h20.05c-9.96,24.48-19.89,48.84-29.83,73.28H141.91z M214.76,210.69
		c-2.28,14.13-4.55,28.26-6.85,42.38c-0.35,2.14-0.82,4.26-1.23,6.38c-0.04,0.09-0.07,0.26-0.11,0.27
		c-6.17,0.05-12.35,0.1-18.52,0.13c-0.03,0-0.09-0.13-0.08-0.19c0.02-0.09,0.08-0.18,0.12-0.27c1.32-8.58,2.61-17.17,3.98-25.74
		c2.26-14.13,4.57-28.25,6.87-42.38c0.25-1.54,0.53-3.08,0.81-4.68c6.32,0,12.52,0,18.91,0
		C217.34,194.75,216.05,202.72,214.76,210.69z M253.27,259.42c-1.87,0.52-3.81,0.93-5.78,1.23c-0.15,0.04-0.3,0.07-0.45,0.15
		c-1.34,0.19-2.65,0.3-3.96,0.37c0.37,0,0.75,0.04,1.12,0.07h-3.92h-2.61h-1.79c0.15-0.04,0.3-0.07,0.45-0.15
		c-3.1-0.19-5.67-0.6-7.43-0.93c-0.97-0.19-1.64-0.37-2.01-0.45c-0.07-0.04-0.19-0.07-0.26-0.07c-0.15-0.04-0.3-0.07-0.45-0.11
		c-2.35-0.63-4.7-1.31-7.39-2.05c0.86-5.6,1.68-10.9,2.57-16.57c1.9,0.78,3.58,1.53,5.26,2.2c6.49,2.54,13.17,3.51,20.04,2.05
		c1.23-0.26,2.46-0.82,3.51-1.49c3.84-2.54,4.18-6.79,0.63-9.66c-2.09-1.68-4.48-2.87-6.79-4.22c-2.8-1.68-5.75-3.1-8.43-4.93
		c-13.84-9.48-9.63-25.19-0.71-32.28c4.4-3.47,9.4-5.49,14.81-6.57c2.8-0.41,5.45-0.56,7.99-0.56c9.4,0,16.49,2.28,17.87,2.76
		c0.11,0.04,0.22,0.04,0.22,0.07h0.04c-0.86,5.22-1.68,10.37-2.57,15.78c-5.63-2.72-11.46-4.03-17.57-3.4
		c-2.28,0.22-4.74,0.86-6.68,2.02c-3.36,2.01-3.54,5.71-0.45,8.13c2.31,1.79,5.04,3.13,7.57,4.63c2.8,1.68,5.75,3.13,8.4,4.96
		c12.13,8.25,9.59,22.76,3.47,30C263.95,255.2,258.87,257.85,253.27,259.42z M340.03,260.06c-0.19-0.04-0.41-0.07-0.6-0.11
		c-0.3-0.03-0.59-0.08-0.89-0.13c0.3,0.05,0.59,0.1,0.89,0.13c-5.44-0.02-10.88-0.03-16.32-0.05c-0.09,0-0.19,0.01-0.28,0.01
		c0,0,0-0.01-0.01-0.01c0,0-0.01,0-0.01,0c0,0,0.01,0,0.01,0c-0.22-0.41-0.52-0.74-0.63-1.15c-0.82-3.32-1.6-6.64-2.39-9.93
		c-0.01,0-0.03-0.01-0.04-0.02c-7.92,0-15.84,0.01-23.75,0.01c0,0-0.01,0-0.01,0.01c-1.38,3.36-2.76,6.72-4.14,10.04
		c-0.45,0.19-0.9,0.52-1.34,0.52c-5.49,0.04-10.97,0.07-16.46,0c-0.36,0-0.69-0.49-1.03-0.9c0.34,0.41,0.68,0.9,1.03,0.9
		c5.48,0.07,10.97,0.04,16.45,0c0.46,0,0.91-0.33,1.36-0.51c0.11,1.48-0.98,1.17-1.81,1.17c-5.93,0.01-11.86,0.01-18.13,0.01
		c0.34-0.76,0.58-1.32,0.82-1.88c0,0,0,0,0,0c1.79-4.48,3.54-8.99,5.41-13.42c7.2-17.2,14.44-34.37,21.6-51.57
		c1.72-4.25,4.66-6.57,9.22-6.64c5.15-0.11,10.26-0.04,15.41-0.04c0.26,0.67,0.56,1.19,0.67,1.75c3.84,18.4,7.61,36.75,11.46,55.11
		c1.08,5.19,2.35,10.34,3.51,15.49V260.06z"/>
	<path class="st8" d="M301.22,233.82h15.78c-1.87-9.07-3.73-17.99-5.67-27.54C307.83,215.88,304.54,224.76,301.22,233.82z"/>
	<path class="st9" d="M325.07,188.26c-0.11-0.56-0.41-1.08-0.67-1.75c-5.15,0-10.26-0.07-15.41,0.04c-4.55,0.07-7.5,2.39-9.22,6.64
		c-7.16,17.2-14.4,34.37-21.6,51.57c-1.86,4.44-3.62,8.95-5.41,13.42c0.09,0.09,0.18,0.2,0.27,0.31c0.35,0.41,0.68,0.9,1.03,0.9
		c5.49,0.07,10.97,0.04,16.46,0c0.45,0,0.9-0.34,1.34-0.52c1.38-3.32,2.76-6.68,4.14-10.04c0,0,0.01,0,0.01-0.01c0,0,0,0,0,0
		c0.04-0.01,0.08-0.04,0.12-0.05c0.58-0.23,1.14-0.58,1.7-0.58c6.72-0.04,13.43-0.04,20.15,0c0.21,0,0.42,0.09,0.63,0.16
		c0.39,0.14,0.79,0.31,1.18,0.45c-0.01,0-0.02,0-0.03,0c0.01,0.01,0.03,0.01,0.04,0.02c0.78,3.28,1.57,6.6,2.39,9.93
		c0.11,0.41,0.4,0.74,0.63,1.15c4.2-0.15,8.4-0.34,12.6-0.41c1.04-0.02,2.08,0.16,3.12,0.32c0.3,0.05,0.59,0.1,0.89,0.13
		c0.19,0.04,0.41,0.07,0.6,0.11v-1.19c-1.16-5.15-2.43-10.3-3.51-15.49C332.68,225.02,328.91,206.66,325.07,188.26z M301.22,233.82
		c3.32-9.07,6.6-17.95,10.11-27.54c1.94,9.55,3.81,18.47,5.67,27.54H301.22z"/>
	<path class="st9" d="M322.83,259.91c0.09,0,0.19-0.01,0.28-0.01c-0.1,0-0.19,0-0.29,0C322.82,259.9,322.82,259.9,322.83,259.91z"/>
	<path class="st9" d="M264.51,220.43c-2.65-1.83-5.6-3.28-8.4-4.96c-2.54-1.49-5.26-2.84-7.57-4.63c-3.1-2.43-2.91-6.12,0.45-8.13
		c1.94-1.16,4.4-1.79,6.68-2.02c6.12-0.63,11.94,0.67,17.57,3.4c0.9-5.41,1.72-10.56,2.57-15.78h-0.04c0-0.04-0.11-0.04-0.22-0.07
		c-1.38-0.49-8.47-2.76-17.87-2.76c-2.54,0-5.19,0.15-7.99,0.56c-5.41,1.08-10.41,3.1-14.81,6.57c-8.92,7.09-13.13,22.8,0.71,32.28
		c2.69,1.83,5.63,3.25,8.43,4.93c2.31,1.34,4.7,2.54,6.79,4.22c3.54,2.87,3.21,7.13-0.63,9.66c-1.04,0.67-2.28,1.23-3.51,1.49
		c-6.87,1.46-13.54,0.49-20.04-2.05c-1.68-0.67-3.36-1.42-5.26-2.2c-0.9,5.67-1.72,10.97-2.57,16.57c2.69,0.75,5.04,1.42,7.39,2.05
		c0.15,0.04,0.3,0.07,0.45,0.11c0.07,0,0.19,0.04,0.26,0.07c0.37,0.07,1.04,0.26,2.01,0.45c1.75,0.34,4.33,0.75,7.43,0.93
		c0,0,0,0,0.04,0c0.41-0.11,0.82-0.22,1.27-0.37c1.79,0.15,3.62,0.3,5.45,0.45c1.31-0.07,2.61-0.19,3.96-0.37
		c0.15-0.07,0.3-0.11,0.45-0.15c1.98-0.3,3.92-0.71,5.78-1.23c5.6-1.57,10.67-4.22,14.7-8.99
		C274.09,243.19,276.63,228.67,264.51,220.43z"/>
	<path class="st9" d="M237.68,261.17c0.86,0.04,1.72,0.07,2.61,0.07c0.9,0,1.83-0.04,2.8-0.07c-1.83-0.15-3.66-0.3-5.45-0.45
		C237.64,260.88,237.68,261.03,237.68,261.17z"/>
	<path class="st9" d="M237.64,260.73c-0.45,0.15-0.86,0.26-1.27,0.37c0.41,0.04,0.86,0.07,1.31,0.07
		C237.68,261.03,237.64,260.88,237.64,260.73z"/>
	<path class="st9" d="M126.11,197.28c-0.26-0.07-0.53-0.15-0.79-0.23c0,0,0.38,0.12,1.02,0.38
		C126.26,197.38,126.2,197.33,126.11,197.28z"/>
	<path class="st9" d="M171.84,186.63c-6.15,16.56-12.26,32.96-18.42,49.54c-1.19-4.35-2.33-8.55-3.47-12.72l-0.23,0.08
		c0,0-0.03-0.07-0.03-0.08h-5.71l-18.65-26.39c5.52,20.96,11.05,41.92,16.58,62.86h20.15c9.95-24.43,19.87-48.8,29.83-73.28H171.84z
		"/>
	<path class="st9" d="M198.95,191.28c-2.3,14.12-4.61,28.25-6.87,42.38c-1.37,8.57-2.66,17.16-3.98,25.74
		c6.2,0.02,12.39,0.04,18.59,0.06c0.41-2.13,0.88-4.25,1.23-6.38c2.3-14.12,4.56-28.25,6.85-42.38c1.29-7.97,2.58-15.95,3.91-24.1
		c-6.39,0-12.58,0-18.91,0C199.48,188.2,199.2,189.74,198.95,191.28z"/>
	<path class="st9" d="M142.06,206.34c2.98,3.26,5.21,6.39,6.83,9.02c-1.32-7.02-2.73-14.02-4.05-21.02
		c-1.05-5.51-3.38-7.79-9.04-7.86c-9.7-0.13-19.41,0.03-29.12,0.07v0.14C124.39,190.47,135.61,199.3,142.06,206.34z"/>
	<path class="st9" d="M187.97,259.67c-0.01,0.06,0.05,0.19,0.08,0.19c6.17-0.03,12.35-0.08,18.52-0.13c0.04,0,0.07-0.17,0.11-0.27
		c-6.2-0.02-12.39-0.04-18.59-0.06C188.05,259.49,187.99,259.57,187.97,259.67z"/>
	<path class="st9" d="M317.96,248.19c-6.71-0.04-13.41-0.04-20.12,0c-0.57,0-1.14,0.35-1.71,0.57c-0.04,0.02-0.08,0.04-0.12,0.05
		c7.92,0,15.84-0.01,23.75-0.01c-0.4-0.15-0.78-0.32-1.15-0.45C318.39,248.28,318.18,248.19,317.96,248.19z"/>
	<path class="st9" d="M296.01,248.82C296.01,248.82,296.01,248.82,296.01,248.82c0.04-0.01,0.08-0.04,0.12-0.05
		C296.09,248.78,296.05,248.8,296.01,248.82z"/>
	<path class="st9" d="M318.61,248.35c0.38,0.13,0.76,0.31,1.15,0.45c0.01,0,0.02,0,0.03,0C319.4,248.67,319.01,248.49,318.61,248.35
		z"/>
	<path class="st9" d="M272.75,258.18C272.75,258.18,272.75,258.18,272.75,258.18c-0.25,0.55-0.49,1.11-0.83,1.88
		c6.27,0,12.2,0.01,18.13-0.01c0.82,0,1.91,0.3,1.81-1.17c-0.45,0.18-0.91,0.51-1.36,0.51c-5.49,0.05-10.97,0.08-16.45,0
		c-0.35,0-0.69-0.49-1.03-0.9C272.93,258.38,272.84,258.27,272.75,258.18C272.75,258.19,272.75,258.18,272.75,258.18z"/>
	<path class="st9" d="M272.75,258.19c0.09,0.09,0.18,0.19,0.27,0.3C272.93,258.38,272.85,258.27,272.75,258.19
		C272.75,258.18,272.75,258.19,272.75,258.19z"/>
	<polygon class="st9" points="322.81,259.9 322.82,259.9 322.82,259.9 	"/>
	<path class="st9" d="M323.11,259.9c5.44,0.02,10.88,0.03,16.32,0.05c-0.3-0.04-0.59-0.09-0.89-0.13c-1.04-0.16-2.09-0.35-3.1-0.32
		C331.32,259.57,327.2,259.75,323.11,259.9z"/>
	<path class="st9" d="M322.82,259.9L322.82,259.9c0.1,0,0.19,0,0.29,0c4.09-0.15,8.21-0.33,12.33-0.4c1.02-0.03,2.06,0.16,3.1,0.32
		c-1.04-0.16-2.08-0.34-3.12-0.32C331.22,259.56,327.02,259.75,322.82,259.9z"/>
	<path class="st9" d="M139.78,208.25c7.05,7.66,9.73,14.71,9.91,15.19h0.26c-8.93-18.79-20.24-24.63-23.61-26.01
		C132.19,200.89,136.59,204.8,139.78,208.25z"/>
	<path class="st9" d="M149.69,223.44c-0.18-0.48-2.87-7.53-9.91-15.19c-3.18-3.46-7.59-7.36-13.43-10.82
		c-0.63-0.26-1.02-0.38-1.02-0.38l18.65,26.39H149.69z"/>
	<path class="st9" d="M275.81,188.3h-0.02C275.81,188.3,275.82,188.3,275.81,188.3C275.82,188.3,275.82,188.3,275.81,188.3z"/>
	<path class="st9" d="M237.68,261.25h2.61c-0.9,0-1.75-0.04-2.61-0.07C237.68,261.21,237.68,261.21,237.68,261.25z"/>
	<path class="st9" d="M236.37,261.1c-0.04,0-0.04,0-0.04,0c-0.15,0.07-0.3,0.11-0.45,0.15h1.79c0-0.04,0-0.04,0-0.07
		C237.23,261.17,236.78,261.14,236.37,261.1z"/>
	<path class="st9" d="M244.21,261.25c-0.37-0.04-0.75-0.07-1.12-0.07c-0.97,0.04-1.9,0.07-2.8,0.07H244.21z"/>
</g>
</svg>
