<svg xmlns="http://www.w3.org/2000/svg" viewBox="0 0 322 311.27"><defs><style>.cls-1{fill:#b00e0e;}.cls-2{fill:#d01273;}.cls-3{fill:#ff9f9b;}.cls-4{fill:#009954;}.cls-5{fill:#f29500;}.cls-6{fill:#54e360;}.cls-7{fill:#00cc71;}.cls-8{fill:#ffa90b;}.cls-9{fill:#ffdad2;}.cls-10{fill:#3d6dcc;}.cls-11{fill:#0c83fa;}</style></defs><title>Asset 121</title><g id="Layer_2" data-name="Layer 2"><g id="red"><rect class="cls-1" x="289.8" y="59.03" width="32.2" height="118.07"/><rect class="cls-2" x="268.33" y="64.4" width="21.47" height="96.6"/><path class="cls-3" d="M268.33,80.5H246.87L209.3,64.4H171.73V161h59l16.1-16.1h21.46Z"/><path class="cls-4" d="M144.9,0,26.83,63l96.6,177.1,118.07-63Z"/><path class="cls-5" d="M125.13,154.27l-37.54,20L67.24,137.06l37.58-20Z"/><path class="cls-6" d="M144.9,0,64.4,42.93,161,220l80.5-42.93Z"/><path class="cls-7" d="M102.29,22.76A42.89,42.89,0,0,1,85,80.61L64.4,42.93Z"/><path class="cls-7" d="M144.9,42.93A42.78,42.78,0,0,1,107,20.18L144.9,0l20.55,37.67a42.54,42.54,0,0,1-20.55,5.26Z"/><path class="cls-7" d="M198.89,199.86,161,220l-20.55-37.67a42.87,42.87,0,0,1,58.44,17.5Z"/><path class="cls-7" d="M241.5,177.1l-37.89,20.18A42.89,42.89,0,0,1,221,139.43Z"/><path class="cls-8" d="M205.6,111.31l-80.47,43L104.82,117l80.49-42.92Z"/><path class="cls-9" d="M171.73,107.33A15.18,15.18,0,0,0,193.2,128.8l21.47-21.47a30.35,30.35,0,0,0,42.93,0L268.33,96.6V80.5H246.87L209.3,64.4H180L192.2,86.87Z"/><rect class="cls-10" y="214.67" width="21.47" height="96.6"/><rect class="cls-11" x="21.47" y="225.4" width="21.47" height="75.13"/><path class="cls-9" d="M107.33,241.5l5.37,5.37h32.2a16.1,16.1,0,0,1,0,32.2h85.87a16.1,16.1,0,0,1,0,32.2H113.83a127.82,127.82,0,0,1-70.9-21.47V241.5a45.53,45.53,0,0,1,64.4,0Z"/><path class="cls-3" d="M96.6,284.43A5.36,5.36,0,0,0,102,289.8H144.9a5.37,5.37,0,1,0,0-10.73H102a5.36,5.36,0,0,0-5.37,5.36Z"/></g></g></svg>