<svg xmlns="http://www.w3.org/2000/svg" width="162.88" height="140.633" viewBox="0 0 162.88 140.633">
  <g id="Group_171" data-name="Group 171" transform="translate(-8651.441 -924.013)">
    <path id="Path_2022" data-name="Path 2022" d="M166.936,203.281l-.085-.147a23.947,23.947,0,0,0-32.056-8.99l-26.453,13.736a9.551,9.551,0,0,0-5.009-10.352l-17.36-10.022a10.169,10.169,0,0,0-6-1.955l-37.569.2v39.533H59.534l33.31,19.271a12.686,12.686,0,0,0,6.334,1.812,10.374,10.374,0,0,0,5.544-1.6l61.513-38.653a2.107,2.107,0,0,0,.7-2.835Z" transform="translate(8627.963 818.279)" fill="#ffdad2" fill-rule="evenodd"/>
    <path id="Path_2023" data-name="Path 2023" d="M145.9,243.643a18.9,18.9,0,0,0,9.3-16.1,16.939,16.939,0,0,0-.125-2.031l-8.611,4.464a10.512,10.512,0,0,1-4.767,6.375c-1.866,1.08-4.91,1.9-8.74-.29L117.7,226.367a4.206,4.206,0,1,0-4.509,7.1l15.351,9.749.156.094a18.092,18.092,0,0,0,9.062,2.54,16.209,16.209,0,0,0,8.16-2.21Z" transform="translate(8589.86 796.156)" fill="#ff9f9b"/>
    <path id="Path_2024" data-name="Path 2024" d="M28.324,223.544H4.218A4.205,4.205,0,0,1,0,219.338V160.785a4.205,4.205,0,0,1,4.205-4.205H28.31a4.205,4.205,0,0,1,4.218,4.205v58.567a4.205,4.205,0,0,1-4.205,4.205Z" transform="translate(8651.441 834.316)" fill="#0c83fa"/>
    <path id="Path_2025" data-name="Path 2025" d="M258.735,210.406l-.085-.147a23.947,23.947,0,0,0-32.056-8.99l-18.365,9.539v33.734l49.8-31.306A2.1,2.1,0,0,0,258.735,210.406Z" transform="translate(8536.164 811.154)" fill="#ff9f9b" fill-rule="evenodd"/>
    <path id="Path_3044" data-name="Path 3044" d="M199.86,48.245c-8.113,11.427-23.333,16.547-37.373,12.593S138.78,44.8,138.78,31.092,148.413,5.3,162.487,1.338s29.26,1.173,37.373,12.6Z" transform="translate(8553.395 924.008)" fill="#fca713" fill-rule="evenodd"/>
    <path id="Path_3049" data-name="Path 3049" d="M288.667,31.087c0,17.16-14.907,31.067-33.333,31.067S222,48.247,222,31.087,236.96,0,255.333,0s33.333,13.907,33.333,31.067Z" transform="translate(8525.654 924.013)" fill="#f98500" fill-rule="evenodd"/>
    <path id="Path_3052" data-name="Path 3052" d="M256.733,42.351h-2.967v10.2H249.3V27.064h9.233a6.78,6.78,0,0,1,5.173,1.953,6.987,6.987,0,0,1,1.86,5.02A7.633,7.633,0,0,1,264.7,37.9a5.38,5.38,0,0,1-2.18,2.16q2.62,1.22,2.62,6.353v1.267a23.673,23.673,0,0,0,.307,4.84H261.1a23.186,23.186,0,0,1-.427-5.727v-.373a4.967,4.967,0,0,0-.78-3.173C259.373,42.638,258.34,42.351,256.733,42.351Zm-2.967-10.927v6.5h3.807q3.453,0,3.447-3.247c0-2.173-1.12-3.253-3.333-3.253Z" transform="translate(8516.555 914.995)" fill="#cdd0d2"/>
    <path id="Path_3053" data-name="Path 3053" d="M277.13,49.7h4.293a2.753,2.753,0,0,0,2.953,2.407c1.467,0,2.193-.633,2.193-1.887a1.633,1.633,0,0,0-.607-1.333,7.754,7.754,0,0,0-2.313-1q-3.6-1.073-4.78-2.493a5.54,5.54,0,0,1-1.16-3.713,5.894,5.894,0,0,1,1.54-4.1,7.661,7.661,0,0,1,9.673.04,6.307,6.307,0,0,1,1.7,4h-4.14a2.367,2.367,0,0,0-2.587-2.033c-1.28,0-1.92.54-1.92,1.627a1.333,1.333,0,0,0,.593,1.16,9.233,9.233,0,0,0,2.473,1.007,16.794,16.794,0,0,1,3.127,1.247,5.333,5.333,0,0,1,1.84,1.533,5.22,5.22,0,0,1,.82,1.7,8.035,8.035,0,0,1,.213,2,5.94,5.94,0,0,1-1.7,4.327,6.824,6.824,0,0,1-5.087,1.74,6.986,6.986,0,0,1-5.107-1.7A7.193,7.193,0,0,1,277.13,49.7Z" transform="translate(8507.278 912.053)" fill="#cdd0d2"/>
    <path id="Path_3054" data-name="Path 3054" d="M172.733,41.351h-2.967v10.2H165.3V26.064h9.233a6.78,6.78,0,0,1,5.173,1.953,6.987,6.987,0,0,1,1.86,5.02A7.633,7.633,0,0,1,180.7,36.9a5.38,5.38,0,0,1-2.18,2.16q2.62,1.22,2.62,6.353v1.267a23.675,23.675,0,0,0,.307,4.84H177.1a23.185,23.185,0,0,1-.427-5.727v-.373a4.967,4.967,0,0,0-.78-3.173C175.373,41.638,174.34,41.351,172.733,41.351Zm-2.967-10.927v6.5h3.807q3.447,0,3.447-3.247c0-2.173-1.12-3.253-3.333-3.253Z" transform="translate(8544.555 915.328)" fill="#eceff1"/>
    <path id="Path_3055" data-name="Path 3055" d="M193.13,48.7h4.293a2.753,2.753,0,0,0,2.953,2.407c1.467,0,2.193-.633,2.193-1.887a1.633,1.633,0,0,0-.607-1.333,7.753,7.753,0,0,0-2.313-1q-3.6-1.073-4.78-2.493a5.54,5.54,0,0,1-1.16-3.713,5.893,5.893,0,0,1,1.54-4.1,7.661,7.661,0,0,1,9.673.04,6.307,6.307,0,0,1,1.7,4h-4.14a2.367,2.367,0,0,0-2.587-2.033c-1.28,0-1.92.54-1.92,1.627a1.333,1.333,0,0,0,.593,1.16,9.233,9.233,0,0,0,2.473,1.007,16.794,16.794,0,0,1,3.127,1.247,5.333,5.333,0,0,1,1.84,1.533,5.22,5.22,0,0,1,.82,1.7,8.034,8.034,0,0,1,.213,2,5.94,5.94,0,0,1-1.7,4.327,6.824,6.824,0,0,1-5.087,1.74,6.986,6.986,0,0,1-5.107-1.7,7.193,7.193,0,0,1-2.02-4.527Z" transform="translate(8535.278 912.386)" fill="#eceff1"/>
  </g>
</svg>
