<svg xmlns="http://www.w3.org/2000/svg" xmlns:xlink="http://www.w3.org/1999/xlink" viewBox="0 0 320.57 304.95"><defs><style>.cls-1{fill:none;}.cls-2{fill:#ffa90b;}.cls-3{fill:#f29500;}.cls-4{fill:#2196f3;}.cls-5{clip-path:url(#clip-path);}.cls-6{fill:#1e88e5;}.cls-7{fill:#b00e0e;}.cls-8{fill:#37474f;}.cls-9{fill:#263238;}.cls-10{fill:#cdd0d2;}</style><clipPath id="clip-path" transform="translate(-0.43 0)"><rect class="cls-1" width="322" height="305.95"/></clipPath></defs><title>Asset 131</title><g id="Layer_2" data-name="Layer 2"><g id="red"><path class="cls-2" d="M199.48,98.29,187,33.73A16.07,16.07,0,0,0,168.18,21l-99,19.26A16,16,0,0,0,56.5,59.17c12.43,56.76,10.07,81.64,31.61,77.27l98.71-19.09a16,16,0,0,0,12.66-19.06Z" transform="translate(-0.43 0)"/><path class="cls-3" d="M199.48,98.29,187,33.73A16.07,16.07,0,0,0,168.18,21l-6.72,1.31A14.79,14.79,0,0,1,171,33.73l12.46,64.56a16,16,0,0,1-12.67,19.06L78.58,135.18c9.57,4.28,7.59-.06,108.23-17.83a16,16,0,0,0,12.67-19.06Z" transform="translate(-0.43 0)"/><path class="cls-4" d="M252.49,88.52a16.09,16.09,0,0,0-18.78-12.69L82,104.92a16.07,16.07,0,0,0-10.3,6.82C65.09,121.63,70.06,119,96.62,260a16,16,0,0,0,15.71,12.9,15.62,15.62,0,0,0,2.65-.22l151.67-25.2a16.05,16.05,0,0,0,13.12-18.9Z" transform="translate(-0.43 0)"/><g class="cls-5"><path class="cls-6" d="M252.49,88.52a16.09,16.09,0,0,0-18.78-12.69l-6.8,1.3a15.75,15.75,0,0,1,9.52,11.4l27.29,140a16.05,16.05,0,0,1-13.12,18.9l-144.51,24a15.83,15.83,0,0,0,6.24,1.41,15.62,15.62,0,0,0,2.65-.22l151.67-25.2a16.05,16.05,0,0,0,13.12-18.9Z" transform="translate(-0.43 0)"/><path class="cls-7" d="M112.33,272.85A16.06,16.06,0,0,1,96.61,260L52,37,21.13,47.32A16.05,16.05,0,0,1,11,16.88L59.12.83A16.07,16.07,0,0,1,79.94,12.88L125,238.41l177.25-29.54a16.05,16.05,0,1,1,5.33,31.66L115,272.63a15.62,15.62,0,0,1-2.65.22Z" transform="translate(-0.43 0)"/><path class="cls-8" d="M112.35,208.65A48.15,48.15,0,1,0,160.5,256.8a48.16,48.16,0,0,0-48.15-48.15Zm0,64.2A16.05,16.05,0,1,1,128.4,256.8a16.06,16.06,0,0,1-16.05,16.05Z" transform="translate(-0.43 0)"/></g><path class="cls-9" d="M112.35,208.65a47.11,47.11,0,0,0-8,.81,48,48,0,0,1,0,94.67,48.08,48.08,0,1,0,8-95.48Z" transform="translate(-0.43 0)"/><path class="cls-10" d="M128.4,256.8a16.05,16.05,0,1,1-16.05-16.05A16.06,16.06,0,0,1,128.4,256.8Z" transform="translate(-0.43 0)"/></g></g></svg>