<svg xmlns="http://www.w3.org/2000/svg" xmlns:xlink="http://www.w3.org/1999/xlink" viewBox="0 0 42.19 40.64"><defs><style>.cls-1{fill:url(#Red_Orange);}.cls-2{fill:url(#linear-gradient);}.cls-3{fill:url(#linear-gradient-2);}.cls-4{fill:url(#linear-gradient-3);}.cls-5{fill:#fff;}</style><linearGradient id="Red_Orange" y1="16.61" x2="42.19" y2="16.61" gradientUnits="userSpaceOnUse"><stop offset="0" stop-color="#f37e5f"/><stop offset="0.5" stop-color="#ec1c24"/><stop offset="1" stop-color="#cf232a"/></linearGradient><linearGradient id="linear-gradient" x1="30.42" y1="30.59" x2="31.32" y2="40.88" gradientUnits="userSpaceOnUse"><stop offset="0" stop-color="#3fa9f5"/><stop offset="0.58" stop-color="#0087ee"/><stop offset="1" stop-color="#0c83fa"/></linearGradient><linearGradient id="linear-gradient-2" x1="29.57" y1="33.75" x2="35.86" y2="36.55" xlink:href="#linear-gradient"/><linearGradient id="linear-gradient-3" x1="29.44" y1="32.7" x2="32.29" y2="19.28" gradientUnits="userSpaceOnUse"><stop offset="0" stop-color="#3fa9f5"/><stop offset="0.52" stop-color="#0087ee"/><stop offset="1" stop-color="#0c83fa"/></linearGradient></defs><g id="Layer_2" data-name="Layer 2"><g id="HOME_2" data-name="HOME 2"><path class="cls-1" d="M40.82,0H1.37A1.37,1.37,0,0,0,0,1.37V31.86a1.36,1.36,0,0,0,1.37,1.36H40.82a1.36,1.36,0,0,0,1.37-1.36V1.37A1.37,1.37,0,0,0,40.82,0Z"/><path class="cls-2" d="M34,40.64l-3.17-1.48L27.7,40.64V30.83H34Z"/><path class="cls-3" d="M30.87,30.83v8.33L34,40.64V30.83Z"/><path class="cls-4" d="M37.72,26a6.86,6.86,0,1,1-6.85-6.86A6.86,6.86,0,0,1,37.72,26Z"/><path class="cls-5" d="M34.4,9.1H7.23a1.37,1.37,0,0,1,0-2.74H34.4a1.37,1.37,0,1,1,0,2.74Z"/><path class="cls-5" d="M34.4,15.38H7.23a1.37,1.37,0,1,1,0-2.73H34.4a1.37,1.37,0,1,1,0,2.73Z"/><path class="cls-5" d="M16,27.7H7.23a1.37,1.37,0,1,1,0-2.73H16a1.37,1.37,0,0,1,0,2.73Z"/></g></g></svg>