<svg xmlns="http://www.w3.org/2000/svg" viewBox="0 0 322 322"><defs><style>.cls-1{fill:#c6151d;}.cls-2{fill:#b00e0e;}.cls-3{fill:#f0f7ff;}.cls-4{fill:#dfe7f4;}</style></defs><title>Asset 160</title><g id="Layer_2" data-name="Layer 2"><g id="red"><path class="cls-1" d="M160.51,0C72,0,0,73,0,161.49S72,322,160.51,322,322,250,322,161.49,249,0,160.51,0Z"/><path class="cls-2" d="M322,161.49C322,73,249,0,160.51,0V322C249,322,322,250,322,161.49Z"/><path class="cls-3" d="M210.33,132.3,189.7,111.67l-29.19,29.18-29.18-29.18L110.69,132.3l29.19,29.19-29.19,29.18,20.64,20.64,29.18-29.19,29.19,29.19,20.63-20.64-29.18-29.18Z"/><path class="cls-4" d="M210.33,190.67l-29.18-29.18,29.18-29.19L189.7,111.67l-29.19,29.18v41.27l29.19,29.19Z"/></g></g></svg>