<svg xmlns="http://www.w3.org/2000/svg" viewBox="0 0 322 322"><defs><style>.cls-1{fill:#b00e0e;}.cls-2{fill:#d01273;}.cls-3{fill:#00cc71;}.cls-4{fill:#009954;}.cls-5{fill:#ffa90b;}.cls-6{fill:#f98500;}.cls-7{fill:#f29500;}</style></defs><title>Asset 117</title><g id="Layer_2" data-name="Layer 2"><g id="red"><path class="cls-1" d="M142.42,0H161l6.14,61.92-6.25,61.92a9.25,9.25,0,0,1-6.17-2.43L117.57,87.35a9.3,9.3,0,0,1-3-6.85V61.92a9.3,9.3,0,0,1,9.29-9.29h9.28V9.29A9.3,9.3,0,0,1,142.42,0Z"/><path class="cls-2" d="M198.15,52.63h-9.28V9.29A9.29,9.29,0,0,0,179.58,0H161l-.1,123.84A9.34,9.34,0,0,0,167,121.4l37.39-34.05a9.28,9.28,0,0,0,3-6.85V61.92a9.29,9.29,0,0,0-9.29-9.29Z"/><path class="cls-1" d="M257,0h18.58l6.14,61.92-6.25,61.92a9.25,9.25,0,0,1-6.17-2.43L232.13,87.35a9.26,9.26,0,0,1-3-6.85V61.92a9.3,9.3,0,0,1,9.28-9.29h9.29V9.29A9.29,9.29,0,0,1,257,0Z"/><path class="cls-2" d="M312.71,52.63h-9.29V9.29A9.29,9.29,0,0,0,294.13,0H275.56l-.11,123.84a9.36,9.36,0,0,0,6.13-2.44L319,87.35a9.28,9.28,0,0,0,3-6.85V61.92a9.29,9.29,0,0,0-9.29-9.29Z"/><path class="cls-1" d="M27.87,0H46.44l6.15,61.92-6.25,61.92a9.29,9.29,0,0,1-6.18-2.43L3,87.35A9.3,9.3,0,0,1,0,80.5V61.92a9.3,9.3,0,0,1,9.29-9.29h9.29V9.29A9.29,9.29,0,0,1,27.87,0Z"/><path class="cls-2" d="M83.6,52.63H74.31V9.29A9.29,9.29,0,0,0,65,0H46.44l-.1,123.84a9.32,9.32,0,0,0,6.12-2.44L89.85,87.35a9.24,9.24,0,0,0,3-6.85V61.92a9.29,9.29,0,0,0-9.28-9.29Z"/><path class="cls-3" d="M9.29,105.27A9.29,9.29,0,0,0,0,114.56V312.71A9.29,9.29,0,0,0,9.29,322H161l6.2-108.37L161,105.27Z"/><path class="cls-4" d="M312.71,105.27H161V322H312.71a9.29,9.29,0,0,0,9.29-9.29V114.56a9.29,9.29,0,0,0-9.29-9.29Z"/><path class="cls-5" d="M99.08,284.85h-31a9.29,9.29,0,0,1-9.29-9.29,12.41,12.41,0,0,0-12.39-12.39,9.29,9.29,0,0,1-9.29-9.29v-80.5a9.28,9.28,0,0,1,9.29-9.28,12.41,12.41,0,0,0,12.39-12.39,9.29,9.29,0,0,1,9.29-9.29h31a9.29,9.29,0,0,1,0,18.58H76a31.08,31.08,0,0,1-20.25,20.25V246A31.08,31.08,0,0,1,76,266.27h23.1a9.29,9.29,0,0,1,0,18.58Z"/><path class="cls-6" d="M253.88,284.85h-31a9.29,9.29,0,1,1,0-18.58H246A31.08,31.08,0,0,1,266.27,246V181.25A31.08,31.08,0,0,1,246,161h-23.1a9.29,9.29,0,1,1,0-18.58h31a9.29,9.29,0,0,1,9.29,9.29,12.41,12.41,0,0,0,12.39,12.39,9.28,9.28,0,0,1,9.29,9.28v80.5a9.29,9.29,0,0,1-9.29,9.29,12.41,12.41,0,0,0-12.39,12.39,9.29,9.29,0,0,1-9.29,9.29Z"/><path class="cls-5" d="M137.13,217.55H130v24.39H119.36V181.05h22.07q7.94,0,12.38,4.68a16.78,16.78,0,0,1,4.44,12,18.32,18.32,0,0,1-2.07,9.24,12.8,12.8,0,0,1-5.21,5.17q6.25,2.91,6.26,15.2v3c0,5.84.25,9.69.73,11.58H147.62q-1-3.09-1-13.7v-.88q0-5.4-1.86-7.6C143.5,218.29,141,217.55,137.13,217.55ZM130,191.48V207h9.11q8.22,0,8.23-7.78t-8-7.77Z"/><path class="cls-7" d="M163.71,228.15H174q1.25,5.74,7.14,5.75,5.25,0,5.25-4.51a3.94,3.94,0,0,0-1.46-3.27,18.63,18.63,0,0,0-5.54-2.39q-8.6-2.55-11.43-6A13.23,13.23,0,0,1,165.1,209a14.07,14.07,0,0,1,3.68-9.81q3.67-4.06,11.54-4.07t11.58,4.15a15.09,15.09,0,0,1,4.08,9.64h-9.91q-1-4.86-6.19-4.86c-3.06,0-4.58,1.29-4.58,3.89a3.24,3.24,0,0,0,1.42,2.78,22.41,22.41,0,0,0,5.86,2.34,39.26,39.26,0,0,1,7.54,2.92,12.18,12.18,0,0,1,6.37,7.73,19.67,19.67,0,0,1,.51,4.82,14.18,14.18,0,0,1-4.08,10.34Q188.84,243,180.76,243t-12.2-4.07A17.18,17.18,0,0,1,163.71,228.15Z"/></g></g></svg>