<?xml version="1.0" encoding="utf-8"?>
<!-- Generator: Adobe Illustrator 24.3.0, SVG Export Plug-In . SVG Version: 6.00 Build 0)  -->
<svg version="1.1" id="Layer_1" xmlns="http://www.w3.org/2000/svg" xmlns:xlink="http://www.w3.org/1999/xlink" x="0px" y="0px"
	 viewBox="0 0 446.71 446.71" style="enable-background:new 0 0 446.71 446.71;" xml:space="preserve">
<style type="text/css">
	.st0{fill:#02579F;}
	.st1{fill:#F8A51A;}
	.st2{fill:#024697;}
	.st3{fill:#FFFFFF;}
	.st4{fill:#000003;}
	.st5{fill:#E60B27;}
	.st6{fill:#F0692D;}
	.st7{fill:#F39E2E;}
	.st8{fill:#0F598C;}
	.st9{fill:#FBEEEF;}
	.st10{fill:#D60918;}
	.st11{fill:#138284;}
	.st12{fill:#322D3C;}
	.st13{fill:#26B15D;}
	.st14{fill:#014268;}
	.st15{fill:#9ABA3B;}
</style>
<g>
	<path class="st14" d="M159.86,221.26v-51.17h-18.27v111.89c0,0,24.97,0,34.12,0c4.78,0,12.81-1.39,19.36-6.55v34.3
		c-30.32-3.79-57.95,0-57.95,0l1.09-31.68c0,0-21.12,31.68-52.8,31.68c-51.17,0-53.07-44.67-53.07-56.32v-79.33
		c0-25.45-1.36-37.1-1.36-37.1c21.12,3.52,51.99,0,51.99,0c-4.06,21.66-3.52,73.92-3.52,88.27c0,14.35-5.14,53.34,26.81,53.34
		s31.13-38.18,31.13-69.32c0-31.13-1.35-72.29-1.35-72.29c22.47,3.79,59.03,0,59.03,0v87.32c-6.42-5.24-14.42-6.91-20.17-6.91
		C163.72,217.4,159.86,221.26,159.86,221.26z"/>
	<circle class="st15" cx="172.66" cy="251.11" r="15.33"/>
	<path class="st14" d="M272.37,268.85v-24.91c0-16.79-14.9-21.66-27.89-21.66c-31.54,0-32.76,17.6-32.76,17.6l20.8,2.76
		c0,0,2.03-6.96,10.96-6.96c8.94,0,7.97,6.7,7.97,6.7c-4.26,2.84-16.15,5.18-25.89,7.11c-9.75,1.93-15.74,7.99-15.74,16.11
		c0,8.12,6.63,16.58,20.58,16.58c13.94,0,22.07-8.46,22.07-8.46c0.54,4.33,2.7,7.04,2.7,7.04h20.04
		C273.72,279.4,272.37,274.12,272.37,268.85z M251.25,260.32c0,2.37-2.91,9.68-11.1,9.68c-8.19,0-8.19-8.26-4.88-10.7
		c3.32-2.44,11.57-3.39,15.98-5.76C251.25,253.55,251.25,257.95,251.25,260.32z"/>
	<path class="st14" d="M281.03,224.17v56.86h21.66v-33.78c0-4.37,3.55-7.92,7.92-7.92h0c4.37,0,7.92,3.55,7.92,7.92v33.78h21.93
		c0,0,0-30.6,0-39.12c0-8.53-5.69-19.63-18.55-19.63s-20.44,10.42-20.44,10.42v-8.66L281.03,224.17z"/>
	<rect x="349.73" y="202.58" class="st14" width="21.32" height="78.45"/>
	<polygon class="st14" points="370.04,244.21 387.51,224.1 414.31,224.1 367.4,268.98 	"/>
	<polygon class="st14" points="391.97,241.8 415.73,281.03 390.86,281.03 377.15,253.34 	"/>
</g>
</svg>
