<svg xmlns="http://www.w3.org/2000/svg" xmlns:xlink="http://www.w3.org/1999/xlink" viewBox="0 0 322 322"><defs><style>.cls-1{fill:none;}.cls-2{clip-path:url(#clip-path);}.cls-3{fill:#d01273;}.cls-4{fill:#54e360;}.cls-5{fill:#00cc71;}.cls-6{fill:#009954;}.cls-7{fill:#b00e0e;}</style><clipPath id="clip-path"><rect class="cls-1" width="322" height="322"/></clipPath></defs><title>Asset 124</title><g id="Layer_2" data-name="Layer 2"><g id="red"><g class="cls-2"><path class="cls-3" d="M296.25,0H258.39a13.31,13.31,0,1,0,0,26.61h5.74L210.74,80,134.63,3.9a13.29,13.29,0,0,0-18.81,0L30.3,89.41a13.31,13.31,0,0,0,18.82,18.82l76.11-76.11,76.1,76.11a13.3,13.3,0,0,0,18.82,0l62.79-62.8v5.74a13.31,13.31,0,1,0,26.62,0V13.31A13.31,13.31,0,0,0,296.25,0Z"/></g><path class="cls-4" d="M312.57,121.25H9.43A9.44,9.44,0,0,0,0,130.69V312.57A9.43,9.43,0,0,0,9.43,322H312.57a9.43,9.43,0,0,0,9.43-9.43V130.69a9.44,9.44,0,0,0-9.43-9.44Z"/><path class="cls-5" d="M312.57,121.25H161V322H312.57a9.43,9.43,0,0,0,9.43-9.43V130.69a9.44,9.44,0,0,0-9.43-9.44Z"/><path class="cls-5" d="M161,181.88a39.75,39.75,0,1,0,39.75,39.75A39.79,39.79,0,0,0,161,181.88Z"/><path class="cls-5" d="M80.17,212.19A9.46,9.46,0,1,0,86.83,215a9.51,9.51,0,0,0-6.66-2.77Z"/><path class="cls-6" d="M251.27,221.62a9.42,9.42,0,1,0-2.76,6.68,9.51,9.51,0,0,0,2.76-6.68Z"/><path class="cls-5" d="M9.43,242.51A9.42,9.42,0,0,0,0,251.94v60.63A9.43,9.43,0,0,0,9.43,322H70.06a9.43,9.43,0,0,0,9.43-9.43A70.13,70.13,0,0,0,9.43,242.51Z"/><path class="cls-5" d="M9.43,200.75a70.13,70.13,0,0,0,70.06-70.06,9.44,9.44,0,0,0-9.43-9.44H9.43A9.44,9.44,0,0,0,0,130.69v60.62a9.44,9.44,0,0,0,9.43,9.44Z"/><path class="cls-6" d="M312.57,121.25H251.94a9.44,9.44,0,0,0-9.43,9.44,70.13,70.13,0,0,0,70.06,70.06,9.44,9.44,0,0,0,9.43-9.44V130.69a9.44,9.44,0,0,0-9.43-9.44Z"/><path class="cls-6" d="M312.57,242.51a70.13,70.13,0,0,0-70.06,70.06,9.43,9.43,0,0,0,9.43,9.43h60.63a9.43,9.43,0,0,0,9.43-9.43V251.94a9.43,9.43,0,0,0-9.43-9.43Z"/><path class="cls-6" d="M161,181.88v79.49a39.75,39.75,0,1,0,0-79.49Z"/><path class="cls-7" d="M296.25,0H258.39a13.31,13.31,0,1,0,0,26.61h5.74L210.74,80,168,37.24V74.88l33.35,33.35a13.3,13.3,0,0,0,18.82,0l62.79-62.8v5.74a13.31,13.31,0,1,0,26.62,0V13.31A13.31,13.31,0,0,0,296.25,0Z"/></g></g></svg>