<svg xmlns="http://www.w3.org/2000/svg" xmlns:xlink="http://www.w3.org/1999/xlink" viewBox="0 0 322 315.54"><defs><style>.cls-1{fill:none;}.cls-2{fill:#e40707;}.cls-3{fill:#b00e0e;}.cls-4{fill:#eceff1;}.cls-5{fill:#ffa90b;}.cls-6{fill:#c8e6f0;}.cls-7{fill:#cdd0d2;}.cls-8{clip-path:url(#clip-path);}.cls-9{fill:#0c83fa;}.cls-10{fill:#3d6dcc;}.cls-11{fill:#f29500;}.cls-12{fill:#ff9838;}</style><clipPath id="clip-path"><rect class="cls-1" width="322" height="315.71"/></clipPath></defs><title>Asset 147</title><g id="Layer_2" data-name="Layer 2"><g id="red"><path class="cls-2" d="M317.11,263.58a34,34,0,0,0-22.53-15.83l-43.09-8.57c-8.72-1.74-17-6.45-24.39-11.43l-31.23-21.1a66.87,66.87,0,0,0-37.44-11.46H101a66.55,66.55,0,0,0-47.07,19.5,66.53,66.53,0,0,1-33.37,18.05A25.84,25.84,0,0,0,0,258v38.68A9.1,9.1,0,0,0,5.4,305l8.17,3.63a8.15,8.15,0,0,0,11.12-5.19,29.54,29.54,0,0,1,56.62-.25,2.45,2.45,0,0,1,.08.29,16.58,16.58,0,0,0,15.89,12H232.72a8.09,8.09,0,0,0,8.06-7.14,29.53,29.53,0,0,1,58.5-1.32,10,10,0,0,0,9.93,8.46A12.79,12.79,0,0,0,322,302.75v-21.6a34,34,0,0,0-4.89-17.57Z"/><path class="cls-3" d="M317.11,263.58a34,34,0,0,0-22.53-15.83L275.94,244a34,34,0,0,1,26.61,33.22V313a10,10,0,0,0,6.66,2.53A12.79,12.79,0,0,0,322,302.75v-21.6a34,34,0,0,0-4.89-17.57Z"/><path class="cls-4" d="M140.06,296.91a3.15,3.15,0,0,1-3.14-3.09l-1.13-78.54a2.93,2.93,0,0,1,3.14-3.18h20.21c15,0,24.09,6.5,37.84,16.34,6.59,4.72,14.07,10.07,23.62,15.7a8.75,8.75,0,0,1,4.25,7.52v38.68a6.57,6.57,0,0,1-6.57,6.57Z"/><path class="cls-4" d="M101.8,297a3.08,3.08,0,0,1-2.88-2,49.52,49.52,0,0,0-46-31.74c-1,0-3.14.11-3.21.11a3.1,3.1,0,0,1-3.11-3.08v-17a3.05,3.05,0,0,1,1.65-2.72,82.92,82.92,0,0,0,19.57-14.64C80.07,213.58,94,212,104.81,212l6.63.18a3.08,3.08,0,0,1,3,3.08l0,78.53a3.09,3.09,0,0,1-3.06,3.08Z"/><path class="cls-5" d="M322,281.15a34,34,0,0,0-4.89-17.57c-.06-.11-.13-.21-.19-.31h-4.38A9.53,9.53,0,0,0,303,272.8v7.45a3,3,0,0,0,3,3h16Z"/><rect class="cls-6" x="241.49" y="40.27" width="33.41" height="45.24"/><path class="cls-7" d="M230,49.87h56.42a6.45,6.45,0,0,0,6.44-6.44V3.7H223.54V43.43A6.45,6.45,0,0,0,230,49.87Z"/><path class="cls-4" d="M273.18,3.7V43.43a6.45,6.45,0,0,1-6.44,6.44h19.67a6.45,6.45,0,0,0,6.44-6.44V3.7Z"/><path class="cls-4" d="M176.69,129.41a12.48,12.48,0,0,1,4.72-16.17L248,72.7a19.53,19.53,0,1,1,17.15,34.92l-72.81,27.94a12.48,12.48,0,0,1-15.68-6.15Z"/><g class="cls-8"><path class="cls-7" d="M260,163.17a9.08,9.08,0,0,1-11.64,3.54l-64.47-30.16a14.59,14.59,0,1,1,14.33-25.32l59.07,39.7A9.1,9.1,0,0,1,260,163.17Z"/><path class="cls-9" d="M300.52,31.27h-279A21.48,21.48,0,0,1,0,9.79,9.79,9.79,0,0,1,9.79,0H312.21A9.79,9.79,0,0,1,322,9.79a21.48,21.48,0,0,1-21.48,21.48Z"/><path class="cls-10" d="M312.21,0h-9.66V13.69A17.59,17.59,0,0,1,285,31.27h15.56A21.48,21.48,0,0,0,322,9.79,9.79,9.79,0,0,0,312.21,0Z"/></g><path class="cls-11" d="M245.6,202.06a4.88,4.88,0,0,1-2.72-.83l-7-4.76a8,8,0,0,1-2.82-10c.07-.15.14-.3.22-.44l14.37-24.72a4.86,4.86,0,0,1,8.4,4.89l-13.43,23.1,5.74,3.88a4.86,4.86,0,0,1-2.73,8.88Z"/><path class="cls-11" d="M268.42,202.06a4.86,4.86,0,0,1-2.73-8.88l5.73-3.88L258,166.2a4.86,4.86,0,0,1,8.4-4.88L280.76,186a3.68,3.68,0,0,1,.23.44,8.05,8.05,0,0,1-2.83,10l-7,4.76a4.85,4.85,0,0,1-2.71.83Z"/><path class="cls-12" d="M269.89,162.89A12.89,12.89,0,1,1,257,150a12.89,12.89,0,0,1,12.89,12.88Z"/></g></g></svg>