<svg xmlns="http://www.w3.org/2000/svg" viewBox="0 0 322 322"><defs><style>.cls-1{fill:#fcb031;}.cls-2{fill:#ffce3a;}.cls-3{fill:#008542;}.cls-4{fill:#009954;}.cls-5{fill:#ff4a4a;}.cls-6{fill:#b00e0e;}.cls-7{fill:#d01273;}.cls-8{fill:#e40707;}.cls-9{fill:#cdd0d2;}.cls-10{fill:#eceff1;}</style></defs><title>Asset 119</title><g id="Layer_2" data-name="Layer 2"><g id="red"><path class="cls-1" d="M237.1,185.57l28,13.79,41.55-33.7,12.85-26a28.39,28.39,0,0,0-7.13-9.61l-69-60.4H237.1v116Z"/><path class="cls-2" d="M84.9,69.62H78.69L9.65,130a28.32,28.32,0,0,0-7.12,9.6l15.68,27.61,51.2,28.56L84.9,185.57V69.62Z"/><path class="cls-2" d="M211.81,54.65H110.18a9.54,9.54,0,0,1,.95-13.39l43.64-39a9.72,9.72,0,0,1,12.46,0l43.64,39a9.53,9.53,0,0,1,.94,13.39Z"/><path class="cls-1" d="M211.81,54.65H161V0a9.39,9.39,0,0,1,6.23,2.26l43.64,39a9.53,9.53,0,0,1,.94,13.39Z"/><path class="cls-3" d="M246.53,67.29V241.81a9.34,9.34,0,0,1-9.43,9.44H84.9a9.34,9.34,0,0,1-9.43-9.44V67.29A28.26,28.26,0,0,1,103.77,39H218.23a28.26,28.26,0,0,1,28.3,28.3Z"/><path class="cls-4" d="M246.53,67.29V241.81a9.34,9.34,0,0,1-9.43,9.44H161V39h57.23a28.26,28.26,0,0,1,28.3,28.3Z"/><path class="cls-5" d="M319.47,139.63,161.33,227.85l20.36,30.34,90.76,42.54,41.45,12.73A28.17,28.17,0,0,0,322,293.7V151.32a28.24,28.24,0,0,0-2.53-11.69Z"/><path class="cls-6" d="M2.53,139.63A28.24,28.24,0,0,0,0,151.32V293.7a28.18,28.18,0,0,0,8,19.68l43.29-13.74,92.46-43.42L161,227.66l-158.47-88Z"/><path class="cls-7" d="M313.89,313.51A28,28,0,0,1,293.7,322H28.3a27.44,27.44,0,0,1-20.19-8.68L161,227.66l152.89,85.85Z"/><path class="cls-8" d="M313.89,313.51A28,28,0,0,1,293.7,322H161V227.66l152.89,85.85Z"/><path class="cls-9" d="M124.23,127.26H113.64v36.17H97.87V73.14H130.6q11.76,0,18.36,7t6.59,17.82q0,8.39-3.08,13.69a19,19,0,0,1-7.72,7.67q9.28,4.32,9.28,22.54v4.45q0,13,1.08,17.17H139.78q-1.51-4.59-1.51-20.31v-1.31q0-8-2.76-11.27C133.68,128.35,129.91,127.26,124.23,127.26ZM113.64,88.6v23.07h13.5q12.21,0,12.21-11.53T127.47,88.6Z"/><path class="cls-10" d="M163.64,143h15.23q1.84,8.52,10.59,8.51,7.77,0,7.77-6.68a5.82,5.82,0,0,0-2.16-4.85c-1.44-1.13-4.17-2.31-8.21-3.54q-12.74-3.8-17-8.84t-4.21-13A20.91,20.91,0,0,1,171.15,100q5.46-6,17.12-6t17.17,6.16a22.41,22.41,0,0,1,6.05,14.28H196.8q-1.52-7.2-9.18-7.21-6.81,0-6.8,5.77a4.79,4.79,0,0,0,2.1,4.12c1.41,1,4.3,2.17,8.7,3.48a57.52,57.52,0,0,1,11.17,4.32,17.93,17.93,0,0,1,9.45,11.47,28.81,28.81,0,0,1,.76,7.14A21,21,0,0,1,207,158.84q-6,6.16-18,6.16t-18.09-6Q164.72,153,163.64,143Z"/></g></g></svg>