<svg xmlns="http://www.w3.org/2000/svg" viewBox="0 0 317.15 297.33"><defs><style>.cls-1{fill:#5f5166;}.cls-2{fill:#45354d;}.cls-3{fill:#c6151d;}.cls-4{fill:#b00e0e;}.cls-5{fill:#f3f5f9;}.cls-6{fill:#dadee6;}</style></defs><title>Asset 112</title><g id="Layer_2" data-name="Layer 2"><g id="red"><path class="cls-1" d="M260.78,65a9.29,9.29,0,1,1-18.58,0,46.48,46.48,0,0,0-46.46-46.46H121.41A46.48,46.48,0,0,0,75,65a9.29,9.29,0,0,1-18.58,0,65.1,65.1,0,0,1,65-65h74.33a65.1,65.1,0,0,1,65,65Z"/><path class="cls-2" d="M260.78,65a9.29,9.29,0,1,1-18.58,0,46.48,46.48,0,0,0-46.46-46.46H158.58V0h37.16a65.1,65.1,0,0,1,65,65Z"/><path class="cls-3" d="M270.08,55.75H46.46A46.47,46.47,0,0,0,0,102.21V250.87a46.47,46.47,0,0,0,46.46,46.46H270.08c25.64,0,47.07-20.81,47.07-46.46V102.21c0-25.65-21.43-46.46-47.07-46.46Z"/><path class="cls-4" d="M317.15,102.21V250.87c0,25.65-21.43,46.46-47.07,46.46H158.58V55.75h111.5c25.64,0,47.07,20.81,47.07,46.46Z"/><path class="cls-5" d="M223.62,167.25v18.58a9.2,9.2,0,0,1-9.29,9.29H177.16v37.17a9.2,9.2,0,0,1-9.29,9.29H149.28a9.2,9.2,0,0,1-9.29-9.29V195.12H102.83a9.19,9.19,0,0,1-9.29-9.29V167.25a9.19,9.19,0,0,1,9.29-9.29H140V120.79a9.2,9.2,0,0,1,9.29-9.29h18.59a9.2,9.2,0,0,1,9.29,9.29V158h37.17a9.2,9.2,0,0,1,9.29,9.29Z"/><path class="cls-6" d="M223.62,167.25v18.58a9.2,9.2,0,0,1-9.29,9.29H177.16v37.17a9.2,9.2,0,0,1-9.29,9.29h-9.29V111.5h9.29a9.2,9.2,0,0,1,9.29,9.29V158h37.17a9.2,9.2,0,0,1,9.29,9.29Z"/></g></g></svg>