<svg xmlns="http://www.w3.org/2000/svg" viewBox="0 0 322 314"><defs><style>.cls-1{fill:#3d6dcc;}.cls-2{fill:#2196f3;}.cls-3{fill:#0c83fa;}.cls-4{fill:#80c7ef;}.cls-5{fill:#0d71c8;}</style></defs><title>Asset 136</title><g id="Layer_2" data-name="Layer 2"><g id="red"><polygon class="cls-1" points="322 99.01 161 314 0 99.01 74.11 0 247.9 0 322 99.01 322 99.01"/><polygon class="cls-1" points="322 99.01 161 314 161 0 247.9 0 322 99.01 322 99.01"/><polygon class="cls-2" points="322 99.01 0 99.01 74.11 0 247.9 0 322 99.01 322 99.01"/><polygon class="cls-3" points="161 0 100.79 99.01 0 99.01 74.11 0 161 0 161 0"/><polygon class="cls-4" points="322 99.01 221.21 99.01 161 0 247.9 0 322 99.01 322 99.01"/><polygon class="cls-3" points="221.21 99.01 161 314 100.79 99.01 221.21 99.01 221.21 99.01"/><polygon class="cls-5" points="221.21 99.01 161 314 161 99.01 221.21 99.01 221.21 99.01"/><polygon class="cls-2" points="322 99.01 161 99.01 161 0 247.9 0 322 99.01 322 99.01"/><polygon class="cls-3" points="322 99.01 221.21 99.01 161 0 247.9 0 322 99.01 322 99.01"/></g></g></svg>