<svg xmlns="http://www.w3.org/2000/svg" xmlns:xlink="http://www.w3.org/1999/xlink" viewBox="0 0 41.16 45.42"><defs><style>.cls-1{fill:url(#Red_Orange);}.cls-2{fill:#e9f1f2;}.cls-3{fill:url(#blue_befiler_Gradient_Swatch);}.cls-4{fill:#d0d8da;}.cls-5{fill:#e0e2e2;}.cls-6{fill:#cbd0d1;}.cls-7{fill:url(#Bluestone);}.cls-8{fill:url(#Bluestone-2);}.cls-9{fill:url(#Bluestone-3);}.cls-10{fill:url(#Bluestone-4);}.cls-11{fill:#fff;}.cls-12{fill:url(#linear-gradient);}.cls-13{fill:#bbbebf;}.cls-14{fill:url(#Bluestone-5);}.cls-15{fill:url(#Red_Orange-2);}.cls-16{fill:url(#Red_Orange-3);}.cls-17{fill:url(#Red_Orange-4);}.cls-18{fill:url(#Red_Orange-5);}.cls-19{fill:url(#Bluestone-6);}.cls-20{fill:url(#Bluestone-7);}.cls-21{fill:url(#linear-gradient-2);}.cls-22{fill:url(#linear-gradient-3);}.cls-23{fill:url(#linear-gradient-4);}.cls-24{fill:url(#linear-gradient-5);}.cls-25{fill:url(#linear-gradient-6);}.cls-26{fill:url(#linear-gradient-7);}.cls-27{fill:url(#linear-gradient-8);}.cls-28{fill:url(#linear-gradient-9);}.cls-29{fill:url(#linear-gradient-10);}.cls-30{fill:url(#linear-gradient-11);}</style><linearGradient id="Red_Orange" y1="26.06" x2="41.16" y2="26.06" gradientUnits="userSpaceOnUse"><stop offset="0" stop-color="#f37e5f"/><stop offset="0.5" stop-color="#ec1c24"/><stop offset="1" stop-color="#cf232a"/></linearGradient><linearGradient id="blue_befiler_Gradient_Swatch" y1="20.03" x2="20.58" y2="20.03" gradientUnits="userSpaceOnUse"><stop offset="0" stop-color="#3fa9f5"/><stop offset="0.58" stop-color="#0087ee"/><stop offset="1" stop-color="#0d71c8"/></linearGradient><linearGradient id="Bluestone" x1="23.18" y1="23.35" x2="24.58" y2="23.35" gradientUnits="userSpaceOnUse"><stop offset="0.01" stop-color="#375270"/><stop offset="0.09" stop-color="#445e7b"/><stop offset="0.24" stop-color="#556c88"/><stop offset="0.41" stop-color="#5f7490"/><stop offset="0.62" stop-color="#627793"/><stop offset="0.73" stop-color="#637996"/><stop offset="0.81" stop-color="#6780a0"/><stop offset="0.89" stop-color="#6e8cb1"/><stop offset="0.96" stop-color="#779cc9"/><stop offset="1" stop-color="#7da7d9"/></linearGradient><linearGradient id="Bluestone-2" x1="18.5" y1="23.35" x2="19.9" y2="23.35" xlink:href="#Bluestone"/><linearGradient id="Bluestone-3" x1="19.11" y1="20.57" x2="24.02" y2="20.57" xlink:href="#Bluestone"/><linearGradient id="Bluestone-4" x1="19.11" y1="20.57" x2="23.26" y2="20.57" xlink:href="#Bluestone"/><linearGradient id="linear-gradient" x1="19.04" y1="36.11" x2="26.07" y2="36.11" gradientUnits="userSpaceOnUse"><stop offset="0" stop-color="#97a4b7"/><stop offset="0.49" stop-color="#cdd0d2"/><stop offset="1" stop-color="#eceff1"/></linearGradient><linearGradient id="Bluestone-5" x1="13.75" y1="10.02" x2="15.08" y2="10.02" xlink:href="#Bluestone"/><linearGradient id="Red_Orange-2" x1="12.65" y1="2.28" x2="16.18" y2="2.28" xlink:href="#Red_Orange"/><linearGradient id="Red_Orange-3" x1="12.65" y1="2.28" x2="15.52" y2="2.28" xlink:href="#Red_Orange"/><linearGradient id="Red_Orange-4" x1="13.43" y1="3.28" x2="15.4" y2="3.28" xlink:href="#Red_Orange"/><linearGradient id="Red_Orange-5" x1="13.43" y1="3.28" x2="14.91" y2="3.28" xlink:href="#Red_Orange"/><linearGradient id="Bluestone-6" x1="11.83" y1="5.92" x2="17" y2="5.92" xlink:href="#Bluestone"/><linearGradient id="Bluestone-7" x1="11.83" y1="5.92" x2="15.14" y2="5.92" xlink:href="#Bluestone"/><linearGradient id="linear-gradient-2" x1="14.08" y1="26.65" x2="17.32" y2="26.65" xlink:href="#linear-gradient"/><linearGradient id="linear-gradient-3" x1="14.65" y1="33.46" x2="24.49" y2="33.46" xlink:href="#linear-gradient"/><linearGradient id="linear-gradient-4" x1="14.65" y1="37.17" x2="17.98" y2="37.17" xlink:href="#linear-gradient"/><linearGradient id="linear-gradient-5" x1="15.13" y1="30.36" x2="23.87" y2="30.36" xlink:href="#linear-gradient"/><linearGradient id="linear-gradient-6" x1="15.13" y1="32.94" x2="17.77" y2="32.94" xlink:href="#linear-gradient"/><linearGradient id="linear-gradient-7" x1="14.82" y1="35.46" x2="26.07" y2="35.46" xlink:href="#linear-gradient"/><linearGradient id="linear-gradient-8" x1="14.82" y1="41.24" x2="20.92" y2="41.24" xlink:href="#linear-gradient"/><linearGradient id="linear-gradient-9" x1="23.9" y1="36.05" x2="28.84" y2="36.05" xlink:href="#linear-gradient"/><linearGradient id="linear-gradient-10" x1="31.39" y1="37.79" x2="29.47" y2="30.11" xlink:href="#linear-gradient"/><linearGradient id="linear-gradient-11" x1="27.25" y1="33.56" x2="31.21" y2="33.56" xlink:href="#linear-gradient"/></defs><g id="Layer_2" data-name="Layer 2"><g id="Business"><path class="cls-1" d="M2.84,11.51a36.46,36.46,0,0,0,19,2l.3-.05,1.3-1.21L24.79,14l2.89.36,2.13.71,1.41-.71h.71v2.13l-1.42,2.13,1.07,2.14,1.75-1.42,1.44-2.14.71-2.84,2.13-.71.71-3.55,2.11.66,0,1.47.71.71v2.13l-1,2,.1,1.95-2,1.76-.71.71L39,24.29V25.7l-.71.71v1.42L36.9,29.25v1.42l-3.55,2.84,2.13,2.13.71,2.13,1.42,1.42v2.13l-2.84-.71-2.13-1.42-.71-2.84-2.12-1.42-1.42-1.42-2.84,2.84H22l-1.42,2.13,1.77,1.76L22.71,42H19.87L17,39.19l-2.84.71-1.42-3.55-3.54.71L7.1,36.35a45,45,0,0,0-2.84-4.26,22,22,0,0,1-2.13-3.55L1.42,25,0,22.16l1.42-2.84L.71,15.77l.71-2.13V11.51Z"/><path class="cls-2" d="M20.58,20H31.22l-.71-1.42.95-1.42H20.58Z"/><path class="cls-2" d="M33.33,19.33l-.86.7h6.64L40.28,19l-.09-1.79H34.77Z"/><path class="cls-2" d="M20.58,25.7H39V24.29l-.71-1.42H20.58Z"/><path class="cls-2" d="M2.13,28.54S3,30.29,3.72,31.38H36l.89-.71V29.25l.71-.71Z"/><path class="cls-2" d="M34.06,34.22h-5l.71.71,2.12,1.42.18.71H36l-.48-1.42Z"/><path class="cls-2" d="M25.55,36.35l2.13-2.13H5.77c.69,1.08,1.33,2.13,1.33,2.13l2.13.71,3.54-.71.29.71h8.47l.47-.71Z"/><path class="cls-3" d="M9.46,13.36h0L9,13.27l-.56-.11-.38-.09-.74-.17-.22-.05c-.69-.17-1.37-.36-2-.57l-.16,0L4,11.94l-.19-.06-1-.37H1.42v2.13L.71,15.77l.71,3.55L0,22.16,1.42,25l.71,3.54H20.58V13.64A36.36,36.36,0,0,1,9.46,13.36Z"/><path class="cls-2" d="M24,31.38H3.72C3,30.29,2.13,28.54,2.13,28.54H18.69A22.5,22.5,0,0,0,24,31.38Z"/><path class="cls-4" d="M4.26,15.06l.46.93,1,.15L5,16.87l.18,1-.92-.49-.92.49.17-1-.74-.73,1-.15Z"/><path class="cls-4" d="M8.52,15.06,9,16l1,.15-.75.73.18,1-.92-.49-.93.49.18-1L7,16.14l1-.15Z"/><path class="cls-2" d="M12.77,15.06l.46.93,1,.15-.75.73.18,1-.93-.49-.92.49.18-1-.75-.73,1-.15Z"/><path class="cls-2" d="M17,15.06l.46.93,1,.15-.74.73.17,1L17,17.41l-.92.49.18-1-.75-.73,1-.15Z"/><path class="cls-4" d="M4.26,19.32l.46.93,1,.15L5,21.13l.18,1-.92-.49-.92.49.17-1-.74-.73,1-.15Z"/><path class="cls-4" d="M8.52,19.32l.46.93,1,.15-.75.73.18,1-.92-.49-.93.49.18-1L7,20.4l1-.15Z"/><path class="cls-2" d="M12.77,19.32l.46.93,1,.15-.75.73.18,1-.93-.49-.92.49.18-1-.75-.73,1-.15Z"/><path class="cls-2" d="M17,19.32l.46.93,1,.15-.74.73.17,1L17,21.67l-.92.49.18-1-.75-.73,1-.15Z"/><path class="cls-4" d="M4.26,23.58l.46.93,1,.15L5,25.39l.18,1-.92-.48-.92.48.17-1-.74-.73,1-.15Z"/><path class="cls-4" d="M8.52,23.58l.46.93,1,.15-.75.73.18,1-.92-.48-.93.48.18-1L7,24.66l1-.15Z"/><path class="cls-4" d="M12.77,23.58l.46.93,1,.15-.75.73.18,1-.93-.48-.92.48.18-1-.75-.73,1-.15Z"/><path class="cls-2" d="M17,23.58l.46.93,1,.15-.74.73.17,1L17,25.93l-.92.48.18-1-.75-.73,1-.15Z"/><path class="cls-4" d="M11.85,22.16l.64-.34q-.44-.72-.81-1.47l-.4,0,.75.73Z"/><path class="cls-5" d="M22.59,25.4a3.15,3.15,0,0,1,.39,0L22.89,23a2.09,2.09,0,0,1-1.17.85l-.16,0-.15,0a2.1,2.1,0,0,1-1.14-.8l0-.05-.13,1.24Z"/><path class="cls-6" d="M22.11,23.72a2.26,2.26,0,0,1-.39.15l-.16,0-.15,0a2.1,2.1,0,0,1-1.14-.8l0-.05-.13,1.24,1.85.85Z"/><path class="cls-7" d="M23.58,20.86c.35,0,.76,1,.93,2.41s0,2.52-.33,2.56-.76-1-.93-2.41,0-2.51.33-2.56Z"/><path class="cls-8" d="M18.9,25.83c-.35,0-.49-1.19-.33-2.56s.58-2.45.93-2.41.5,1.19.33,2.56-.58,2.45-.93,2.41Z"/><path class="cls-9" d="M24,20.57A2.46,2.46,0,1,1,21.56,18,2.52,2.52,0,0,1,24,20.57Z"/><path class="cls-10" d="M20.82,19.85A2.62,2.62,0,0,1,21.58,18h0a2.58,2.58,0,0,0,0,5.15,2.4,2.4,0,0,0,1.7-.71,2.52,2.52,0,0,1-2.44-2.58Z"/><path class="cls-6" d="M18.89,19.1l.11.34a.06.06,0,0,1-.06.09l-1.73.2a0,0,0,0,1,0-.06Z"/><path class="cls-5" d="M24.24,19.1l-.11.34a.06.06,0,0,0,.06.09l1.73.2s0,0,0-.06Z"/><path class="cls-6" d="M22.17,17.79a3.76,3.76,0,0,0-.61,0,3.66,3.66,0,0,0-.6,0A2.4,2.4,0,0,0,19.16,19a1.55,1.55,0,0,0-.13.72l.15.26a2.24,2.24,0,0,1,2.38-1.82A2.24,2.24,0,0,1,23.94,20l.15-.26A1.15,1.15,0,0,0,24,19a2.42,2.42,0,0,0-1.8-1.21Z"/><path class="cls-11" d="M19,19.64c0-1,1.13-1.89,2.53-1.89s2.54.85,2.54,1.89a.25.25,0,0,1,0,.08,1.56,1.56,0,0,0,.15-.67C24.24,17.9,23,17,21.56,17a2.43,2.43,0,0,0-2.67,2.07,1.71,1.71,0,0,0,.14.67v-.08Z"/><path class="cls-5" d="M21.52,14.41,21,17l.49.24a.21.21,0,0,0,.19,0l.49-.24-.54-2.62a0,0,0,0,0-.09,0Z"/><path class="cls-5" d="M22.85,17.23l.26.46a.1.1,0,0,0,.16,0L25.22,16s0-.09,0-.07Z"/><path class="cls-5" d="M23.94,18.1l.1.51a.1.1,0,0,0,.14.08l2.4-1a0,0,0,0,0,0-.08Z"/><path class="cls-6" d="M20.27,17.23l-.25.46a.1.1,0,0,1-.16,0L17.91,16s0-.09.05-.07Z"/><path class="cls-6" d="M19.18,18.1l-.09.51a.1.1,0,0,1-.15.08l-2.39-1a0,0,0,0,1,0-.08Z"/><path class="cls-11" d="M21.83,19.23l-.08-.07a.23.23,0,0,0-.29,0l-.13.1a5.91,5.91,0,0,1-1.54,1.43.26.26,0,0,0-.1.19v.88a2.12,2.12,0,0,0,.08.57,2,2,0,0,0,.21.53,2,2,0,0,0,.2.3,2.35,2.35,0,0,0,1.23.81l.15,0,.16,0a2.3,2.3,0,0,0,1.34-1l.09-.15a3.73,3.73,0,0,0,.16-.35,2.32,2.32,0,0,0,.13-.75v-.88a.24.24,0,0,0-.11-.19,5.27,5.27,0,0,1-1.46-1.4l0-.05Z"/><path class="cls-5" d="M21.3,23.15a3.21,3.21,0,0,1-.21-.3,2,2,0,0,1-.2-.53,2.12,2.12,0,0,1-.08-.57v-1.9a6.35,6.35,0,0,1-1,.83.26.26,0,0,0-.1.19v.88a2.12,2.12,0,0,0,.08.57,2,2,0,0,0,.21.53,2,2,0,0,0,.2.3,2.35,2.35,0,0,0,1.23.81l.15,0,.16,0a2.37,2.37,0,0,0,.4-.15,2.28,2.28,0,0,1-.82-.66Z"/><path class="cls-5" d="M33.25,34v0a.34.34,0,0,1-.31.35l-1.45.08a.32.32,0,0,1-.34-.31v0a.32.32,0,0,1,.31-.34l1.45-.09a.33.33,0,0,1,.35.31Z"/><path class="cls-12" d="M21.66,45.42A22.9,22.9,0,0,0,26.07,45V26.79L19,45.27a25.09,25.09,0,0,0,2.62.15Z"/><path class="cls-13" d="M14.16,22.38s.13-2.2,2.95-3.85a4.56,4.56,0,0,1-2.95,3.85Z"/><path class="cls-5" d="M14.62,8.9a.28.28,0,0,1-.4,0l-1-.88a.28.28,0,0,1,0-.4.28.28,0,0,1,.39,0l1,.88a.28.28,0,0,1,0,.4Z"/><path class="cls-14" d="M13.75,7.64v4.11a.67.67,0,0,0,1.33,0V7.64Z"/><path class="cls-5" d="M14.41,6.71H12.47l1.28.93h1.33l1.27-.93Z"/><path class="cls-5" d="M15.78,12.41a2.65,2.65,0,0,1,0-1.22,3.38,3.38,0,0,0,.07-.75,1.53,1.53,0,0,0-.28-.87c-.32-.45-.87-.91-1-.6s.47,1.33.47,1.33v1.47h0a.67.67,0,0,1-.67.64.69.69,0,0,1-.42-.15,2.12,2.12,0,0,0,.42,1.12L15.26,22l2.08-2.42Z"/><path class="cls-6" d="M15.12,20.54,15.26,22l2.08-2.42-.23-1.06a6.49,6.49,0,0,1-2,2Z"/><path class="cls-5" d="M14.79,9.8a.28.28,0,0,1-.39,0l-1-.88a.28.28,0,0,1,0-.4.29.29,0,0,1,.4,0l1,.88a.29.29,0,0,1,0,.4Z"/><path class="cls-5" d="M14.73,10.48a.28.28,0,0,1-.4,0l-1-.89a.28.28,0,0,1,0-.39.27.27,0,0,1,.39,0l1,.89a.27.27,0,0,1,0,.39Z"/><path class="cls-5" d="M14.63,11.15a.27.27,0,0,1-.39,0l-1-.88a.28.28,0,0,1,.37-.42l1,.88a.29.29,0,0,1,0,.4Z"/><path class="cls-15" d="M13.14,4.56a2.14,2.14,0,0,1-.49-1.36c0-1.37,1.34-1.85,1.57-3.06,0-.14.27-.19.39-.08.74.69,2.33,2.5,1.15,4.5Z"/><path class="cls-16" d="M15.52,1.12A6.59,6.59,0,0,0,14.61.06c-.12-.11-.36-.06-.39.08C14,1.35,12.65,1.83,12.65,3.2a2.14,2.14,0,0,0,.49,1.36h1.77a2.12,2.12,0,0,1-.5-1.36c0-.94.63-1.46,1.11-2.08Z"/><path class="cls-17" d="M13.7,4.56a1.22,1.22,0,0,1-.27-.76c0-.77.74-1,.88-1.71,0-.08.15-.11.21,0a2.06,2.06,0,0,1,.65,2.52Z"/><path class="cls-18" d="M14.69,2.21c-.06-.07-.12-.12-.17-.17s-.2,0-.21,0c-.14.67-.88.94-.88,1.71a1.22,1.22,0,0,0,.27.76h1.21a2.12,2.12,0,0,1-.5-1.36,1.86,1.86,0,0,1,.28-1Z"/><path class="cls-5" d="M15.76,5.79H13.07a.66.66,0,1,1,0-1.32h2.69a.66.66,0,0,1,0,1.32Z"/><path class="cls-19" d="M16.21,5.13H12.62a.79.79,0,1,0,0,1.58h3.59a.79.79,0,0,0,0-1.58Z"/><path class="cls-20" d="M14.35,5.92a.79.79,0,0,1,.79-.79H12.62a.79.79,0,1,0,0,1.58h2.52a.79.79,0,0,1-.79-.79Z"/><path class="cls-11" d="M17.11,18.53a4.89,4.89,0,0,1-2.83,3.7.35.35,0,0,0-.18.43,29.26,29.26,0,0,1,1.56,9.26l7-6.7-3.28-1.5a.93.93,0,0,1-.51-.54Z"/><path class="cls-21" d="M15.54,21.38a5.54,5.54,0,0,1-1.26.85.35.35,0,0,0-.18.43,29.26,29.26,0,0,1,1.56,9.26l1.66-1.58a35.6,35.6,0,0,0-1.78-9Z"/><path class="cls-22" d="M15.44,35.54l-.45.62a1.77,1.77,0,0,0-.3,1.45l.94,4,8.86-16.13a5.38,5.38,0,0,0-.62-.23Z"/><path class="cls-23" d="M17.77,32.7l-2.33,2.84-.45.62a1.77,1.77,0,0,0-.3,1.45l.94,4L18,37.39c0-.2,0-.31,0-.31-1.09-2.94-.21-4.37-.21-4.38Z"/><path class="cls-24" d="M22.68,25.22l-7,6.7a4.28,4.28,0,0,0-.22,3.62l8.43-10.26a2.16,2.16,0,0,0-1.19-.06Z"/><path class="cls-25" d="M17.32,30.34l-1.66,1.58a4.28,4.28,0,0,0-.22,3.62l2.33-2.84a3.51,3.51,0,0,1-.45-2.36Z"/><path class="cls-26" d="M24.49,25.51,15.31,41.83a3.8,3.8,0,0,0-.44,2.45v.11a22.4,22.4,0,0,0,6,1c4.67-10.61,5.15-18.61,5.15-18.61a2.58,2.58,0,0,0-1.58-1.28Z"/><path class="cls-27" d="M18,37.08l-2.67,4.75a3.8,3.8,0,0,0-.44,2.45v.11a22.4,22.4,0,0,0,6,1C17.57,42.05,18,37.08,18,37.08Z"/><path class="cls-28" d="M26.07,26.79,23.9,45.31a23.08,23.08,0,0,0,4.94-1.05Z"/><path class="cls-11" d="M26.07,26.79l1.11,3.12a1.62,1.62,0,0,0,.52.74l1,.84-1.46,2.72Z"/><path class="cls-11" d="M31.61,36s-1.93,7.1-3.47,3.81l-.44-2.77Z"/><path class="cls-6" d="M31.61,36l-3,.79a7.63,7.63,0,0,0,.61,3.84c1.22-.48,2.35-4.63,2.35-4.63Z"/><path class="cls-13" d="M29.73,36.53l-1.08.29a7.63,7.63,0,0,0,.61,3.84h0a14.56,14.56,0,0,1,.45-4.12Z"/><path class="cls-29" d="M29.35,30.3l-2.1,3.91.45,2.86,1.81.89a.84.84,0,0,0,1.22-.29l2.69-4.86a.84.84,0,0,0-.24-1.08L30,30.15a.47.47,0,0,0-.69.15Z"/><path class="cls-30" d="M31,31a.78.78,0,0,1,.26-.28L30,30.15a.47.47,0,0,0-.69.15l-2.1,3.91.45,2.85Z"/><path class="cls-5" d="M32.81,35.24a.34.34,0,0,0-.09-.48l-.93-.67a.35.35,0,0,0-.48.08.34.34,0,0,0,.08.49l.19.13.74.53a.35.35,0,0,0,.49-.08Z"/><path class="cls-5" d="M32.63,35.54l-.07,0-1.16-.82a.34.34,0,0,0-.48.08.35.35,0,0,0,.08.48l.07.06,1.16.82a.34.34,0,0,0,.48-.09.35.35,0,0,0-.08-.48Z"/><path class="cls-5" d="M32.31,36.59a.35.35,0,0,1-.49.08l-1.15-.82a.35.35,0,0,1-.08-.48.33.33,0,0,1,.48-.08l1.16.82a.35.35,0,0,1,.08.48Z"/><path class="cls-5" d="M31.83,37.1a.35.35,0,0,0-.08-.48L30.81,36a.35.35,0,1,0-.41.56l.38.27.57.41a.34.34,0,0,0,.48-.09Z"/><path class="cls-6" d="M21.57,14.37s-.05,0-.05,0L21,17l.49.24a.18.18,0,0,0,.1,0Z"/></g></g></svg>