<svg xmlns="http://www.w3.org/2000/svg" xmlns:xlink="http://www.w3.org/1999/xlink" width="144.297" height="144.445" viewBox="0 0 144.297 144.445">
  <defs>
    <linearGradient id="linear-gradient" x1="0.865" y1="0.891" x2="0.042" y2="0.014" gradientUnits="objectBoundingBox">
      <stop offset="0" stop-color="#f37e5f"/>
      <stop offset="0.5" stop-color="#ec1c24"/>
      <stop offset="1" stop-color="#cf232a"/>
    </linearGradient>
    <linearGradient id="linear-gradient-2" y1="0.5" x2="1.001" y2="0.5" gradientUnits="objectBoundingBox">
      <stop offset="0" stop-color="#3fa9f5"/>
      <stop offset="0.58" stop-color="#0087ee"/>
      <stop offset="1" stop-color="#0d71c8"/>
    </linearGradient>
  </defs>
  <g id="Group_393" data-name="Group 393" transform="translate(-15576.008 -19002.666)">
    <path id="Path_5676" data-name="Path 5676" d="M79.382,144.715H9.637A11.579,11.579,0,0,1,0,135.1V10.06A11.5,11.5,0,0,1,7.106,1.044,9.955,9.955,0,0,1,11.357.308Q57.735.276,104.05.27c7.036,0,11.737,6.11,11.833,11.934.057,3.058,0,6.11,0,9.168V64.94c0,3.172-.108,3.286-3.286,3.293H96.671c-11.1,0-19.262,8.184-19.262,19.294v46.727a20.588,20.588,0,0,0,1.656,8.483C79.357,143.351,79.82,143.973,79.382,144.715Z" transform="translate(15576.009 19002.396)" fill="url(#linear-gradient)"/>
    <path id="Path_5678" data-name="Path 5678" d="M144.012,189.128c-.279-.514-.844-.444-1.269-.634a9.631,9.631,0,0,1-6.224-8.914q-.038-24.109,0-48.218a9.517,9.517,0,0,1,9.517-9.568q19.313-.057,38.613,0a9.517,9.517,0,0,1,9.517,9.568q.057,24.109,0,48.218a9.364,9.364,0,0,1-7.823,9.263c-.1,0-.184.178-.279.273Z" transform="translate(15526.111 18957.984)" fill="url(#linear-gradient-2)"/>
    <path id="Path_5680" data-name="Path 5680" d="M38.906,132.456a3.305,3.305,0,0,1-.983,2.443c-2.138,2.144-4.257,4.3-6.421,6.414a3.172,3.172,0,0,1-4.6-.038c-1.066-1.028-2.113-2.068-3.134-3.134a3.172,3.172,0,0,1-.044-4.6,3.121,3.121,0,0,1,4.581.076c.723.761,1.136.78,1.834,0,1.04-1.18,2.189-2.278,3.337-3.356a3.033,3.033,0,0,1,3.458-.634A3.115,3.115,0,0,1,38.906,132.456Z" transform="translate(15567.689 18955.215)" fill="#fefefe"/>
    <path id="Path_5681" data-name="Path 5681" d="M29.206,167.687a3.21,3.21,0,0,1-2.252-.964c-1.072-1.066-2.157-2.119-3.172-3.21a3.172,3.172,0,0,1,0-4.53,3.1,3.1,0,0,1,4.574,0c.774.825,1.193.8,1.9,0,.971-1.117,2.062-2.119,3.121-3.172a3.223,3.223,0,1,1,4.581,4.524c-2.1,2.132-4.225,4.238-6.345,6.345A3.248,3.248,0,0,1,29.206,167.687Z" transform="translate(15567.663 18945.932)" fill="#fefefe"/>
    <path id="Path_5682" data-name="Path 5682" d="M64.145,140.913H58.822c-3.172-.044-5.57-1.478-5.532-3.274s2.417-3.172,5.52-3.172q5.494-.044,11,0c3.172,0,5.577,1.478,5.532,3.261s-2.43,3.134-5.52,3.172C67.927,140.932,66.036,140.913,64.145,140.913Z" transform="translate(15556.528 18953.35)" fill="#fefefe"/>
    <path id="Path_5683" data-name="Path 5683" d="M64.31,159.884h5.5c3.09.038,5.482,1.428,5.526,3.172S72.97,166.3,69.8,166.323q-5.494.044-11,0c-3.172,0-5.564-1.478-5.52-3.274s2.417-3.128,5.526-3.172C60.649,159.865,62.483,159.884,64.31,159.884Z" transform="translate(15556.528 18944.053)" fill="#fefefe"/>
    <path id="Path_5684" data-name="Path 5684" d="M173.832,144.557h9.149a4.816,4.816,0,1,1-.025,9.612h-18.6a4.816,4.816,0,1,1,.025-9.612C167.526,144.544,170.679,144.557,173.832,144.557Z" transform="translate(15517.799 18949.654)" fill="#fefefe"/>
    <path id="Path_5685" data-name="Path 5685" d="M168.858,172.065a4.809,4.809,0,1,1-4.777-4.765A4.809,4.809,0,0,1,168.858,172.065Z" transform="translate(15517.799 18941.338)" fill="#fefefe"/>
    <path id="Path_5686" data-name="Path 5686" d="M199.188,172.039a4.809,4.809,0,1,1-4.809-4.739A4.809,4.809,0,0,1,199.188,172.039Z" transform="translate(15506.711 18941.338)" fill="#fefefe"/>
    <path id="Path_5687" data-name="Path 5687" d="M168.859,194.773a4.809,4.809,0,1,1-4.809-4.733,4.809,4.809,0,0,1,4.809,4.733Z" transform="translate(15517.798 18933.025)" fill="#fefefe"/>
    <path id="Path_5688" data-name="Path 5688" d="M199.188,194.786a4.809,4.809,0,1,1-4.8-4.746,4.809,4.809,0,0,1,4.8,4.746Z" transform="translate(15506.711 18933.025)" fill="#fefefe"/>
    <text id="List" transform="translate(15606.507 19040.945)" fill="#fff" font-size="31" font-family="SegoeUI, Segoe UI"><tspan x="0" y="0">List</tspan></text>
  </g>
</svg>
