<svg xmlns="http://www.w3.org/2000/svg" xmlns:xlink="http://www.w3.org/1999/xlink" width="44.081" height="52.236" viewBox="0 0 44.081 52.236">
  <defs>
    <linearGradient id="linear-gradient" y1="0.499" x2="1" y2="0.499" gradientUnits="objectBoundingBox">
      <stop offset="0.01" stop-color="#375270"/>
      <stop offset="0.09" stop-color="#445e7b"/>
      <stop offset="0.24" stop-color="#556c88"/>
      <stop offset="0.41" stop-color="#5f7490"/>
      <stop offset="0.62" stop-color="#627793"/>
      <stop offset="0.73" stop-color="#637996"/>
      <stop offset="0.81" stop-color="#6780a0"/>
      <stop offset="0.89" stop-color="#6e8cb1"/>
      <stop offset="0.96" stop-color="#779cc9"/>
      <stop offset="1" stop-color="#7da7d9"/>
    </linearGradient>
    <linearGradient id="linear-gradient-2" y1="0.498" x2="1" y2="0.498" gradientUnits="objectBoundingBox">
      <stop offset="0.01" stop-color="#8a8e9a"/>
      <stop offset="0.02" stop-color="#8c909c"/>
      <stop offset="0.19" stop-color="#9ea2af"/>
      <stop offset="0.36" stop-color="#a8adbb"/>
      <stop offset="0.53" stop-color="#acb1bf"/>
      <stop offset="0.69" stop-color="#b0b5c2"/>
      <stop offset="0.84" stop-color="#bbc0cc"/>
      <stop offset="0.98" stop-color="#cfd2dd"/>
      <stop offset="1" stop-color="#d2d5e0"/>
    </linearGradient>
  </defs>
  <g id="Group_433" data-name="Group 433" transform="translate(-15915 -18415)">
    <path id="Path_4975" data-name="Path 4975" d="M27.782,3.683A12.157,12.157,0,0,0,18.9,0h0A12.143,12.143,0,0,0,10,3.683,12.171,12.171,0,0,0,6.321,12.65,12.171,12.171,0,0,0,10,21.546a12.143,12.143,0,0,0,8.883,3.682h0a12.157,12.157,0,0,0,8.883-3.682,12.171,12.171,0,0,0,3.7-8.9A12.171,12.171,0,0,0,27.782,3.683Z" transform="translate(15917.57 18415.002)" fill="url(#linear-gradient)"/>
    <path id="Subtraction_83" data-name="Subtraction 83" d="M8.834,26.939A9.212,9.212,0,0,1,2.58,24.5,8.671,8.671,0,0,1,.008,17.95c0-1.077,0-2.094.057-3.021a31.5,31.5,0,0,1,.436-3.3,26.869,26.869,0,0,1,.8-3.317A16.7,16.7,0,0,1,2.707,5.217,11.429,11.429,0,0,1,4.773,2.533,9.051,9.051,0,0,1,7.725.678,10.161,10.161,0,0,1,11.377,0h.114a3.741,3.741,0,0,1,1.925.871L15.553,2.28A12.88,12.88,0,0,0,18.364,3.5a10.985,10.985,0,0,0,3.036.534h.337A11.252,11.252,0,0,0,25.11,3.5,12.866,12.866,0,0,0,27.921,2.28L30.044.874A3.747,3.747,0,0,1,32.1,0l.247,0A10.225,10.225,0,0,1,35.82.607a9.2,9.2,0,0,1,2.951,1.855,11.809,11.809,0,0,1,2.066,2.685,16.763,16.763,0,0,1,.88,1.731A12.5,12.5,0,0,0,27.032,26.932H9.214C9.088,26.937,8.96,26.939,8.834,26.939Z" transform="translate(15915 18440.297)" fill="url(#linear-gradient-2)"/>
    <circle id="Ellipse_133" data-name="Ellipse 133" cx="8.618" cy="8.618" r="8.618" transform="translate(15941.845 18449.383)" fill="url(#linear-gradient-2)"/>
    <rect id="Rectangle_839" data-name="Rectangle 839" width="12" height="4" rx="2" transform="translate(15945 18456)" fill="url(#linear-gradient)"/>
  </g>
</svg>
