<svg xmlns="http://www.w3.org/2000/svg" xmlns:xlink="http://www.w3.org/1999/xlink" viewBox="0 0 40.25 37.14"><defs><style>.cls-1{fill:#bdccd4;}.cls-2{fill:url(#blue_befiler_Gradient_Swatch);}.cls-3{fill:url(#Red_Orange);}.cls-4{fill:url(#Red_Orange-2);}</style><linearGradient id="blue_befiler_Gradient_Swatch" y1="18.69" x2="40.25" y2="18.69" gradientUnits="userSpaceOnUse"><stop offset="0" stop-color="#3fa9f5"/><stop offset="0.58" stop-color="#0087ee"/><stop offset="1" stop-color="#0d71c8"/></linearGradient><linearGradient id="Red_Orange" x1="12.43" y1="13.94" x2="27.16" y2="13.94" gradientUnits="userSpaceOnUse"><stop offset="0" stop-color="#f37e5f"/><stop offset="0.5" stop-color="#ec1c24"/><stop offset="1" stop-color="#cf232a"/></linearGradient><linearGradient id="Red_Orange-2" x1="7.24" y1="29.24" x2="32.74" y2="29.24" xlink:href="#Red_Orange"/></defs><g id="Layer_2" data-name="Layer 2"><g id="HOME_2" data-name="HOME 2"><path class="cls-1" d="M10.21.53h0A5.83,5.83,0,0,0,6,2.29,5.78,5.78,0,0,0,4.22,6.52,5.82,5.82,0,0,0,6,10.75,5.82,5.82,0,0,0,10.2,12.5h0a5.82,5.82,0,0,0,4.23-1.75,5.82,5.82,0,0,0,1.75-4.23,5.78,5.78,0,0,0-1.75-4.23A5.79,5.79,0,0,0,10.21.53Z"/><path class="cls-1" d="M34,1.75A5.82,5.82,0,0,0,29.73,0h0A5.78,5.78,0,0,0,25.5,1.75,5.79,5.79,0,0,0,23.74,6a5.75,5.75,0,0,0,1.76,4.23A5.83,5.83,0,0,0,29.72,12h0A5.79,5.79,0,0,0,34,10.21,5.78,5.78,0,0,0,35.71,6,5.82,5.82,0,0,0,34,1.75Z"/><path class="cls-2" d="M40.2,19.1c0-.48-.11-1-.21-1.57A13.55,13.55,0,0,0,39.61,16,7.94,7.94,0,0,0,39,14.48a5.5,5.5,0,0,0-1-1.27,4.36,4.36,0,0,0-1.4-.89,5,5,0,0,0-1.8-.32,1.79,1.79,0,0,0-1,.41l-1,.65a5.6,5.6,0,0,1-1.31.58,5.31,5.31,0,0,1-1.61.26h-.16a5.21,5.21,0,0,1-1.44-.26A5.6,5.6,0,0,1,27,13.06l-1-.65A1.82,1.82,0,0,0,25,12a5,5,0,0,0-1.79.32,4.25,4.25,0,0,0-1.4.89,5.5,5.5,0,0,0-1,1.27A7.94,7.94,0,0,0,20.16,16c0,.14-.07.3-.11.44A8.31,8.31,0,0,0,19.44,15a5.35,5.35,0,0,0-1-1.28,4.22,4.22,0,0,0-1.41-.88,4.71,4.71,0,0,0-1.79-.33,1.83,1.83,0,0,0-1,.42l-1,.65a5.64,5.64,0,0,1-1.31.58,5.25,5.25,0,0,1-1.6.26H10.2a5.19,5.19,0,0,1-1.44-.25,5.64,5.64,0,0,1-1.31-.58l-1-.65a1.8,1.8,0,0,0-1-.42,4.75,4.75,0,0,0-1.79.33,4.22,4.22,0,0,0-1.41.88,5.32,5.32,0,0,0-1,1.28,7.66,7.66,0,0,0-.65,1.47,11.06,11.06,0,0,0-.39,1.58,13.5,13.5,0,0,0-.2,1.57c0,.47,0,1,0,1.46a4.09,4.09,0,0,0,1.23,3.12,4.36,4.36,0,0,0,3.15,1.15h12a4.39,4.39,0,0,0,3.16-1.15,3.6,3.6,0,0,0,.77-1.09,4.29,4.29,0,0,0,.48.56,4.41,4.41,0,0,0,3.15,1.15h12A4.42,4.42,0,0,0,39,23.69a4.16,4.16,0,0,0,1.23-3.12C40.25,20.07,40.23,19.57,40.2,19.1Z"/><path class="cls-3" d="M26.61,11.12a6.84,6.84,0,0,0-.67-1.25A7.14,7.14,0,0,0,25,8.74a6.17,6.17,0,0,0-.57-.47,7.07,7.07,0,0,0-4.64-1.69h0a7.12,7.12,0,0,0-5.2,2.16,7.12,7.12,0,0,0-2.16,5.2,7.16,7.16,0,0,0,2.16,5.21,7.11,7.11,0,0,0,5.2,2.15h0a7.32,7.32,0,0,0,2.83-.54,7.19,7.19,0,0,0,1.25-.67A8.94,8.94,0,0,0,25,19.15,7.69,7.69,0,0,0,25.94,18a6.76,6.76,0,0,0,.67-1.24,7.53,7.53,0,0,0,0-5.65Z"/><path class="cls-4" d="M32.7,31c0-.3,0-.61,0-.9a18.78,18.78,0,0,0-.24-1.93A16.67,16.67,0,0,0,32,26.21a9.69,9.69,0,0,0-.8-1.81A6.65,6.65,0,0,0,30,22.83a5.37,5.37,0,0,0-1.73-1.09,5.77,5.77,0,0,0-1.63-.35c-.19,0-.38-.05-.58-.05h0l-.23,0a1.84,1.84,0,0,0-.57.24l-.39.24-.58.38-.67.42a5.66,5.66,0,0,1-.7.37,7.91,7.91,0,0,1-.91.34,6.2,6.2,0,0,1-2,.32h-.2A6.55,6.55,0,0,1,18,23.36a6.64,6.64,0,0,1-1.61-.71l-1.25-.8A2.23,2.23,0,0,0,14,21.34a6.07,6.07,0,0,0-2.21.4A5.37,5.37,0,0,0,10,22.83a6.65,6.65,0,0,0-1.2,1.57A9.69,9.69,0,0,0,8,26.21a14.89,14.89,0,0,0-.47,1.94,16,16,0,0,0-.25,1.93c0,.58-.06,1.19-.06,1.81a5.06,5.06,0,0,0,1.51,3.83,5.36,5.36,0,0,0,3.88,1.42H27.34a5.4,5.4,0,0,0,3.89-1.42,4.4,4.4,0,0,0,.66-.77,5.48,5.48,0,0,0,.47-.9,5.93,5.93,0,0,0,.38-2.16C32.74,31.58,32.71,31.28,32.7,31Z"/></g></g></svg>