<svg xmlns="http://www.w3.org/2000/svg" xmlns:xlink="http://www.w3.org/1999/xlink" viewBox="0 0 40.37 40.37"><defs><style>.cls-1,.cls-3{fill-rule:evenodd;}.cls-1{fill:url(#blue_befiler_Gradient_Swatch);}.cls-2{fill:url(#blue_befiler_Gradient_Swatch-2);}.cls-3{fill:url(#Red_Orange);}</style><linearGradient id="blue_befiler_Gradient_Swatch" x1="27.39" y1="24.92" x2="31.72" y2="24.92" gradientUnits="userSpaceOnUse"><stop offset="0" stop-color="#3fa9f5"/><stop offset="0.58" stop-color="#0087ee"/><stop offset="1" stop-color="#0d71c8"/></linearGradient><linearGradient id="blue_befiler_Gradient_Swatch-2" x1="27.39" y1="37.49" x2="31.72" y2="37.49" xlink:href="#blue_befiler_Gradient_Swatch"/><linearGradient id="Red_Orange" y1="20.19" x2="40.37" y2="20.19" gradientUnits="userSpaceOnUse"><stop offset="0" stop-color="#f37e5f"/><stop offset="0.5" stop-color="#ec1c24"/><stop offset="1" stop-color="#cf232a"/></linearGradient></defs><g id="Layer_2" data-name="Layer 2"><g id="Business"><path class="cls-1" d="M31.38,20.31a1.55,1.55,0,0,1,.34.92V31.72H27.39V21.23a1.44,1.44,0,0,1,.37-.92l1.82-2.19Z"/><rect class="cls-2" x="27.39" y="34.61" width="4.33" height="5.77"/><path class="cls-3" d="M38.67,1.69A5.75,5.75,0,0,0,34.61,0H5.77A5.77,5.77,0,0,0,0,5.77V34.61a5.76,5.76,0,0,0,5.77,5.76H24.51V21.23a4.4,4.4,0,0,1,1-2.79l2.94-3.52a1.48,1.48,0,0,1,1.1-.48,1.51,1.51,0,0,1,1.11.48l2.94,3.54a4.34,4.34,0,0,1,1,2.76V40.37a5.77,5.77,0,0,0,5.76-5.76V5.77a5.83,5.83,0,0,0-1.7-4.08ZM13,5.77a1.44,1.44,0,1,1-.55,2.76,1.43,1.43,0,0,1-.89-1.33A1.44,1.44,0,0,1,13,5.77Zm-5.76,0a1.42,1.42,0,0,1,1.32.89A1.44,1.44,0,0,1,6.65,8.53,1.44,1.44,0,0,1,7.2,5.77ZM5.77,14.42H13v2.89H5.77ZM20.19,34.61H5.77V31.72H20.19Zm0-5.77H5.77V26H20.19Zm0-5.77H5.77V20.19H20.19Z"/></g></g></svg>