<svg id="Layer_2" data-name="Layer 2" xmlns="http://www.w3.org/2000/svg" xmlns:xlink="http://www.w3.org/1999/xlink" width="131.629" height="144.445" viewBox="0 0 131.629 144.445">
  <defs>
    <linearGradient id="linear-gradient" x1="0.519" y1="-0.014" x2="0.482" y2="1.02" gradientUnits="objectBoundingBox">
      <stop offset="0" stop-color="#3fa9f5"/>
      <stop offset="0.58" stop-color="#0087ee"/>
      <stop offset="1" stop-color="#0d71c8"/>
    </linearGradient>
    <linearGradient id="linear-gradient-2" x1="0.587" y1="0.992" x2="0.413" y2="0.006" gradientUnits="objectBoundingBox">
      <stop offset="0" stop-color="#f37e5f"/>
      <stop offset="0.5" stop-color="#ec1c24"/>
      <stop offset="1" stop-color="#cf232a"/>
    </linearGradient>
  </defs>
  <g id="red" transform="translate(0)">
    <g id="nS7TtK.tif">
      <path id="Path_5671" data-name="Path 5671" d="M.195,182.991a32.841,32.841,0,0,0,.455-3.84c1.47-10.855,7.615-16.71,16.57-19.64,7.3-2.385,14.81-3.245,22.35-3.735a442.977,442.977,0,0,1,47.86-.28c9.085.39,18.165,1.105,26.96,4.03,4.61,1.535,8.89,3.77,12.095,8,3.29,4.34,4.355,9.58,4.87,15.055a6.253,6.253,0,0,0,0,1l.24,1.84a33.57,33.57,0,0,0,.035,6.3l-.045,2c-.28,1.885-.17,3.81-.525,5.7-1.55,8.215-5.865,13.78-12.77,16.935a57.863,57.863,0,0,1-16.25,4.275,118.418,118.418,0,0,1-14.265,1.045c-1.665.03-3.33.09-5,.1h-6.32c-2.145.105-4.295-.21-6.43.16h-8.45c-2.12-.365-4.26-.055-6.39-.16h-6.32c-9.055,0-18.08-.445-26.97-2.555a35.232,35.232,0,0,1-12.655-5.26c-5.66-4.045-8.365-10-9-17.335-.075-.855,0-1.725-.14-2.58l-.1-2.51a34,34,0,0,0,0-6.3Z" transform="translate(0 -77.491)" fill="url(#linear-gradient)"/>
      <path id="Path_5672" data-name="Path 5672" d="M100.489,0c1.36.265,2.72.5,4.075.795a36.221,36.221,0,1,1-12.31-.49c.3-.04.685.12.855-.305Z" transform="translate(-30.389)" fill="url(#linear-gradient-2)"/>
    </g>
    <path id="Path_5673" data-name="Path 5673" d="M86.6,206.686H77.1v6.08h7.945a2.37,2.37,0,0,1,1.645.5,1.71,1.71,0,0,1,.545,1.32,1.665,1.665,0,0,1-.555,1.315,2.4,2.4,0,0,1-1.635.5h-7.93v7.83a3.15,3.15,0,0,1-.675,2.215,2.445,2.445,0,0,1-3.47,0,3.19,3.19,0,0,1-.67-2.21V205.921a3.91,3.91,0,0,1,.31-1.69,1.91,1.91,0,0,1,.96-.96,4.075,4.075,0,0,1,1.68-.3H86.6a2.46,2.46,0,0,1,1.71.5,1.725,1.725,0,0,1,.56,1.34,1.745,1.745,0,0,1-.56,1.355,2.46,2.46,0,0,1-1.71.52Z" transform="translate(-36.146 -101.481)" fill="#fff"/>
    <path id="Path_5674" data-name="Path 5674" d="M122.723,226.749h-7.265a3,3,0,0,1-2.245-.705,3.155,3.155,0,0,1-.675-2.245v-17.87a3.11,3.11,0,0,1,.69-2.26,3.062,3.062,0,0,1,2.23-.69h7.7a18.07,18.07,0,0,1,2.955.21,6.291,6.291,0,0,1,2.235.815,5.836,5.836,0,0,1,1.5,1.27,5.65,5.65,0,0,1,1.325,3.675,5.466,5.466,0,0,1-3.565,5.22q4.69,1.5,4.685,5.8a6.525,6.525,0,0,1-1,3.59,6.14,6.14,0,0,1-2.755,2.36,9.771,9.771,0,0,1-2.5.64,25.3,25.3,0,0,1-3.315.185Zm-5.365-20.155v6.145h4.4a8.77,8.77,0,0,0,2.78-.34,2.63,2.63,0,0,0,1.5-1.295,2.925,2.925,0,0,0,.4-1.5,2.364,2.364,0,0,0-1.28-2.39,9.863,9.863,0,0,0-3.91-.6Zm5,9.6h-5v6.94h5.17q4.88,0,4.88-3.5a2.87,2.87,0,0,0-1.265-2.61,6.929,6.929,0,0,0-3.775-.83Z" transform="translate(-56.263 -101.489)" fill="#fff"/>
    <path id="Path_5675" data-name="Path 5675" d="M166.841,216.584h-1.665v7.635a3.165,3.165,0,0,1-.665,2.225,2.255,2.255,0,0,1-1.735.71,2.2,2.2,0,0,1-1.78-.745,3.28,3.28,0,0,1-.635-2.19v-18.29a2.533,2.533,0,0,1,2.95-2.95h7.835a23,23,0,0,1,2.77.14,6.77,6.77,0,0,1,2.075.56,5.925,5.925,0,0,1,2,1.345,5.82,5.82,0,0,1,1.3,2.035,6.7,6.7,0,0,1,.445,2.455,5.94,5.94,0,0,1-1.5,4.25,8.609,8.609,0,0,1-4.545,2.255,8.665,8.665,0,0,1,2.445,2,20.121,20.121,0,0,1,2.085,2.83,20.967,20.967,0,0,1,1.425,2.7,5.26,5.26,0,0,1,.5,1.665,1.7,1.7,0,0,1-.3.93,2.11,2.11,0,0,1-.82.73,2.555,2.555,0,0,1-1.2.265,2.345,2.345,0,0,1-1.365-.38,3.7,3.7,0,0,1-.945-.965c-.265-.39-.625-.96-1.08-1.715l-1.93-3.215a17.686,17.686,0,0,0-1.855-2.69,4.6,4.6,0,0,0-1.665-1.265A5.74,5.74,0,0,0,166.841,216.584Zm2.755-10h-4.42v6.535h4.315a12.111,12.111,0,0,0,2.92-.3,3.41,3.41,0,0,0,1.8-1,2.915,2.915,0,0,0,.625-2,3,3,0,0,0-1.9-2.87,10.428,10.428,0,0,0-3.35-.355Z" transform="translate(-80.176 -101.489)" fill="#fff"/>
  </g>
</svg>
