<svg xmlns="http://www.w3.org/2000/svg" viewBox="0 0 322 274.62"><defs><style>.cls-1{fill:#293e65;}.cls-2{fill:#0f134c;}.cls-3{fill:#4e638b;}.cls-4{fill:#d01273;}.cls-5{fill:#b00e0e;}.cls-6{fill:#e40707;}.cls-7{fill:#ff4a4a;}</style></defs><title>Asset 143</title><g id="Layer_2" data-name="Layer 2"><g id="red"><path class="cls-1" d="M239.35,92V31a31,31,0,0,0-31-31H113.62a31,31,0,0,0-31,31V92h37.76V37.75h81.18V92Z"/><path class="cls-2" d="M208.38,0H161V37.75h40.59V92h37.76V31a31,31,0,0,0-31-31Z"/><path class="cls-3" d="M301.72,274.62H20.28A20.29,20.29,0,0,1,0,254.33V90.05A20.28,20.28,0,0,1,20.28,69.77H301.72A20.28,20.28,0,0,1,322,90.05V254.33a20.29,20.29,0,0,1-20.28,20.29Z"/><path class="cls-1" d="M301.72,69.77H161V274.62H301.72A20.29,20.29,0,0,0,322,254.33V90.05a20.28,20.28,0,0,0-20.28-20.28Z"/><path class="cls-4" d="M231.47,181a18.74,18.74,0,0,1-18.74-18.75V122.43h37.48V162.2A18.74,18.74,0,0,1,231.47,181Z"/><path class="cls-5" d="M231.47,122.43V181a18.74,18.74,0,0,0,18.74-18.75V122.43Z"/><path class="cls-6" d="M91.79,181A18.75,18.75,0,0,1,73,162.2V122.43h37.49V162.2A18.74,18.74,0,0,1,91.79,181Z"/><path class="cls-7" d="M91.79,122.43V181a18.74,18.74,0,0,0,18.74-18.75V122.43Z"/><rect class="cls-1" y="118.84" width="322" height="18.88"/><rect class="cls-2" x="161" y="118.84" width="161" height="18.88"/></g></g></svg>