<svg xmlns="http://www.w3.org/2000/svg" xmlns:xlink="http://www.w3.org/1999/xlink" viewBox="0 0 23.18 27.81"><defs><style>.cls-1{fill:none;}.cls-2{clip-path:url(#clip-path);}.cls-3{fill:#3d6dcc;}.cls-4{fill:url(#linear-gradient);}.cls-5{fill:#0c83fa;}.cls-6{fill:url(#linear-gradient-2);}</style><clipPath id="clip-path"><rect class="cls-1" width="23.18" height="27.81"/></clipPath><linearGradient id="linear-gradient" x1="6.95" y1="23.18" x2="16.22" y2="23.18" gradientUnits="userSpaceOnUse"><stop offset="0" stop-color="#3fa9f5"/><stop offset="0.58" stop-color="#0087ee"/><stop offset="1" stop-color="#0c83fa"/></linearGradient><linearGradient id="linear-gradient-2" y1="12.75" x2="23.18" y2="12.75" gradientUnits="userSpaceOnUse"><stop offset="0" stop-color="#f37e5f"/><stop offset="0.18" stop-color="#f15f4c"/><stop offset="0.52" stop-color="#ec1c24"/><stop offset="1" stop-color="#cf232a"/></linearGradient></defs><g id="Layer_2" data-name="Layer 2"><g id="Business"><g class="cls-2"><path class="cls-3" d="M11.59,4.64a1.16,1.16,0,0,1-1.16-1.16V1.16a1.16,1.16,0,0,1,2.32,0V3.48a1.16,1.16,0,0,1-1.16,1.16Z"/></g><path class="cls-4" d="M11.59,18.54a4.64,4.64,0,1,0,4.63,4.64A4.64,4.64,0,0,0,11.59,18.54Z"/><path class="cls-5" d="M11.59,0a1.16,1.16,0,0,0-1.16,1.16V2.4a8.8,8.8,0,0,1,1.16-.08Z"/><path class="cls-6" d="M22.46,19.6a7.74,7.74,0,0,1-2.76-5.94V10.43a8.12,8.12,0,0,0-8.11-8.11,8.93,8.93,0,0,0-1,.07h-.12l-.27.05-.32.06-.45.12-.29.08-.46.17L8.39,3c-.18.07-.34.16-.51.24l-.17.09a6.82,6.82,0,0,0-.64.39L7,3.78c-.16.12-.33.24-.48.37l-.2.17-.36.33-.21.21-.3.33-.19.25c-.09.11-.18.23-.26.35a2.4,2.4,0,0,0-.18.26l-.23.37-.15.29c-.07.13-.13.26-.19.39s-.09.19-.13.29l-.15.42c0,.1-.07.2-.1.3s-.08.3-.12.46-.05.19-.07.29-.06.35-.08.52l0,.25a7.14,7.14,0,0,0,0,.8v3.23A7.79,7.79,0,0,1,.71,19.61,2,2,0,0,0,0,21.15a2,2,0,0,0,2,2H21.15a2,2,0,0,0,1.31-3.58Z"/></g></g></svg>