<svg xmlns="http://www.w3.org/2000/svg" xmlns:xlink="http://www.w3.org/1999/xlink" viewBox="0 0 310.32 322"><defs><style>.cls-1{fill:none;}.cls-2{fill:#e40707;}.cls-3{fill:#64b5f6;}.cls-4{clip-path:url(#clip-path);}.cls-5{fill:#ff4a4a;}.cls-6{fill:#b00e0e;}.cls-7{fill:#d01273;}.cls-8{fill:#cfd8dc;}.cls-9{fill:#b4bcc0;}</style><clipPath id="clip-path"><rect class="cls-1" y="11.68" width="310.32" height="310.32"/></clipPath></defs><title>Asset 132</title><g id="Layer_2" data-name="Layer 2"><g id="red"><path class="cls-2" d="M155.16,128.05,0,199.16l155.16,71.12,155.16-71.12Z"/><path class="cls-3" d="M0,199.16v51.72L155.16,322V270.28Z"/><g class="cls-4"><path class="cls-5" d="M155.16,322V270.28l155.16-71.12v51.72Z"/></g><path class="cls-6" d="M154.94,127.3l-32.1,15.57L0,199.16l155.16,71.12V192.7"/><path class="cls-7" d="M0,199.16v51.72L155.16,322V270.28Z"/><path class="cls-8" d="M138.36.23,170.69,0A16.18,16.18,0,0,1,187,16.05l.56,77.58,35.56-.26a9.69,9.69,0,0,1,7,16.5l-67.4,68.37a9.7,9.7,0,0,1-13.72.1l-68.36-67.4a9.69,9.69,0,0,1,6.73-16.6l35.57-.25-.55-77.58a16.18,16.18,0,0,1,16-16.28Z"/><path class="cls-9" d="M155.82,181.13a9.59,9.59,0,0,0,6.83-2.89l67.4-68.37a9.69,9.69,0,0,0-7-16.5l-35.56.26L187,16.05A16.18,16.18,0,0,0,170.69,0L154.52.12Z"/></g></g></svg>