<svg xmlns="http://www.w3.org/2000/svg" viewBox="0 0 322 313.22"><defs><style>.cls-1{fill:#cdd0d2;}.cls-2{fill:#eceff1;}.cls-3{fill:#396973;}.cls-4{fill:#2d4a59;}.cls-5{fill:#c6151d;}.cls-6{fill:#0c83fa;}.cls-7{fill:#ffea80;}.cls-8{fill:#ecfffc;}.cls-9{fill:#b00e0e;}.cls-10{fill:#3d6dcc;}.cls-11{fill:#1f364d;}.cls-12{fill:#d4f4ee;}.cls-13{fill:#559aff;}.cls-14{fill:#257dff;}.cls-15{fill:#6aa7ff;}.cls-16{fill:#5399ff;}.cls-17{fill:#428fff;}.cls-18{fill:#82b5ff;}.cls-19{fill:#9ac3ff;}.cls-20{fill:#3888ff;}</style></defs><title>Asset 209</title><g id="Layer_2" data-name="Layer 2"><g id="red"><path class="cls-1" d="M268.88,120.34,216.34,74.11V14.34h52.54Z" transform="translate(0 0)"/><path class="cls-2" d="M172.56,27.07,58.73,126.72V243.17h50.09l17.51-52.53h92.46l17.51,52.53h50.09V126.72Z" transform="translate(0 0)"/><path class="cls-1" d="M218.79,190.64l17.51,52.53h50.09V126.72L172.56,27.07V190.64Z" transform="translate(0 0)"/><path class="cls-3" d="M113.72,173.12l-23.29,70h82.13l17.51-35-17.51-35Z" transform="translate(0 0)"/><path class="cls-4" d="M254.69,243.17H172.56v-70H231.4Z" transform="translate(0 0)"/><path class="cls-5" d="M322,295.71H268.88V287a8.76,8.76,0,0,0-17.51,0v8.76H93.75V287a8.76,8.76,0,0,0-17.51,0v8.76H23.12V251.93a26.31,26.31,0,0,1,26.27-26.27H295.73A26.3,26.3,0,0,1,322,251.93Z" transform="translate(0 0)"/><path class="cls-6" d="M172.56,138.1a26.27,26.27,0,1,1,26.27-26.27,26.31,26.31,0,0,1-26.27,26.27Z" transform="translate(0 0)"/><path class="cls-7" d="M75.66,31.86H58.15V14.34H40.63V31.86H23.12V49.37H40.63V66.88H58.15V49.37H75.66Z" transform="translate(0 0)"/><path class="cls-4" d="M85,313.22A26.27,26.27,0,1,1,111.27,287,26.29,26.29,0,0,1,85,313.22Z" transform="translate(0 0)"/><path class="cls-8" d="M93.75,287A8.76,8.76,0,1,1,85,278.2,8.75,8.75,0,0,1,93.75,287Z" transform="translate(0 0)"/><path class="cls-5" d="M306.9,153.45,172.56,35.91,38.23,153.45,26.7,140.26,172.56,14.34,318.42,140.26Z" transform="translate(0 0)"/><path class="cls-9" d="M295.73,225.66H172.56v70h78.81V287a8.76,8.76,0,0,1,17.51,0v8.76H322V251.93a26.3,26.3,0,0,0-26.27-26.27Z" transform="translate(0 0)"/><path class="cls-9" d="M306.9,153.45l11.52-13.19L172.56,14.34V35.91Z" transform="translate(0 0)"/><path class="cls-10" d="M198.83,111.83a26.31,26.31,0,0,0-26.27-26.27V138.1a26.31,26.31,0,0,0,26.27-26.27Z" transform="translate(0 0)"/><path class="cls-11" d="M260.12,313.22A26.27,26.27,0,1,1,286.39,287a26.3,26.3,0,0,1-26.27,26.27Z" transform="translate(0 0)"/><path class="cls-12" d="M268.88,287a8.76,8.76,0,1,1-8.76-8.75,8.76,8.76,0,0,1,8.76,8.75Z" transform="translate(0 0)"/><path class="cls-13" d="M44.78,5.34,5.34,44.78A18.23,18.23,0,0,0,0,57.67V91.13a9.11,9.11,0,0,0,9.11,9.12h82a9.12,9.12,0,0,0,9.12-9.12v-82A9.11,9.11,0,0,0,91.13,0H57.67A18.23,18.23,0,0,0,44.78,5.34Zm0,0" transform="translate(0 0)"/><path class="cls-14" d="M40.23,5.34,5.34,40.23A18.22,18.22,0,0,0,0,53.12v38a9.11,9.11,0,0,0,9.11,9.12h82a9.12,9.12,0,0,0,9.12-9.12v-82A9.11,9.11,0,0,0,91.13,0h-38A18.22,18.22,0,0,0,40.23,5.34Zm0,0" transform="translate(0 0)"/><path class="cls-15" d="M22.78,22.78V77.46L77.46,22.78Zm0,0" transform="translate(0 0)"/><path class="cls-16" d="M22.78,77.46V22.78L5.34,40.23A18.14,18.14,0,0,0,1.1,47.1Zm0,0" transform="translate(0 0)"/><path class="cls-17" d="M1.1,47.1a17.91,17.91,0,0,0-1.1,6v38a9.12,9.12,0,0,0,2.67,6.45L22.78,77.46Zm0,0" transform="translate(0 0)"/><path class="cls-18" d="M47.1,1.1a18.14,18.14,0,0,0-6.87,4.24L22.78,22.78H77.46Zm0,0" transform="translate(0 0)"/><path class="cls-19" d="M77.46,22.78,97.58,2.67A9.12,9.12,0,0,0,91.13,0h-38a17.91,17.91,0,0,0-6,1.1Zm0,0" transform="translate(0 0)"/><path class="cls-20" d="M77.46,22.78,22.78,77.46l73,21.47a9,9,0,0,0,3.15-3.15Zm0,0" transform="translate(0 0)"/><path class="cls-13" d="M77.46,22.78l21.47,73a9,9,0,0,0,1.32-4.65v-82a9.11,9.11,0,0,0-2.67-6.44Zm0,0" transform="translate(0 0)"/></g></g></svg>