<?xml version="1.0" encoding="utf-8"?>
<!-- Generator: Adobe Illustrator 24.3.0, SVG Export Plug-In . SVG Version: 6.00 Build 0)  -->
<svg version="1.1" id="Layer_1" xmlns="http://www.w3.org/2000/svg" xmlns:xlink="http://www.w3.org/1999/xlink" x="0px" y="0px"
	 viewBox="0 0 446.71 446.71" style="enable-background:new 0 0 446.71 446.71;" xml:space="preserve">
<style type="text/css">
	.st0{fill:#02579F;}
	.st1{fill:#F8A51A;}
	.st2{fill:#024697;}
	.st3{fill:#FFFFFF;}
	.st4{fill:#000003;}
	.st5{fill:#E60B27;}
	.st6{fill:#F0692D;}
	.st7{fill:#F39E2E;}
	.st8{fill:#0F598C;}
	.st9{fill:#FBEEEF;}
	.st10{fill:#D60918;}
	.st11{fill:#138284;}
	.st12{fill:#322D3C;}
	.st13{fill:#26B15D;}
	.st14{fill:#014268;}
	.st15{fill:#9ABA3B;}
</style>
<g>
	<path class="st12" d="M163.24,255.6c1.87-2.32,3.8-4.72,5.76-7.14c1.7,1.65,3.12,3.19,4.71,4.55c3.46,2.96,7.49,4.2,12.03,3.51
		c6.8-1.03,10.82-5.32,11.64-12.41c0.15-1.32,0.02-2.68,0.02-4.39c-0.51,0.77-0.88,1.27-1.19,1.8c-2.15,3.68-5.42,5.77-9.55,6.42
		c-2.94,0.46-5.91,0.41-8.81-0.44c-5.13-1.51-8.44-4.9-9.84-9.99c-0.6-2.17-0.97-4.48-1-6.73c-0.11-9.53-0.05-19.06-0.04-28.6
		c0-0.57,0.13-1.14,0.21-1.88c3.68,0,7.26,0,11.11,0c0,1.12,0,2.03,0,2.94c0,7.34-0.03,14.68,0.02,22.02
		c0.01,1.93,0.17,3.88,0.45,5.79c0.65,4.5,3.05,6.47,7.6,6.38c4.07-0.08,7.12-1.86,9.05-5.48c1.38-2.59,2.02-5.38,2.06-8.27
		c0.09-6.66,0.08-13.33,0.12-19.99c0-1.01,0-2.01,0-3.38c3.8-0.3,7.44-0.19,11.28-0.07c0.06,1.04,0.14,1.86,0.14,2.68
		c0.02,12.15,0.09,24.29,0.01,36.44c-0.02,2.85-0.3,5.75-0.9,8.53c-1.56,7.33-5.81,12.64-12.78,15.61c-9.6,4.09-18.69,2.6-27.32-2.8
		C165.71,259.27,164.47,257.79,163.24,255.6z"/>
	<path class="st12" d="M217.23,200.31c3.91,0,7.43,0,11.19,0c0,2.2,0,4.27,0,6.84c0.72-0.68,1.1-0.96,1.39-1.32
		c6.95-8.49,21.77-6.97,27.39,2.69c2.08,3.58,3.16,7.44,3.61,11.49c0.64,5.86,0.21,11.62-2.03,17.15
		c-4.85,12.03-19.56,13.84-27.24,7.37c-0.95-0.8-1.77-1.75-3.05-3.04c0,8.36,0,16.21,0,24.2c-3.8,0-7.32,0-11.24,0
		C217.17,243.94,217.24,222.24,217.23,200.31z M249.84,225.69c-0.21-4.2-0.6-7.11-1.97-9.8c-1.81-3.56-4.69-5.38-8.74-5.4
		c-3.9-0.02-6.71,1.82-8.35,5.16c-2.75,5.59-2.87,11.39-0.29,17.08c1.73,3.82,4.87,5.78,9.1,5.65c4.14-0.13,7.09-2.3,8.57-6.06
		C249.12,229.85,249.48,227.15,249.84,225.69z"/>
	<path class="st12" d="M298.18,206.52c0-2.28,0-4.11,0-6.15c3.8,0,7.38,0,10.94,0c0.61,1.83,0.79,44.1,0.18,47.58
		c-3.56,0-7.15,0-11.04,0c0-2.01,0-4,0-6.47c-0.76,0.64-1.15,0.89-1.44,1.22c-7.57,8.74-22.22,6.55-27.6-3.4
		c-2.98-5.51-3.96-11.48-3.43-17.62c0.28-3.32,0.92-6.71,2.03-9.85c4.85-13.75,22.44-14.75,29.32-6.13
		C297.28,205.89,297.51,206.01,298.18,206.52z M298.02,223.86c0-3.17-0.55-6.22-2.16-8.98c-1.9-3.24-4.69-4.94-8.56-4.81
		c-3.84,0.13-6.73,1.82-8.32,5.22c-2.68,5.73-2.71,11.6,0.02,17.33c1.61,3.39,4.43,5.23,8.27,5.32c3.93,0.09,6.79-1.71,8.69-5.08
		C297.52,230.07,298.04,227.03,298.02,223.86z"/>
	<path class="st12" d="M415.26,206.64c0-2.2,0-4.17,0-6.34c3.8,0,7.39,0,11.14,0c0,15.95,0,31.74,0,47.68c-3.65,0-7.17,0-11,0
		c0-2.13,0-4.25,0-6.37c-0.16-0.04-0.31-0.09-0.47-0.13c-0.37,0.41-0.76,0.82-1.12,1.24c-7.45,8.67-21.25,6.11-26.51-1.7
		c-2.57-3.81-3.92-8.04-4.37-12.52c-0.55-5.57-0.17-11.06,1.7-16.45c4.87-14.01,22.98-15.12,29.8-6.02
		C414.56,206.22,414.81,206.32,415.26,206.64z M414.96,224.84c0.04-4.5-0.76-7.59-2.13-10.05c-3.59-6.47-13.38-6.31-16.66,0.16
		c-3.05,6.02-3.15,12.25,0.13,18.18c3.64,6.57,12.52,6.53,16.43,0.11C414.45,230.4,414.98,227.28,414.96,224.84z"/>
	<path class="st12" d="M114.35,247.98c-3.96,0-7.48,0-11.27,0c0-2.11,0-4.08,0-6.05c-0.23-0.13-0.46-0.26-0.69-0.39
		c-0.36,0.55-0.65,1.17-1.1,1.63c-6.83,7.04-18.98,6.51-25.24-1.05c-2.72-3.29-4.18-7.11-4.86-11.25
		c-0.85-5.12-1.02-10.26,0.32-15.31c0.58-2.18,1.39-4.34,2.4-6.35c5.3-10.54,20.84-11.9,27.84-3.8c0.27,0.31,0.32,0.8,0.48,1.21
		c0.25-0.16,0.5-0.33,0.75-0.49c0-1.8,0-3.61,0-5.31c2.07-0.79,7.71-0.96,11.33-0.35C114.43,216.18,114.42,231.97,114.35,247.98z
		 M81.97,221.67c-0.01,4.37,0.22,7.64,1.72,10.67c1.71,3.45,4.45,5.44,8.39,5.59c4.06,0.15,7.12-1.63,8.83-5.21
		c2.64-5.52,2.82-11.26,0.35-16.89c-1.67-3.8-4.68-5.86-9-5.78c-4.3,0.08-7.23,2.26-8.83,6.06
		C82.58,218.16,82.28,220.46,81.97,221.67z"/>
	<path class="st12" d="M377.49,213.45c-1.45,0.64-2.98,1.33-4.52,1.99c-1.15,0.49-2.32,0.95-3.6,1.47
		c-0.33-0.68-0.49-1.27-0.85-1.69c-1.02-1.2-1.91-2.7-3.22-3.42c-4.35-2.36-9.02-2.66-13.75-1.14c-1.57,0.5-2.93,1.36-3.18,3.23
		c0.25,1.73,1.59,2.35,2.99,2.72c2.85,0.75,5.76,1.3,8.62,2.04c3.18,0.83,6.41,1.57,9.48,2.72c3.58,1.34,6.55,3.63,7.75,7.48
		c1.43,4.61,0.54,8.84-2.61,12.53c-1.72,2.02-3.86,3.57-6.33,4.53c-7.1,2.78-14.36,3.11-21.58,0.65
		c-5.77-1.96-9.88-5.75-11.39-11.88c-0.14-0.56-0.16-1.15-0.26-2c2.93-1.4,5.86-2.8,8.81-4.21c2.75,7.83,8.31,11.07,16.41,9.61
		c1.54-0.28,3.16-0.78,4.46-1.62c3.17-2.05,2.9-5.53-0.65-6.73c-3.41-1.15-7.07-1.56-10.59-2.43c-3.19-0.79-6.46-1.43-9.46-2.71
		c-4.94-2.1-7.25-6.12-6.95-11.51c0.19-3.4,1.78-6.1,4.32-8.27c2.92-2.49,6.46-3.63,10.16-4.27c4.9-0.86,9.76-0.55,14.56,0.79
		c2.9,0.81,5.48,2.2,7.72,4.21C376.31,207.78,377.49,210.33,377.49,213.45z"/>
	<path class="st12" d="M160.76,212.85c-2.62,1.39-5.13,2.71-7.95,4.21c-0.81-3.47-3.03-5.31-5.99-6.27
		c-3.79-1.22-7.65-1.36-11.48-0.16c-1.58,0.5-2.92,1.36-3.26,3.22c0.28,1.78,1.68,2.46,3.17,2.83c3.69,0.91,7.44,1.59,11.1,2.57
		c2.76,0.74,5.54,1.58,8.13,2.77c9.63,4.43,8.25,15.47,2.76,20.46c-2.77,2.52-6.04,4.01-9.65,4.8c-7.06,1.55-13.96,1.27-20.48-2.18
		c-4.35-2.31-7.09-5.91-8.19-10.71c-0.11-0.48-0.09-0.99-0.15-1.72c2.85-1.37,5.72-2.75,8.49-4.08c0.32,0.26,0.52,0.34,0.55,0.46
		c1.05,5.22,4.52,7.86,9.5,8.93c2.61,0.56,5.21,0.61,7.79-0.08c1.05-0.28,2.09-0.7,3.02-1.25c1.46-0.85,2.49-2.14,2.34-3.92
		c-0.15-1.84-1.51-2.86-3.14-3.26c-3.36-0.82-6.79-1.35-10.16-2.15c-3.03-0.72-6.1-1.43-9.01-2.53c-4.51-1.7-7.05-5.1-7.39-9.97
		c-0.37-5.19,2-8.92,6.39-11.47c4.78-2.77,10.03-3.42,15.43-3.2c4,0.17,7.91,0.88,11.47,2.86
		C157.82,205.12,160.48,207.96,160.76,212.85z"/>
	<path class="st12" d="M21.32,219.89c0.6-4.02,1.69-7.74,3.98-10.96c5.45-7.68,13.21-10.12,22.21-9.19
		c5.81,0.6,10.63,3.24,13.92,8.22c4.16,6.3,4.14,16.71-6.49,20.45c-10.26,3.61-20.26,3.29-29.41-3.41
		C23.75,223.69,22.28,222.08,21.32,219.89z M31.72,218.91c3.9,2.45,8.14,2.85,12.46,2.58c1.82-0.11,3.71-0.52,5.38-1.22
		c3.41-1.43,4.06-5.2,1.52-7.87c-1.26-1.32-2.82-2.19-4.66-2.28c-1.76-0.09-3.56-0.15-5.29,0.09
		C36.46,210.85,32.83,214.2,31.72,218.91z"/>
	<path class="st12" d="M328.5,247.99c-3.82,0-7.33,0-11.03,0c0-15.88,0-31.61,0-47.34c1.68-0.64,8.54-0.7,11.03-0.07
		C328.5,216.28,328.5,232.02,328.5,247.99z"/>
	<path class="st13" d="M65.95,235.94c-1.89,4.39-4.97,7.35-8.88,9.34c-8.51,4.33-17.22,4.75-25.77,0.18
		c-7.36-3.94-10.73-10.44-10.98-18.65c-0.01-0.3,0.05-0.6,0.12-1.36c0.7,1.16,1.16,1.93,1.64,2.7c5.06,8.11,15.83,12.53,25.11,10.33
		c4.42-1.05,7.79-3.52,10.25-7.58c1.44,0.84,2.81,1.62,4.16,2.42C62.98,234.14,64.34,234.98,65.95,235.94z"/>
	<path class="st13" d="M322.87,194.89c-4-0.02-7.09-3.15-7.01-7.07c0.08-3.88,3.37-7.05,7.22-6.96c3.8,0.09,6.85,3.2,6.88,7.01
		C329.98,191.75,326.78,194.91,322.87,194.89z"/>
</g>
</svg>
